G04 #@! TF.GenerationSoftware,KiCad,Pcbnew,(5.1.5)-3*
G04 #@! TF.CreationDate,2020-04-23T11:09:22+02:00*
G04 #@! TF.ProjectId,RulleGardin,52756c6c-6547-4617-9264-696e2e6b6963,rev?*
G04 #@! TF.SameCoordinates,Original*
G04 #@! TF.FileFunction,Legend,Top*
G04 #@! TF.FilePolarity,Positive*
%FSLAX46Y46*%
G04 Gerber Fmt 4.6, Leading zero omitted, Abs format (unit mm)*
G04 Created by KiCad (PCBNEW (5.1.5)-3) date 2020-04-23 11:09:22*
%MOMM*%
%LPD*%
G04 APERTURE LIST*
%ADD10C,0.120000*%
%ADD11C,0.150000*%
G04 APERTURE END LIST*
D10*
X162180000Y-96300000D02*
X161570000Y-96300000D01*
X162180000Y-96300000D02*
X162180000Y-88680000D01*
X162180000Y-112920000D02*
X162180000Y-112300000D01*
X164300000Y-112920000D02*
X162180000Y-112920000D01*
X178420000Y-112920000D02*
X176300000Y-112920000D01*
X178420000Y-112300000D02*
X178420000Y-112920000D01*
X178420000Y-88680000D02*
X178420000Y-96300000D01*
X162180000Y-88680000D02*
X178420000Y-88680000D01*
X157190000Y-97541422D02*
X157190000Y-98058578D01*
X158610000Y-97541422D02*
X158610000Y-98058578D01*
X196091422Y-88710000D02*
X196608578Y-88710000D01*
X196091422Y-87290000D02*
X196608578Y-87290000D01*
X191091422Y-88710000D02*
X191608578Y-88710000D01*
X191091422Y-87290000D02*
X191608578Y-87290000D01*
X196091422Y-90710000D02*
X196608578Y-90710000D01*
X196091422Y-89290000D02*
X196608578Y-89290000D01*
X191091422Y-90710000D02*
X191608578Y-90710000D01*
X191091422Y-89290000D02*
X191608578Y-89290000D01*
X196163422Y-92710000D02*
X196680578Y-92710000D01*
X196163422Y-91290000D02*
X196680578Y-91290000D01*
X191091422Y-92710000D02*
X191608578Y-92710000D01*
X191091422Y-91290000D02*
X191608578Y-91290000D01*
X173985422Y-116788000D02*
X174502578Y-116788000D01*
X173985422Y-115368000D02*
X174502578Y-115368000D01*
X184399422Y-116710000D02*
X184916578Y-116710000D01*
X184399422Y-115290000D02*
X184916578Y-115290000D01*
X179836578Y-115290000D02*
X179319422Y-115290000D01*
X179836578Y-116710000D02*
X179319422Y-116710000D01*
X159190000Y-97503922D02*
X159190000Y-98021078D01*
X160610000Y-97503922D02*
X160610000Y-98021078D01*
X188378922Y-116710000D02*
X188896078Y-116710000D01*
X188378922Y-115290000D02*
X188896078Y-115290000D01*
X200003922Y-92810000D02*
X200521078Y-92810000D01*
X200003922Y-91390000D02*
X200521078Y-91390000D01*
X158410000Y-105821078D02*
X158410000Y-105303922D01*
X156990000Y-105821078D02*
X156990000Y-105303922D01*
X157090000Y-101603922D02*
X157090000Y-102121078D01*
X158510000Y-101603922D02*
X158510000Y-102121078D01*
X148580000Y-97780000D02*
X156430000Y-97780000D01*
X156430000Y-97780000D02*
X156430000Y-109720000D01*
X156430000Y-109720000D02*
X148580000Y-109720000D01*
X148580000Y-109720000D02*
X148580000Y-97780000D01*
X150700000Y-97450000D02*
X148250000Y-97450000D01*
X148250000Y-97450000D02*
X148250000Y-99780000D01*
X182600000Y-114400000D02*
X195430000Y-114400000D01*
X182600000Y-93820000D02*
X182600000Y-114400000D01*
X198100000Y-93820000D02*
X182600000Y-93820000D01*
X198100000Y-111730000D02*
X198100000Y-93820000D01*
X195430000Y-111730000D02*
X198100000Y-111730000D01*
X195430000Y-114400000D02*
X195430000Y-111730000D01*
X198100000Y-114400000D02*
X198100000Y-113000000D01*
X196700000Y-114400000D02*
X198100000Y-114400000D01*
X195430000Y-111730000D02*
X195430000Y-93820000D01*
X185270000Y-114400000D02*
X185270000Y-93820000D01*
X198670000Y-109870000D02*
X201330000Y-109870000D01*
X198670000Y-99650000D02*
X198670000Y-109870000D01*
X201330000Y-99650000D02*
X201330000Y-109870000D01*
X198670000Y-99650000D02*
X201330000Y-99650000D01*
X198670000Y-98380000D02*
X198670000Y-97050000D01*
X198670000Y-97050000D02*
X200000000Y-97050000D01*
D11*
X188625000Y-100370000D02*
X188625000Y-100395000D01*
X192775000Y-100370000D02*
X192775000Y-100475000D01*
X192775000Y-110520000D02*
X192775000Y-110415000D01*
X188625000Y-110520000D02*
X188625000Y-110415000D01*
X188625000Y-100370000D02*
X192775000Y-100370000D01*
X188625000Y-110520000D02*
X192775000Y-110520000D01*
X188625000Y-100395000D02*
X187250000Y-100395000D01*
D10*
X185407000Y-92578000D02*
X185407000Y-92643000D01*
X181877000Y-92578000D02*
X181877000Y-92643000D01*
X185407000Y-88713000D02*
X185407000Y-88778000D01*
X181877000Y-88713000D02*
X181877000Y-88778000D01*
X180552000Y-88778000D02*
X181877000Y-88778000D01*
X181877000Y-92643000D02*
X185407000Y-92643000D01*
X181877000Y-88713000D02*
X185407000Y-88713000D01*
X159212000Y-95472000D02*
X159512000Y-94872000D01*
X159812000Y-95472000D02*
X159212000Y-95472000D01*
X159512000Y-94872000D02*
X159812000Y-95472000D01*
X157742000Y-90822000D02*
X157742000Y-91122000D01*
X158212000Y-90822000D02*
X157742000Y-90822000D01*
X158212000Y-91122000D02*
X158212000Y-90822000D01*
X157742000Y-91122000D02*
X158212000Y-91122000D01*
X157742000Y-93322000D02*
X157742000Y-93622000D01*
X158212000Y-93322000D02*
X157742000Y-93322000D01*
X158212000Y-93622000D02*
X158212000Y-93322000D01*
X157742000Y-93622000D02*
X158212000Y-93622000D01*
X148982000Y-89102000D02*
X148982000Y-95342000D01*
X157742000Y-89102000D02*
X148982000Y-89102000D01*
X157742000Y-95342000D02*
X157742000Y-89102000D01*
X148982000Y-95342000D02*
X157742000Y-95342000D01*
D11*
X158978095Y-94992380D02*
X158978095Y-95801904D01*
X159025714Y-95897142D01*
X159073333Y-95944761D01*
X159168571Y-95992380D01*
X159359047Y-95992380D01*
X159454285Y-95944761D01*
X159501904Y-95897142D01*
X159549523Y-95801904D01*
X159549523Y-94992380D01*
X160549523Y-95992380D02*
X159978095Y-95992380D01*
X160263809Y-95992380D02*
X160263809Y-94992380D01*
X160168571Y-95135238D01*
X160073333Y-95230476D01*
X159978095Y-95278095D01*
X160002380Y-98442857D02*
X159526190Y-98776190D01*
X160002380Y-99014285D02*
X159002380Y-99014285D01*
X159002380Y-98633333D01*
X159050000Y-98538095D01*
X159097619Y-98490476D01*
X159192857Y-98442857D01*
X159335714Y-98442857D01*
X159430952Y-98490476D01*
X159478571Y-98538095D01*
X159526190Y-98633333D01*
X159526190Y-99014285D01*
X160002380Y-97490476D02*
X160002380Y-98061904D01*
X160002380Y-97776190D02*
X159002380Y-97776190D01*
X159145238Y-97871428D01*
X159240476Y-97966666D01*
X159288095Y-98061904D01*
X160002380Y-96538095D02*
X160002380Y-97109523D01*
X160002380Y-96823809D02*
X159002380Y-96823809D01*
X159145238Y-96919047D01*
X159240476Y-97014285D01*
X159288095Y-97109523D01*
X195707142Y-86802380D02*
X195373809Y-86326190D01*
X195135714Y-86802380D02*
X195135714Y-85802380D01*
X195516666Y-85802380D01*
X195611904Y-85850000D01*
X195659523Y-85897619D01*
X195707142Y-85992857D01*
X195707142Y-86135714D01*
X195659523Y-86230952D01*
X195611904Y-86278571D01*
X195516666Y-86326190D01*
X195135714Y-86326190D01*
X196659523Y-86802380D02*
X196088095Y-86802380D01*
X196373809Y-86802380D02*
X196373809Y-85802380D01*
X196278571Y-85945238D01*
X196183333Y-86040476D01*
X196088095Y-86088095D01*
X197278571Y-85802380D02*
X197373809Y-85802380D01*
X197469047Y-85850000D01*
X197516666Y-85897619D01*
X197564285Y-85992857D01*
X197611904Y-86183333D01*
X197611904Y-86421428D01*
X197564285Y-86611904D01*
X197516666Y-86707142D01*
X197469047Y-86754761D01*
X197373809Y-86802380D01*
X197278571Y-86802380D01*
X197183333Y-86754761D01*
X197135714Y-86707142D01*
X197088095Y-86611904D01*
X197040476Y-86421428D01*
X197040476Y-86183333D01*
X197088095Y-85992857D01*
X197135714Y-85897619D01*
X197183333Y-85850000D01*
X197278571Y-85802380D01*
X191183333Y-86802380D02*
X190850000Y-86326190D01*
X190611904Y-86802380D02*
X190611904Y-85802380D01*
X190992857Y-85802380D01*
X191088095Y-85850000D01*
X191135714Y-85897619D01*
X191183333Y-85992857D01*
X191183333Y-86135714D01*
X191135714Y-86230952D01*
X191088095Y-86278571D01*
X190992857Y-86326190D01*
X190611904Y-86326190D01*
X191659523Y-86802380D02*
X191850000Y-86802380D01*
X191945238Y-86754761D01*
X191992857Y-86707142D01*
X192088095Y-86564285D01*
X192135714Y-86373809D01*
X192135714Y-85992857D01*
X192088095Y-85897619D01*
X192040476Y-85850000D01*
X191945238Y-85802380D01*
X191754761Y-85802380D01*
X191659523Y-85850000D01*
X191611904Y-85897619D01*
X191564285Y-85992857D01*
X191564285Y-86230952D01*
X191611904Y-86326190D01*
X191659523Y-86373809D01*
X191754761Y-86421428D01*
X191945238Y-86421428D01*
X192040476Y-86373809D01*
X192088095Y-86326190D01*
X192135714Y-86230952D01*
X196183333Y-88802380D02*
X195850000Y-88326190D01*
X195611904Y-88802380D02*
X195611904Y-87802380D01*
X195992857Y-87802380D01*
X196088095Y-87850000D01*
X196135714Y-87897619D01*
X196183333Y-87992857D01*
X196183333Y-88135714D01*
X196135714Y-88230952D01*
X196088095Y-88278571D01*
X195992857Y-88326190D01*
X195611904Y-88326190D01*
X196754761Y-88230952D02*
X196659523Y-88183333D01*
X196611904Y-88135714D01*
X196564285Y-88040476D01*
X196564285Y-87992857D01*
X196611904Y-87897619D01*
X196659523Y-87850000D01*
X196754761Y-87802380D01*
X196945238Y-87802380D01*
X197040476Y-87850000D01*
X197088095Y-87897619D01*
X197135714Y-87992857D01*
X197135714Y-88040476D01*
X197088095Y-88135714D01*
X197040476Y-88183333D01*
X196945238Y-88230952D01*
X196754761Y-88230952D01*
X196659523Y-88278571D01*
X196611904Y-88326190D01*
X196564285Y-88421428D01*
X196564285Y-88611904D01*
X196611904Y-88707142D01*
X196659523Y-88754761D01*
X196754761Y-88802380D01*
X196945238Y-88802380D01*
X197040476Y-88754761D01*
X197088095Y-88707142D01*
X197135714Y-88611904D01*
X197135714Y-88421428D01*
X197088095Y-88326190D01*
X197040476Y-88278571D01*
X196945238Y-88230952D01*
X191183333Y-88802380D02*
X190850000Y-88326190D01*
X190611904Y-88802380D02*
X190611904Y-87802380D01*
X190992857Y-87802380D01*
X191088095Y-87850000D01*
X191135714Y-87897619D01*
X191183333Y-87992857D01*
X191183333Y-88135714D01*
X191135714Y-88230952D01*
X191088095Y-88278571D01*
X190992857Y-88326190D01*
X190611904Y-88326190D01*
X191516666Y-87802380D02*
X192183333Y-87802380D01*
X191754761Y-88802380D01*
X196255333Y-90802380D02*
X195922000Y-90326190D01*
X195683904Y-90802380D02*
X195683904Y-89802380D01*
X196064857Y-89802380D01*
X196160095Y-89850000D01*
X196207714Y-89897619D01*
X196255333Y-89992857D01*
X196255333Y-90135714D01*
X196207714Y-90230952D01*
X196160095Y-90278571D01*
X196064857Y-90326190D01*
X195683904Y-90326190D01*
X197112476Y-89802380D02*
X196922000Y-89802380D01*
X196826761Y-89850000D01*
X196779142Y-89897619D01*
X196683904Y-90040476D01*
X196636285Y-90230952D01*
X196636285Y-90611904D01*
X196683904Y-90707142D01*
X196731523Y-90754761D01*
X196826761Y-90802380D01*
X197017238Y-90802380D01*
X197112476Y-90754761D01*
X197160095Y-90707142D01*
X197207714Y-90611904D01*
X197207714Y-90373809D01*
X197160095Y-90278571D01*
X197112476Y-90230952D01*
X197017238Y-90183333D01*
X196826761Y-90183333D01*
X196731523Y-90230952D01*
X196683904Y-90278571D01*
X196636285Y-90373809D01*
X191183333Y-90802380D02*
X190850000Y-90326190D01*
X190611904Y-90802380D02*
X190611904Y-89802380D01*
X190992857Y-89802380D01*
X191088095Y-89850000D01*
X191135714Y-89897619D01*
X191183333Y-89992857D01*
X191183333Y-90135714D01*
X191135714Y-90230952D01*
X191088095Y-90278571D01*
X190992857Y-90326190D01*
X190611904Y-90326190D01*
X192088095Y-89802380D02*
X191611904Y-89802380D01*
X191564285Y-90278571D01*
X191611904Y-90230952D01*
X191707142Y-90183333D01*
X191945238Y-90183333D01*
X192040476Y-90230952D01*
X192088095Y-90278571D01*
X192135714Y-90373809D01*
X192135714Y-90611904D01*
X192088095Y-90707142D01*
X192040476Y-90754761D01*
X191945238Y-90802380D01*
X191707142Y-90802380D01*
X191611904Y-90754761D01*
X191564285Y-90707142D01*
X174077333Y-114880380D02*
X173744000Y-114404190D01*
X173505904Y-114880380D02*
X173505904Y-113880380D01*
X173886857Y-113880380D01*
X173982095Y-113928000D01*
X174029714Y-113975619D01*
X174077333Y-114070857D01*
X174077333Y-114213714D01*
X174029714Y-114308952D01*
X173982095Y-114356571D01*
X173886857Y-114404190D01*
X173505904Y-114404190D01*
X174934476Y-114213714D02*
X174934476Y-114880380D01*
X174696380Y-113832761D02*
X174458285Y-114547047D01*
X175077333Y-114547047D01*
X184491333Y-114802380D02*
X184158000Y-114326190D01*
X183919904Y-114802380D02*
X183919904Y-113802380D01*
X184300857Y-113802380D01*
X184396095Y-113850000D01*
X184443714Y-113897619D01*
X184491333Y-113992857D01*
X184491333Y-114135714D01*
X184443714Y-114230952D01*
X184396095Y-114278571D01*
X184300857Y-114326190D01*
X183919904Y-114326190D01*
X184824666Y-113802380D02*
X185443714Y-113802380D01*
X185110380Y-114183333D01*
X185253238Y-114183333D01*
X185348476Y-114230952D01*
X185396095Y-114278571D01*
X185443714Y-114373809D01*
X185443714Y-114611904D01*
X185396095Y-114707142D01*
X185348476Y-114754761D01*
X185253238Y-114802380D01*
X184967523Y-114802380D01*
X184872285Y-114754761D01*
X184824666Y-114707142D01*
X179411333Y-118102380D02*
X179078000Y-117626190D01*
X178839904Y-118102380D02*
X178839904Y-117102380D01*
X179220857Y-117102380D01*
X179316095Y-117150000D01*
X179363714Y-117197619D01*
X179411333Y-117292857D01*
X179411333Y-117435714D01*
X179363714Y-117530952D01*
X179316095Y-117578571D01*
X179220857Y-117626190D01*
X178839904Y-117626190D01*
X179792285Y-117197619D02*
X179839904Y-117150000D01*
X179935142Y-117102380D01*
X180173238Y-117102380D01*
X180268476Y-117150000D01*
X180316095Y-117197619D01*
X180363714Y-117292857D01*
X180363714Y-117388095D01*
X180316095Y-117530952D01*
X179744666Y-118102380D01*
X180363714Y-118102380D01*
X162002380Y-97929166D02*
X161526190Y-98262500D01*
X162002380Y-98500595D02*
X161002380Y-98500595D01*
X161002380Y-98119642D01*
X161050000Y-98024404D01*
X161097619Y-97976785D01*
X161192857Y-97929166D01*
X161335714Y-97929166D01*
X161430952Y-97976785D01*
X161478571Y-98024404D01*
X161526190Y-98119642D01*
X161526190Y-98500595D01*
X162002380Y-96976785D02*
X162002380Y-97548214D01*
X162002380Y-97262500D02*
X161002380Y-97262500D01*
X161145238Y-97357738D01*
X161240476Y-97452976D01*
X161288095Y-97548214D01*
X188470833Y-114707142D02*
X188423214Y-114754761D01*
X188280357Y-114802380D01*
X188185119Y-114802380D01*
X188042261Y-114754761D01*
X187947023Y-114659523D01*
X187899404Y-114564285D01*
X187851785Y-114373809D01*
X187851785Y-114230952D01*
X187899404Y-114040476D01*
X187947023Y-113945238D01*
X188042261Y-113850000D01*
X188185119Y-113802380D01*
X188280357Y-113802380D01*
X188423214Y-113850000D01*
X188470833Y-113897619D01*
X189327976Y-114135714D02*
X189327976Y-114802380D01*
X189089880Y-113754761D02*
X188851785Y-114469047D01*
X189470833Y-114469047D01*
X200095833Y-90807142D02*
X200048214Y-90854761D01*
X199905357Y-90902380D01*
X199810119Y-90902380D01*
X199667261Y-90854761D01*
X199572023Y-90759523D01*
X199524404Y-90664285D01*
X199476785Y-90473809D01*
X199476785Y-90330952D01*
X199524404Y-90140476D01*
X199572023Y-90045238D01*
X199667261Y-89950000D01*
X199810119Y-89902380D01*
X199905357Y-89902380D01*
X200048214Y-89950000D01*
X200095833Y-89997619D01*
X200429166Y-89902380D02*
X201048214Y-89902380D01*
X200714880Y-90283333D01*
X200857738Y-90283333D01*
X200952976Y-90330952D01*
X201000595Y-90378571D01*
X201048214Y-90473809D01*
X201048214Y-90711904D01*
X201000595Y-90807142D01*
X200952976Y-90854761D01*
X200857738Y-90902380D01*
X200572023Y-90902380D01*
X200476785Y-90854761D01*
X200429166Y-90807142D01*
X156407142Y-105729166D02*
X156454761Y-105776785D01*
X156502380Y-105919642D01*
X156502380Y-106014880D01*
X156454761Y-106157738D01*
X156359523Y-106252976D01*
X156264285Y-106300595D01*
X156073809Y-106348214D01*
X155930952Y-106348214D01*
X155740476Y-106300595D01*
X155645238Y-106252976D01*
X155550000Y-106157738D01*
X155502380Y-106014880D01*
X155502380Y-105919642D01*
X155550000Y-105776785D01*
X155597619Y-105729166D01*
X155597619Y-105348214D02*
X155550000Y-105300595D01*
X155502380Y-105205357D01*
X155502380Y-104967261D01*
X155550000Y-104872023D01*
X155597619Y-104824404D01*
X155692857Y-104776785D01*
X155788095Y-104776785D01*
X155930952Y-104824404D01*
X156502380Y-105395833D01*
X156502380Y-104776785D01*
X159807142Y-102029166D02*
X159854761Y-102076785D01*
X159902380Y-102219642D01*
X159902380Y-102314880D01*
X159854761Y-102457738D01*
X159759523Y-102552976D01*
X159664285Y-102600595D01*
X159473809Y-102648214D01*
X159330952Y-102648214D01*
X159140476Y-102600595D01*
X159045238Y-102552976D01*
X158950000Y-102457738D01*
X158902380Y-102314880D01*
X158902380Y-102219642D01*
X158950000Y-102076785D01*
X158997619Y-102029166D01*
X159902380Y-101076785D02*
X159902380Y-101648214D01*
X159902380Y-101362500D02*
X158902380Y-101362500D01*
X159045238Y-101457738D01*
X159140476Y-101552976D01*
X159188095Y-101648214D01*
X156862380Y-100461904D02*
X157671904Y-100461904D01*
X157767142Y-100414285D01*
X157814761Y-100366666D01*
X157862380Y-100271428D01*
X157862380Y-100080952D01*
X157814761Y-99985714D01*
X157767142Y-99938095D01*
X157671904Y-99890476D01*
X156862380Y-99890476D01*
X156957619Y-99461904D02*
X156910000Y-99414285D01*
X156862380Y-99319047D01*
X156862380Y-99080952D01*
X156910000Y-98985714D01*
X156957619Y-98938095D01*
X157052857Y-98890476D01*
X157148095Y-98890476D01*
X157290952Y-98938095D01*
X157862380Y-99509523D01*
X157862380Y-98890476D01*
X189635714Y-115706666D02*
X190111904Y-115706666D01*
X189540476Y-115992380D02*
X189873809Y-114992380D01*
X190207142Y-115992380D01*
X191064285Y-115992380D02*
X190492857Y-115992380D01*
X190778571Y-115992380D02*
X190778571Y-114992380D01*
X190683333Y-115135238D01*
X190588095Y-115230476D01*
X190492857Y-115278095D01*
X199666666Y-95502380D02*
X199666666Y-96216666D01*
X199619047Y-96359523D01*
X199523809Y-96454761D01*
X199380952Y-96502380D01*
X199285714Y-96502380D01*
X200047619Y-95502380D02*
X200666666Y-95502380D01*
X200333333Y-95883333D01*
X200476190Y-95883333D01*
X200571428Y-95930952D01*
X200619047Y-95978571D01*
X200666666Y-96073809D01*
X200666666Y-96311904D01*
X200619047Y-96407142D01*
X200571428Y-96454761D01*
X200476190Y-96502380D01*
X200190476Y-96502380D01*
X200095238Y-96454761D01*
X200047619Y-96407142D01*
X189938095Y-98897380D02*
X189938095Y-99706904D01*
X189985714Y-99802142D01*
X190033333Y-99849761D01*
X190128571Y-99897380D01*
X190319047Y-99897380D01*
X190414285Y-99849761D01*
X190461904Y-99802142D01*
X190509523Y-99706904D01*
X190509523Y-98897380D01*
X190890476Y-98897380D02*
X191509523Y-98897380D01*
X191176190Y-99278333D01*
X191319047Y-99278333D01*
X191414285Y-99325952D01*
X191461904Y-99373571D01*
X191509523Y-99468809D01*
X191509523Y-99706904D01*
X191461904Y-99802142D01*
X191414285Y-99849761D01*
X191319047Y-99897380D01*
X191033333Y-99897380D01*
X190938095Y-99849761D01*
X190890476Y-99802142D01*
X183308666Y-87165380D02*
X183308666Y-87879666D01*
X183261047Y-88022523D01*
X183165809Y-88117761D01*
X183022952Y-88165380D01*
X182927714Y-88165380D01*
X183737238Y-87260619D02*
X183784857Y-87213000D01*
X183880095Y-87165380D01*
X184118190Y-87165380D01*
X184213428Y-87213000D01*
X184261047Y-87260619D01*
X184308666Y-87355857D01*
X184308666Y-87451095D01*
X184261047Y-87593952D01*
X183689619Y-88165380D01*
X184308666Y-88165380D01*
X161164380Y-92555333D02*
X161878666Y-92555333D01*
X162021523Y-92602952D01*
X162116761Y-92698190D01*
X162164380Y-92841047D01*
X162164380Y-92936285D01*
X162164380Y-91555333D02*
X162164380Y-92126761D01*
X162164380Y-91841047D02*
X161164380Y-91841047D01*
X161307238Y-91936285D01*
X161402476Y-92031523D01*
X161450095Y-92126761D01*
M02*
