G04 #@! TF.GenerationSoftware,KiCad,Pcbnew,9.0.1*
G04 #@! TF.CreationDate,2025-04-13T16:53:42+02:00*
G04 #@! TF.ProjectId,RulleGardin,52756c6c-6547-4617-9264-696e2e6b6963,rev?*
G04 #@! TF.SameCoordinates,Original*
G04 #@! TF.FileFunction,Legend,Bot*
G04 #@! TF.FilePolarity,Positive*
%FSLAX46Y46*%
G04 Gerber Fmt 4.6, Leading zero omitted, Abs format (unit mm)*
G04 Created by KiCad (PCBNEW 9.0.1) date 2025-04-13 16:53:42*
%MOMM*%
%LPD*%
G01*
G04 APERTURE LIST*
%ADD10C,0.150000*%
%ADD11C,0.120000*%
G04 APERTURE END LIST*
D10*
X157511904Y-107354819D02*
X157511904Y-108164342D01*
X157511904Y-108164342D02*
X157464285Y-108259580D01*
X157464285Y-108259580D02*
X157416666Y-108307200D01*
X157416666Y-108307200D02*
X157321428Y-108354819D01*
X157321428Y-108354819D02*
X157130952Y-108354819D01*
X157130952Y-108354819D02*
X157035714Y-108307200D01*
X157035714Y-108307200D02*
X156988095Y-108259580D01*
X156988095Y-108259580D02*
X156940476Y-108164342D01*
X156940476Y-108164342D02*
X156940476Y-107354819D01*
X156035714Y-107688152D02*
X156035714Y-108354819D01*
X156273809Y-107307200D02*
X156511904Y-108021485D01*
X156511904Y-108021485D02*
X155892857Y-108021485D01*
D11*
X154900000Y-106810000D02*
X158660000Y-106810000D01*
X154900000Y-99990000D02*
X158660000Y-99990000D01*
X158660000Y-106810000D02*
X158660000Y-105550000D01*
X158660000Y-99990000D02*
X158660000Y-101250000D01*
X153860000Y-107040000D02*
X153380000Y-107040000D01*
X153620000Y-106710000D01*
X153860000Y-107040000D01*
G36*
X153860000Y-107040000D02*
G01*
X153380000Y-107040000D01*
X153620000Y-106710000D01*
X153860000Y-107040000D01*
G37*
M02*
