M48
; DRILL file {KiCad (5.1.5)-3} date 23/04/2020 11:09:25
; FORMAT={-:-/ absolute / inch / decimal}
; #@! TF.CreationDate,2020-04-23T11:09:25+02:00
; #@! TF.GenerationSoftware,Kicad,Pcbnew,(5.1.5)-3
; #@! TF.FileFunction,Plated,1,2,PTH
FMAT,2
INCH
T1C0.0157
T2C0.0315
T3C0.0394
T4C0.0472
%
G90
G05
T1
X5.9055Y-3.4449
X5.9094Y-4.6142
X5.937Y-3.4449
X5.9449Y-4.6142
X6.14Y-4.42
X6.2756Y-3.437
X6.2953Y-4.0315
X6.3031Y-3.437
X6.5276Y-4.0354
X6.8583Y-4.0315
X6.9803Y-4.4409
X7.0984Y-4.1535
X7.1024Y-4.0945
X7.126Y-3.4331
X7.1614Y-3.4331
X7.3268Y-4.1693
X7.33Y-3.69
X7.34Y-3.89
X7.4Y-3.43
X7.4016Y-4.4882
X7.4528Y-3.6772
X7.4567Y-3.878
X7.47Y-4.03
X7.4803Y-3.7795
X7.5315Y-4.563
X7.5512Y-3.7598
X7.5748Y-3.7244
X7.63Y-3.4646
X7.6772Y-4.3701
X7.815Y-4.3504
X7.8425Y-3.4646
X7.874Y-3.4646
T2
X7.2441Y-3.7488
X7.2441Y-3.8488
X7.2441Y-3.9488
X7.2441Y-4.0488
X7.2441Y-4.1488
X7.2441Y-4.2488
X7.2441Y-4.3488
X7.2441Y-4.4488
X7.7441Y-3.7488
X7.7441Y-3.8488
X7.7441Y-3.9488
X7.7441Y-4.0488
X7.7441Y-4.1488
X7.7441Y-4.2488
X7.7441Y-4.3488
X7.7441Y-4.4488
T3
X7.874Y-3.8732
X7.874Y-3.9732
X7.874Y-4.0732
X7.874Y-4.1732
X7.874Y-4.2732
X5.9331Y-3.9843
X5.9331Y-4.0843
X5.9331Y-4.1843
T4
X6.28Y-3.5816
X6.28Y-3.68
T0
M30
