G04 #@! TF.GenerationSoftware,KiCad,Pcbnew,9.0.1*
G04 #@! TF.CreationDate,2025-04-13T16:53:42+02:00*
G04 #@! TF.ProjectId,RulleGardin,52756c6c-6547-4617-9264-696e2e6b6963,rev?*
G04 #@! TF.SameCoordinates,Original*
G04 #@! TF.FileFunction,Copper,L2,Bot*
G04 #@! TF.FilePolarity,Positive*
%FSLAX46Y46*%
G04 Gerber Fmt 4.6, Leading zero omitted, Abs format (unit mm)*
G04 Created by KiCad (PCBNEW 9.0.1) date 2025-04-13 16:53:42*
%MOMM*%
%LPD*%
G01*
G04 APERTURE LIST*
G04 Aperture macros list*
%AMRoundRect*
0 Rectangle with rounded corners*
0 $1 Rounding radius*
0 $2 $3 $4 $5 $6 $7 $8 $9 X,Y pos of 4 corners*
0 Add a 4 corners polygon primitive as box body*
4,1,4,$2,$3,$4,$5,$6,$7,$8,$9,$2,$3,0*
0 Add four circle primitives for the rounded corners*
1,1,$1+$1,$2,$3*
1,1,$1+$1,$4,$5*
1,1,$1+$1,$6,$7*
1,1,$1+$1,$8,$9*
0 Add four rect primitives between the rounded corners*
20,1,$1+$1,$2,$3,$4,$5,0*
20,1,$1+$1,$4,$5,$6,$7,0*
20,1,$1+$1,$6,$7,$8,$9,0*
20,1,$1+$1,$8,$9,$2,$3,0*%
G04 Aperture macros list end*
G04 #@! TA.AperFunction,SMDPad,CuDef*
%ADD10RoundRect,0.375000X-0.625000X-0.375000X0.625000X-0.375000X0.625000X0.375000X-0.625000X0.375000X0*%
G04 #@! TD*
G04 #@! TA.AperFunction,SMDPad,CuDef*
%ADD11RoundRect,0.500000X-0.500000X-1.400000X0.500000X-1.400000X0.500000X1.400000X-0.500000X1.400000X0*%
G04 #@! TD*
G04 #@! TA.AperFunction,ComponentPad*
%ADD12O,2.500000X1.500000*%
G04 #@! TD*
G04 #@! TA.AperFunction,ComponentPad*
%ADD13R,2.500000X1.500000*%
G04 #@! TD*
G04 #@! TA.AperFunction,ComponentPad*
%ADD14O,1.600000X1.600000*%
G04 #@! TD*
G04 #@! TA.AperFunction,ComponentPad*
%ADD15R,1.600000X1.600000*%
G04 #@! TD*
G04 #@! TA.AperFunction,ComponentPad*
%ADD16R,1.700000X1.700000*%
G04 #@! TD*
G04 #@! TA.AperFunction,ComponentPad*
%ADD17O,1.700000X1.700000*%
G04 #@! TD*
G04 #@! TA.AperFunction,ComponentPad*
%ADD18C,1.900000*%
G04 #@! TD*
G04 #@! TA.AperFunction,ComponentPad*
%ADD19R,1.900000X1.900000*%
G04 #@! TD*
G04 #@! TA.AperFunction,ViaPad*
%ADD20C,0.600000*%
G04 #@! TD*
G04 #@! TA.AperFunction,Conductor*
%ADD21C,0.250000*%
G04 #@! TD*
G04 #@! TA.AperFunction,Conductor*
%ADD22C,0.750000*%
G04 #@! TD*
G04 #@! TA.AperFunction,Conductor*
%ADD23C,0.500000*%
G04 #@! TD*
G04 APERTURE END LIST*
D10*
X153600000Y-105700000D03*
X153600000Y-103400000D03*
D11*
X159900000Y-103400000D03*
D10*
X153600000Y-101100000D03*
D12*
X150700000Y-106280000D03*
X150700000Y-103740000D03*
D13*
X150700000Y-101200000D03*
D14*
X184000000Y-113000000D03*
X196700000Y-95220000D03*
X184000000Y-110460000D03*
X196700000Y-97760000D03*
X184000000Y-107920000D03*
X196700000Y-100300000D03*
X184000000Y-105380000D03*
X196700000Y-102840000D03*
X184000000Y-102840000D03*
X196700000Y-105380000D03*
X184000000Y-100300000D03*
X196700000Y-107920000D03*
X184000000Y-97760000D03*
X196700000Y-110460000D03*
X184000000Y-95220000D03*
D15*
X196700000Y-113000000D03*
D16*
X200000000Y-98380000D03*
D17*
X200000000Y-100920000D03*
X200000000Y-103460000D03*
X200000000Y-106000000D03*
X200000000Y-108540000D03*
D18*
X159512000Y-90972000D03*
D19*
X159512000Y-93472000D03*
D20*
X197400000Y-87600000D03*
X192100000Y-90975000D03*
X192100000Y-87300000D03*
X199600000Y-89200000D03*
X188100000Y-88100000D03*
X188900000Y-87300000D03*
X195000000Y-111000000D03*
X198500000Y-110500000D03*
X177300000Y-112800000D03*
X188000000Y-114000000D03*
X191300000Y-115900000D03*
X165800000Y-102500000D03*
X174200000Y-102400000D03*
X189400000Y-98500000D03*
X186100000Y-105900000D03*
X191800000Y-95500000D03*
X192400000Y-94600000D03*
X150100000Y-117200000D03*
X151000000Y-117200000D03*
X150000000Y-87500000D03*
X150800000Y-87500000D03*
X181000000Y-87200000D03*
X181900000Y-87200000D03*
X160100000Y-87300000D03*
X159400000Y-87300000D03*
X190000000Y-96000000D03*
X189300000Y-93400000D03*
X189738000Y-102362000D03*
X186436000Y-98806000D03*
X180300000Y-105500000D03*
X180400000Y-104000000D03*
D21*
X197200000Y-91600000D02*
X199600000Y-89200000D01*
X197100000Y-91600000D02*
X197200000Y-91600000D01*
X190202000Y-91600000D02*
X197100000Y-91600000D01*
X188077001Y-93724999D02*
X190202000Y-91600000D01*
X188100000Y-92736000D02*
X188100000Y-88100000D01*
X186436000Y-94400000D02*
X188100000Y-92736000D01*
D22*
X153600000Y-103400000D02*
X159900000Y-103400000D01*
X162400000Y-98060000D02*
X159512000Y-95172000D01*
X159512000Y-95172000D02*
X159512000Y-93472000D01*
X162400000Y-105824000D02*
X162400000Y-98060000D01*
X163686427Y-112383992D02*
X163686427Y-107110427D01*
X163686427Y-107110427D02*
X162400000Y-105824000D01*
D23*
X198797919Y-108540000D02*
X200000000Y-108540000D01*
X198167918Y-109170001D02*
X198797919Y-108540000D01*
X189680001Y-109170001D02*
X198167918Y-109170001D01*
X184600001Y-114250001D02*
X189680001Y-109170001D01*
X165552436Y-114250001D02*
X184600001Y-114250001D01*
X163686427Y-112383992D02*
X165552436Y-114250001D01*
D22*
X150700000Y-106255082D02*
X150700000Y-106280000D01*
X153555082Y-103400000D02*
X150700000Y-106255082D01*
X153600000Y-103400000D02*
X153555082Y-103400000D01*
X150800000Y-101100000D02*
X150700000Y-101200000D01*
X153600000Y-101100000D02*
X150800000Y-101100000D01*
D23*
X190000000Y-96000000D02*
X190000000Y-94100000D01*
X190000000Y-94100000D02*
X189300000Y-93400000D01*
D21*
X184000000Y-110460000D02*
X189738000Y-104722000D01*
X189738000Y-104722000D02*
X189738000Y-102362000D01*
X186436000Y-98806000D02*
X186436000Y-94400000D01*
X180300000Y-105500000D02*
X180800000Y-106000000D01*
X180800000Y-106000000D02*
X180800000Y-109700000D01*
X181560000Y-110460000D02*
X184000000Y-110460000D01*
X180800000Y-109700000D02*
X181560000Y-110460000D01*
X184000000Y-102840000D02*
X188077001Y-98762999D01*
X188077001Y-98762999D02*
X188077001Y-93724999D01*
X179674999Y-104725001D02*
X180400000Y-104000000D01*
X179674999Y-109806369D02*
X179674999Y-104725001D01*
X182868630Y-113000000D02*
X179674999Y-109806369D01*
X184000000Y-113000000D02*
X182868630Y-113000000D01*
G04 #@! TA.AperFunction,Conductor*
G36*
X161740121Y-86095502D02*
G01*
X161786614Y-86149158D01*
X161798000Y-86201500D01*
X161798000Y-95904352D01*
X161777998Y-95972473D01*
X161724342Y-96018966D01*
X161654068Y-96029070D01*
X161589488Y-95999576D01*
X161582905Y-95993447D01*
X160667770Y-95078312D01*
X160633744Y-95016000D01*
X160638809Y-94945185D01*
X160681356Y-94888349D01*
X160700636Y-94877823D01*
X160700299Y-94877205D01*
X160708201Y-94872889D01*
X160708204Y-94872889D01*
X160825261Y-94785261D01*
X160912887Y-94668207D01*
X160912887Y-94668206D01*
X160912889Y-94668204D01*
X160963989Y-94531201D01*
X160964925Y-94522500D01*
X160970499Y-94470649D01*
X160970500Y-94470632D01*
X160970500Y-92473367D01*
X160970499Y-92473350D01*
X160963990Y-92412803D01*
X160963988Y-92412795D01*
X160912889Y-92275797D01*
X160912887Y-92275792D01*
X160825261Y-92158738D01*
X160708207Y-92071112D01*
X160700299Y-92066795D01*
X160701482Y-92064628D01*
X160655232Y-92030002D01*
X160630425Y-91963481D01*
X160645519Y-91894108D01*
X160654168Y-91880437D01*
X160758990Y-91736161D01*
X160863182Y-91531674D01*
X160934097Y-91313421D01*
X160970000Y-91086743D01*
X160970000Y-90857256D01*
X160934097Y-90630578D01*
X160863182Y-90412325D01*
X160758992Y-90207842D01*
X160706969Y-90136239D01*
X160077807Y-90765401D01*
X160071111Y-90740409D01*
X159992119Y-90603592D01*
X159880408Y-90491881D01*
X159743591Y-90412889D01*
X159718597Y-90406192D01*
X160347759Y-89777029D01*
X160347759Y-89777028D01*
X160276161Y-89725009D01*
X160071674Y-89620817D01*
X159853421Y-89549902D01*
X159626744Y-89514000D01*
X159397256Y-89514000D01*
X159170578Y-89549902D01*
X158952325Y-89620817D01*
X158747843Y-89725006D01*
X158747842Y-89725007D01*
X158676239Y-89777029D01*
X158676239Y-89777030D01*
X159305401Y-90406192D01*
X159280409Y-90412889D01*
X159143592Y-90491881D01*
X159031881Y-90603592D01*
X158952889Y-90740409D01*
X158946191Y-90765402D01*
X158317029Y-90136239D01*
X158265007Y-90207842D01*
X158265006Y-90207843D01*
X158160817Y-90412325D01*
X158089902Y-90630578D01*
X158054000Y-90857256D01*
X158054000Y-91086743D01*
X158089902Y-91313421D01*
X158160817Y-91531674D01*
X158265009Y-91736161D01*
X158369831Y-91880437D01*
X158393690Y-91947305D01*
X158377609Y-92016457D01*
X158326695Y-92065937D01*
X158318762Y-92069491D01*
X158315792Y-92071112D01*
X158198738Y-92158738D01*
X158111112Y-92275792D01*
X158111110Y-92275797D01*
X158060011Y-92412795D01*
X158060009Y-92412803D01*
X158053500Y-92473350D01*
X158053500Y-94470649D01*
X158060009Y-94531196D01*
X158060011Y-94531204D01*
X158111110Y-94668202D01*
X158111112Y-94668207D01*
X158198738Y-94785261D01*
X158315792Y-94872887D01*
X158315794Y-94872888D01*
X158315796Y-94872889D01*
X158374875Y-94894924D01*
X158452795Y-94923988D01*
X158452803Y-94923990D01*
X158515967Y-94930780D01*
X158581560Y-94957948D01*
X158622051Y-95016266D01*
X158628500Y-95056058D01*
X158628500Y-95259020D01*
X158662452Y-95429708D01*
X158729052Y-95590495D01*
X158730553Y-95592741D01*
X158825740Y-95735198D01*
X158825745Y-95735204D01*
X161479595Y-98389052D01*
X161513620Y-98451364D01*
X161516500Y-98478147D01*
X161516500Y-101446416D01*
X161496498Y-101514537D01*
X161442842Y-101561030D01*
X161372568Y-101571134D01*
X161307988Y-101541640D01*
X161279378Y-101505812D01*
X161247630Y-101446416D01*
X161242595Y-101436996D01*
X161116568Y-101283432D01*
X160963004Y-101157405D01*
X160787804Y-101063759D01*
X160597701Y-101006092D01*
X160597700Y-101006091D01*
X160597694Y-101006090D01*
X160468903Y-100993406D01*
X160449547Y-100991500D01*
X160449545Y-100991500D01*
X159350465Y-100991500D01*
X159350445Y-100991501D01*
X159202305Y-101006090D01*
X159012195Y-101063759D01*
X158836995Y-101157405D01*
X158683432Y-101283432D01*
X158557405Y-101436995D01*
X158463759Y-101612195D01*
X158406090Y-101802305D01*
X158391500Y-101950446D01*
X158391500Y-102390500D01*
X158371498Y-102458621D01*
X158317842Y-102505114D01*
X158265500Y-102516500D01*
X155010175Y-102516500D01*
X154979752Y-102507567D01*
X154948843Y-102500565D01*
X154945054Y-102497379D01*
X154942054Y-102496498D01*
X154920318Y-102478828D01*
X154916077Y-102474513D01*
X154853170Y-102396830D01*
X154787215Y-102343420D01*
X154782209Y-102338328D01*
X154768694Y-102313065D01*
X154752420Y-102289506D01*
X154752175Y-102282186D01*
X154748720Y-102275726D01*
X154751008Y-102247176D01*
X154750054Y-102218549D01*
X154753807Y-102212256D01*
X154754393Y-102204956D01*
X154771751Y-102182177D01*
X154786427Y-102157577D01*
X154792772Y-102152080D01*
X154853170Y-102103170D01*
X154970042Y-101958846D01*
X154970043Y-101958843D01*
X154970047Y-101958839D01*
X155054362Y-101793362D01*
X155102430Y-101613971D01*
X155108500Y-101536843D01*
X155108499Y-100663158D01*
X155102430Y-100586029D01*
X155054362Y-100406638D01*
X154970047Y-100241161D01*
X154970045Y-100241158D01*
X154970042Y-100241153D01*
X154853170Y-100096829D01*
X154708846Y-99979957D01*
X154708837Y-99979952D01*
X154543360Y-99895637D01*
X154417266Y-99861850D01*
X154363971Y-99847570D01*
X154286843Y-99841500D01*
X154286839Y-99841500D01*
X152913158Y-99841500D01*
X152836030Y-99847569D01*
X152656639Y-99895637D01*
X152491162Y-99979952D01*
X152491159Y-99979953D01*
X152413433Y-100042895D01*
X152347905Y-100070220D01*
X152278007Y-100057780D01*
X152258630Y-100045842D01*
X152196207Y-99999112D01*
X152196202Y-99999110D01*
X152059204Y-99948011D01*
X152059196Y-99948009D01*
X151998649Y-99941500D01*
X151998638Y-99941500D01*
X149401362Y-99941500D01*
X149401350Y-99941500D01*
X149340803Y-99948009D01*
X149340795Y-99948011D01*
X149203797Y-99999110D01*
X149203792Y-99999112D01*
X149086738Y-100086738D01*
X148999112Y-100203792D01*
X148999110Y-100203797D01*
X148948011Y-100340795D01*
X148948009Y-100340803D01*
X148941500Y-100401350D01*
X148941500Y-101998649D01*
X148948009Y-102059196D01*
X148948011Y-102059204D01*
X148999110Y-102196202D01*
X148999112Y-102196207D01*
X149086738Y-102313261D01*
X149203792Y-102400887D01*
X149203794Y-102400888D01*
X149203796Y-102400889D01*
X149262875Y-102422924D01*
X149340795Y-102451988D01*
X149340803Y-102451990D01*
X149401350Y-102458499D01*
X149401355Y-102458499D01*
X149401362Y-102458500D01*
X149401368Y-102458500D01*
X149435808Y-102458500D01*
X149503929Y-102478502D01*
X149550422Y-102532158D01*
X149560526Y-102602432D01*
X149531032Y-102667012D01*
X149509869Y-102686436D01*
X149380465Y-102780453D01*
X149380462Y-102780455D01*
X149240455Y-102920462D01*
X149240453Y-102920465D01*
X149124064Y-103080660D01*
X149034165Y-103257097D01*
X148972975Y-103445420D01*
X148966547Y-103486000D01*
X150269297Y-103486000D01*
X150234075Y-103547007D01*
X150200000Y-103674174D01*
X150200000Y-103805826D01*
X150234075Y-103932993D01*
X150269297Y-103994000D01*
X148966548Y-103994000D01*
X148972975Y-104034579D01*
X149034165Y-104222902D01*
X149124064Y-104399339D01*
X149240453Y-104559534D01*
X149240455Y-104559537D01*
X149380462Y-104699544D01*
X149380465Y-104699546D01*
X149540663Y-104815937D01*
X149700645Y-104897451D01*
X149752261Y-104946199D01*
X149769327Y-105015113D01*
X149746427Y-105082315D01*
X149700646Y-105121985D01*
X149540399Y-105203635D01*
X149380139Y-105320071D01*
X149240071Y-105460139D01*
X149123636Y-105620398D01*
X149033703Y-105796901D01*
X149033702Y-105796903D01*
X148987986Y-105937603D01*
X148972488Y-105985300D01*
X148941500Y-106180954D01*
X148941500Y-106379046D01*
X148972488Y-106574700D01*
X149033702Y-106763097D01*
X149105441Y-106903892D01*
X149123636Y-106939601D01*
X149240071Y-107099860D01*
X149380139Y-107239928D01*
X149380142Y-107239930D01*
X149540402Y-107356366D01*
X149716903Y-107446298D01*
X149905300Y-107507512D01*
X150100954Y-107538500D01*
X150100957Y-107538500D01*
X151299043Y-107538500D01*
X151299046Y-107538500D01*
X151494700Y-107507512D01*
X151683097Y-107446298D01*
X151859598Y-107356366D01*
X152019858Y-107239930D01*
X152159930Y-107099858D01*
X152276366Y-106939598D01*
X152312239Y-106869192D01*
X152360984Y-106817580D01*
X152429899Y-106800513D01*
X152484817Y-106818068D01*
X152485552Y-106816627D01*
X152656818Y-106903892D01*
X152836098Y-106951931D01*
X152913199Y-106958000D01*
X153346000Y-106958000D01*
X153854000Y-106958000D01*
X154286801Y-106958000D01*
X154363901Y-106951931D01*
X154543181Y-106903892D01*
X154708562Y-106819625D01*
X154708565Y-106819623D01*
X154852814Y-106702814D01*
X154969623Y-106558565D01*
X154969625Y-106558562D01*
X155053892Y-106393181D01*
X155101931Y-106213901D01*
X155108000Y-106136800D01*
X155108000Y-105954000D01*
X153854000Y-105954000D01*
X153854000Y-106958000D01*
X153346000Y-106958000D01*
X153346000Y-105826000D01*
X153366002Y-105757879D01*
X153419658Y-105711386D01*
X153472000Y-105700000D01*
X153600000Y-105700000D01*
X153600000Y-105572000D01*
X153620002Y-105503879D01*
X153673658Y-105457386D01*
X153726000Y-105446000D01*
X155108000Y-105446000D01*
X155108000Y-105263199D01*
X155101931Y-105186098D01*
X155053892Y-105006818D01*
X154969625Y-104841437D01*
X154969623Y-104841434D01*
X154852812Y-104697182D01*
X154792375Y-104648242D01*
X154783709Y-104635698D01*
X154771429Y-104626663D01*
X154763939Y-104607078D01*
X154752022Y-104589828D01*
X154751513Y-104574590D01*
X154746068Y-104560351D01*
X154750354Y-104539827D01*
X154749656Y-104518871D01*
X154757704Y-104504639D01*
X154760584Y-104490854D01*
X154776148Y-104472027D01*
X154781838Y-104461967D01*
X154786832Y-104456889D01*
X154853170Y-104403170D01*
X154916082Y-104325480D01*
X154920345Y-104321146D01*
X154946256Y-104306717D01*
X154970668Y-104289854D01*
X154978924Y-104288526D01*
X154982373Y-104286606D01*
X154988467Y-104286991D01*
X155010175Y-104283500D01*
X158265501Y-104283500D01*
X158333622Y-104303502D01*
X158380115Y-104357158D01*
X158391501Y-104409500D01*
X158391501Y-104849554D01*
X158406090Y-104997694D01*
X158406091Y-104997700D01*
X158406092Y-104997701D01*
X158463759Y-105187804D01*
X158557405Y-105363004D01*
X158683432Y-105516568D01*
X158836996Y-105642595D01*
X159012196Y-105736241D01*
X159202299Y-105793908D01*
X159202303Y-105793908D01*
X159202305Y-105793909D01*
X159242502Y-105797867D01*
X159350453Y-105808500D01*
X160449546Y-105808499D01*
X160509668Y-105802577D01*
X160597694Y-105793909D01*
X160597695Y-105793908D01*
X160597701Y-105793908D01*
X160787804Y-105736241D01*
X160963004Y-105642595D01*
X161116568Y-105516568D01*
X161242595Y-105363004D01*
X161279378Y-105294186D01*
X161329130Y-105243539D01*
X161398366Y-105227829D01*
X161465105Y-105252045D01*
X161508158Y-105308498D01*
X161516500Y-105353583D01*
X161516500Y-105911020D01*
X161547288Y-106065803D01*
X161550452Y-106081708D01*
X161617052Y-106242495D01*
X161667581Y-106318116D01*
X161708290Y-106379042D01*
X161713741Y-106387199D01*
X162766023Y-107439480D01*
X162800047Y-107501791D01*
X162802927Y-107528574D01*
X162802927Y-112471009D01*
X162836879Y-112641699D01*
X162903479Y-112802486D01*
X162932291Y-112845606D01*
X163000167Y-112947189D01*
X163000172Y-112947195D01*
X163123223Y-113070246D01*
X163123229Y-113070251D01*
X163267933Y-113166940D01*
X163428720Y-113233540D01*
X163433762Y-113234543D01*
X163434386Y-113234667D01*
X163497297Y-113267571D01*
X163498906Y-113269152D01*
X164963270Y-114733516D01*
X164963271Y-114733517D01*
X165068920Y-114839166D01*
X165193152Y-114922175D01*
X165274012Y-114955668D01*
X165331189Y-114979352D01*
X165404460Y-114993926D01*
X165477730Y-115008501D01*
X165477731Y-115008501D01*
X165477735Y-115008501D01*
X184674702Y-115008501D01*
X184674706Y-115008501D01*
X184674707Y-115008501D01*
X184747977Y-114993926D01*
X184821248Y-114979352D01*
X184959285Y-114922175D01*
X185083516Y-114839167D01*
X189957277Y-109965406D01*
X190019589Y-109931380D01*
X190046372Y-109928501D01*
X195323432Y-109928501D01*
X195391553Y-109948503D01*
X195438046Y-110002159D01*
X195448150Y-110072433D01*
X195443265Y-110093437D01*
X195423721Y-110153587D01*
X195423720Y-110153590D01*
X195423720Y-110153592D01*
X195391500Y-110357019D01*
X195391500Y-110562981D01*
X195423720Y-110766408D01*
X195487366Y-110962290D01*
X195580871Y-111145803D01*
X195701932Y-111312430D01*
X195701934Y-111312432D01*
X195701936Y-111312435D01*
X195847564Y-111458063D01*
X195847567Y-111458065D01*
X195847570Y-111458068D01*
X195863927Y-111469952D01*
X195863930Y-111469954D01*
X195907284Y-111526176D01*
X195913359Y-111596912D01*
X195880228Y-111659704D01*
X195818408Y-111694615D01*
X195803343Y-111697167D01*
X195790909Y-111698504D01*
X195790908Y-111698504D01*
X195654035Y-111749555D01*
X195654034Y-111749555D01*
X195537095Y-111837095D01*
X195449555Y-111954034D01*
X195449555Y-111954035D01*
X195398505Y-112090906D01*
X195392000Y-112151402D01*
X195392000Y-112746000D01*
X196388314Y-112746000D01*
X196379920Y-112754394D01*
X196327259Y-112845606D01*
X196300000Y-112947339D01*
X196300000Y-113052661D01*
X196327259Y-113154394D01*
X196379920Y-113245606D01*
X196388314Y-113254000D01*
X195392000Y-113254000D01*
X195392000Y-113848597D01*
X195398505Y-113909093D01*
X195449555Y-114045964D01*
X195449555Y-114045965D01*
X195537095Y-114162904D01*
X195654034Y-114250444D01*
X195790906Y-114301494D01*
X195851402Y-114307999D01*
X195851415Y-114308000D01*
X196446000Y-114308000D01*
X196446000Y-113311686D01*
X196454394Y-113320080D01*
X196545606Y-113372741D01*
X196647339Y-113400000D01*
X196752661Y-113400000D01*
X196854394Y-113372741D01*
X196945606Y-113320080D01*
X196954000Y-113311686D01*
X196954000Y-114308000D01*
X197548585Y-114308000D01*
X197548597Y-114307999D01*
X197609093Y-114301494D01*
X197745964Y-114250444D01*
X197745965Y-114250444D01*
X197862904Y-114162904D01*
X197950444Y-114045965D01*
X197950444Y-114045964D01*
X198001494Y-113909093D01*
X198007999Y-113848597D01*
X198008000Y-113848585D01*
X198008000Y-113254000D01*
X197011686Y-113254000D01*
X197020080Y-113245606D01*
X197072741Y-113154394D01*
X197100000Y-113052661D01*
X197100000Y-112947339D01*
X197072741Y-112845606D01*
X197020080Y-112754394D01*
X197011686Y-112746000D01*
X198008000Y-112746000D01*
X198008000Y-112151414D01*
X198007999Y-112151402D01*
X198001494Y-112090906D01*
X197950444Y-111954035D01*
X197950444Y-111954034D01*
X197862904Y-111837095D01*
X197745965Y-111749555D01*
X197609094Y-111698505D01*
X197596657Y-111697168D01*
X197531065Y-111669996D01*
X197490576Y-111611676D01*
X197488045Y-111540725D01*
X197524275Y-111479668D01*
X197536070Y-111469954D01*
X197552430Y-111458068D01*
X197698068Y-111312430D01*
X197819129Y-111145803D01*
X197912634Y-110962290D01*
X197976280Y-110766408D01*
X198008500Y-110562981D01*
X198008500Y-110357019D01*
X197976280Y-110153592D01*
X197960961Y-110106444D01*
X197956735Y-110093437D01*
X197954708Y-110022469D01*
X197991370Y-109961671D01*
X198055083Y-109930346D01*
X198076568Y-109928501D01*
X198242619Y-109928501D01*
X198242623Y-109928501D01*
X198242624Y-109928501D01*
X198315894Y-109913926D01*
X198389165Y-109899352D01*
X198527202Y-109842175D01*
X198651433Y-109759167D01*
X198885602Y-109524997D01*
X198947911Y-109490975D01*
X199018726Y-109496039D01*
X199063789Y-109525000D01*
X199114990Y-109576201D01*
X199114993Y-109576203D01*
X199114996Y-109576206D01*
X199287991Y-109701894D01*
X199478517Y-109798972D01*
X199681878Y-109865047D01*
X199681879Y-109865047D01*
X199681884Y-109865049D01*
X199893084Y-109898500D01*
X199893087Y-109898500D01*
X200106913Y-109898500D01*
X200106916Y-109898500D01*
X200318116Y-109865049D01*
X200521483Y-109798972D01*
X200712009Y-109701894D01*
X200885004Y-109576206D01*
X201036206Y-109425004D01*
X201161894Y-109252009D01*
X201258972Y-109061483D01*
X201325049Y-108858116D01*
X201358500Y-108646916D01*
X201358500Y-108433084D01*
X201325049Y-108221884D01*
X201258972Y-108018517D01*
X201161894Y-107827991D01*
X201036206Y-107654996D01*
X201036203Y-107654993D01*
X201036201Y-107654990D01*
X200885009Y-107503798D01*
X200885006Y-107503796D01*
X200885004Y-107503794D01*
X200712009Y-107378106D01*
X200712007Y-107378105D01*
X200710920Y-107377439D01*
X200710591Y-107377075D01*
X200708004Y-107375196D01*
X200708398Y-107374652D01*
X200663283Y-107324796D01*
X200651670Y-107254756D01*
X200679766Y-107189555D01*
X200708130Y-107164978D01*
X200708004Y-107164804D01*
X200710030Y-107163331D01*
X200710920Y-107162561D01*
X200711997Y-107161899D01*
X200712009Y-107161894D01*
X200885004Y-107036206D01*
X201036206Y-106885004D01*
X201161894Y-106712009D01*
X201258972Y-106521483D01*
X201325049Y-106318116D01*
X201358500Y-106106916D01*
X201358500Y-105893084D01*
X201325049Y-105681884D01*
X201258972Y-105478517D01*
X201161894Y-105287991D01*
X201036206Y-105114996D01*
X201036203Y-105114993D01*
X201036201Y-105114990D01*
X200885009Y-104963798D01*
X200885006Y-104963796D01*
X200885004Y-104963794D01*
X200712009Y-104838106D01*
X200712007Y-104838105D01*
X200710920Y-104837439D01*
X200710591Y-104837075D01*
X200708004Y-104835196D01*
X200708398Y-104834652D01*
X200663283Y-104784796D01*
X200651670Y-104714756D01*
X200679766Y-104649555D01*
X200708130Y-104624978D01*
X200708004Y-104624804D01*
X200710030Y-104623331D01*
X200710920Y-104622561D01*
X200711997Y-104621899D01*
X200712009Y-104621894D01*
X200885004Y-104496206D01*
X201036206Y-104345004D01*
X201161894Y-104172009D01*
X201258972Y-103981483D01*
X201325049Y-103778116D01*
X201358500Y-103566916D01*
X201358500Y-103353084D01*
X201325049Y-103141884D01*
X201258972Y-102938517D01*
X201161894Y-102747991D01*
X201036206Y-102574996D01*
X201036203Y-102574993D01*
X201036201Y-102574990D01*
X200885009Y-102423798D01*
X200885006Y-102423796D01*
X200885004Y-102423794D01*
X200712009Y-102298106D01*
X200712007Y-102298105D01*
X200710920Y-102297439D01*
X200710591Y-102297075D01*
X200708004Y-102295196D01*
X200708398Y-102294652D01*
X200663283Y-102244796D01*
X200651670Y-102174756D01*
X200679766Y-102109555D01*
X200708130Y-102084978D01*
X200708004Y-102084804D01*
X200710030Y-102083331D01*
X200710920Y-102082561D01*
X200711997Y-102081899D01*
X200712009Y-102081894D01*
X200885004Y-101956206D01*
X201036206Y-101805004D01*
X201161894Y-101632009D01*
X201258972Y-101441483D01*
X201325049Y-101238116D01*
X201358500Y-101026916D01*
X201358500Y-100813084D01*
X201325049Y-100601884D01*
X201258972Y-100398517D01*
X201161894Y-100207991D01*
X201036206Y-100034996D01*
X201036203Y-100034993D01*
X201036201Y-100034990D01*
X200933229Y-99932018D01*
X200899203Y-99869706D01*
X200904268Y-99798891D01*
X200946815Y-99742055D01*
X200978284Y-99724871D01*
X201096204Y-99680889D01*
X201110502Y-99670186D01*
X201213261Y-99593261D01*
X201300887Y-99476207D01*
X201300887Y-99476206D01*
X201300889Y-99476204D01*
X201351989Y-99339201D01*
X201353904Y-99321396D01*
X201358499Y-99278649D01*
X201358500Y-99278632D01*
X201358500Y-97481367D01*
X201358499Y-97481350D01*
X201351990Y-97420803D01*
X201351988Y-97420795D01*
X201300889Y-97283797D01*
X201300887Y-97283792D01*
X201213261Y-97166738D01*
X201096207Y-97079112D01*
X201096202Y-97079110D01*
X200959204Y-97028011D01*
X200959196Y-97028009D01*
X200898649Y-97021500D01*
X200898638Y-97021500D01*
X199101362Y-97021500D01*
X199101350Y-97021500D01*
X199040803Y-97028009D01*
X199040795Y-97028011D01*
X198903797Y-97079110D01*
X198903792Y-97079112D01*
X198786738Y-97166738D01*
X198699112Y-97283792D01*
X198699110Y-97283797D01*
X198648011Y-97420795D01*
X198648009Y-97420803D01*
X198641500Y-97481350D01*
X198641500Y-99278649D01*
X198648009Y-99339196D01*
X198648011Y-99339204D01*
X198699110Y-99476202D01*
X198699112Y-99476207D01*
X198786738Y-99593261D01*
X198903791Y-99680886D01*
X198903792Y-99680886D01*
X198903796Y-99680889D01*
X199021711Y-99724869D01*
X199078543Y-99767414D01*
X199103354Y-99833934D01*
X199088263Y-99903308D01*
X199066771Y-99932018D01*
X198963794Y-100034995D01*
X198838108Y-100207987D01*
X198741029Y-100398515D01*
X198741026Y-100398521D01*
X198674952Y-100601878D01*
X198674951Y-100601883D01*
X198674951Y-100601884D01*
X198641500Y-100813084D01*
X198641500Y-101026916D01*
X198662168Y-101157405D01*
X198674952Y-101238121D01*
X198739570Y-101436996D01*
X198741028Y-101441483D01*
X198838106Y-101632009D01*
X198963794Y-101805004D01*
X198963796Y-101805006D01*
X198963798Y-101805009D01*
X199114990Y-101956201D01*
X199114993Y-101956203D01*
X199114996Y-101956206D01*
X199287991Y-102081894D01*
X199287996Y-102081896D01*
X199289088Y-102082566D01*
X199289418Y-102082931D01*
X199291996Y-102084804D01*
X199291602Y-102085345D01*
X199336721Y-102135213D01*
X199348328Y-102205255D01*
X199320226Y-102270453D01*
X199291870Y-102295023D01*
X199291996Y-102295196D01*
X199289982Y-102296658D01*
X199289088Y-102297434D01*
X199287987Y-102298108D01*
X199114993Y-102423796D01*
X199114990Y-102423798D01*
X198963798Y-102574990D01*
X198963796Y-102574993D01*
X198838108Y-102747987D01*
X198741029Y-102938515D01*
X198741026Y-102938521D01*
X198674952Y-103141878D01*
X198674951Y-103141883D01*
X198674951Y-103141884D01*
X198641500Y-103353084D01*
X198641500Y-103566916D01*
X198672742Y-103764167D01*
X198674952Y-103778121D01*
X198741026Y-103981478D01*
X198741028Y-103981483D01*
X198838106Y-104172009D01*
X198963794Y-104345004D01*
X198963796Y-104345006D01*
X198963798Y-104345009D01*
X199114990Y-104496201D01*
X199114993Y-104496203D01*
X199114996Y-104496206D01*
X199287991Y-104621894D01*
X199287996Y-104621896D01*
X199289088Y-104622566D01*
X199289418Y-104622931D01*
X199291996Y-104624804D01*
X199291602Y-104625345D01*
X199336721Y-104675213D01*
X199348328Y-104745255D01*
X199320226Y-104810453D01*
X199291870Y-104835023D01*
X199291996Y-104835196D01*
X199289982Y-104836658D01*
X199289088Y-104837434D01*
X199287987Y-104838108D01*
X199114993Y-104963796D01*
X199114990Y-104963798D01*
X198963798Y-105114990D01*
X198963796Y-105114993D01*
X198838108Y-105287987D01*
X198741029Y-105478515D01*
X198741026Y-105478521D01*
X198674952Y-105681878D01*
X198674951Y-105681883D01*
X198674951Y-105681884D01*
X198641500Y-105893084D01*
X198641500Y-106106916D01*
X198662974Y-106242494D01*
X198674952Y-106318121D01*
X198741026Y-106521478D01*
X198741028Y-106521483D01*
X198838106Y-106712009D01*
X198963794Y-106885004D01*
X198963796Y-106885006D01*
X198963798Y-106885009D01*
X199114990Y-107036201D01*
X199114993Y-107036203D01*
X199114996Y-107036206D01*
X199287991Y-107161894D01*
X199287996Y-107161896D01*
X199289088Y-107162566D01*
X199289418Y-107162931D01*
X199291996Y-107164804D01*
X199291602Y-107165345D01*
X199336721Y-107215213D01*
X199348328Y-107285255D01*
X199320226Y-107350453D01*
X199291870Y-107375023D01*
X199291996Y-107375196D01*
X199289982Y-107376658D01*
X199289088Y-107377434D01*
X199287987Y-107378108D01*
X199114993Y-107503796D01*
X199114990Y-107503798D01*
X198963798Y-107654990D01*
X198963796Y-107654993D01*
X198909620Y-107729561D01*
X198853398Y-107772915D01*
X198807684Y-107781500D01*
X198723207Y-107781500D01*
X198649943Y-107796073D01*
X198649943Y-107796074D01*
X198576672Y-107810649D01*
X198576670Y-107810649D01*
X198576669Y-107810650D01*
X198438633Y-107867827D01*
X198314402Y-107950835D01*
X198223595Y-108041642D01*
X198161283Y-108075667D01*
X198090467Y-108070601D01*
X198033631Y-108028054D01*
X198008821Y-107961534D01*
X198008500Y-107952546D01*
X198008500Y-107817022D01*
X198007491Y-107810649D01*
X197976280Y-107613592D01*
X197912634Y-107417710D01*
X197819129Y-107234197D01*
X197698068Y-107067570D01*
X197698065Y-107067567D01*
X197698063Y-107067564D01*
X197552435Y-106921936D01*
X197552432Y-106921934D01*
X197552430Y-106921932D01*
X197385803Y-106800871D01*
X197310034Y-106762265D01*
X197258422Y-106713519D01*
X197241356Y-106644604D01*
X197264257Y-106577402D01*
X197310034Y-106537735D01*
X197385803Y-106499129D01*
X197552430Y-106378068D01*
X197698068Y-106232430D01*
X197819129Y-106065803D01*
X197912634Y-105882290D01*
X197976280Y-105686408D01*
X198008500Y-105482981D01*
X198008500Y-105277019D01*
X197976280Y-105073592D01*
X197912634Y-104877710D01*
X197819129Y-104694197D01*
X197698068Y-104527570D01*
X197698065Y-104527567D01*
X197698063Y-104527564D01*
X197552435Y-104381936D01*
X197552432Y-104381934D01*
X197552430Y-104381932D01*
X197385803Y-104260871D01*
X197310034Y-104222265D01*
X197258422Y-104173519D01*
X197241356Y-104104604D01*
X197264257Y-104037402D01*
X197310034Y-103997735D01*
X197385803Y-103959129D01*
X197552430Y-103838068D01*
X197698068Y-103692430D01*
X197819129Y-103525803D01*
X197912634Y-103342290D01*
X197976280Y-103146408D01*
X198008500Y-102942981D01*
X198008500Y-102737019D01*
X197976280Y-102533592D01*
X197912634Y-102337710D01*
X197819129Y-102154197D01*
X197698068Y-101987570D01*
X197698065Y-101987567D01*
X197698063Y-101987564D01*
X197552435Y-101841936D01*
X197552432Y-101841934D01*
X197552430Y-101841932D01*
X197403871Y-101733998D01*
X197385806Y-101720873D01*
X197385805Y-101720872D01*
X197385803Y-101720871D01*
X197310034Y-101682265D01*
X197258422Y-101633519D01*
X197241356Y-101564604D01*
X197264257Y-101497402D01*
X197310034Y-101457735D01*
X197385803Y-101419129D01*
X197552430Y-101298068D01*
X197698068Y-101152430D01*
X197819129Y-100985803D01*
X197912634Y-100802290D01*
X197976280Y-100606408D01*
X198008500Y-100402981D01*
X198008500Y-100197019D01*
X197976280Y-99993592D01*
X197912634Y-99797710D01*
X197819129Y-99614197D01*
X197698068Y-99447570D01*
X197698065Y-99447567D01*
X197698063Y-99447564D01*
X197552435Y-99301936D01*
X197552432Y-99301934D01*
X197552430Y-99301932D01*
X197385803Y-99180871D01*
X197309486Y-99141985D01*
X197257873Y-99093239D01*
X197240807Y-99024324D01*
X197263708Y-98957122D01*
X197309488Y-98917453D01*
X197385545Y-98878699D01*
X197552107Y-98757684D01*
X197552110Y-98757682D01*
X197697682Y-98612110D01*
X197697684Y-98612107D01*
X197818699Y-98445545D01*
X197912170Y-98262099D01*
X197912173Y-98262093D01*
X197975791Y-98066295D01*
X197984074Y-98014000D01*
X197011686Y-98014000D01*
X197020080Y-98005606D01*
X197072741Y-97914394D01*
X197100000Y-97812661D01*
X197100000Y-97707339D01*
X197072741Y-97605606D01*
X197020080Y-97514394D01*
X197011686Y-97506000D01*
X197984074Y-97506000D01*
X197975791Y-97453704D01*
X197912173Y-97257906D01*
X197912170Y-97257900D01*
X197818699Y-97074454D01*
X197697684Y-96907892D01*
X197697682Y-96907889D01*
X197552110Y-96762317D01*
X197552107Y-96762315D01*
X197385542Y-96641298D01*
X197309487Y-96602545D01*
X197257872Y-96553797D01*
X197240807Y-96484882D01*
X197263708Y-96417680D01*
X197309485Y-96378014D01*
X197385803Y-96339129D01*
X197552430Y-96218068D01*
X197698068Y-96072430D01*
X197819129Y-95905803D01*
X197912634Y-95722290D01*
X197976280Y-95526408D01*
X198008500Y-95322981D01*
X198008500Y-95117019D01*
X197976280Y-94913592D01*
X197912634Y-94717710D01*
X197819129Y-94534197D01*
X197698068Y-94367570D01*
X197698065Y-94367567D01*
X197698063Y-94367564D01*
X197552435Y-94221936D01*
X197552432Y-94221934D01*
X197552430Y-94221932D01*
X197387357Y-94102000D01*
X197385806Y-94100873D01*
X197385805Y-94100872D01*
X197385803Y-94100871D01*
X197202290Y-94007366D01*
X197202287Y-94007365D01*
X197202285Y-94007364D01*
X197006412Y-93943721D01*
X197006410Y-93943720D01*
X197006408Y-93943720D01*
X196802981Y-93911500D01*
X196597019Y-93911500D01*
X196393592Y-93943720D01*
X196393590Y-93943720D01*
X196393587Y-93943721D01*
X196197714Y-94007364D01*
X196197708Y-94007367D01*
X196014193Y-94100873D01*
X195847567Y-94221934D01*
X195847564Y-94221936D01*
X195701936Y-94367564D01*
X195701934Y-94367567D01*
X195580873Y-94534193D01*
X195487367Y-94717708D01*
X195487364Y-94717714D01*
X195423721Y-94913587D01*
X195423720Y-94913590D01*
X195423720Y-94913592D01*
X195391500Y-95117019D01*
X195391500Y-95322981D01*
X195423720Y-95526408D01*
X195487366Y-95722290D01*
X195580871Y-95905803D01*
X195701932Y-96072430D01*
X195701934Y-96072432D01*
X195701936Y-96072435D01*
X195847564Y-96218063D01*
X195847567Y-96218065D01*
X195847570Y-96218068D01*
X196014197Y-96339129D01*
X196090511Y-96378013D01*
X196142126Y-96426760D01*
X196159192Y-96495675D01*
X196136292Y-96562876D01*
X196090513Y-96602545D01*
X196014455Y-96641299D01*
X195847892Y-96762315D01*
X195847889Y-96762317D01*
X195702317Y-96907889D01*
X195702315Y-96907892D01*
X195581300Y-97074454D01*
X195487829Y-97257900D01*
X195487826Y-97257906D01*
X195424208Y-97453704D01*
X195415926Y-97506000D01*
X196388314Y-97506000D01*
X196379920Y-97514394D01*
X196327259Y-97605606D01*
X196300000Y-97707339D01*
X196300000Y-97812661D01*
X196327259Y-97914394D01*
X196379920Y-98005606D01*
X196388314Y-98014000D01*
X195415926Y-98014000D01*
X195424208Y-98066295D01*
X195487826Y-98262093D01*
X195487829Y-98262099D01*
X195581300Y-98445545D01*
X195702315Y-98612107D01*
X195702317Y-98612110D01*
X195847889Y-98757682D01*
X195847892Y-98757684D01*
X196014455Y-98878700D01*
X196090511Y-98917453D01*
X196142126Y-98966202D01*
X196159192Y-99035117D01*
X196136291Y-99102318D01*
X196090511Y-99141987D01*
X196014193Y-99180872D01*
X195847567Y-99301934D01*
X195847564Y-99301936D01*
X195701936Y-99447564D01*
X195701934Y-99447567D01*
X195580873Y-99614193D01*
X195487367Y-99797708D01*
X195487364Y-99797714D01*
X195423721Y-99993587D01*
X195423720Y-99993590D01*
X195423720Y-99993592D01*
X195391500Y-100197019D01*
X195391500Y-100402981D01*
X195423720Y-100606408D01*
X195487366Y-100802290D01*
X195580871Y-100985803D01*
X195701932Y-101152430D01*
X195701934Y-101152432D01*
X195701936Y-101152435D01*
X195847564Y-101298063D01*
X195847567Y-101298065D01*
X195847570Y-101298068D01*
X196014197Y-101419129D01*
X196089962Y-101457733D01*
X196141577Y-101506482D01*
X196158643Y-101575397D01*
X196135742Y-101642598D01*
X196089963Y-101682266D01*
X196021033Y-101717387D01*
X196014193Y-101720873D01*
X195847567Y-101841934D01*
X195847564Y-101841936D01*
X195701936Y-101987564D01*
X195701934Y-101987567D01*
X195580873Y-102154193D01*
X195487367Y-102337708D01*
X195487364Y-102337714D01*
X195423721Y-102533587D01*
X195423720Y-102533590D01*
X195423720Y-102533592D01*
X195391500Y-102737019D01*
X195391500Y-102942981D01*
X195423720Y-103146408D01*
X195423721Y-103146412D01*
X195486589Y-103339901D01*
X195487366Y-103342290D01*
X195570782Y-103506002D01*
X195580873Y-103525806D01*
X195605468Y-103559658D01*
X195701932Y-103692430D01*
X195701934Y-103692432D01*
X195701936Y-103692435D01*
X195847564Y-103838063D01*
X195847567Y-103838065D01*
X195847570Y-103838068D01*
X196014197Y-103959129D01*
X196089962Y-103997733D01*
X196141577Y-104046482D01*
X196158643Y-104115397D01*
X196135742Y-104182598D01*
X196089963Y-104222266D01*
X196021033Y-104257387D01*
X196014193Y-104260873D01*
X195847567Y-104381934D01*
X195847564Y-104381936D01*
X195701936Y-104527564D01*
X195701934Y-104527567D01*
X195580873Y-104694193D01*
X195487367Y-104877708D01*
X195487364Y-104877714D01*
X195423721Y-105073587D01*
X195423720Y-105073590D01*
X195423720Y-105073592D01*
X195391500Y-105277019D01*
X195391500Y-105482981D01*
X195423720Y-105686408D01*
X195423721Y-105686412D01*
X195469759Y-105828103D01*
X195487366Y-105882290D01*
X195580871Y-106065803D01*
X195580873Y-106065806D01*
X195592430Y-106081713D01*
X195701932Y-106232430D01*
X195701934Y-106232432D01*
X195701936Y-106232435D01*
X195847564Y-106378063D01*
X195847567Y-106378065D01*
X195847570Y-106378068D01*
X196014197Y-106499129D01*
X196089962Y-106537733D01*
X196141577Y-106586482D01*
X196158643Y-106655397D01*
X196135742Y-106722598D01*
X196089963Y-106762266D01*
X196021033Y-106797387D01*
X196014193Y-106800873D01*
X195847567Y-106921934D01*
X195847564Y-106921936D01*
X195701936Y-107067564D01*
X195701934Y-107067567D01*
X195580873Y-107234193D01*
X195487367Y-107417708D01*
X195487364Y-107417714D01*
X195423721Y-107613587D01*
X195423720Y-107613590D01*
X195423720Y-107613592D01*
X195391500Y-107817019D01*
X195391500Y-108022981D01*
X195423720Y-108226408D01*
X195423721Y-108226413D01*
X195430269Y-108246565D01*
X195432296Y-108317533D01*
X195395634Y-108378331D01*
X195331921Y-108409656D01*
X195310436Y-108411501D01*
X189605293Y-108411501D01*
X189569135Y-108418693D01*
X189551056Y-108422290D01*
X189458753Y-108440650D01*
X189458748Y-108440652D01*
X189320717Y-108497827D01*
X189196484Y-108580836D01*
X189196478Y-108580841D01*
X185357869Y-112419450D01*
X185295557Y-112453476D01*
X185224741Y-112448411D01*
X185167906Y-112405864D01*
X185156512Y-112387565D01*
X185119129Y-112314197D01*
X184998068Y-112147570D01*
X184998065Y-112147567D01*
X184998063Y-112147564D01*
X184852435Y-112001936D01*
X184852432Y-112001934D01*
X184852430Y-112001932D01*
X184685803Y-111880871D01*
X184610034Y-111842265D01*
X184558422Y-111793519D01*
X184541356Y-111724604D01*
X184564257Y-111657402D01*
X184610034Y-111617735D01*
X184685803Y-111579129D01*
X184852430Y-111458068D01*
X184998068Y-111312430D01*
X185119129Y-111145803D01*
X185212634Y-110962290D01*
X185276280Y-110766408D01*
X185308500Y-110562981D01*
X185308500Y-110357019D01*
X185276280Y-110153592D01*
X185276277Y-110153583D01*
X185276208Y-110153146D01*
X185285307Y-110082735D01*
X185311559Y-110044343D01*
X190230071Y-105125833D01*
X190299400Y-105022075D01*
X190347155Y-104906785D01*
X190354047Y-104872136D01*
X190371500Y-104784394D01*
X190371500Y-102907382D01*
X190391502Y-102839261D01*
X190392690Y-102837447D01*
X190454483Y-102744968D01*
X190515430Y-102597831D01*
X190546500Y-102441630D01*
X190546500Y-102282370D01*
X190515430Y-102126169D01*
X190454483Y-101979032D01*
X190366003Y-101846611D01*
X190366001Y-101846609D01*
X190365996Y-101846603D01*
X190253396Y-101734003D01*
X190253390Y-101733998D01*
X190233744Y-101720871D01*
X190120968Y-101645517D01*
X189973831Y-101584570D01*
X189895730Y-101569035D01*
X189817632Y-101553500D01*
X189817630Y-101553500D01*
X189658370Y-101553500D01*
X189658367Y-101553500D01*
X189548285Y-101575397D01*
X189502169Y-101584570D01*
X189383997Y-101633519D01*
X189355032Y-101645517D01*
X189222609Y-101733998D01*
X189222603Y-101734003D01*
X189110003Y-101846603D01*
X189109998Y-101846609D01*
X189109997Y-101846611D01*
X189021517Y-101979032D01*
X188960570Y-102126169D01*
X188952802Y-102165219D01*
X188929500Y-102282367D01*
X188929500Y-102441632D01*
X188944392Y-102516500D01*
X188960570Y-102597831D01*
X189021517Y-102744968D01*
X189083265Y-102837382D01*
X189104480Y-102905133D01*
X189104500Y-102907382D01*
X189104500Y-104407405D01*
X189084498Y-104475526D01*
X189067595Y-104496500D01*
X185523595Y-108040500D01*
X185461283Y-108074526D01*
X185390468Y-108069461D01*
X185333632Y-108026914D01*
X185308821Y-107960394D01*
X185308500Y-107951405D01*
X185308500Y-107817022D01*
X185307491Y-107810649D01*
X185276280Y-107613592D01*
X185212634Y-107417710D01*
X185119129Y-107234197D01*
X184998068Y-107067570D01*
X184998065Y-107067567D01*
X184998063Y-107067564D01*
X184852435Y-106921936D01*
X184852432Y-106921934D01*
X184852430Y-106921932D01*
X184685803Y-106800871D01*
X184610034Y-106762265D01*
X184558422Y-106713519D01*
X184541356Y-106644604D01*
X184564257Y-106577402D01*
X184610034Y-106537735D01*
X184685803Y-106499129D01*
X184852430Y-106378068D01*
X184998068Y-106232430D01*
X185119129Y-106065803D01*
X185212634Y-105882290D01*
X185276280Y-105686408D01*
X185308500Y-105482981D01*
X185308500Y-105277019D01*
X185276280Y-105073592D01*
X185212634Y-104877710D01*
X185119129Y-104694197D01*
X184998068Y-104527570D01*
X184998065Y-104527567D01*
X184998063Y-104527564D01*
X184852435Y-104381936D01*
X184852432Y-104381934D01*
X184852430Y-104381932D01*
X184685803Y-104260871D01*
X184610034Y-104222265D01*
X184558422Y-104173519D01*
X184541356Y-104104604D01*
X184564257Y-104037402D01*
X184610034Y-103997735D01*
X184685803Y-103959129D01*
X184852430Y-103838068D01*
X184998068Y-103692430D01*
X185119129Y-103525803D01*
X185212634Y-103342290D01*
X185276280Y-103146408D01*
X185308500Y-102942981D01*
X185308500Y-102737019D01*
X185276280Y-102533592D01*
X185276277Y-102533583D01*
X185276208Y-102533146D01*
X185285307Y-102462735D01*
X185311559Y-102424343D01*
X188569072Y-99166832D01*
X188638401Y-99063074D01*
X188686156Y-98947784D01*
X188710501Y-98825393D01*
X188710501Y-98700605D01*
X188710501Y-94214212D01*
X188711306Y-94211469D01*
X188710622Y-94208695D01*
X188721245Y-94177618D01*
X188730503Y-94146091D01*
X188732663Y-94144218D01*
X188733588Y-94141515D01*
X188759328Y-94121113D01*
X188784159Y-94099598D01*
X188786988Y-94099191D01*
X188789228Y-94097416D01*
X188821915Y-94094169D01*
X188854433Y-94089494D01*
X188857900Y-94090595D01*
X188859876Y-94090399D01*
X188868930Y-94094098D01*
X188893812Y-94102000D01*
X188900366Y-94105347D01*
X188917032Y-94116483D01*
X188944213Y-94127741D01*
X188948670Y-94130018D01*
X188955428Y-94136413D01*
X188980454Y-94153135D01*
X189204595Y-94377276D01*
X189238621Y-94439588D01*
X189241500Y-94466371D01*
X189241500Y-95693404D01*
X189231909Y-95741622D01*
X189222572Y-95764162D01*
X189222570Y-95764168D01*
X189191500Y-95920367D01*
X189191500Y-95920370D01*
X189191500Y-96079630D01*
X189222570Y-96235831D01*
X189283517Y-96382968D01*
X189351613Y-96484882D01*
X189371998Y-96515390D01*
X189372003Y-96515396D01*
X189484603Y-96627996D01*
X189484609Y-96628001D01*
X189484611Y-96628003D01*
X189617032Y-96716483D01*
X189764169Y-96777430D01*
X189920370Y-96808500D01*
X189920371Y-96808500D01*
X190079629Y-96808500D01*
X190079630Y-96808500D01*
X190235831Y-96777430D01*
X190382968Y-96716483D01*
X190515389Y-96628003D01*
X190628003Y-96515389D01*
X190716483Y-96382968D01*
X190777430Y-96235831D01*
X190808500Y-96079630D01*
X190808500Y-95920370D01*
X190777430Y-95764169D01*
X190768091Y-95741622D01*
X190758500Y-95693404D01*
X190758500Y-94025293D01*
X190758499Y-94025290D01*
X190752706Y-93996167D01*
X190729351Y-93878754D01*
X190672174Y-93740716D01*
X190589165Y-93616484D01*
X190483516Y-93510835D01*
X190053135Y-93080454D01*
X190034856Y-93057290D01*
X190029639Y-93048793D01*
X190016483Y-93017032D01*
X189938157Y-92899808D01*
X189936896Y-92897754D01*
X189928205Y-92865738D01*
X189918290Y-92834071D01*
X189918953Y-92831653D01*
X189918297Y-92829237D01*
X189928289Y-92797620D01*
X189937073Y-92765604D01*
X189939297Y-92762792D01*
X189939693Y-92761541D01*
X189941431Y-92760096D01*
X189955167Y-92742736D01*
X190427501Y-92270402D01*
X190489811Y-92236379D01*
X190516594Y-92233500D01*
X197262393Y-92233500D01*
X197262394Y-92233500D01*
X197384785Y-92209155D01*
X197500075Y-92161400D01*
X197603833Y-92092071D01*
X199662309Y-90033594D01*
X199724619Y-89999571D01*
X199726759Y-89999125D01*
X199835831Y-89977430D01*
X199835834Y-89977428D01*
X199835837Y-89977428D01*
X199982963Y-89916485D01*
X199982962Y-89916485D01*
X199982968Y-89916483D01*
X200115389Y-89828003D01*
X200228003Y-89715389D01*
X200316483Y-89582968D01*
X200377430Y-89435831D01*
X200408500Y-89279630D01*
X200408500Y-89120370D01*
X200377430Y-88964169D01*
X200316483Y-88817032D01*
X200228003Y-88684611D01*
X200228001Y-88684609D01*
X200227996Y-88684603D01*
X200115396Y-88572003D01*
X200115390Y-88571998D01*
X200115389Y-88571997D01*
X199982968Y-88483517D01*
X199835831Y-88422570D01*
X199757730Y-88407035D01*
X199679632Y-88391500D01*
X199679630Y-88391500D01*
X199520370Y-88391500D01*
X199520367Y-88391500D01*
X199403219Y-88414802D01*
X199364169Y-88422570D01*
X199364167Y-88422571D01*
X199217032Y-88483517D01*
X199084609Y-88571998D01*
X199084603Y-88572003D01*
X198972003Y-88684603D01*
X198971998Y-88684609D01*
X198883517Y-88817032D01*
X198822570Y-88964168D01*
X198800886Y-89073178D01*
X198767978Y-89136087D01*
X198766403Y-89137690D01*
X196974501Y-90929595D01*
X196912188Y-90963620D01*
X196885405Y-90966500D01*
X190139603Y-90966500D01*
X190066568Y-90981028D01*
X190017215Y-90990845D01*
X190017213Y-90990845D01*
X190017212Y-90990846D01*
X189901923Y-91038601D01*
X189798171Y-91107926D01*
X189798164Y-91107931D01*
X188948595Y-91957501D01*
X188886283Y-91991527D01*
X188815468Y-91986462D01*
X188758632Y-91943915D01*
X188733821Y-91877395D01*
X188733500Y-91868406D01*
X188733500Y-88645382D01*
X188753502Y-88577261D01*
X188754690Y-88575447D01*
X188816483Y-88482968D01*
X188877430Y-88335831D01*
X188908500Y-88179630D01*
X188908500Y-88020370D01*
X188877430Y-87864169D01*
X188816483Y-87717032D01*
X188728003Y-87584611D01*
X188728001Y-87584609D01*
X188727996Y-87584603D01*
X188615396Y-87472003D01*
X188615390Y-87471998D01*
X188615389Y-87471997D01*
X188482968Y-87383517D01*
X188335831Y-87322570D01*
X188257730Y-87307035D01*
X188179632Y-87291500D01*
X188179630Y-87291500D01*
X188020370Y-87291500D01*
X188020367Y-87291500D01*
X187903219Y-87314802D01*
X187864169Y-87322570D01*
X187864167Y-87322571D01*
X187717032Y-87383517D01*
X187584609Y-87471998D01*
X187584603Y-87472003D01*
X187472003Y-87584603D01*
X187471998Y-87584609D01*
X187383517Y-87717032D01*
X187322571Y-87864167D01*
X187322570Y-87864170D01*
X187291500Y-88020367D01*
X187291500Y-88020370D01*
X187291500Y-88179630D01*
X187322570Y-88335831D01*
X187383517Y-88482968D01*
X187445265Y-88575382D01*
X187466480Y-88643133D01*
X187466500Y-88645382D01*
X187466500Y-92421406D01*
X187446498Y-92489527D01*
X187429595Y-92510501D01*
X185943931Y-93996164D01*
X185943926Y-93996171D01*
X185881570Y-94089494D01*
X185874600Y-94099925D01*
X185865824Y-94121113D01*
X185828397Y-94211469D01*
X185826845Y-94215215D01*
X185817028Y-94264568D01*
X185802500Y-94337603D01*
X185802500Y-98260615D01*
X185782498Y-98328736D01*
X185781266Y-98330615D01*
X185719518Y-98423029D01*
X185719517Y-98423031D01*
X185681885Y-98513883D01*
X185666794Y-98550316D01*
X185658571Y-98570167D01*
X185658570Y-98570170D01*
X185627500Y-98726367D01*
X185627500Y-98885632D01*
X185641776Y-98957402D01*
X185658570Y-99041831D01*
X185719517Y-99188968D01*
X185794998Y-99301934D01*
X185807998Y-99321390D01*
X185808003Y-99321396D01*
X185920603Y-99433996D01*
X185920609Y-99434001D01*
X185920611Y-99434003D01*
X186053032Y-99522483D01*
X186139440Y-99558274D01*
X186194720Y-99602823D01*
X186217141Y-99670186D01*
X186199583Y-99738977D01*
X186180317Y-99763778D01*
X185523593Y-100420501D01*
X185461283Y-100454525D01*
X185390468Y-100449461D01*
X185333632Y-100406914D01*
X185308821Y-100340394D01*
X185308500Y-100331405D01*
X185308500Y-100197022D01*
X185292631Y-100096830D01*
X185276280Y-99993592D01*
X185212634Y-99797710D01*
X185119129Y-99614197D01*
X184998068Y-99447570D01*
X184998065Y-99447567D01*
X184998063Y-99447564D01*
X184852435Y-99301936D01*
X184852432Y-99301934D01*
X184852430Y-99301932D01*
X184685803Y-99180871D01*
X184610034Y-99142265D01*
X184558422Y-99093519D01*
X184541356Y-99024604D01*
X184564257Y-98957402D01*
X184610034Y-98917735D01*
X184685803Y-98879129D01*
X184852430Y-98758068D01*
X184998068Y-98612430D01*
X185119129Y-98445803D01*
X185212634Y-98262290D01*
X185276280Y-98066408D01*
X185308500Y-97862981D01*
X185308500Y-97657019D01*
X185276280Y-97453592D01*
X185212634Y-97257710D01*
X185119129Y-97074197D01*
X184998068Y-96907570D01*
X184998065Y-96907567D01*
X184998063Y-96907564D01*
X184852435Y-96761936D01*
X184852432Y-96761934D01*
X184852430Y-96761932D01*
X184685803Y-96640871D01*
X184609486Y-96601985D01*
X184557873Y-96553239D01*
X184540807Y-96484324D01*
X184563708Y-96417122D01*
X184609488Y-96377453D01*
X184685545Y-96338699D01*
X184852107Y-96217684D01*
X184852110Y-96217682D01*
X184997682Y-96072110D01*
X184997684Y-96072107D01*
X185118699Y-95905545D01*
X185212170Y-95722099D01*
X185212173Y-95722093D01*
X185275791Y-95526295D01*
X185284074Y-95474000D01*
X184311686Y-95474000D01*
X184320080Y-95465606D01*
X184372741Y-95374394D01*
X184400000Y-95272661D01*
X184400000Y-95167339D01*
X184372741Y-95065606D01*
X184320080Y-94974394D01*
X184311686Y-94966000D01*
X185284074Y-94966000D01*
X185275791Y-94913704D01*
X185212173Y-94717906D01*
X185212170Y-94717900D01*
X185118699Y-94534454D01*
X184997684Y-94367892D01*
X184997682Y-94367889D01*
X184852110Y-94222317D01*
X184852107Y-94222315D01*
X184685545Y-94101300D01*
X184502099Y-94007829D01*
X184502093Y-94007826D01*
X184306294Y-93944208D01*
X184306296Y-93944208D01*
X184254000Y-93935925D01*
X184254000Y-94908314D01*
X184245606Y-94899920D01*
X184154394Y-94847259D01*
X184052661Y-94820000D01*
X183947339Y-94820000D01*
X183845606Y-94847259D01*
X183754394Y-94899920D01*
X183746000Y-94908314D01*
X183746000Y-93935925D01*
X183693704Y-93944208D01*
X183497906Y-94007826D01*
X183497900Y-94007829D01*
X183314454Y-94101300D01*
X183147892Y-94222315D01*
X183147889Y-94222317D01*
X183002317Y-94367889D01*
X183002315Y-94367892D01*
X182881300Y-94534454D01*
X182787829Y-94717900D01*
X182787826Y-94717906D01*
X182724208Y-94913704D01*
X182715926Y-94966000D01*
X183688314Y-94966000D01*
X183679920Y-94974394D01*
X183627259Y-95065606D01*
X183600000Y-95167339D01*
X183600000Y-95272661D01*
X183627259Y-95374394D01*
X183679920Y-95465606D01*
X183688314Y-95474000D01*
X182715926Y-95474000D01*
X182724208Y-95526295D01*
X182787826Y-95722093D01*
X182787829Y-95722099D01*
X182881300Y-95905545D01*
X183002315Y-96072107D01*
X183002317Y-96072110D01*
X183147889Y-96217682D01*
X183147892Y-96217684D01*
X183314455Y-96338700D01*
X183390511Y-96377453D01*
X183442126Y-96426202D01*
X183459192Y-96495117D01*
X183436291Y-96562318D01*
X183390511Y-96601987D01*
X183314193Y-96640872D01*
X183147567Y-96761934D01*
X183147564Y-96761936D01*
X183001936Y-96907564D01*
X183001934Y-96907567D01*
X182880873Y-97074193D01*
X182787367Y-97257708D01*
X182787364Y-97257714D01*
X182723721Y-97453587D01*
X182723720Y-97453590D01*
X182723720Y-97453592D01*
X182691500Y-97657019D01*
X182691500Y-97862981D01*
X182723702Y-98066295D01*
X182723721Y-98066412D01*
X182786821Y-98260615D01*
X182787366Y-98262290D01*
X182880871Y-98445803D01*
X183001932Y-98612430D01*
X183001934Y-98612432D01*
X183001936Y-98612435D01*
X183147564Y-98758063D01*
X183147567Y-98758065D01*
X183147570Y-98758068D01*
X183314197Y-98879129D01*
X183389962Y-98917733D01*
X183441577Y-98966482D01*
X183458643Y-99035397D01*
X183435742Y-99102598D01*
X183389963Y-99142266D01*
X183341752Y-99166831D01*
X183314193Y-99180873D01*
X183147567Y-99301934D01*
X183147564Y-99301936D01*
X183001936Y-99447564D01*
X183001934Y-99447567D01*
X182880873Y-99614193D01*
X182787367Y-99797708D01*
X182787364Y-99797714D01*
X182723721Y-99993587D01*
X182723720Y-99993590D01*
X182723720Y-99993592D01*
X182691500Y-100197019D01*
X182691500Y-100402981D01*
X182723720Y-100606408D01*
X182787366Y-100802290D01*
X182880871Y-100985803D01*
X183001932Y-101152430D01*
X183001934Y-101152432D01*
X183001936Y-101152435D01*
X183147564Y-101298063D01*
X183147567Y-101298065D01*
X183147570Y-101298068D01*
X183314197Y-101419129D01*
X183389962Y-101457733D01*
X183441577Y-101506482D01*
X183458643Y-101575397D01*
X183435742Y-101642598D01*
X183389963Y-101682266D01*
X183321033Y-101717387D01*
X183314193Y-101720873D01*
X183147567Y-101841934D01*
X183147564Y-101841936D01*
X183001936Y-101987564D01*
X183001934Y-101987567D01*
X182880873Y-102154193D01*
X182787367Y-102337708D01*
X182787364Y-102337714D01*
X182723721Y-102533587D01*
X182723720Y-102533590D01*
X182723720Y-102533592D01*
X182691500Y-102737019D01*
X182691500Y-102942981D01*
X182723720Y-103146408D01*
X182723721Y-103146412D01*
X182786589Y-103339901D01*
X182787366Y-103342290D01*
X182870782Y-103506002D01*
X182880873Y-103525806D01*
X182905468Y-103559658D01*
X183001932Y-103692430D01*
X183001934Y-103692432D01*
X183001936Y-103692435D01*
X183147564Y-103838063D01*
X183147567Y-103838065D01*
X183147570Y-103838068D01*
X183314197Y-103959129D01*
X183389962Y-103997733D01*
X183441577Y-104046482D01*
X183458643Y-104115397D01*
X183435742Y-104182598D01*
X183389963Y-104222266D01*
X183321033Y-104257387D01*
X183314193Y-104260873D01*
X183147567Y-104381934D01*
X183147564Y-104381936D01*
X183001936Y-104527564D01*
X183001934Y-104527567D01*
X182880873Y-104694193D01*
X182787367Y-104877708D01*
X182787364Y-104877714D01*
X182723721Y-105073587D01*
X182723720Y-105073590D01*
X182723720Y-105073592D01*
X182691500Y-105277019D01*
X182691500Y-105482981D01*
X182723720Y-105686408D01*
X182723721Y-105686412D01*
X182769759Y-105828103D01*
X182787366Y-105882290D01*
X182880871Y-106065803D01*
X182880873Y-106065806D01*
X182892430Y-106081713D01*
X183001932Y-106232430D01*
X183001934Y-106232432D01*
X183001936Y-106232435D01*
X183147564Y-106378063D01*
X183147567Y-106378065D01*
X183147570Y-106378068D01*
X183314197Y-106499129D01*
X183389962Y-106537733D01*
X183441577Y-106586482D01*
X183458643Y-106655397D01*
X183435742Y-106722598D01*
X183389963Y-106762266D01*
X183321033Y-106797387D01*
X183314193Y-106800873D01*
X183147567Y-106921934D01*
X183147564Y-106921936D01*
X183001936Y-107067564D01*
X183001934Y-107067567D01*
X182880873Y-107234193D01*
X182787367Y-107417708D01*
X182787364Y-107417714D01*
X182723721Y-107613587D01*
X182723720Y-107613590D01*
X182723720Y-107613592D01*
X182691500Y-107817019D01*
X182691500Y-108022981D01*
X182723720Y-108226408D01*
X182723721Y-108226412D01*
X182773082Y-108378331D01*
X182787366Y-108422290D01*
X182880871Y-108605803D01*
X183001932Y-108772430D01*
X183001934Y-108772432D01*
X183001936Y-108772435D01*
X183147564Y-108918063D01*
X183147567Y-108918065D01*
X183147570Y-108918068D01*
X183314197Y-109039129D01*
X183389962Y-109077733D01*
X183441577Y-109126482D01*
X183458643Y-109195397D01*
X183435742Y-109262598D01*
X183389963Y-109302266D01*
X183321033Y-109337387D01*
X183314193Y-109340873D01*
X183147567Y-109461934D01*
X183147564Y-109461936D01*
X183001936Y-109607564D01*
X183001934Y-109607567D01*
X182880606Y-109774561D01*
X182824384Y-109817915D01*
X182778670Y-109826500D01*
X181874594Y-109826500D01*
X181806473Y-109806498D01*
X181785499Y-109789595D01*
X181470405Y-109474501D01*
X181436379Y-109412189D01*
X181433500Y-109385406D01*
X181433500Y-105937607D01*
X181433499Y-105937603D01*
X181409155Y-105815215D01*
X181400329Y-105793908D01*
X181361401Y-105699925D01*
X181292072Y-105596167D01*
X181133596Y-105437691D01*
X181099570Y-105375379D01*
X181099124Y-105373236D01*
X181077430Y-105264169D01*
X181077428Y-105264166D01*
X181077428Y-105264162D01*
X181016485Y-105117036D01*
X181016483Y-105117032D01*
X180993286Y-105082315D01*
X180928003Y-104984611D01*
X180928001Y-104984609D01*
X180927996Y-104984603D01*
X180817742Y-104874349D01*
X180783716Y-104812037D01*
X180788781Y-104741222D01*
X180831328Y-104684386D01*
X180836787Y-104680522D01*
X180915389Y-104628003D01*
X181028003Y-104515389D01*
X181116483Y-104382968D01*
X181177430Y-104235831D01*
X181208500Y-104079630D01*
X181208500Y-103920370D01*
X181177430Y-103764169D01*
X181116483Y-103617032D01*
X181028003Y-103484611D01*
X181028001Y-103484609D01*
X181027996Y-103484603D01*
X180915396Y-103372003D01*
X180915390Y-103371998D01*
X180915389Y-103371997D01*
X180782968Y-103283517D01*
X180635831Y-103222570D01*
X180557730Y-103207035D01*
X180479632Y-103191500D01*
X180479630Y-103191500D01*
X180320370Y-103191500D01*
X180320367Y-103191500D01*
X180203219Y-103214802D01*
X180164169Y-103222570D01*
X180164167Y-103222571D01*
X180017032Y-103283517D01*
X179884609Y-103371998D01*
X179884603Y-103372003D01*
X179772003Y-103484603D01*
X179771998Y-103484609D01*
X179683517Y-103617032D01*
X179622570Y-103764168D01*
X179600886Y-103873179D01*
X179567978Y-103936088D01*
X179566403Y-103937691D01*
X179271166Y-104232930D01*
X179182926Y-104321170D01*
X179182925Y-104321172D01*
X179113600Y-104424924D01*
X179071085Y-104527564D01*
X179065844Y-104540216D01*
X179062001Y-104559537D01*
X179041499Y-104662604D01*
X179041499Y-109868765D01*
X179050482Y-109913925D01*
X179065844Y-109991154D01*
X179113599Y-110106444D01*
X179182928Y-110210202D01*
X179182930Y-110210204D01*
X182249132Y-113276406D01*
X182283158Y-113338718D01*
X182278093Y-113409533D01*
X182235546Y-113466369D01*
X182169026Y-113491180D01*
X182160037Y-113491501D01*
X165918807Y-113491501D01*
X165850686Y-113471499D01*
X165829712Y-113454596D01*
X164606832Y-112231716D01*
X164572806Y-112169404D01*
X164569927Y-112142621D01*
X164569927Y-107023411D01*
X164569926Y-107023407D01*
X164556916Y-106958000D01*
X164535975Y-106852720D01*
X164514498Y-106800871D01*
X164469375Y-106691933D01*
X164372686Y-106547229D01*
X164372681Y-106547223D01*
X163320405Y-105494947D01*
X163286379Y-105432635D01*
X163283500Y-105405852D01*
X163283500Y-97972984D01*
X163283499Y-97972977D01*
X163269440Y-97902297D01*
X163269440Y-97902296D01*
X163249548Y-97802292D01*
X163182948Y-97641505D01*
X163086259Y-97496802D01*
X163086258Y-97496801D01*
X163086256Y-97496798D01*
X161816553Y-96227095D01*
X161782527Y-96164783D01*
X161787592Y-96093968D01*
X161830139Y-96037132D01*
X161896659Y-96012321D01*
X161905648Y-96012000D01*
X179070000Y-96012000D01*
X179070000Y-86201500D01*
X179090002Y-86133379D01*
X179143658Y-86086886D01*
X179196000Y-86075500D01*
X203798500Y-86075500D01*
X203866621Y-86095502D01*
X203913114Y-86149158D01*
X203924500Y-86201500D01*
X203924500Y-118736495D01*
X203904498Y-118804616D01*
X203850842Y-118851109D01*
X203798811Y-118862495D01*
X178703718Y-118924337D01*
X178637681Y-118924500D01*
X148201500Y-118924500D01*
X148133379Y-118904498D01*
X148086886Y-118850842D01*
X148075500Y-118798500D01*
X148075500Y-93368532D01*
X151281500Y-93368532D01*
X151281500Y-93575467D01*
X151289659Y-93616484D01*
X151321870Y-93778420D01*
X151401059Y-93969598D01*
X151516023Y-94141655D01*
X151516024Y-94141656D01*
X151516029Y-94141662D01*
X151662337Y-94287970D01*
X151662343Y-94287975D01*
X151662345Y-94287977D01*
X151834402Y-94402941D01*
X152025580Y-94482130D01*
X152228535Y-94522500D01*
X152228536Y-94522500D01*
X152435464Y-94522500D01*
X152435465Y-94522500D01*
X152638420Y-94482130D01*
X152829598Y-94402941D01*
X153001655Y-94287977D01*
X153147977Y-94141655D01*
X153262941Y-93969598D01*
X153342130Y-93778420D01*
X153382500Y-93575465D01*
X153382500Y-93368535D01*
X153342130Y-93165580D01*
X153262941Y-92974402D01*
X153147977Y-92802345D01*
X153147975Y-92802343D01*
X153147970Y-92802337D01*
X153001662Y-92656029D01*
X153001656Y-92656024D01*
X153001655Y-92656023D01*
X152829598Y-92541059D01*
X152638420Y-92461870D01*
X152435467Y-92421500D01*
X152435465Y-92421500D01*
X152228535Y-92421500D01*
X152228532Y-92421500D01*
X152025579Y-92461870D01*
X152025574Y-92461872D01*
X151834402Y-92541059D01*
X151662343Y-92656024D01*
X151662337Y-92656029D01*
X151516029Y-92802337D01*
X151516024Y-92802343D01*
X151401059Y-92974402D01*
X151321872Y-93165574D01*
X151321870Y-93165579D01*
X151281500Y-93368532D01*
X148075500Y-93368532D01*
X148075500Y-90868532D01*
X151281500Y-90868532D01*
X151281500Y-91075467D01*
X151285691Y-91096534D01*
X151321870Y-91278420D01*
X151401059Y-91469598D01*
X151516023Y-91641655D01*
X151516024Y-91641656D01*
X151516029Y-91641662D01*
X151662337Y-91787970D01*
X151662343Y-91787975D01*
X151662345Y-91787977D01*
X151834402Y-91902941D01*
X152025580Y-91982130D01*
X152228535Y-92022500D01*
X152228536Y-92022500D01*
X152435464Y-92022500D01*
X152435465Y-92022500D01*
X152638420Y-91982130D01*
X152829598Y-91902941D01*
X153001655Y-91787977D01*
X153147977Y-91641655D01*
X153262941Y-91469598D01*
X153342130Y-91278420D01*
X153382500Y-91075465D01*
X153382500Y-90868535D01*
X153342130Y-90665580D01*
X153262941Y-90474402D01*
X153147977Y-90302345D01*
X153147975Y-90302343D01*
X153147970Y-90302337D01*
X153001662Y-90156029D01*
X153001656Y-90156024D01*
X153001655Y-90156023D01*
X152829598Y-90041059D01*
X152638420Y-89961870D01*
X152511297Y-89936583D01*
X152435467Y-89921500D01*
X152435465Y-89921500D01*
X152228535Y-89921500D01*
X152228532Y-89921500D01*
X152025579Y-89961870D01*
X152025574Y-89961872D01*
X151834402Y-90041059D01*
X151662343Y-90156024D01*
X151662337Y-90156029D01*
X151516029Y-90302337D01*
X151516024Y-90302343D01*
X151401059Y-90474402D01*
X151321872Y-90665574D01*
X151321870Y-90665579D01*
X151281500Y-90868532D01*
X148075500Y-90868532D01*
X148075500Y-86201500D01*
X148095502Y-86133379D01*
X148149158Y-86086886D01*
X148201500Y-86075500D01*
X161672000Y-86075500D01*
X161740121Y-86095502D01*
G37*
G04 #@! TD.AperFunction*
M02*
