G04 #@! TF.GenerationSoftware,KiCad,Pcbnew,(5.1.5)-3*
G04 #@! TF.CreationDate,2020-04-23T11:09:22+02:00*
G04 #@! TF.ProjectId,RulleGardin,52756c6c-6547-4617-9264-696e2e6b6963,rev?*
G04 #@! TF.SameCoordinates,Original*
G04 #@! TF.FileFunction,Soldermask,Top*
G04 #@! TF.FilePolarity,Negative*
%FSLAX46Y46*%
G04 Gerber Fmt 4.6, Leading zero omitted, Abs format (unit mm)*
G04 Created by KiCad (PCBNEW (5.1.5)-3) date 2020-04-23 11:09:22*
%MOMM*%
%LPD*%
G04 APERTURE LIST*
%ADD10C,0.100000*%
G04 APERTURE END LIST*
D10*
G36*
X175642499Y-115183997D02*
G01*
X175695147Y-115199968D01*
X175743668Y-115225902D01*
X175786195Y-115260805D01*
X175821098Y-115303332D01*
X175847032Y-115351853D01*
X175863003Y-115404501D01*
X175869000Y-115465390D01*
X175869000Y-116690610D01*
X175863003Y-116751499D01*
X175847032Y-116804147D01*
X175821098Y-116852668D01*
X175786195Y-116895195D01*
X175743668Y-116930098D01*
X175695147Y-116956032D01*
X175642499Y-116972003D01*
X175581610Y-116978000D01*
X174781390Y-116978000D01*
X174720501Y-116972003D01*
X174667853Y-116956032D01*
X174619332Y-116930098D01*
X174576805Y-116895195D01*
X174541902Y-116852668D01*
X174515968Y-116804147D01*
X174499997Y-116751499D01*
X174494000Y-116690610D01*
X174494000Y-115465390D01*
X174499997Y-115404501D01*
X174515968Y-115351853D01*
X174541902Y-115303332D01*
X174576805Y-115260805D01*
X174619332Y-115225902D01*
X174667853Y-115199968D01*
X174720501Y-115183997D01*
X174781390Y-115178000D01*
X175581610Y-115178000D01*
X175642499Y-115183997D01*
G37*
G36*
X173767499Y-115183997D02*
G01*
X173820147Y-115199968D01*
X173868668Y-115225902D01*
X173911195Y-115260805D01*
X173946098Y-115303332D01*
X173972032Y-115351853D01*
X173988003Y-115404501D01*
X173994000Y-115465390D01*
X173994000Y-116690610D01*
X173988003Y-116751499D01*
X173972032Y-116804147D01*
X173946098Y-116852668D01*
X173911195Y-116895195D01*
X173868668Y-116930098D01*
X173820147Y-116956032D01*
X173767499Y-116972003D01*
X173706610Y-116978000D01*
X172906390Y-116978000D01*
X172845501Y-116972003D01*
X172792853Y-116956032D01*
X172744332Y-116930098D01*
X172701805Y-116895195D01*
X172666902Y-116852668D01*
X172640968Y-116804147D01*
X172624997Y-116751499D01*
X172619000Y-116690610D01*
X172619000Y-115465390D01*
X172624997Y-115404501D01*
X172640968Y-115351853D01*
X172666902Y-115303332D01*
X172701805Y-115260805D01*
X172744332Y-115225902D01*
X172792853Y-115199968D01*
X172845501Y-115183997D01*
X172906390Y-115178000D01*
X173706610Y-115178000D01*
X173767499Y-115183997D01*
G37*
G36*
X186056499Y-115105997D02*
G01*
X186109147Y-115121968D01*
X186157668Y-115147902D01*
X186200195Y-115182805D01*
X186235098Y-115225332D01*
X186261032Y-115273853D01*
X186277003Y-115326501D01*
X186283000Y-115387390D01*
X186283000Y-116612610D01*
X186277003Y-116673499D01*
X186261032Y-116726147D01*
X186235098Y-116774668D01*
X186200195Y-116817195D01*
X186157668Y-116852098D01*
X186109147Y-116878032D01*
X186056499Y-116894003D01*
X185995610Y-116900000D01*
X185195390Y-116900000D01*
X185134501Y-116894003D01*
X185081853Y-116878032D01*
X185033332Y-116852098D01*
X184990805Y-116817195D01*
X184955902Y-116774668D01*
X184929968Y-116726147D01*
X184913997Y-116673499D01*
X184908000Y-116612610D01*
X184908000Y-115387390D01*
X184913997Y-115326501D01*
X184929968Y-115273853D01*
X184955902Y-115225332D01*
X184990805Y-115182805D01*
X185033332Y-115147902D01*
X185081853Y-115121968D01*
X185134501Y-115105997D01*
X185195390Y-115100000D01*
X185995610Y-115100000D01*
X186056499Y-115105997D01*
G37*
G36*
X184181499Y-115105997D02*
G01*
X184234147Y-115121968D01*
X184282668Y-115147902D01*
X184325195Y-115182805D01*
X184360098Y-115225332D01*
X184386032Y-115273853D01*
X184402003Y-115326501D01*
X184408000Y-115387390D01*
X184408000Y-116612610D01*
X184402003Y-116673499D01*
X184386032Y-116726147D01*
X184360098Y-116774668D01*
X184325195Y-116817195D01*
X184282668Y-116852098D01*
X184234147Y-116878032D01*
X184181499Y-116894003D01*
X184120610Y-116900000D01*
X183320390Y-116900000D01*
X183259501Y-116894003D01*
X183206853Y-116878032D01*
X183158332Y-116852098D01*
X183115805Y-116817195D01*
X183080902Y-116774668D01*
X183054968Y-116726147D01*
X183038997Y-116673499D01*
X183033000Y-116612610D01*
X183033000Y-115387390D01*
X183038997Y-115326501D01*
X183054968Y-115273853D01*
X183080902Y-115225332D01*
X183115805Y-115182805D01*
X183158332Y-115147902D01*
X183206853Y-115121968D01*
X183259501Y-115105997D01*
X183320390Y-115100000D01*
X184120610Y-115100000D01*
X184181499Y-115105997D01*
G37*
G36*
X179101499Y-115105997D02*
G01*
X179154147Y-115121968D01*
X179202668Y-115147902D01*
X179245195Y-115182805D01*
X179280098Y-115225332D01*
X179306032Y-115273853D01*
X179322003Y-115326501D01*
X179328000Y-115387390D01*
X179328000Y-116612610D01*
X179322003Y-116673499D01*
X179306032Y-116726147D01*
X179280098Y-116774668D01*
X179245195Y-116817195D01*
X179202668Y-116852098D01*
X179154147Y-116878032D01*
X179101499Y-116894003D01*
X179040610Y-116900000D01*
X178240390Y-116900000D01*
X178179501Y-116894003D01*
X178126853Y-116878032D01*
X178078332Y-116852098D01*
X178035805Y-116817195D01*
X178000902Y-116774668D01*
X177974968Y-116726147D01*
X177958997Y-116673499D01*
X177953000Y-116612610D01*
X177953000Y-115387390D01*
X177958997Y-115326501D01*
X177974968Y-115273853D01*
X178000902Y-115225332D01*
X178035805Y-115182805D01*
X178078332Y-115147902D01*
X178126853Y-115121968D01*
X178179501Y-115105997D01*
X178240390Y-115100000D01*
X179040610Y-115100000D01*
X179101499Y-115105997D01*
G37*
G36*
X180976499Y-115105997D02*
G01*
X181029147Y-115121968D01*
X181077668Y-115147902D01*
X181120195Y-115182805D01*
X181155098Y-115225332D01*
X181181032Y-115273853D01*
X181197003Y-115326501D01*
X181203000Y-115387390D01*
X181203000Y-116612610D01*
X181197003Y-116673499D01*
X181181032Y-116726147D01*
X181155098Y-116774668D01*
X181120195Y-116817195D01*
X181077668Y-116852098D01*
X181029147Y-116878032D01*
X180976499Y-116894003D01*
X180915610Y-116900000D01*
X180115390Y-116900000D01*
X180054501Y-116894003D01*
X180001853Y-116878032D01*
X179953332Y-116852098D01*
X179910805Y-116817195D01*
X179875902Y-116774668D01*
X179849968Y-116726147D01*
X179833997Y-116673499D01*
X179828000Y-116612610D01*
X179828000Y-115387390D01*
X179833997Y-115326501D01*
X179849968Y-115273853D01*
X179875902Y-115225332D01*
X179910805Y-115182805D01*
X179953332Y-115147902D01*
X180001853Y-115121968D01*
X180054501Y-115105997D01*
X180115390Y-115100000D01*
X180915610Y-115100000D01*
X180976499Y-115105997D01*
G37*
G36*
X188160999Y-115105997D02*
G01*
X188213647Y-115121968D01*
X188262168Y-115147902D01*
X188304695Y-115182805D01*
X188339598Y-115225332D01*
X188365532Y-115273853D01*
X188381503Y-115326501D01*
X188387500Y-115387390D01*
X188387500Y-116612610D01*
X188381503Y-116673499D01*
X188365532Y-116726147D01*
X188339598Y-116774668D01*
X188304695Y-116817195D01*
X188262168Y-116852098D01*
X188213647Y-116878032D01*
X188160999Y-116894003D01*
X188100110Y-116900000D01*
X187299890Y-116900000D01*
X187239001Y-116894003D01*
X187186353Y-116878032D01*
X187137832Y-116852098D01*
X187095305Y-116817195D01*
X187060402Y-116774668D01*
X187034468Y-116726147D01*
X187018497Y-116673499D01*
X187012500Y-116612610D01*
X187012500Y-115387390D01*
X187018497Y-115326501D01*
X187034468Y-115273853D01*
X187060402Y-115225332D01*
X187095305Y-115182805D01*
X187137832Y-115147902D01*
X187186353Y-115121968D01*
X187239001Y-115105997D01*
X187299890Y-115100000D01*
X188100110Y-115100000D01*
X188160999Y-115105997D01*
G37*
G36*
X190035999Y-115105997D02*
G01*
X190088647Y-115121968D01*
X190137168Y-115147902D01*
X190179695Y-115182805D01*
X190214598Y-115225332D01*
X190240532Y-115273853D01*
X190256503Y-115326501D01*
X190262500Y-115387390D01*
X190262500Y-116612610D01*
X190256503Y-116673499D01*
X190240532Y-116726147D01*
X190214598Y-116774668D01*
X190179695Y-116817195D01*
X190137168Y-116852098D01*
X190088647Y-116878032D01*
X190035999Y-116894003D01*
X189975110Y-116900000D01*
X189174890Y-116900000D01*
X189114001Y-116894003D01*
X189061353Y-116878032D01*
X189012832Y-116852098D01*
X188970305Y-116817195D01*
X188935402Y-116774668D01*
X188909468Y-116726147D01*
X188893497Y-116673499D01*
X188887500Y-116612610D01*
X188887500Y-115387390D01*
X188893497Y-115326501D01*
X188909468Y-115273853D01*
X188935402Y-115225332D01*
X188970305Y-115182805D01*
X189012832Y-115147902D01*
X189061353Y-115121968D01*
X189114001Y-115105997D01*
X189174890Y-115100000D01*
X189975110Y-115100000D01*
X190035999Y-115105997D01*
G37*
G36*
X184227290Y-112025619D02*
G01*
X184291689Y-112038429D01*
X184473678Y-112113811D01*
X184637463Y-112223249D01*
X184776751Y-112362537D01*
X184886189Y-112526322D01*
X184961571Y-112708311D01*
X185000000Y-112901509D01*
X185000000Y-113098491D01*
X184961571Y-113291689D01*
X184886189Y-113473678D01*
X184776751Y-113637463D01*
X184637463Y-113776751D01*
X184473678Y-113886189D01*
X184291689Y-113961571D01*
X184227290Y-113974381D01*
X184098493Y-114000000D01*
X183901507Y-114000000D01*
X183772710Y-113974381D01*
X183708311Y-113961571D01*
X183526322Y-113886189D01*
X183362537Y-113776751D01*
X183223249Y-113637463D01*
X183113811Y-113473678D01*
X183038429Y-113291689D01*
X183000000Y-113098491D01*
X183000000Y-112901509D01*
X183038429Y-112708311D01*
X183113811Y-112526322D01*
X183223249Y-112362537D01*
X183362537Y-112223249D01*
X183526322Y-112113811D01*
X183708311Y-112038429D01*
X183772710Y-112025619D01*
X183901507Y-112000000D01*
X184098493Y-112000000D01*
X184227290Y-112025619D01*
G37*
G36*
X197700000Y-114000000D02*
G01*
X195700000Y-114000000D01*
X195700000Y-112000000D01*
X197700000Y-112000000D01*
X197700000Y-114000000D01*
G37*
G36*
X174000000Y-113900000D02*
G01*
X172600000Y-113900000D01*
X172600000Y-111700000D01*
X174000000Y-111700000D01*
X174000000Y-113900000D01*
G37*
G36*
X172000000Y-113900000D02*
G01*
X170600000Y-113900000D01*
X170600000Y-111700000D01*
X172000000Y-111700000D01*
X172000000Y-113900000D01*
G37*
G36*
X176000000Y-113900000D02*
G01*
X174600000Y-113900000D01*
X174600000Y-111700000D01*
X176000000Y-111700000D01*
X176000000Y-113900000D01*
G37*
G36*
X170000000Y-113900000D02*
G01*
X168600000Y-113900000D01*
X168600000Y-111700000D01*
X170000000Y-111700000D01*
X170000000Y-113900000D01*
G37*
G36*
X168000000Y-113900000D02*
G01*
X166600000Y-113900000D01*
X166600000Y-111700000D01*
X168000000Y-111700000D01*
X168000000Y-113900000D01*
G37*
G36*
X166000000Y-113900000D02*
G01*
X164600000Y-113900000D01*
X164600000Y-111700000D01*
X166000000Y-111700000D01*
X166000000Y-113900000D01*
G37*
G36*
X164150000Y-112000000D02*
G01*
X161250000Y-112000000D01*
X161250000Y-110600000D01*
X164150000Y-110600000D01*
X164150000Y-112000000D01*
G37*
G36*
X179350000Y-112000000D02*
G01*
X176450000Y-112000000D01*
X176450000Y-110600000D01*
X179350000Y-110600000D01*
X179350000Y-112000000D01*
G37*
G36*
X184227290Y-109485619D02*
G01*
X184291689Y-109498429D01*
X184473678Y-109573811D01*
X184637463Y-109683249D01*
X184776751Y-109822537D01*
X184886189Y-109986322D01*
X184961571Y-110168311D01*
X184961571Y-110168312D01*
X185000000Y-110361507D01*
X185000000Y-110558493D01*
X184974381Y-110687290D01*
X184961571Y-110751689D01*
X184886189Y-110933678D01*
X184776751Y-111097463D01*
X184637463Y-111236751D01*
X184473678Y-111346189D01*
X184291689Y-111421571D01*
X184227290Y-111434381D01*
X184098493Y-111460000D01*
X183901507Y-111460000D01*
X183772710Y-111434381D01*
X183708311Y-111421571D01*
X183526322Y-111346189D01*
X183362537Y-111236751D01*
X183223249Y-111097463D01*
X183113811Y-110933678D01*
X183038429Y-110751689D01*
X183025619Y-110687290D01*
X183000000Y-110558493D01*
X183000000Y-110361507D01*
X183038429Y-110168312D01*
X183038429Y-110168311D01*
X183113811Y-109986322D01*
X183223249Y-109822537D01*
X183362537Y-109683249D01*
X183526322Y-109573811D01*
X183708311Y-109498429D01*
X183772710Y-109485619D01*
X183901507Y-109460000D01*
X184098493Y-109460000D01*
X184227290Y-109485619D01*
G37*
G36*
X196927290Y-109485619D02*
G01*
X196991689Y-109498429D01*
X197173678Y-109573811D01*
X197337463Y-109683249D01*
X197476751Y-109822537D01*
X197586189Y-109986322D01*
X197661571Y-110168311D01*
X197661571Y-110168312D01*
X197700000Y-110361507D01*
X197700000Y-110558493D01*
X197674381Y-110687290D01*
X197661571Y-110751689D01*
X197586189Y-110933678D01*
X197476751Y-111097463D01*
X197337463Y-111236751D01*
X197173678Y-111346189D01*
X196991689Y-111421571D01*
X196927290Y-111434381D01*
X196798493Y-111460000D01*
X196601507Y-111460000D01*
X196472710Y-111434381D01*
X196408311Y-111421571D01*
X196226322Y-111346189D01*
X196062537Y-111236751D01*
X195923249Y-111097463D01*
X195813811Y-110933678D01*
X195738429Y-110751689D01*
X195725619Y-110687290D01*
X195700000Y-110558493D01*
X195700000Y-110361507D01*
X195738429Y-110168312D01*
X195738429Y-110168311D01*
X195813811Y-109986322D01*
X195923249Y-109822537D01*
X196062537Y-109683249D01*
X196226322Y-109573811D01*
X196408311Y-109498429D01*
X196472710Y-109485619D01*
X196601507Y-109460000D01*
X196798493Y-109460000D01*
X196927290Y-109485619D01*
G37*
G36*
X194350000Y-110390000D02*
G01*
X192450000Y-110390000D01*
X192450000Y-109390000D01*
X194350000Y-109390000D01*
X194350000Y-110390000D01*
G37*
G36*
X188950000Y-110390000D02*
G01*
X187050000Y-110390000D01*
X187050000Y-109390000D01*
X188950000Y-109390000D01*
X188950000Y-110390000D01*
G37*
G36*
X179350000Y-110000000D02*
G01*
X176450000Y-110000000D01*
X176450000Y-108600000D01*
X179350000Y-108600000D01*
X179350000Y-110000000D01*
G37*
G36*
X164150000Y-110000000D02*
G01*
X161250000Y-110000000D01*
X161250000Y-108600000D01*
X164150000Y-108600000D01*
X164150000Y-110000000D01*
G37*
G36*
X200128687Y-107495027D02*
G01*
X200306274Y-107530350D01*
X200497362Y-107609502D01*
X200669336Y-107724411D01*
X200815589Y-107870664D01*
X200930498Y-108042638D01*
X201009650Y-108233726D01*
X201050000Y-108436584D01*
X201050000Y-108643416D01*
X201009650Y-108846274D01*
X200930498Y-109037362D01*
X200815589Y-109209336D01*
X200669336Y-109355589D01*
X200497362Y-109470498D01*
X200306274Y-109549650D01*
X200128687Y-109584973D01*
X200103417Y-109590000D01*
X199896583Y-109590000D01*
X199871313Y-109584973D01*
X199693726Y-109549650D01*
X199502638Y-109470498D01*
X199330664Y-109355589D01*
X199184411Y-109209336D01*
X199069502Y-109037362D01*
X198990350Y-108846274D01*
X198950000Y-108643416D01*
X198950000Y-108436584D01*
X198990350Y-108233726D01*
X199069502Y-108042638D01*
X199184411Y-107870664D01*
X199330664Y-107724411D01*
X199502638Y-107609502D01*
X199693726Y-107530350D01*
X199871313Y-107495027D01*
X199896583Y-107490000D01*
X200103417Y-107490000D01*
X200128687Y-107495027D01*
G37*
G36*
X194350000Y-109120000D02*
G01*
X192450000Y-109120000D01*
X192450000Y-108120000D01*
X194350000Y-108120000D01*
X194350000Y-109120000D01*
G37*
G36*
X188950000Y-109120000D02*
G01*
X187050000Y-109120000D01*
X187050000Y-108120000D01*
X188950000Y-108120000D01*
X188950000Y-109120000D01*
G37*
G36*
X184227290Y-106945619D02*
G01*
X184291689Y-106958429D01*
X184473678Y-107033811D01*
X184637463Y-107143249D01*
X184776751Y-107282537D01*
X184886189Y-107446322D01*
X184953780Y-107609502D01*
X184961571Y-107628312D01*
X184980687Y-107724412D01*
X185000000Y-107821509D01*
X185000000Y-108018491D01*
X184961571Y-108211689D01*
X184886189Y-108393678D01*
X184776751Y-108557463D01*
X184637463Y-108696751D01*
X184473678Y-108806189D01*
X184291689Y-108881571D01*
X184227290Y-108894381D01*
X184098493Y-108920000D01*
X183901507Y-108920000D01*
X183772710Y-108894381D01*
X183708311Y-108881571D01*
X183526322Y-108806189D01*
X183362537Y-108696751D01*
X183223249Y-108557463D01*
X183113811Y-108393678D01*
X183038429Y-108211689D01*
X183000000Y-108018491D01*
X183000000Y-107821509D01*
X183019314Y-107724412D01*
X183038429Y-107628312D01*
X183046220Y-107609502D01*
X183113811Y-107446322D01*
X183223249Y-107282537D01*
X183362537Y-107143249D01*
X183526322Y-107033811D01*
X183708311Y-106958429D01*
X183772710Y-106945619D01*
X183901507Y-106920000D01*
X184098493Y-106920000D01*
X184227290Y-106945619D01*
G37*
G36*
X196927290Y-106945619D02*
G01*
X196991689Y-106958429D01*
X197173678Y-107033811D01*
X197337463Y-107143249D01*
X197476751Y-107282537D01*
X197586189Y-107446322D01*
X197653780Y-107609502D01*
X197661571Y-107628312D01*
X197680687Y-107724412D01*
X197700000Y-107821509D01*
X197700000Y-108018491D01*
X197661571Y-108211689D01*
X197586189Y-108393678D01*
X197476751Y-108557463D01*
X197337463Y-108696751D01*
X197173678Y-108806189D01*
X196991689Y-108881571D01*
X196927290Y-108894381D01*
X196798493Y-108920000D01*
X196601507Y-108920000D01*
X196472710Y-108894381D01*
X196408311Y-108881571D01*
X196226322Y-108806189D01*
X196062537Y-108696751D01*
X195923249Y-108557463D01*
X195813811Y-108393678D01*
X195738429Y-108211689D01*
X195700000Y-108018491D01*
X195700000Y-107821509D01*
X195719314Y-107724412D01*
X195738429Y-107628312D01*
X195746220Y-107609502D01*
X195813811Y-107446322D01*
X195923249Y-107282537D01*
X196062537Y-107143249D01*
X196226322Y-107033811D01*
X196408311Y-106958429D01*
X196472710Y-106945619D01*
X196601507Y-106920000D01*
X196798493Y-106920000D01*
X196927290Y-106945619D01*
G37*
G36*
X164150000Y-108000000D02*
G01*
X161250000Y-108000000D01*
X161250000Y-106600000D01*
X164150000Y-106600000D01*
X164150000Y-108000000D01*
G37*
G36*
X179350000Y-108000000D02*
G01*
X176450000Y-108000000D01*
X176450000Y-106600000D01*
X179350000Y-106600000D01*
X179350000Y-108000000D01*
G37*
G36*
X188950000Y-107850000D02*
G01*
X187050000Y-107850000D01*
X187050000Y-106850000D01*
X188950000Y-106850000D01*
X188950000Y-107850000D01*
G37*
G36*
X194350000Y-107850000D02*
G01*
X192450000Y-107850000D01*
X192450000Y-106850000D01*
X194350000Y-106850000D01*
X194350000Y-107850000D01*
G37*
G36*
X151316448Y-105336873D02*
G01*
X151386232Y-105343746D01*
X151475770Y-105370907D01*
X151565309Y-105398068D01*
X151653523Y-105445220D01*
X151730345Y-105486282D01*
X151730347Y-105486283D01*
X151730346Y-105486283D01*
X151875002Y-105604998D01*
X151993717Y-105749654D01*
X152081932Y-105914691D01*
X152097276Y-105965273D01*
X152134865Y-106089188D01*
X152136254Y-106093769D01*
X152154596Y-106280000D01*
X152136254Y-106466231D01*
X152081932Y-106645309D01*
X151993717Y-106810346D01*
X151875002Y-106955002D01*
X151744419Y-107062168D01*
X151730345Y-107073718D01*
X151672391Y-107104695D01*
X151565309Y-107161932D01*
X151500791Y-107181503D01*
X151386232Y-107216254D01*
X151316448Y-107223127D01*
X151246666Y-107230000D01*
X150153334Y-107230000D01*
X150083552Y-107223127D01*
X150013768Y-107216254D01*
X149899209Y-107181503D01*
X149834691Y-107161932D01*
X149727609Y-107104695D01*
X149669655Y-107073718D01*
X149655581Y-107062168D01*
X149524998Y-106955002D01*
X149406283Y-106810346D01*
X149318068Y-106645309D01*
X149263746Y-106466231D01*
X149245404Y-106280000D01*
X149263746Y-106093769D01*
X149265136Y-106089188D01*
X149302724Y-105965273D01*
X149318068Y-105914691D01*
X149406283Y-105749654D01*
X149524998Y-105604998D01*
X149669654Y-105486283D01*
X149669653Y-105486283D01*
X149669655Y-105486282D01*
X149746477Y-105445220D01*
X149834691Y-105398068D01*
X149924230Y-105370907D01*
X150013768Y-105343746D01*
X150153334Y-105330000D01*
X151246666Y-105330000D01*
X151316448Y-105336873D01*
G37*
G36*
X158373499Y-105818497D02*
G01*
X158426147Y-105834468D01*
X158474668Y-105860402D01*
X158517195Y-105895305D01*
X158552098Y-105937832D01*
X158578032Y-105986353D01*
X158594003Y-106039001D01*
X158600000Y-106099890D01*
X158600000Y-106900110D01*
X158594003Y-106960999D01*
X158578032Y-107013647D01*
X158552098Y-107062168D01*
X158517195Y-107104695D01*
X158474668Y-107139598D01*
X158426147Y-107165532D01*
X158373499Y-107181503D01*
X158312610Y-107187500D01*
X157087390Y-107187500D01*
X157026501Y-107181503D01*
X156973853Y-107165532D01*
X156925332Y-107139598D01*
X156882805Y-107104695D01*
X156847902Y-107062168D01*
X156821968Y-107013647D01*
X156805997Y-106960999D01*
X156800000Y-106900110D01*
X156800000Y-106099890D01*
X156805997Y-106039001D01*
X156821968Y-105986353D01*
X156847902Y-105937832D01*
X156882805Y-105895305D01*
X156925332Y-105860402D01*
X156973853Y-105834468D01*
X157026501Y-105818497D01*
X157087390Y-105812500D01*
X158312610Y-105812500D01*
X158373499Y-105818497D01*
G37*
G36*
X200128687Y-104955027D02*
G01*
X200306274Y-104990350D01*
X200497362Y-105069502D01*
X200669336Y-105184411D01*
X200815589Y-105330664D01*
X200930498Y-105502638D01*
X201009650Y-105693726D01*
X201050000Y-105896584D01*
X201050000Y-106103416D01*
X201009650Y-106306274D01*
X200930498Y-106497362D01*
X200815589Y-106669336D01*
X200669336Y-106815589D01*
X200497362Y-106930498D01*
X200306274Y-107009650D01*
X200128687Y-107044973D01*
X200103417Y-107050000D01*
X199896583Y-107050000D01*
X199871313Y-107044973D01*
X199693726Y-107009650D01*
X199502638Y-106930498D01*
X199330664Y-106815589D01*
X199184411Y-106669336D01*
X199069502Y-106497362D01*
X198990350Y-106306274D01*
X198950000Y-106103416D01*
X198950000Y-105896584D01*
X198990350Y-105693726D01*
X199069502Y-105502638D01*
X199184411Y-105330664D01*
X199330664Y-105184411D01*
X199502638Y-105069502D01*
X199693726Y-104990350D01*
X199871313Y-104955027D01*
X199896583Y-104950000D01*
X200103417Y-104950000D01*
X200128687Y-104955027D01*
G37*
G36*
X194350000Y-106580000D02*
G01*
X192450000Y-106580000D01*
X192450000Y-105580000D01*
X194350000Y-105580000D01*
X194350000Y-106580000D01*
G37*
G36*
X188950000Y-106580000D02*
G01*
X187050000Y-106580000D01*
X187050000Y-105580000D01*
X188950000Y-105580000D01*
X188950000Y-106580000D01*
G37*
G36*
X196927290Y-104405619D02*
G01*
X196991689Y-104418429D01*
X197173678Y-104493811D01*
X197337463Y-104603249D01*
X197476751Y-104742537D01*
X197586189Y-104906322D01*
X197635392Y-105025110D01*
X197661571Y-105088312D01*
X197700000Y-105281507D01*
X197700000Y-105478493D01*
X197698450Y-105486283D01*
X197661571Y-105671689D01*
X197586189Y-105853678D01*
X197476751Y-106017463D01*
X197337463Y-106156751D01*
X197173678Y-106266189D01*
X196991689Y-106341571D01*
X196927290Y-106354381D01*
X196798493Y-106380000D01*
X196601507Y-106380000D01*
X196472710Y-106354381D01*
X196408311Y-106341571D01*
X196226322Y-106266189D01*
X196062537Y-106156751D01*
X195923249Y-106017463D01*
X195813811Y-105853678D01*
X195738429Y-105671689D01*
X195701550Y-105486283D01*
X195700000Y-105478493D01*
X195700000Y-105281507D01*
X195738429Y-105088312D01*
X195764608Y-105025110D01*
X195813811Y-104906322D01*
X195923249Y-104742537D01*
X196062537Y-104603249D01*
X196226322Y-104493811D01*
X196408311Y-104418429D01*
X196472710Y-104405619D01*
X196601507Y-104380000D01*
X196798493Y-104380000D01*
X196927290Y-104405619D01*
G37*
G36*
X184227290Y-104405619D02*
G01*
X184291689Y-104418429D01*
X184473678Y-104493811D01*
X184637463Y-104603249D01*
X184776751Y-104742537D01*
X184886189Y-104906322D01*
X184935392Y-105025110D01*
X184961571Y-105088312D01*
X185000000Y-105281507D01*
X185000000Y-105478493D01*
X184998450Y-105486283D01*
X184961571Y-105671689D01*
X184886189Y-105853678D01*
X184776751Y-106017463D01*
X184637463Y-106156751D01*
X184473678Y-106266189D01*
X184291689Y-106341571D01*
X184227290Y-106354381D01*
X184098493Y-106380000D01*
X183901507Y-106380000D01*
X183772710Y-106354381D01*
X183708311Y-106341571D01*
X183526322Y-106266189D01*
X183362537Y-106156751D01*
X183223249Y-106017463D01*
X183113811Y-105853678D01*
X183038429Y-105671689D01*
X183001550Y-105486283D01*
X183000000Y-105478493D01*
X183000000Y-105281507D01*
X183038429Y-105088312D01*
X183064608Y-105025110D01*
X183113811Y-104906322D01*
X183223249Y-104742537D01*
X183362537Y-104603249D01*
X183526322Y-104493811D01*
X183708311Y-104418429D01*
X183772710Y-104405619D01*
X183901507Y-104380000D01*
X184098493Y-104380000D01*
X184227290Y-104405619D01*
G37*
G36*
X179350000Y-106000000D02*
G01*
X176450000Y-106000000D01*
X176450000Y-104600000D01*
X179350000Y-104600000D01*
X179350000Y-106000000D01*
G37*
G36*
X164150000Y-106000000D02*
G01*
X161250000Y-106000000D01*
X161250000Y-104600000D01*
X164150000Y-104600000D01*
X164150000Y-106000000D01*
G37*
G36*
X158373499Y-103943497D02*
G01*
X158426147Y-103959468D01*
X158474668Y-103985402D01*
X158517195Y-104020305D01*
X158552098Y-104062832D01*
X158578032Y-104111353D01*
X158594003Y-104164001D01*
X158600000Y-104224890D01*
X158600000Y-105025110D01*
X158594003Y-105085999D01*
X158578032Y-105138647D01*
X158552098Y-105187168D01*
X158517195Y-105229695D01*
X158474668Y-105264598D01*
X158426147Y-105290532D01*
X158373499Y-105306503D01*
X158312610Y-105312500D01*
X157087390Y-105312500D01*
X157026501Y-105306503D01*
X156973853Y-105290532D01*
X156925332Y-105264598D01*
X156882805Y-105229695D01*
X156847902Y-105187168D01*
X156821968Y-105138647D01*
X156805997Y-105085999D01*
X156800000Y-105025110D01*
X156800000Y-104224890D01*
X156805997Y-104164001D01*
X156821968Y-104111353D01*
X156847902Y-104062832D01*
X156882805Y-104020305D01*
X156925332Y-103985402D01*
X156973853Y-103959468D01*
X157026501Y-103943497D01*
X157087390Y-103937500D01*
X158312610Y-103937500D01*
X158373499Y-103943497D01*
G37*
G36*
X194350000Y-105310000D02*
G01*
X192450000Y-105310000D01*
X192450000Y-104310000D01*
X194350000Y-104310000D01*
X194350000Y-105310000D01*
G37*
G36*
X188950000Y-105310000D02*
G01*
X187050000Y-105310000D01*
X187050000Y-104310000D01*
X188950000Y-104310000D01*
X188950000Y-105310000D01*
G37*
G36*
X151316448Y-102796873D02*
G01*
X151386232Y-102803746D01*
X151475770Y-102830907D01*
X151565309Y-102858068D01*
X151653523Y-102905220D01*
X151730345Y-102946282D01*
X151730347Y-102946283D01*
X151730346Y-102946283D01*
X151875002Y-103064998D01*
X151993717Y-103209654D01*
X152081932Y-103374691D01*
X152101621Y-103439598D01*
X152136254Y-103553768D01*
X152154596Y-103740000D01*
X152136254Y-103926232D01*
X152118305Y-103985402D01*
X152081932Y-104105309D01*
X152050560Y-104164001D01*
X152023735Y-104214188D01*
X151993717Y-104270346D01*
X151875002Y-104415002D01*
X151743315Y-104523073D01*
X151730345Y-104533718D01*
X151653523Y-104574780D01*
X151565309Y-104621932D01*
X151475770Y-104649093D01*
X151386232Y-104676254D01*
X151246666Y-104690000D01*
X150153334Y-104690000D01*
X150083552Y-104683127D01*
X150013768Y-104676254D01*
X149924230Y-104649093D01*
X149834691Y-104621932D01*
X149746477Y-104574780D01*
X149669655Y-104533718D01*
X149656684Y-104523073D01*
X149524998Y-104415002D01*
X149406283Y-104270346D01*
X149376266Y-104214188D01*
X149349440Y-104164001D01*
X149318068Y-104105309D01*
X149281695Y-103985402D01*
X149263746Y-103926232D01*
X149245404Y-103740000D01*
X149263746Y-103553768D01*
X149298379Y-103439598D01*
X149318068Y-103374691D01*
X149406283Y-103209654D01*
X149524998Y-103064998D01*
X149669654Y-102946283D01*
X149669653Y-102946283D01*
X149669655Y-102946282D01*
X149746477Y-102905220D01*
X149834691Y-102858068D01*
X149924230Y-102830907D01*
X150013768Y-102803746D01*
X150153334Y-102790000D01*
X151246666Y-102790000D01*
X151316448Y-102796873D01*
G37*
G36*
X200128687Y-102415027D02*
G01*
X200306274Y-102450350D01*
X200497362Y-102529502D01*
X200669336Y-102644411D01*
X200815589Y-102790664D01*
X200930498Y-102962638D01*
X201009650Y-103153726D01*
X201041465Y-103313676D01*
X201045653Y-103334727D01*
X201050000Y-103356584D01*
X201050000Y-103563416D01*
X201009650Y-103766274D01*
X200930498Y-103957362D01*
X200815589Y-104129336D01*
X200669336Y-104275589D01*
X200497362Y-104390498D01*
X200306274Y-104469650D01*
X200128687Y-104504973D01*
X200103417Y-104510000D01*
X199896583Y-104510000D01*
X199871313Y-104504973D01*
X199693726Y-104469650D01*
X199502638Y-104390498D01*
X199330664Y-104275589D01*
X199184411Y-104129336D01*
X199069502Y-103957362D01*
X198990350Y-103766274D01*
X198950000Y-103563416D01*
X198950000Y-103356584D01*
X198954348Y-103334727D01*
X198958535Y-103313676D01*
X198990350Y-103153726D01*
X199069502Y-102962638D01*
X199184411Y-102790664D01*
X199330664Y-102644411D01*
X199502638Y-102529502D01*
X199693726Y-102450350D01*
X199871313Y-102415027D01*
X199896583Y-102410000D01*
X200103417Y-102410000D01*
X200128687Y-102415027D01*
G37*
G36*
X188950000Y-104040000D02*
G01*
X187050000Y-104040000D01*
X187050000Y-103040000D01*
X188950000Y-103040000D01*
X188950000Y-104040000D01*
G37*
G36*
X194350000Y-104040000D02*
G01*
X192450000Y-104040000D01*
X192450000Y-103040000D01*
X194350000Y-103040000D01*
X194350000Y-104040000D01*
G37*
G36*
X164150000Y-104000000D02*
G01*
X161250000Y-104000000D01*
X161250000Y-102600000D01*
X164150000Y-102600000D01*
X164150000Y-104000000D01*
G37*
G36*
X179350000Y-104000000D02*
G01*
X176450000Y-104000000D01*
X176450000Y-102600000D01*
X179350000Y-102600000D01*
X179350000Y-104000000D01*
G37*
G36*
X184227290Y-101865619D02*
G01*
X184291689Y-101878429D01*
X184473678Y-101953811D01*
X184637463Y-102063249D01*
X184776751Y-102202537D01*
X184886189Y-102366322D01*
X184923438Y-102456250D01*
X184961571Y-102548312D01*
X185000000Y-102741507D01*
X185000000Y-102938493D01*
X184998450Y-102946283D01*
X184961571Y-103131689D01*
X184886189Y-103313678D01*
X184776751Y-103477463D01*
X184637463Y-103616751D01*
X184473678Y-103726189D01*
X184291689Y-103801571D01*
X184227290Y-103814381D01*
X184098493Y-103840000D01*
X183901507Y-103840000D01*
X183772710Y-103814381D01*
X183708311Y-103801571D01*
X183526322Y-103726189D01*
X183362537Y-103616751D01*
X183223249Y-103477463D01*
X183113811Y-103313678D01*
X183038429Y-103131689D01*
X183001550Y-102946283D01*
X183000000Y-102938493D01*
X183000000Y-102741507D01*
X183038429Y-102548312D01*
X183076562Y-102456250D01*
X183113811Y-102366322D01*
X183223249Y-102202537D01*
X183362537Y-102063249D01*
X183526322Y-101953811D01*
X183708311Y-101878429D01*
X183772710Y-101865619D01*
X183901507Y-101840000D01*
X184098493Y-101840000D01*
X184227290Y-101865619D01*
G37*
G36*
X196927290Y-101865619D02*
G01*
X196991689Y-101878429D01*
X197173678Y-101953811D01*
X197337463Y-102063249D01*
X197476751Y-102202537D01*
X197586189Y-102366322D01*
X197623438Y-102456250D01*
X197661571Y-102548312D01*
X197700000Y-102741507D01*
X197700000Y-102938493D01*
X197698450Y-102946283D01*
X197661571Y-103131689D01*
X197586189Y-103313678D01*
X197476751Y-103477463D01*
X197337463Y-103616751D01*
X197173678Y-103726189D01*
X196991689Y-103801571D01*
X196927290Y-103814381D01*
X196798493Y-103840000D01*
X196601507Y-103840000D01*
X196472710Y-103814381D01*
X196408311Y-103801571D01*
X196226322Y-103726189D01*
X196062537Y-103616751D01*
X195923249Y-103477463D01*
X195813811Y-103313678D01*
X195738429Y-103131689D01*
X195701550Y-102946283D01*
X195700000Y-102938493D01*
X195700000Y-102741507D01*
X195738429Y-102548312D01*
X195776562Y-102456250D01*
X195813811Y-102366322D01*
X195923249Y-102202537D01*
X196062537Y-102063249D01*
X196226322Y-101953811D01*
X196408311Y-101878429D01*
X196472710Y-101865619D01*
X196601507Y-101840000D01*
X196798493Y-101840000D01*
X196927290Y-101865619D01*
G37*
G36*
X158473499Y-102118497D02*
G01*
X158526147Y-102134468D01*
X158574668Y-102160402D01*
X158617195Y-102195305D01*
X158652098Y-102237832D01*
X158678032Y-102286353D01*
X158694003Y-102339001D01*
X158700000Y-102399890D01*
X158700000Y-103200110D01*
X158694003Y-103260999D01*
X158678032Y-103313647D01*
X158652098Y-103362168D01*
X158617195Y-103404695D01*
X158574668Y-103439598D01*
X158526147Y-103465532D01*
X158473499Y-103481503D01*
X158412610Y-103487500D01*
X157187390Y-103487500D01*
X157126501Y-103481503D01*
X157073853Y-103465532D01*
X157025332Y-103439598D01*
X156982805Y-103404695D01*
X156947902Y-103362168D01*
X156921968Y-103313647D01*
X156905997Y-103260999D01*
X156900000Y-103200110D01*
X156900000Y-102399890D01*
X156905997Y-102339001D01*
X156921968Y-102286353D01*
X156947902Y-102237832D01*
X156982805Y-102195305D01*
X157025332Y-102160402D01*
X157073853Y-102134468D01*
X157126501Y-102118497D01*
X157187390Y-102112500D01*
X158412610Y-102112500D01*
X158473499Y-102118497D01*
G37*
G36*
X194350000Y-102770000D02*
G01*
X192450000Y-102770000D01*
X192450000Y-101770000D01*
X194350000Y-101770000D01*
X194350000Y-102770000D01*
G37*
G36*
X188950000Y-102770000D02*
G01*
X187050000Y-102770000D01*
X187050000Y-101770000D01*
X188950000Y-101770000D01*
X188950000Y-102770000D01*
G37*
G36*
X152150000Y-102150000D02*
G01*
X149250000Y-102150000D01*
X149250000Y-100250000D01*
X152150000Y-100250000D01*
X152150000Y-102150000D01*
G37*
G36*
X179350000Y-102000000D02*
G01*
X176450000Y-102000000D01*
X176450000Y-100600000D01*
X179350000Y-100600000D01*
X179350000Y-102000000D01*
G37*
G36*
X164150000Y-102000000D02*
G01*
X161250000Y-102000000D01*
X161250000Y-100600000D01*
X164150000Y-100600000D01*
X164150000Y-102000000D01*
G37*
G36*
X200128687Y-99875027D02*
G01*
X200306274Y-99910350D01*
X200497362Y-99989502D01*
X200669336Y-100104411D01*
X200815589Y-100250664D01*
X200930498Y-100422638D01*
X201009650Y-100613726D01*
X201050000Y-100816584D01*
X201050000Y-101023416D01*
X201009650Y-101226274D01*
X200930498Y-101417362D01*
X200815589Y-101589336D01*
X200669336Y-101735589D01*
X200497362Y-101850498D01*
X200306274Y-101929650D01*
X200128687Y-101964973D01*
X200103417Y-101970000D01*
X199896583Y-101970000D01*
X199871313Y-101964973D01*
X199693726Y-101929650D01*
X199502638Y-101850498D01*
X199330664Y-101735589D01*
X199184411Y-101589336D01*
X199069502Y-101417362D01*
X198990350Y-101226274D01*
X198950000Y-101023416D01*
X198950000Y-100816584D01*
X198990350Y-100613726D01*
X199069502Y-100422638D01*
X199184411Y-100250664D01*
X199330664Y-100104411D01*
X199502638Y-99989502D01*
X199693726Y-99910350D01*
X199871313Y-99875027D01*
X199896583Y-99870000D01*
X200103417Y-99870000D01*
X200128687Y-99875027D01*
G37*
G36*
X158473499Y-100243497D02*
G01*
X158526147Y-100259468D01*
X158574668Y-100285402D01*
X158617195Y-100320305D01*
X158652098Y-100362832D01*
X158678032Y-100411353D01*
X158694003Y-100464001D01*
X158700000Y-100524890D01*
X158700000Y-101325110D01*
X158694003Y-101385999D01*
X158678032Y-101438647D01*
X158652098Y-101487168D01*
X158617195Y-101529695D01*
X158574668Y-101564598D01*
X158526147Y-101590532D01*
X158473499Y-101606503D01*
X158412610Y-101612500D01*
X157187390Y-101612500D01*
X157126501Y-101606503D01*
X157073853Y-101590532D01*
X157025332Y-101564598D01*
X156982805Y-101529695D01*
X156947902Y-101487168D01*
X156921968Y-101438647D01*
X156905997Y-101385999D01*
X156900000Y-101325110D01*
X156900000Y-100524890D01*
X156905997Y-100464001D01*
X156921968Y-100411353D01*
X156947902Y-100362832D01*
X156982805Y-100320305D01*
X157025332Y-100285402D01*
X157073853Y-100259468D01*
X157126501Y-100243497D01*
X157187390Y-100237500D01*
X158412610Y-100237500D01*
X158473499Y-100243497D01*
G37*
G36*
X194350000Y-101500000D02*
G01*
X192450000Y-101500000D01*
X192450000Y-100500000D01*
X194350000Y-100500000D01*
X194350000Y-101500000D01*
G37*
G36*
X188950000Y-101500000D02*
G01*
X187050000Y-101500000D01*
X187050000Y-100500000D01*
X188950000Y-100500000D01*
X188950000Y-101500000D01*
G37*
G36*
X184220747Y-99324318D02*
G01*
X184291689Y-99338429D01*
X184473678Y-99413811D01*
X184637463Y-99523249D01*
X184776751Y-99662537D01*
X184886189Y-99826322D01*
X184953780Y-99989502D01*
X184961571Y-100008312D01*
X185000000Y-100201507D01*
X185000000Y-100398493D01*
X184979809Y-100500000D01*
X184961571Y-100591689D01*
X184886189Y-100773678D01*
X184776751Y-100937463D01*
X184637463Y-101076751D01*
X184473678Y-101186189D01*
X184291689Y-101261571D01*
X184255597Y-101268750D01*
X184098493Y-101300000D01*
X183901507Y-101300000D01*
X183744403Y-101268750D01*
X183708311Y-101261571D01*
X183526322Y-101186189D01*
X183362537Y-101076751D01*
X183223249Y-100937463D01*
X183113811Y-100773678D01*
X183038429Y-100591689D01*
X183020191Y-100500000D01*
X183000000Y-100398493D01*
X183000000Y-100201507D01*
X183038429Y-100008312D01*
X183046220Y-99989502D01*
X183113811Y-99826322D01*
X183223249Y-99662537D01*
X183362537Y-99523249D01*
X183526322Y-99413811D01*
X183708311Y-99338429D01*
X183779253Y-99324318D01*
X183901507Y-99300000D01*
X184098493Y-99300000D01*
X184220747Y-99324318D01*
G37*
G36*
X196920747Y-99324318D02*
G01*
X196991689Y-99338429D01*
X197173678Y-99413811D01*
X197337463Y-99523249D01*
X197476751Y-99662537D01*
X197586189Y-99826322D01*
X197653780Y-99989502D01*
X197661571Y-100008312D01*
X197700000Y-100201507D01*
X197700000Y-100398493D01*
X197679809Y-100500000D01*
X197661571Y-100591689D01*
X197586189Y-100773678D01*
X197476751Y-100937463D01*
X197337463Y-101076751D01*
X197173678Y-101186189D01*
X196991689Y-101261571D01*
X196955597Y-101268750D01*
X196798493Y-101300000D01*
X196601507Y-101300000D01*
X196444403Y-101268750D01*
X196408311Y-101261571D01*
X196226322Y-101186189D01*
X196062537Y-101076751D01*
X195923249Y-100937463D01*
X195813811Y-100773678D01*
X195738429Y-100591689D01*
X195720191Y-100500000D01*
X195700000Y-100398493D01*
X195700000Y-100201507D01*
X195738429Y-100008312D01*
X195746220Y-99989502D01*
X195813811Y-99826322D01*
X195923249Y-99662537D01*
X196062537Y-99523249D01*
X196226322Y-99413811D01*
X196408311Y-99338429D01*
X196479253Y-99324318D01*
X196601507Y-99300000D01*
X196798493Y-99300000D01*
X196920747Y-99324318D01*
G37*
G36*
X164150000Y-100000000D02*
G01*
X161250000Y-100000000D01*
X161250000Y-98600000D01*
X164150000Y-98600000D01*
X164150000Y-100000000D01*
G37*
G36*
X179350000Y-100000000D02*
G01*
X176450000Y-100000000D01*
X176450000Y-98600000D01*
X179350000Y-98600000D01*
X179350000Y-100000000D01*
G37*
G36*
X201050000Y-99430000D02*
G01*
X198950000Y-99430000D01*
X198950000Y-97330000D01*
X201050000Y-97330000D01*
X201050000Y-99430000D01*
G37*
G36*
X160573499Y-98018497D02*
G01*
X160626147Y-98034468D01*
X160674668Y-98060402D01*
X160717195Y-98095305D01*
X160752098Y-98137832D01*
X160778032Y-98186353D01*
X160794003Y-98239001D01*
X160800000Y-98299890D01*
X160800000Y-99100110D01*
X160794003Y-99160999D01*
X160778032Y-99213647D01*
X160752098Y-99262168D01*
X160717195Y-99304695D01*
X160674668Y-99339598D01*
X160626147Y-99365532D01*
X160573499Y-99381503D01*
X160512610Y-99387500D01*
X159287390Y-99387500D01*
X159226501Y-99381503D01*
X159173853Y-99365532D01*
X159125332Y-99339598D01*
X159082805Y-99304695D01*
X159047902Y-99262168D01*
X159016560Y-99203530D01*
X159015942Y-99202037D01*
X159002334Y-99181659D01*
X158985011Y-99164328D01*
X158964640Y-99150709D01*
X158942004Y-99141326D01*
X158917972Y-99136539D01*
X158893468Y-99136533D01*
X158869433Y-99141307D01*
X158846792Y-99150679D01*
X158826414Y-99164287D01*
X158809083Y-99181610D01*
X158795464Y-99201981D01*
X158786072Y-99224647D01*
X158778034Y-99251144D01*
X158752098Y-99299668D01*
X158717195Y-99342195D01*
X158674668Y-99377098D01*
X158626147Y-99403032D01*
X158573499Y-99419003D01*
X158512610Y-99425000D01*
X157287390Y-99425000D01*
X157226501Y-99419003D01*
X157173853Y-99403032D01*
X157125332Y-99377098D01*
X157082805Y-99342195D01*
X157047902Y-99299668D01*
X157021968Y-99251147D01*
X157005997Y-99198499D01*
X157000000Y-99137610D01*
X157000000Y-98337390D01*
X157005997Y-98276501D01*
X157021968Y-98223853D01*
X157047902Y-98175332D01*
X157082805Y-98132805D01*
X157125332Y-98097902D01*
X157173853Y-98071968D01*
X157226501Y-98055997D01*
X157287390Y-98050000D01*
X158512610Y-98050000D01*
X158573499Y-98055997D01*
X158626147Y-98071968D01*
X158674668Y-98097902D01*
X158717195Y-98132805D01*
X158752098Y-98175332D01*
X158783440Y-98233970D01*
X158784058Y-98235463D01*
X158797666Y-98255841D01*
X158814989Y-98273172D01*
X158835360Y-98286791D01*
X158857996Y-98296174D01*
X158882028Y-98300961D01*
X158906532Y-98300967D01*
X158930567Y-98296193D01*
X158953208Y-98286821D01*
X158973586Y-98273213D01*
X158990917Y-98255890D01*
X159004536Y-98235519D01*
X159013928Y-98212853D01*
X159021966Y-98186356D01*
X159047902Y-98137832D01*
X159082805Y-98095305D01*
X159125332Y-98060402D01*
X159173853Y-98034468D01*
X159226501Y-98018497D01*
X159287390Y-98012500D01*
X160512610Y-98012500D01*
X160573499Y-98018497D01*
G37*
G36*
X196927290Y-96785619D02*
G01*
X196991689Y-96798429D01*
X197173678Y-96873811D01*
X197337463Y-96983249D01*
X197476751Y-97122537D01*
X197586189Y-97286322D01*
X197661571Y-97468311D01*
X197700000Y-97661509D01*
X197700000Y-97858491D01*
X197661571Y-98051689D01*
X197586189Y-98233678D01*
X197476751Y-98397463D01*
X197337463Y-98536751D01*
X197173678Y-98646189D01*
X196991689Y-98721571D01*
X196927290Y-98734381D01*
X196798493Y-98760000D01*
X196601507Y-98760000D01*
X196472710Y-98734381D01*
X196408311Y-98721571D01*
X196226322Y-98646189D01*
X196062537Y-98536751D01*
X195923249Y-98397463D01*
X195813811Y-98233678D01*
X195738429Y-98051689D01*
X195700000Y-97858491D01*
X195700000Y-97661509D01*
X195738429Y-97468311D01*
X195813811Y-97286322D01*
X195923249Y-97122537D01*
X196062537Y-96983249D01*
X196226322Y-96873811D01*
X196408311Y-96798429D01*
X196472710Y-96785619D01*
X196601507Y-96760000D01*
X196798493Y-96760000D01*
X196927290Y-96785619D01*
G37*
G36*
X184227290Y-96785619D02*
G01*
X184291689Y-96798429D01*
X184473678Y-96873811D01*
X184637463Y-96983249D01*
X184776751Y-97122537D01*
X184886189Y-97286322D01*
X184961571Y-97468311D01*
X185000000Y-97661509D01*
X185000000Y-97858491D01*
X184961571Y-98051689D01*
X184886189Y-98233678D01*
X184776751Y-98397463D01*
X184637463Y-98536751D01*
X184473678Y-98646189D01*
X184291689Y-98721571D01*
X184227290Y-98734381D01*
X184098493Y-98760000D01*
X183901507Y-98760000D01*
X183772710Y-98734381D01*
X183708311Y-98721571D01*
X183526322Y-98646189D01*
X183362537Y-98536751D01*
X183223249Y-98397463D01*
X183113811Y-98233678D01*
X183038429Y-98051689D01*
X183000000Y-97858491D01*
X183000000Y-97661509D01*
X183038429Y-97468311D01*
X183113811Y-97286322D01*
X183223249Y-97122537D01*
X183362537Y-96983249D01*
X183526322Y-96873811D01*
X183708311Y-96798429D01*
X183772710Y-96785619D01*
X183901507Y-96760000D01*
X184098493Y-96760000D01*
X184227290Y-96785619D01*
G37*
G36*
X179350000Y-98000000D02*
G01*
X176450000Y-98000000D01*
X176450000Y-96600000D01*
X179350000Y-96600000D01*
X179350000Y-98000000D01*
G37*
G36*
X164150000Y-98000000D02*
G01*
X161250000Y-98000000D01*
X161250000Y-96600000D01*
X164150000Y-96600000D01*
X164150000Y-98000000D01*
G37*
G36*
X160573499Y-96143497D02*
G01*
X160626147Y-96159468D01*
X160674668Y-96185402D01*
X160717195Y-96220305D01*
X160752098Y-96262832D01*
X160778032Y-96311353D01*
X160794003Y-96364001D01*
X160800000Y-96424890D01*
X160800000Y-97225110D01*
X160794003Y-97285999D01*
X160778032Y-97338647D01*
X160752098Y-97387168D01*
X160717195Y-97429695D01*
X160674668Y-97464598D01*
X160626147Y-97490532D01*
X160573499Y-97506503D01*
X160512610Y-97512500D01*
X159287390Y-97512500D01*
X159226501Y-97506503D01*
X159173853Y-97490532D01*
X159125332Y-97464598D01*
X159082805Y-97429695D01*
X159047902Y-97387168D01*
X159016560Y-97328530D01*
X159015942Y-97327037D01*
X159002334Y-97306659D01*
X158985011Y-97289328D01*
X158964640Y-97275709D01*
X158942004Y-97266326D01*
X158917972Y-97261539D01*
X158893468Y-97261533D01*
X158869433Y-97266307D01*
X158846792Y-97275679D01*
X158826414Y-97289287D01*
X158809083Y-97306610D01*
X158795464Y-97326981D01*
X158786072Y-97349647D01*
X158778034Y-97376144D01*
X158752098Y-97424668D01*
X158717195Y-97467195D01*
X158674668Y-97502098D01*
X158626147Y-97528032D01*
X158573499Y-97544003D01*
X158512610Y-97550000D01*
X157287390Y-97550000D01*
X157226501Y-97544003D01*
X157173853Y-97528032D01*
X157125332Y-97502098D01*
X157082805Y-97467195D01*
X157047902Y-97424668D01*
X157021968Y-97376147D01*
X157005997Y-97323499D01*
X157000000Y-97262610D01*
X157000000Y-96462390D01*
X157005997Y-96401501D01*
X157021968Y-96348853D01*
X157047902Y-96300332D01*
X157082805Y-96257805D01*
X157125332Y-96222902D01*
X157173853Y-96196968D01*
X157226501Y-96180997D01*
X157287390Y-96175000D01*
X158512610Y-96175000D01*
X158573499Y-96180997D01*
X158626147Y-96196968D01*
X158674668Y-96222902D01*
X158717195Y-96257805D01*
X158752098Y-96300332D01*
X158783440Y-96358970D01*
X158784058Y-96360463D01*
X158797666Y-96380841D01*
X158814989Y-96398172D01*
X158835360Y-96411791D01*
X158857996Y-96421174D01*
X158882028Y-96425961D01*
X158906532Y-96425967D01*
X158930567Y-96421193D01*
X158953208Y-96411821D01*
X158973586Y-96398213D01*
X158990917Y-96380890D01*
X159004536Y-96360519D01*
X159013928Y-96337853D01*
X159021966Y-96311356D01*
X159047902Y-96262832D01*
X159082805Y-96220305D01*
X159125332Y-96185402D01*
X159173853Y-96159468D01*
X159226501Y-96143497D01*
X159287390Y-96137500D01*
X160512610Y-96137500D01*
X160573499Y-96143497D01*
G37*
G36*
X196927290Y-94245619D02*
G01*
X196991689Y-94258429D01*
X197173678Y-94333811D01*
X197337463Y-94443249D01*
X197476751Y-94582537D01*
X197586189Y-94746322D01*
X197661571Y-94928311D01*
X197700000Y-95121509D01*
X197700000Y-95318491D01*
X197661571Y-95511689D01*
X197586189Y-95693678D01*
X197476751Y-95857463D01*
X197337463Y-95996751D01*
X197173678Y-96106189D01*
X196991689Y-96181571D01*
X196927290Y-96194381D01*
X196798493Y-96220000D01*
X196601507Y-96220000D01*
X196472710Y-96194381D01*
X196408311Y-96181571D01*
X196226322Y-96106189D01*
X196062537Y-95996751D01*
X195923249Y-95857463D01*
X195813811Y-95693678D01*
X195738429Y-95511689D01*
X195700000Y-95318491D01*
X195700000Y-95121509D01*
X195738429Y-94928311D01*
X195813811Y-94746322D01*
X195923249Y-94582537D01*
X196062537Y-94443249D01*
X196226322Y-94333811D01*
X196408311Y-94258429D01*
X196472710Y-94245619D01*
X196601507Y-94220000D01*
X196798493Y-94220000D01*
X196927290Y-94245619D01*
G37*
G36*
X184227290Y-94245619D02*
G01*
X184291689Y-94258429D01*
X184473678Y-94333811D01*
X184637463Y-94443249D01*
X184776751Y-94582537D01*
X184886189Y-94746322D01*
X184961571Y-94928311D01*
X185000000Y-95121509D01*
X185000000Y-95318491D01*
X184961571Y-95511689D01*
X184886189Y-95693678D01*
X184776751Y-95857463D01*
X184637463Y-95996751D01*
X184473678Y-96106189D01*
X184291689Y-96181571D01*
X184227290Y-96194381D01*
X184098493Y-96220000D01*
X183901507Y-96220000D01*
X183772710Y-96194381D01*
X183708311Y-96181571D01*
X183526322Y-96106189D01*
X183362537Y-95996751D01*
X183223249Y-95857463D01*
X183113811Y-95693678D01*
X183038429Y-95511689D01*
X183000000Y-95318491D01*
X183000000Y-95121509D01*
X183038429Y-94928311D01*
X183113811Y-94746322D01*
X183223249Y-94582537D01*
X183362537Y-94443249D01*
X183526322Y-94333811D01*
X183708311Y-94258429D01*
X183772710Y-94245619D01*
X183901507Y-94220000D01*
X184098493Y-94220000D01*
X184227290Y-94245619D01*
G37*
G36*
X159699324Y-89836731D02*
G01*
X159847443Y-89866194D01*
X160056729Y-89952884D01*
X160245082Y-90078737D01*
X160405263Y-90238918D01*
X160531116Y-90427271D01*
X160617806Y-90636557D01*
X160639820Y-90747227D01*
X160662000Y-90858734D01*
X160662000Y-91085266D01*
X160657294Y-91108925D01*
X160617806Y-91307443D01*
X160531116Y-91516729D01*
X160405263Y-91705082D01*
X160245082Y-91865263D01*
X160056729Y-91991116D01*
X159847443Y-92077806D01*
X159847439Y-92077807D01*
X159838482Y-92081517D01*
X159816871Y-92093068D01*
X159797929Y-92108613D01*
X159782384Y-92127555D01*
X159770833Y-92149166D01*
X159763720Y-92172615D01*
X159761318Y-92197001D01*
X159763720Y-92221387D01*
X159770833Y-92244836D01*
X159782384Y-92266447D01*
X159797929Y-92285389D01*
X159816871Y-92300934D01*
X159838482Y-92312485D01*
X159861931Y-92319598D01*
X159886317Y-92322000D01*
X160662000Y-92322000D01*
X160662000Y-94622000D01*
X158362000Y-94622000D01*
X158362000Y-92322000D01*
X159137683Y-92322000D01*
X159162069Y-92319598D01*
X159185518Y-92312485D01*
X159207129Y-92300934D01*
X159226071Y-92285389D01*
X159241616Y-92266447D01*
X159253167Y-92244836D01*
X159260280Y-92221387D01*
X159262682Y-92197001D01*
X159260280Y-92172615D01*
X159253167Y-92149166D01*
X159241616Y-92127555D01*
X159226071Y-92108613D01*
X159207129Y-92093068D01*
X159185518Y-92081517D01*
X159176561Y-92077807D01*
X159176557Y-92077806D01*
X158967271Y-91991116D01*
X158778918Y-91865263D01*
X158618737Y-91705082D01*
X158492884Y-91516729D01*
X158406194Y-91307443D01*
X158366706Y-91108925D01*
X158362000Y-91085266D01*
X158362000Y-90858734D01*
X158384180Y-90747227D01*
X158406194Y-90636557D01*
X158492884Y-90427271D01*
X158618737Y-90238918D01*
X158778918Y-90078737D01*
X158967271Y-89952884D01*
X159176557Y-89866194D01*
X159324676Y-89836731D01*
X159398734Y-89822000D01*
X159625266Y-89822000D01*
X159699324Y-89836731D01*
G37*
G36*
X152559290Y-92497619D02*
G01*
X152623689Y-92510429D01*
X152805678Y-92585811D01*
X152969463Y-92695249D01*
X153108751Y-92834537D01*
X153218189Y-92998322D01*
X153293571Y-93180311D01*
X153332000Y-93373509D01*
X153332000Y-93570491D01*
X153293571Y-93763689D01*
X153218189Y-93945678D01*
X153108751Y-94109463D01*
X152969463Y-94248751D01*
X152805678Y-94358189D01*
X152623689Y-94433571D01*
X152575034Y-94443249D01*
X152430493Y-94472000D01*
X152233507Y-94472000D01*
X152088966Y-94443249D01*
X152040311Y-94433571D01*
X151858322Y-94358189D01*
X151694537Y-94248751D01*
X151555249Y-94109463D01*
X151445811Y-93945678D01*
X151370429Y-93763689D01*
X151332000Y-93570491D01*
X151332000Y-93373509D01*
X151370429Y-93180311D01*
X151445811Y-92998322D01*
X151555249Y-92834537D01*
X151694537Y-92695249D01*
X151858322Y-92585811D01*
X152040311Y-92510429D01*
X152104710Y-92497619D01*
X152233507Y-92472000D01*
X152430493Y-92472000D01*
X152559290Y-92497619D01*
G37*
G36*
X201660999Y-91205997D02*
G01*
X201713647Y-91221968D01*
X201762168Y-91247902D01*
X201804695Y-91282805D01*
X201839598Y-91325332D01*
X201865532Y-91373853D01*
X201881503Y-91426501D01*
X201887500Y-91487390D01*
X201887500Y-92712610D01*
X201881503Y-92773499D01*
X201865532Y-92826147D01*
X201839598Y-92874668D01*
X201804695Y-92917195D01*
X201762168Y-92952098D01*
X201713647Y-92978032D01*
X201660999Y-92994003D01*
X201600110Y-93000000D01*
X200799890Y-93000000D01*
X200739001Y-92994003D01*
X200686353Y-92978032D01*
X200637832Y-92952098D01*
X200595305Y-92917195D01*
X200560402Y-92874668D01*
X200534468Y-92826147D01*
X200518497Y-92773499D01*
X200512500Y-92712610D01*
X200512500Y-91487390D01*
X200518497Y-91426501D01*
X200534468Y-91373853D01*
X200560402Y-91325332D01*
X200595305Y-91282805D01*
X200637832Y-91247902D01*
X200686353Y-91221968D01*
X200739001Y-91205997D01*
X200799890Y-91200000D01*
X201600110Y-91200000D01*
X201660999Y-91205997D01*
G37*
G36*
X199785999Y-91205997D02*
G01*
X199838647Y-91221968D01*
X199887168Y-91247902D01*
X199929695Y-91282805D01*
X199964598Y-91325332D01*
X199990532Y-91373853D01*
X200006503Y-91426501D01*
X200012500Y-91487390D01*
X200012500Y-92712610D01*
X200006503Y-92773499D01*
X199990532Y-92826147D01*
X199964598Y-92874668D01*
X199929695Y-92917195D01*
X199887168Y-92952098D01*
X199838647Y-92978032D01*
X199785999Y-92994003D01*
X199725110Y-93000000D01*
X198924890Y-93000000D01*
X198864001Y-92994003D01*
X198811353Y-92978032D01*
X198762832Y-92952098D01*
X198720305Y-92917195D01*
X198685402Y-92874668D01*
X198659468Y-92826147D01*
X198643497Y-92773499D01*
X198637500Y-92712610D01*
X198637500Y-91487390D01*
X198643497Y-91426501D01*
X198659468Y-91373853D01*
X198685402Y-91325332D01*
X198720305Y-91282805D01*
X198762832Y-91247902D01*
X198811353Y-91221968D01*
X198864001Y-91205997D01*
X198924890Y-91200000D01*
X199725110Y-91200000D01*
X199785999Y-91205997D01*
G37*
G36*
X197748499Y-87105997D02*
G01*
X197801147Y-87121968D01*
X197849668Y-87147902D01*
X197892195Y-87182805D01*
X197927098Y-87225332D01*
X197953032Y-87273853D01*
X197969003Y-87326501D01*
X197975000Y-87387390D01*
X197975000Y-88612610D01*
X197969003Y-88673499D01*
X197953032Y-88726147D01*
X197927098Y-88774668D01*
X197892195Y-88817195D01*
X197849668Y-88852098D01*
X197801147Y-88878032D01*
X197793398Y-88880383D01*
X197770759Y-88889761D01*
X197750384Y-88903375D01*
X197733057Y-88920702D01*
X197719444Y-88941076D01*
X197710066Y-88963715D01*
X197705286Y-88987748D01*
X197705286Y-89012252D01*
X197710066Y-89036285D01*
X197719444Y-89058924D01*
X197733058Y-89079299D01*
X197750385Y-89096626D01*
X197770759Y-89110239D01*
X197793398Y-89119617D01*
X197801147Y-89121968D01*
X197849668Y-89147902D01*
X197892195Y-89182805D01*
X197927098Y-89225332D01*
X197953032Y-89273853D01*
X197969003Y-89326501D01*
X197975000Y-89387390D01*
X197975000Y-90612610D01*
X197969003Y-90673499D01*
X197953032Y-90726147D01*
X197927098Y-90774668D01*
X197892195Y-90817195D01*
X197849666Y-90852099D01*
X197802216Y-90877461D01*
X197781842Y-90891075D01*
X197764514Y-90908401D01*
X197750900Y-90928776D01*
X197741523Y-90951414D01*
X197736742Y-90975447D01*
X197736742Y-90999952D01*
X197741522Y-91023985D01*
X197750899Y-91046624D01*
X197764513Y-91066998D01*
X197781839Y-91084326D01*
X197802214Y-91097940D01*
X197824853Y-91107318D01*
X197873149Y-91121968D01*
X197921668Y-91147902D01*
X197964195Y-91182805D01*
X197999098Y-91225332D01*
X198025032Y-91273853D01*
X198041003Y-91326501D01*
X198047000Y-91387390D01*
X198047000Y-92612610D01*
X198041003Y-92673499D01*
X198025032Y-92726147D01*
X197999098Y-92774668D01*
X197964195Y-92817195D01*
X197921668Y-92852098D01*
X197873147Y-92878032D01*
X197820499Y-92894003D01*
X197759610Y-92900000D01*
X196959390Y-92900000D01*
X196898501Y-92894003D01*
X196845853Y-92878032D01*
X196797332Y-92852098D01*
X196754805Y-92817195D01*
X196719902Y-92774668D01*
X196693968Y-92726147D01*
X196677997Y-92673499D01*
X196672000Y-92612610D01*
X196672000Y-91387390D01*
X196677997Y-91326501D01*
X196693968Y-91273853D01*
X196719902Y-91225332D01*
X196754805Y-91182805D01*
X196797334Y-91147901D01*
X196844784Y-91122539D01*
X196865158Y-91108925D01*
X196882486Y-91091599D01*
X196896100Y-91071224D01*
X196905477Y-91048586D01*
X196910258Y-91024553D01*
X196910258Y-91000048D01*
X196905478Y-90976015D01*
X196896101Y-90953376D01*
X196882487Y-90933002D01*
X196865161Y-90915674D01*
X196844786Y-90902060D01*
X196822147Y-90892682D01*
X196773851Y-90878032D01*
X196725332Y-90852098D01*
X196682805Y-90817195D01*
X196647902Y-90774668D01*
X196621968Y-90726147D01*
X196605997Y-90673499D01*
X196600000Y-90612610D01*
X196600000Y-89387390D01*
X196605997Y-89326501D01*
X196621968Y-89273853D01*
X196647902Y-89225332D01*
X196682805Y-89182805D01*
X196725332Y-89147902D01*
X196773853Y-89121968D01*
X196781602Y-89119617D01*
X196804241Y-89110239D01*
X196824616Y-89096625D01*
X196841943Y-89079298D01*
X196855556Y-89058924D01*
X196864934Y-89036285D01*
X196869714Y-89012252D01*
X196869714Y-88987748D01*
X196864934Y-88963715D01*
X196855556Y-88941076D01*
X196841942Y-88920701D01*
X196824615Y-88903374D01*
X196804241Y-88889761D01*
X196781602Y-88880383D01*
X196773853Y-88878032D01*
X196725332Y-88852098D01*
X196682805Y-88817195D01*
X196647902Y-88774668D01*
X196621968Y-88726147D01*
X196605997Y-88673499D01*
X196600000Y-88612610D01*
X196600000Y-87387390D01*
X196605997Y-87326501D01*
X196621968Y-87273853D01*
X196647902Y-87225332D01*
X196682805Y-87182805D01*
X196725332Y-87147902D01*
X196773853Y-87121968D01*
X196826501Y-87105997D01*
X196887390Y-87100000D01*
X197687610Y-87100000D01*
X197748499Y-87105997D01*
G37*
G36*
X190873499Y-87105997D02*
G01*
X190926147Y-87121968D01*
X190974668Y-87147902D01*
X191017195Y-87182805D01*
X191052098Y-87225332D01*
X191078032Y-87273853D01*
X191094003Y-87326501D01*
X191100000Y-87387390D01*
X191100000Y-88612610D01*
X191094003Y-88673499D01*
X191078032Y-88726147D01*
X191052098Y-88774668D01*
X191017195Y-88817195D01*
X190974668Y-88852098D01*
X190926147Y-88878032D01*
X190918398Y-88880383D01*
X190895759Y-88889761D01*
X190875384Y-88903375D01*
X190858057Y-88920702D01*
X190844444Y-88941076D01*
X190835066Y-88963715D01*
X190830286Y-88987748D01*
X190830286Y-89012252D01*
X190835066Y-89036285D01*
X190844444Y-89058924D01*
X190858058Y-89079299D01*
X190875385Y-89096626D01*
X190895759Y-89110239D01*
X190918398Y-89119617D01*
X190926147Y-89121968D01*
X190974668Y-89147902D01*
X191017195Y-89182805D01*
X191052098Y-89225332D01*
X191078032Y-89273853D01*
X191094003Y-89326501D01*
X191100000Y-89387390D01*
X191100000Y-90612610D01*
X191094003Y-90673499D01*
X191078032Y-90726147D01*
X191052098Y-90774668D01*
X191017195Y-90817195D01*
X190974668Y-90852098D01*
X190926147Y-90878032D01*
X190918398Y-90880383D01*
X190895759Y-90889761D01*
X190875384Y-90903375D01*
X190858057Y-90920702D01*
X190844444Y-90941076D01*
X190835066Y-90963715D01*
X190830286Y-90987748D01*
X190830286Y-91012252D01*
X190835066Y-91036285D01*
X190844444Y-91058924D01*
X190858058Y-91079299D01*
X190875385Y-91096626D01*
X190895759Y-91110239D01*
X190918398Y-91119617D01*
X190926147Y-91121968D01*
X190974668Y-91147902D01*
X191017195Y-91182805D01*
X191052098Y-91225332D01*
X191078032Y-91273853D01*
X191094003Y-91326501D01*
X191100000Y-91387390D01*
X191100000Y-92612610D01*
X191094003Y-92673499D01*
X191078032Y-92726147D01*
X191052098Y-92774668D01*
X191017195Y-92817195D01*
X190974668Y-92852098D01*
X190926147Y-92878032D01*
X190873499Y-92894003D01*
X190812610Y-92900000D01*
X190012390Y-92900000D01*
X189951501Y-92894003D01*
X189898853Y-92878032D01*
X189850332Y-92852098D01*
X189807805Y-92817195D01*
X189772902Y-92774668D01*
X189746968Y-92726147D01*
X189730997Y-92673499D01*
X189725000Y-92612610D01*
X189725000Y-91387390D01*
X189730997Y-91326501D01*
X189746968Y-91273853D01*
X189772902Y-91225332D01*
X189807805Y-91182805D01*
X189850332Y-91147902D01*
X189898853Y-91121968D01*
X189906602Y-91119617D01*
X189929241Y-91110239D01*
X189949616Y-91096625D01*
X189966943Y-91079298D01*
X189980556Y-91058924D01*
X189989934Y-91036285D01*
X189994714Y-91012252D01*
X189994714Y-90987748D01*
X189989934Y-90963715D01*
X189980556Y-90941076D01*
X189966942Y-90920701D01*
X189949615Y-90903374D01*
X189929241Y-90889761D01*
X189906602Y-90880383D01*
X189898853Y-90878032D01*
X189850332Y-90852098D01*
X189807805Y-90817195D01*
X189772902Y-90774668D01*
X189746968Y-90726147D01*
X189730997Y-90673499D01*
X189725000Y-90612610D01*
X189725000Y-89387390D01*
X189730997Y-89326501D01*
X189746968Y-89273853D01*
X189772902Y-89225332D01*
X189807805Y-89182805D01*
X189850332Y-89147902D01*
X189898853Y-89121968D01*
X189906602Y-89119617D01*
X189929241Y-89110239D01*
X189949616Y-89096625D01*
X189966943Y-89079298D01*
X189980556Y-89058924D01*
X189989934Y-89036285D01*
X189994714Y-89012252D01*
X189994714Y-88987748D01*
X189989934Y-88963715D01*
X189980556Y-88941076D01*
X189966942Y-88920701D01*
X189949615Y-88903374D01*
X189929241Y-88889761D01*
X189906602Y-88880383D01*
X189898853Y-88878032D01*
X189850332Y-88852098D01*
X189807805Y-88817195D01*
X189772902Y-88774668D01*
X189746968Y-88726147D01*
X189730997Y-88673499D01*
X189725000Y-88612610D01*
X189725000Y-87387390D01*
X189730997Y-87326501D01*
X189746968Y-87273853D01*
X189772902Y-87225332D01*
X189807805Y-87182805D01*
X189850332Y-87147902D01*
X189898853Y-87121968D01*
X189951501Y-87105997D01*
X190012390Y-87100000D01*
X190812610Y-87100000D01*
X190873499Y-87105997D01*
G37*
G36*
X192748499Y-87105997D02*
G01*
X192801147Y-87121968D01*
X192849668Y-87147902D01*
X192892195Y-87182805D01*
X192927098Y-87225332D01*
X192953032Y-87273853D01*
X192969003Y-87326501D01*
X192975000Y-87387390D01*
X192975000Y-88612610D01*
X192969003Y-88673499D01*
X192953032Y-88726147D01*
X192927098Y-88774668D01*
X192892195Y-88817195D01*
X192849668Y-88852098D01*
X192801147Y-88878032D01*
X192793398Y-88880383D01*
X192770759Y-88889761D01*
X192750384Y-88903375D01*
X192733057Y-88920702D01*
X192719444Y-88941076D01*
X192710066Y-88963715D01*
X192705286Y-88987748D01*
X192705286Y-89012252D01*
X192710066Y-89036285D01*
X192719444Y-89058924D01*
X192733058Y-89079299D01*
X192750385Y-89096626D01*
X192770759Y-89110239D01*
X192793398Y-89119617D01*
X192801147Y-89121968D01*
X192849668Y-89147902D01*
X192892195Y-89182805D01*
X192927098Y-89225332D01*
X192953032Y-89273853D01*
X192969003Y-89326501D01*
X192975000Y-89387390D01*
X192975000Y-90612610D01*
X192969003Y-90673499D01*
X192953032Y-90726147D01*
X192927098Y-90774668D01*
X192892195Y-90817195D01*
X192849668Y-90852098D01*
X192801147Y-90878032D01*
X192793398Y-90880383D01*
X192770759Y-90889761D01*
X192750384Y-90903375D01*
X192733057Y-90920702D01*
X192719444Y-90941076D01*
X192710066Y-90963715D01*
X192705286Y-90987748D01*
X192705286Y-91012252D01*
X192710066Y-91036285D01*
X192719444Y-91058924D01*
X192733058Y-91079299D01*
X192750385Y-91096626D01*
X192770759Y-91110239D01*
X192793398Y-91119617D01*
X192801147Y-91121968D01*
X192849668Y-91147902D01*
X192892195Y-91182805D01*
X192927098Y-91225332D01*
X192953032Y-91273853D01*
X192969003Y-91326501D01*
X192975000Y-91387390D01*
X192975000Y-92612610D01*
X192969003Y-92673499D01*
X192953032Y-92726147D01*
X192927098Y-92774668D01*
X192892195Y-92817195D01*
X192849668Y-92852098D01*
X192801147Y-92878032D01*
X192748499Y-92894003D01*
X192687610Y-92900000D01*
X191887390Y-92900000D01*
X191826501Y-92894003D01*
X191773853Y-92878032D01*
X191725332Y-92852098D01*
X191682805Y-92817195D01*
X191647902Y-92774668D01*
X191621968Y-92726147D01*
X191605997Y-92673499D01*
X191600000Y-92612610D01*
X191600000Y-91387390D01*
X191605997Y-91326501D01*
X191621968Y-91273853D01*
X191647902Y-91225332D01*
X191682805Y-91182805D01*
X191725332Y-91147902D01*
X191773853Y-91121968D01*
X191781602Y-91119617D01*
X191804241Y-91110239D01*
X191824616Y-91096625D01*
X191841943Y-91079298D01*
X191855556Y-91058924D01*
X191864934Y-91036285D01*
X191869714Y-91012252D01*
X191869714Y-90987748D01*
X191864934Y-90963715D01*
X191855556Y-90941076D01*
X191841942Y-90920701D01*
X191824615Y-90903374D01*
X191804241Y-90889761D01*
X191781602Y-90880383D01*
X191773853Y-90878032D01*
X191725332Y-90852098D01*
X191682805Y-90817195D01*
X191647902Y-90774668D01*
X191621968Y-90726147D01*
X191605997Y-90673499D01*
X191600000Y-90612610D01*
X191600000Y-89387390D01*
X191605997Y-89326501D01*
X191621968Y-89273853D01*
X191647902Y-89225332D01*
X191682805Y-89182805D01*
X191725332Y-89147902D01*
X191773853Y-89121968D01*
X191781602Y-89119617D01*
X191804241Y-89110239D01*
X191824616Y-89096625D01*
X191841943Y-89079298D01*
X191855556Y-89058924D01*
X191864934Y-89036285D01*
X191869714Y-89012252D01*
X191869714Y-88987748D01*
X191864934Y-88963715D01*
X191855556Y-88941076D01*
X191841942Y-88920701D01*
X191824615Y-88903374D01*
X191804241Y-88889761D01*
X191781602Y-88880383D01*
X191773853Y-88878032D01*
X191725332Y-88852098D01*
X191682805Y-88817195D01*
X191647902Y-88774668D01*
X191621968Y-88726147D01*
X191605997Y-88673499D01*
X191600000Y-88612610D01*
X191600000Y-87387390D01*
X191605997Y-87326501D01*
X191621968Y-87273853D01*
X191647902Y-87225332D01*
X191682805Y-87182805D01*
X191725332Y-87147902D01*
X191773853Y-87121968D01*
X191826501Y-87105997D01*
X191887390Y-87100000D01*
X192687610Y-87100000D01*
X192748499Y-87105997D01*
G37*
G36*
X195873499Y-87105997D02*
G01*
X195926147Y-87121968D01*
X195974668Y-87147902D01*
X196017195Y-87182805D01*
X196052098Y-87225332D01*
X196078032Y-87273853D01*
X196094003Y-87326501D01*
X196100000Y-87387390D01*
X196100000Y-88612610D01*
X196094003Y-88673499D01*
X196078032Y-88726147D01*
X196052098Y-88774668D01*
X196017195Y-88817195D01*
X195974668Y-88852098D01*
X195926147Y-88878032D01*
X195918398Y-88880383D01*
X195895759Y-88889761D01*
X195875384Y-88903375D01*
X195858057Y-88920702D01*
X195844444Y-88941076D01*
X195835066Y-88963715D01*
X195830286Y-88987748D01*
X195830286Y-89012252D01*
X195835066Y-89036285D01*
X195844444Y-89058924D01*
X195858058Y-89079299D01*
X195875385Y-89096626D01*
X195895759Y-89110239D01*
X195918398Y-89119617D01*
X195926147Y-89121968D01*
X195974668Y-89147902D01*
X196017195Y-89182805D01*
X196052098Y-89225332D01*
X196078032Y-89273853D01*
X196094003Y-89326501D01*
X196100000Y-89387390D01*
X196100000Y-90612610D01*
X196094003Y-90673499D01*
X196078032Y-90726147D01*
X196052098Y-90774668D01*
X196017195Y-90817195D01*
X195974666Y-90852099D01*
X195927216Y-90877461D01*
X195906842Y-90891075D01*
X195889514Y-90908401D01*
X195875900Y-90928776D01*
X195866523Y-90951414D01*
X195861742Y-90975447D01*
X195861742Y-90999952D01*
X195866522Y-91023985D01*
X195875899Y-91046624D01*
X195889513Y-91066998D01*
X195906839Y-91084326D01*
X195927214Y-91097940D01*
X195949853Y-91107318D01*
X195998149Y-91121968D01*
X196046668Y-91147902D01*
X196089195Y-91182805D01*
X196124098Y-91225332D01*
X196150032Y-91273853D01*
X196166003Y-91326501D01*
X196172000Y-91387390D01*
X196172000Y-92612610D01*
X196166003Y-92673499D01*
X196150032Y-92726147D01*
X196124098Y-92774668D01*
X196089195Y-92817195D01*
X196046668Y-92852098D01*
X195998147Y-92878032D01*
X195945499Y-92894003D01*
X195884610Y-92900000D01*
X195084390Y-92900000D01*
X195023501Y-92894003D01*
X194970853Y-92878032D01*
X194922332Y-92852098D01*
X194879805Y-92817195D01*
X194844902Y-92774668D01*
X194818968Y-92726147D01*
X194802997Y-92673499D01*
X194797000Y-92612610D01*
X194797000Y-91387390D01*
X194802997Y-91326501D01*
X194818968Y-91273853D01*
X194844902Y-91225332D01*
X194879805Y-91182805D01*
X194922334Y-91147901D01*
X194969784Y-91122539D01*
X194990158Y-91108925D01*
X195007486Y-91091599D01*
X195021100Y-91071224D01*
X195030477Y-91048586D01*
X195035258Y-91024553D01*
X195035258Y-91000048D01*
X195030478Y-90976015D01*
X195021101Y-90953376D01*
X195007487Y-90933002D01*
X194990161Y-90915674D01*
X194969786Y-90902060D01*
X194947147Y-90892682D01*
X194898851Y-90878032D01*
X194850332Y-90852098D01*
X194807805Y-90817195D01*
X194772902Y-90774668D01*
X194746968Y-90726147D01*
X194730997Y-90673499D01*
X194725000Y-90612610D01*
X194725000Y-89387390D01*
X194730997Y-89326501D01*
X194746968Y-89273853D01*
X194772902Y-89225332D01*
X194807805Y-89182805D01*
X194850332Y-89147902D01*
X194898853Y-89121968D01*
X194906602Y-89119617D01*
X194929241Y-89110239D01*
X194949616Y-89096625D01*
X194966943Y-89079298D01*
X194980556Y-89058924D01*
X194989934Y-89036285D01*
X194994714Y-89012252D01*
X194994714Y-88987748D01*
X194989934Y-88963715D01*
X194980556Y-88941076D01*
X194966942Y-88920701D01*
X194949615Y-88903374D01*
X194929241Y-88889761D01*
X194906602Y-88880383D01*
X194898853Y-88878032D01*
X194850332Y-88852098D01*
X194807805Y-88817195D01*
X194772902Y-88774668D01*
X194746968Y-88726147D01*
X194730997Y-88673499D01*
X194725000Y-88612610D01*
X194725000Y-87387390D01*
X194730997Y-87326501D01*
X194746968Y-87273853D01*
X194772902Y-87225332D01*
X194807805Y-87182805D01*
X194850332Y-87147902D01*
X194898853Y-87121968D01*
X194951501Y-87105997D01*
X195012390Y-87100000D01*
X195812610Y-87100000D01*
X195873499Y-87105997D01*
G37*
G36*
X186992000Y-92518000D02*
G01*
X184192000Y-92518000D01*
X184192000Y-88838000D01*
X186992000Y-88838000D01*
X186992000Y-92518000D01*
G37*
G36*
X183092000Y-92518000D02*
G01*
X180292000Y-92518000D01*
X180292000Y-88838000D01*
X183092000Y-88838000D01*
X183092000Y-92518000D01*
G37*
G36*
X152559290Y-89997619D02*
G01*
X152623689Y-90010429D01*
X152805678Y-90085811D01*
X152969463Y-90195249D01*
X153108751Y-90334537D01*
X153218189Y-90498322D01*
X153275448Y-90636559D01*
X153293571Y-90680312D01*
X153332000Y-90873507D01*
X153332000Y-91070493D01*
X153316602Y-91147902D01*
X153293571Y-91263689D01*
X153218189Y-91445678D01*
X153108751Y-91609463D01*
X152969463Y-91748751D01*
X152805678Y-91858189D01*
X152623689Y-91933571D01*
X152559290Y-91946381D01*
X152430493Y-91972000D01*
X152233507Y-91972000D01*
X152104710Y-91946381D01*
X152040311Y-91933571D01*
X151858322Y-91858189D01*
X151694537Y-91748751D01*
X151555249Y-91609463D01*
X151445811Y-91445678D01*
X151370429Y-91263689D01*
X151347398Y-91147902D01*
X151332000Y-91070493D01*
X151332000Y-90873507D01*
X151370429Y-90680312D01*
X151388552Y-90636559D01*
X151445811Y-90498322D01*
X151555249Y-90334537D01*
X151694537Y-90195249D01*
X151858322Y-90085811D01*
X152040311Y-90010429D01*
X152104710Y-89997619D01*
X152233507Y-89972000D01*
X152430493Y-89972000D01*
X152559290Y-89997619D01*
G37*
M02*
