M48
; DRILL file {KiCad 9.0.1} date 2025-04-13T16:53:44+0200
; FORMAT={-:-/ absolute / metric / decimal}
; #@! TF.CreationDate,2025-04-13T16:53:44+02:00
; #@! TF.GenerationSoftware,Kicad,Pcbnew,9.0.1
; #@! TF.FileFunction,Plated,1,2,PTH
FMAT,2
METRIC
; #@! TA.AperFunction,Plated,PTH,ViaDrill
T1C0.400
; #@! TA.AperFunction,Plated,PTH,ComponentDrill
T2C0.800
; #@! TA.AperFunction,Plated,PTH,ComponentDrill
T3C1.000
; #@! TA.AperFunction,Plated,PTH,ComponentDrill
T4C1.200
%
G90
G05
T1
X150.0Y-87.5
X150.1Y-117.2
X150.8Y-87.5
X151.0Y-117.2
X159.4Y-87.3
X160.1Y-87.3
X165.8Y-102.5
X174.2Y-102.4
X177.3Y-112.8
X180.3Y-105.5
X180.4Y-104.0
X181.0Y-87.2
X181.9Y-87.2
X186.1Y-105.9
X186.436Y-98.806
X188.0Y-114.0
X188.1Y-88.1
X188.9Y-87.3
X189.3Y-93.4
X189.4Y-98.5
X189.738Y-102.362
X190.0Y-96.0
X191.3Y-115.9
X191.8Y-95.5
X192.1Y-87.3
X192.1Y-90.975
X192.4Y-94.6
X195.0Y-111.0
X197.4Y-87.6
X198.5Y-110.5
X199.6Y-89.2
T2
X184.0Y-95.22
X184.0Y-97.76
X184.0Y-100.3
X184.0Y-102.84
X184.0Y-105.38
X184.0Y-107.92
X184.0Y-110.46
X184.0Y-113.0
X196.7Y-95.22
X196.7Y-97.76
X196.7Y-100.3
X196.7Y-102.84
X196.7Y-105.38
X196.7Y-107.92
X196.7Y-110.46
X196.7Y-113.0
T3
X150.7Y-101.2
X150.7Y-103.74
X150.7Y-106.28
X200.0Y-98.38
X200.0Y-100.92
X200.0Y-103.46
X200.0Y-106.0
X200.0Y-108.54
T4
X159.512Y-90.972
X159.512Y-93.472
M30
