G04 #@! TF.GenerationSoftware,KiCad,Pcbnew,9.0.1*
G04 #@! TF.CreationDate,2025-04-13T16:53:42+02:00*
G04 #@! TF.ProjectId,RulleGardin,52756c6c-6547-4617-9264-696e2e6b6963,rev?*
G04 #@! TF.SameCoordinates,Original*
G04 #@! TF.FileFunction,Copper,L1,Top*
G04 #@! TF.FilePolarity,Positive*
%FSLAX46Y46*%
G04 Gerber Fmt 4.6, Leading zero omitted, Abs format (unit mm)*
G04 Created by KiCad (PCBNEW 9.0.1) date 2025-04-13 16:53:42*
%MOMM*%
%LPD*%
G01*
G04 APERTURE LIST*
G04 Aperture macros list*
%AMRoundRect*
0 Rectangle with rounded corners*
0 $1 Rounding radius*
0 $2 $3 $4 $5 $6 $7 $8 $9 X,Y pos of 4 corners*
0 Add a 4 corners polygon primitive as box body*
4,1,4,$2,$3,$4,$5,$6,$7,$8,$9,$2,$3,0*
0 Add four circle primitives for the rounded corners*
1,1,$1+$1,$2,$3*
1,1,$1+$1,$4,$5*
1,1,$1+$1,$6,$7*
1,1,$1+$1,$8,$9*
0 Add four rect primitives between the rounded corners*
20,1,$1+$1,$2,$3,$4,$5,0*
20,1,$1+$1,$4,$5,$6,$7,0*
20,1,$1+$1,$6,$7,$8,$9,0*
20,1,$1+$1,$8,$9,$2,$3,0*%
%AMFreePoly0*
4,1,23,0.550000,-0.750000,0.000000,-0.750000,0.000000,-0.745722,-0.065263,-0.745722,-0.191342,-0.711940,-0.304381,-0.646677,-0.396677,-0.554381,-0.461940,-0.441342,-0.495722,-0.315263,-0.495722,-0.250000,-0.500000,-0.250000,-0.500000,0.250000,-0.495722,0.250000,-0.495722,0.315263,-0.461940,0.441342,-0.396677,0.554381,-0.304381,0.646677,-0.191342,0.711940,-0.065263,0.745722,0.000000,0.745722,
0.000000,0.750000,0.550000,0.750000,0.550000,-0.750000,0.550000,-0.750000,$1*%
%AMFreePoly1*
4,1,23,0.000000,0.745722,0.065263,0.745722,0.191342,0.711940,0.304381,0.646677,0.396677,0.554381,0.461940,0.441342,0.495722,0.315263,0.495722,0.250000,0.500000,0.250000,0.500000,-0.250000,0.495722,-0.250000,0.495722,-0.315263,0.461940,-0.441342,0.396677,-0.554381,0.304381,-0.646677,0.191342,-0.711940,0.065263,-0.745722,0.000000,-0.745722,0.000000,-0.750000,-0.550000,-0.750000,
-0.550000,0.750000,0.000000,0.750000,0.000000,0.745722,0.000000,0.745722,$1*%
G04 Aperture macros list end*
G04 #@! TA.AperFunction,SMDPad,CuDef*
%ADD10FreePoly0,0.000000*%
G04 #@! TD*
G04 #@! TA.AperFunction,SMDPad,CuDef*
%ADD11R,1.000000X1.500000*%
G04 #@! TD*
G04 #@! TA.AperFunction,SMDPad,CuDef*
%ADD12FreePoly1,0.000000*%
G04 #@! TD*
G04 #@! TA.AperFunction,SMDPad,CuDef*
%ADD13R,2.500000X1.000000*%
G04 #@! TD*
G04 #@! TA.AperFunction,SMDPad,CuDef*
%ADD14R,1.000000X1.800000*%
G04 #@! TD*
G04 #@! TA.AperFunction,SMDPad,CuDef*
%ADD15RoundRect,0.243750X-0.456250X0.243750X-0.456250X-0.243750X0.456250X-0.243750X0.456250X0.243750X0*%
G04 #@! TD*
G04 #@! TA.AperFunction,SMDPad,CuDef*
%ADD16RoundRect,0.243750X-0.243750X-0.456250X0.243750X-0.456250X0.243750X0.456250X-0.243750X0.456250X0*%
G04 #@! TD*
G04 #@! TA.AperFunction,SMDPad,CuDef*
%ADD17RoundRect,0.243750X0.243750X0.456250X-0.243750X0.456250X-0.243750X-0.456250X0.243750X-0.456250X0*%
G04 #@! TD*
G04 #@! TA.AperFunction,SMDPad,CuDef*
%ADD18RoundRect,0.243750X0.456250X-0.243750X0.456250X0.243750X-0.456250X0.243750X-0.456250X-0.243750X0*%
G04 #@! TD*
G04 #@! TA.AperFunction,ComponentPad*
%ADD19O,2.500000X1.500000*%
G04 #@! TD*
G04 #@! TA.AperFunction,ComponentPad*
%ADD20R,2.500000X1.500000*%
G04 #@! TD*
G04 #@! TA.AperFunction,ComponentPad*
%ADD21O,1.600000X1.600000*%
G04 #@! TD*
G04 #@! TA.AperFunction,ComponentPad*
%ADD22R,1.600000X1.600000*%
G04 #@! TD*
G04 #@! TA.AperFunction,ComponentPad*
%ADD23R,1.700000X1.700000*%
G04 #@! TD*
G04 #@! TA.AperFunction,ComponentPad*
%ADD24O,1.700000X1.700000*%
G04 #@! TD*
G04 #@! TA.AperFunction,SMDPad,CuDef*
%ADD25R,1.500000X0.600000*%
G04 #@! TD*
G04 #@! TA.AperFunction,SMDPad,CuDef*
%ADD26R,0.740000X2.400000*%
G04 #@! TD*
G04 #@! TA.AperFunction,ComponentPad*
%ADD27C,1.900000*%
G04 #@! TD*
G04 #@! TA.AperFunction,ComponentPad*
%ADD28R,1.900000X1.900000*%
G04 #@! TD*
G04 #@! TA.AperFunction,ViaPad*
%ADD29C,0.600000*%
G04 #@! TD*
G04 #@! TA.AperFunction,Conductor*
%ADD30C,0.250000*%
G04 #@! TD*
G04 #@! TA.AperFunction,Conductor*
%ADD31C,0.750000*%
G04 #@! TD*
G04 #@! TA.AperFunction,Conductor*
%ADD32C,0.500000*%
G04 #@! TD*
G04 APERTURE END LIST*
D10*
X193000000Y-91157500D03*
D11*
X194300000Y-91157500D03*
D12*
X195600000Y-91157500D03*
D10*
X193000000Y-87357500D03*
D11*
X194300000Y-87357500D03*
D12*
X195600000Y-87357500D03*
D10*
X198400000Y-87400000D03*
D11*
X199700000Y-87400000D03*
D12*
X201000000Y-87400000D03*
D13*
X177900000Y-97300000D03*
X177900000Y-99300000D03*
X177900000Y-101300000D03*
X177900000Y-103300000D03*
X177900000Y-105300000D03*
X177900000Y-107300000D03*
X177900000Y-109300000D03*
X177900000Y-111300000D03*
D14*
X175300000Y-112800000D03*
X173300000Y-112800000D03*
X171300000Y-112800000D03*
X169300000Y-112800000D03*
X167300000Y-112800000D03*
X165300000Y-112800000D03*
D13*
X162700000Y-111300000D03*
X162700000Y-109300000D03*
X162700000Y-107300000D03*
X162700000Y-105300000D03*
X162700000Y-103300000D03*
X162700000Y-101300000D03*
X162700000Y-99300000D03*
X162700000Y-97300000D03*
D15*
X157900000Y-98737500D03*
X157900000Y-96862500D03*
D16*
X175181500Y-116078000D03*
X173306500Y-116078000D03*
X185595500Y-116000000D03*
X183720500Y-116000000D03*
D17*
X178640500Y-116000000D03*
X180515500Y-116000000D03*
D15*
X159900000Y-98700000D03*
X159900000Y-96825000D03*
D16*
X189575000Y-116000000D03*
X187700000Y-116000000D03*
X201200000Y-92100000D03*
X199325000Y-92100000D03*
D18*
X157700000Y-104625000D03*
X157700000Y-106500000D03*
D15*
X157800000Y-102800000D03*
X157800000Y-100925000D03*
D19*
X150700000Y-106280000D03*
X150700000Y-103740000D03*
D20*
X150700000Y-101200000D03*
D21*
X184000000Y-113000000D03*
X196700000Y-95220000D03*
X184000000Y-110460000D03*
X196700000Y-97760000D03*
X184000000Y-107920000D03*
X196700000Y-100300000D03*
X184000000Y-105380000D03*
X196700000Y-102840000D03*
X184000000Y-102840000D03*
X196700000Y-105380000D03*
X184000000Y-100300000D03*
X196700000Y-107920000D03*
X184000000Y-97760000D03*
X196700000Y-110460000D03*
X184000000Y-95220000D03*
D22*
X196700000Y-113000000D03*
D23*
X200000000Y-98380000D03*
D24*
X200000000Y-100920000D03*
X200000000Y-103460000D03*
X200000000Y-106000000D03*
X200000000Y-108540000D03*
D25*
X188000000Y-101000000D03*
X188000000Y-102270000D03*
X188000000Y-103540000D03*
X188000000Y-104810000D03*
X188000000Y-106080000D03*
X188000000Y-107350000D03*
X188000000Y-108620000D03*
X188000000Y-109890000D03*
X193400000Y-109890000D03*
X193400000Y-108620000D03*
X193400000Y-107350000D03*
X193400000Y-106080000D03*
X193400000Y-104810000D03*
X193400000Y-103540000D03*
X193400000Y-102270000D03*
X193400000Y-101000000D03*
D26*
X187170000Y-87750000D03*
X187170000Y-91650000D03*
X185900000Y-87750000D03*
X185900000Y-91650000D03*
X184630000Y-87750000D03*
X184630000Y-91650000D03*
D27*
X159512000Y-90972000D03*
D28*
X159512000Y-93472000D03*
D29*
X197400000Y-87600000D03*
X192100000Y-90975000D03*
X192100000Y-87300000D03*
X199600000Y-89200000D03*
X188100000Y-88100000D03*
X188900000Y-87300000D03*
X195000000Y-111000000D03*
X198500000Y-110500000D03*
X177300000Y-112800000D03*
X188000000Y-114000000D03*
X191300000Y-115900000D03*
X165800000Y-102500000D03*
X174200000Y-102400000D03*
X189400000Y-98500000D03*
X186100000Y-105900000D03*
X191800000Y-95500000D03*
X192400000Y-94600000D03*
X150100000Y-117200000D03*
X151000000Y-117200000D03*
X150000000Y-87500000D03*
X150800000Y-87500000D03*
X181000000Y-87200000D03*
X181900000Y-87200000D03*
X160100000Y-87300000D03*
X159400000Y-87300000D03*
X190000000Y-96000000D03*
X189300000Y-93400000D03*
X189738000Y-102362000D03*
X186436000Y-98806000D03*
X180300000Y-105500000D03*
X180400000Y-104000000D03*
D30*
X192026000Y-93974000D02*
X190000000Y-96000000D01*
X195600000Y-91759500D02*
X193385500Y-93974000D01*
X195600000Y-91157500D02*
X195600000Y-91759500D01*
X193385500Y-93974000D02*
X192026000Y-93974000D01*
X197600000Y-87400000D02*
X197400000Y-87600000D01*
X198400000Y-87400000D02*
X197600000Y-87400000D01*
X192282500Y-91157500D02*
X192100000Y-90975000D01*
X193000000Y-91157500D02*
X192282500Y-91157500D01*
X192157500Y-87357500D02*
X192100000Y-87300000D01*
X193000000Y-87357500D02*
X192157500Y-87357500D01*
X187866000Y-89276000D02*
X188900000Y-88242000D01*
X188900000Y-88242000D02*
X188900000Y-87300000D01*
X186474000Y-89276000D02*
X187866000Y-89276000D01*
X185900000Y-88702000D02*
X186474000Y-89276000D01*
X185900000Y-87750000D02*
X185900000Y-88702000D01*
X187866000Y-90124000D02*
X189300000Y-91558000D01*
X186174000Y-90124000D02*
X187866000Y-90124000D01*
X189300000Y-91558000D02*
X189300000Y-93400000D01*
X184630000Y-88580000D02*
X186174000Y-90124000D01*
X184630000Y-87750000D02*
X184630000Y-88580000D01*
X198527798Y-91157500D02*
X195600000Y-91157500D01*
X201000000Y-88685298D02*
X198527798Y-91157500D01*
X201000000Y-87400000D02*
X201000000Y-88685298D01*
X199600000Y-89200000D02*
X199600000Y-87500000D01*
X199600000Y-87500000D02*
X199700000Y-87400000D01*
X187520000Y-88100000D02*
X187170000Y-87750000D01*
X188100000Y-88100000D02*
X187520000Y-88100000D01*
X187170000Y-93623298D02*
X187170000Y-91650000D01*
X183616702Y-93985298D02*
X186808000Y-93985298D01*
X178302000Y-99300000D02*
X183616702Y-93985298D01*
X186808000Y-93985298D02*
X187170000Y-93623298D01*
X177900000Y-99300000D02*
X178302000Y-99300000D01*
X165500000Y-101300000D02*
X162700000Y-101300000D01*
X178838190Y-96474000D02*
X170326000Y-96474000D01*
X183662190Y-91650000D02*
X178838190Y-96474000D01*
X184630000Y-91650000D02*
X183662190Y-91650000D01*
X170326000Y-96474000D02*
X165500000Y-101300000D01*
X185900000Y-93100000D02*
X185900000Y-91650000D01*
X178650000Y-97300000D02*
X182774000Y-93176000D01*
X182774000Y-93176000D02*
X185824000Y-93176000D01*
X185824000Y-93176000D02*
X185900000Y-93100000D01*
X177900000Y-97300000D02*
X178650000Y-97300000D01*
D31*
X195600000Y-91157500D02*
X195600000Y-87357500D01*
D30*
X194300000Y-88357500D02*
X194300000Y-87357500D01*
X193257500Y-89400000D02*
X194300000Y-88357500D01*
X192600000Y-89400000D02*
X193257500Y-89400000D01*
X191474990Y-90525010D02*
X192600000Y-89400000D01*
X191474990Y-92441860D02*
X191474990Y-90525010D01*
X193757500Y-92700000D02*
X194300000Y-92157500D01*
X192287500Y-92700000D02*
X193757500Y-92700000D01*
X194300000Y-92157500D02*
X194300000Y-91157500D01*
D32*
X198797919Y-108540000D02*
X200000000Y-108540000D01*
X198127920Y-109209999D02*
X198797919Y-108540000D01*
X196099999Y-109209999D02*
X198127920Y-109209999D01*
X195419998Y-109890000D02*
X196099999Y-109209999D01*
X193400000Y-109890000D02*
X195419998Y-109890000D01*
D31*
X197831370Y-95220000D02*
X196700000Y-95220000D01*
X199575002Y-95220000D02*
X197831370Y-95220000D01*
X201425001Y-97069999D02*
X199575002Y-95220000D01*
X201425001Y-107114999D02*
X201425001Y-97069999D01*
X200000000Y-108540000D02*
X201425001Y-107114999D01*
X157812000Y-93472000D02*
X159512000Y-93472000D01*
X156928000Y-93472000D02*
X157812000Y-93472000D01*
X150700000Y-99700000D02*
X156928000Y-93472000D01*
X150700000Y-101200000D02*
X150700000Y-99700000D01*
X150975000Y-100925000D02*
X150700000Y-101200000D01*
X157800000Y-100925000D02*
X150975000Y-100925000D01*
X199575002Y-93050002D02*
X199575002Y-95220000D01*
X199325000Y-92800000D02*
X199575002Y-93050002D01*
X199325000Y-92100000D02*
X199325000Y-92800000D01*
D30*
X183308000Y-116000000D02*
X183308000Y-116900000D01*
D31*
X157480000Y-106280000D02*
X157700000Y-106500000D01*
X150700000Y-106280000D02*
X157480000Y-106280000D01*
X157700000Y-106987500D02*
X157700000Y-106500000D01*
X160700000Y-111300000D02*
X157700000Y-108300000D01*
X157700000Y-108300000D02*
X157700000Y-106987500D01*
X162700000Y-111300000D02*
X160700000Y-111300000D01*
X162700000Y-112635002D02*
X162700000Y-112550000D01*
X166142998Y-116078000D02*
X162700000Y-112635002D01*
X162700000Y-112550000D02*
X162700000Y-111300000D01*
X173306500Y-116078000D02*
X166142998Y-116078000D01*
X184206027Y-116485527D02*
X183720500Y-116000000D01*
X184995510Y-117275010D02*
X184206027Y-116485527D01*
X186178394Y-117275010D02*
X184995510Y-117275010D01*
X187453404Y-116000000D02*
X186178394Y-117275010D01*
X187700000Y-116000000D02*
X187453404Y-116000000D01*
D32*
X190488001Y-96488001D02*
X190000000Y-96000000D01*
X187700000Y-116000000D02*
X190488001Y-113211999D01*
X190488001Y-113211999D02*
X190488001Y-96488001D01*
D30*
X157937500Y-96825000D02*
X157900000Y-96862500D01*
X159900000Y-96825000D02*
X157937500Y-96825000D01*
X157414473Y-97348027D02*
X157900000Y-96862500D01*
X156874990Y-97887510D02*
X157414473Y-97348027D01*
X156874990Y-99216840D02*
X156874990Y-97887510D01*
X157208160Y-99550010D02*
X156874990Y-99216840D01*
X157929360Y-99550010D02*
X157208160Y-99550010D01*
X158825010Y-100445660D02*
X157929360Y-99550010D01*
X158825010Y-105374990D02*
X158825010Y-100445660D01*
X157700000Y-106500000D02*
X158825010Y-105374990D01*
X173306500Y-116078000D02*
X174528500Y-117300000D01*
X182908000Y-117300000D02*
X183308000Y-116900000D01*
X174528500Y-117300000D02*
X182908000Y-117300000D01*
D32*
X198080000Y-100300000D02*
X200000000Y-98380000D01*
X196700000Y-100300000D02*
X198080000Y-100300000D01*
X196000000Y-101000000D02*
X196700000Y-100300000D01*
X193400000Y-101000000D02*
X196000000Y-101000000D01*
X198080000Y-102840000D02*
X200000000Y-100920000D01*
X196700000Y-102840000D02*
X198080000Y-102840000D01*
X196130000Y-102270000D02*
X196700000Y-102840000D01*
X193400000Y-102270000D02*
X196130000Y-102270000D01*
X198080000Y-105380000D02*
X200000000Y-103460000D01*
X196700000Y-105380000D02*
X198080000Y-105380000D01*
X194860000Y-103540000D02*
X196700000Y-105380000D01*
X193400000Y-103540000D02*
X194860000Y-103540000D01*
X198080000Y-107920000D02*
X200000000Y-106000000D01*
X196700000Y-107920000D02*
X198080000Y-107920000D01*
X195900001Y-107120001D02*
X196700000Y-107920000D01*
X195900001Y-106860001D02*
X195900001Y-107120001D01*
X193850000Y-104810000D02*
X195900001Y-106860001D01*
X193400000Y-104810000D02*
X193850000Y-104810000D01*
D30*
X179400000Y-109300000D02*
X177900000Y-109300000D01*
X180029973Y-109929973D02*
X179400000Y-109300000D01*
X180029973Y-115514473D02*
X180029973Y-109929973D01*
X180515500Y-116000000D02*
X180029973Y-115514473D01*
X186008000Y-112468000D02*
X184000000Y-110460000D01*
X186008000Y-116000000D02*
X186008000Y-112468000D01*
X188092000Y-102362000D02*
X188000000Y-102270000D01*
X189738000Y-102362000D02*
X188092000Y-102362000D01*
X188000000Y-102270000D02*
X187000000Y-102270000D01*
X186436000Y-101706000D02*
X186436000Y-98806000D01*
X187000000Y-102270000D02*
X186436000Y-101706000D01*
X177900000Y-105300000D02*
X180100000Y-105300000D01*
X180100000Y-105300000D02*
X180300000Y-105500000D01*
X160462500Y-101300000D02*
X162700000Y-101300000D01*
X157900000Y-98737500D02*
X160462500Y-101300000D01*
X184000000Y-107920000D02*
X184000000Y-105380000D01*
X184570000Y-104810000D02*
X184000000Y-105380000D01*
X188000000Y-104810000D02*
X184570000Y-104810000D01*
X184000000Y-100300000D02*
X182874999Y-99174999D01*
X182874999Y-96930001D02*
X183459999Y-96345001D01*
X183459999Y-96345001D02*
X187571849Y-96345001D01*
X182874999Y-99174999D02*
X182874999Y-96930001D01*
X187571849Y-96345001D02*
X191474990Y-92441860D01*
X188192490Y-96795010D02*
X192287500Y-92700000D01*
X186096360Y-96795010D02*
X188192490Y-96795010D01*
X185131370Y-97760000D02*
X186096360Y-96795010D01*
X184000000Y-97760000D02*
X185131370Y-97760000D01*
X187000000Y-103540000D02*
X188000000Y-103540000D01*
X179400000Y-103300000D02*
X180065001Y-103965001D01*
X186574999Y-103965001D02*
X187000000Y-103540000D01*
X177900000Y-103300000D02*
X179400000Y-103300000D01*
X180400000Y-104000000D02*
X186574999Y-103965001D01*
X180065001Y-103965001D02*
X180400000Y-104000000D01*
X178520000Y-107920000D02*
X177900000Y-107300000D01*
X184000000Y-107920000D02*
X178520000Y-107920000D01*
X176400000Y-107300000D02*
X177900000Y-107300000D01*
X176324999Y-107375001D02*
X176400000Y-107300000D01*
X176324999Y-115422001D02*
X176324999Y-107375001D01*
X175669000Y-116078000D02*
X176324999Y-115422001D01*
X175181500Y-116078000D02*
X175669000Y-116078000D01*
X161300000Y-97300000D02*
X162700000Y-97300000D01*
X159900000Y-98700000D02*
X161300000Y-97300000D01*
X188000000Y-100450000D02*
X188000000Y-101000000D01*
X186135999Y-98180999D02*
X186736001Y-98180999D01*
X185810999Y-98505999D02*
X186135999Y-98180999D01*
X188000000Y-99444998D02*
X188000000Y-100450000D01*
X185810999Y-100689001D02*
X185810999Y-98505999D01*
X186736001Y-98180999D02*
X188000000Y-99444998D01*
X184785001Y-101714999D02*
X185810999Y-100689001D01*
X183814999Y-101714999D02*
X184785001Y-101714999D01*
X183400000Y-101300000D02*
X183814999Y-101714999D01*
X177900000Y-101300000D02*
X183400000Y-101300000D01*
G04 #@! TA.AperFunction,Conductor*
G36*
X161740121Y-86095502D02*
G01*
X161786614Y-86149158D01*
X161798000Y-86201500D01*
X161798000Y-96012000D01*
X169587905Y-96012000D01*
X169656026Y-96032002D01*
X169702519Y-96085658D01*
X169712623Y-96155932D01*
X169683129Y-96220512D01*
X169677000Y-96227095D01*
X165274501Y-100629595D01*
X165212189Y-100663621D01*
X165185406Y-100666500D01*
X164530409Y-100666500D01*
X164462288Y-100646498D01*
X164415795Y-100592842D01*
X164412354Y-100584534D01*
X164400889Y-100553797D01*
X164400889Y-100553796D01*
X164400887Y-100553794D01*
X164400887Y-100553792D01*
X164313261Y-100436738D01*
X164265343Y-100400868D01*
X164222796Y-100344033D01*
X164217731Y-100273217D01*
X164251756Y-100210905D01*
X164265343Y-100199132D01*
X164266841Y-100198011D01*
X164313261Y-100163261D01*
X164400889Y-100046204D01*
X164451989Y-99909201D01*
X164454192Y-99888717D01*
X164458499Y-99848649D01*
X164458500Y-99848632D01*
X164458500Y-98751367D01*
X164458499Y-98751350D01*
X164451990Y-98690803D01*
X164451988Y-98690795D01*
X164400889Y-98553797D01*
X164400887Y-98553792D01*
X164313261Y-98436738D01*
X164265343Y-98400868D01*
X164222796Y-98344033D01*
X164217731Y-98273217D01*
X164251756Y-98210905D01*
X164265343Y-98199132D01*
X164313261Y-98163261D01*
X164400887Y-98046207D01*
X164400887Y-98046206D01*
X164400889Y-98046204D01*
X164451989Y-97909201D01*
X164453016Y-97899656D01*
X164458499Y-97848649D01*
X164458500Y-97848632D01*
X164458500Y-96751367D01*
X164458499Y-96751350D01*
X164451990Y-96690803D01*
X164451988Y-96690795D01*
X164406420Y-96568625D01*
X164400889Y-96553796D01*
X164400888Y-96553794D01*
X164400887Y-96553792D01*
X164313261Y-96436738D01*
X164196207Y-96349112D01*
X164196202Y-96349110D01*
X164059204Y-96298011D01*
X164059196Y-96298009D01*
X163998649Y-96291500D01*
X163998638Y-96291500D01*
X161401362Y-96291500D01*
X161401350Y-96291500D01*
X161340803Y-96298009D01*
X161340802Y-96298010D01*
X161340799Y-96298010D01*
X161340799Y-96298011D01*
X161208828Y-96347234D01*
X161138013Y-96352299D01*
X161075701Y-96318274D01*
X161045191Y-96268808D01*
X161042661Y-96261171D01*
X160950344Y-96111502D01*
X160950343Y-96111501D01*
X160950338Y-96111495D01*
X160826004Y-95987161D01*
X160825998Y-95987156D01*
X160676329Y-95894839D01*
X160622569Y-95877025D01*
X160509404Y-95839526D01*
X160509401Y-95839525D01*
X160509399Y-95839525D01*
X160406383Y-95829000D01*
X159393625Y-95829000D01*
X159290600Y-95839525D01*
X159290597Y-95839525D01*
X159290596Y-95839526D01*
X159209193Y-95866500D01*
X159123670Y-95894839D01*
X158974001Y-95987156D01*
X158973998Y-95987158D01*
X158964788Y-95996369D01*
X158902475Y-96030391D01*
X158831659Y-96025324D01*
X158809555Y-96014514D01*
X158676329Y-95932339D01*
X158509404Y-95877026D01*
X158509401Y-95877025D01*
X158509399Y-95877025D01*
X158406383Y-95866500D01*
X157393625Y-95866500D01*
X157290600Y-95877025D01*
X157290597Y-95877025D01*
X157290596Y-95877026D01*
X157207885Y-95904433D01*
X157123670Y-95932339D01*
X156974001Y-96024656D01*
X156973995Y-96024661D01*
X156849661Y-96148995D01*
X156849656Y-96149001D01*
X156757339Y-96298670D01*
X156731048Y-96378012D01*
X156712949Y-96432634D01*
X156702025Y-96465600D01*
X156691500Y-96568616D01*
X156691500Y-97122903D01*
X156671498Y-97191024D01*
X156654596Y-97211998D01*
X156471157Y-97395439D01*
X156382917Y-97483679D01*
X156382916Y-97483681D01*
X156324008Y-97571844D01*
X156313590Y-97587435D01*
X156265835Y-97702725D01*
X156256018Y-97752078D01*
X156241490Y-97825113D01*
X156241490Y-99279236D01*
X156250158Y-99322810D01*
X156265835Y-99401625D01*
X156313590Y-99516915D01*
X156382919Y-99620673D01*
X156489306Y-99727060D01*
X156588651Y-99826405D01*
X156622676Y-99888717D01*
X156617611Y-99959533D01*
X156575064Y-100016368D01*
X156508543Y-100041179D01*
X156499555Y-100041500D01*
X152294766Y-100041500D01*
X152226645Y-100021498D01*
X152219264Y-100016373D01*
X152204279Y-100005156D01*
X152196203Y-99999110D01*
X152059204Y-99948011D01*
X152059196Y-99948009D01*
X151998023Y-99941433D01*
X151932431Y-99914264D01*
X151891940Y-99855946D01*
X151889406Y-99784994D01*
X151922395Y-99727062D01*
X157257053Y-94392405D01*
X157319365Y-94358379D01*
X157346148Y-94355500D01*
X157724983Y-94355500D01*
X157927942Y-94355500D01*
X157996063Y-94375502D01*
X158042556Y-94429158D01*
X158053220Y-94468033D01*
X158060009Y-94531196D01*
X158060011Y-94531204D01*
X158111110Y-94668202D01*
X158111112Y-94668207D01*
X158198738Y-94785261D01*
X158315792Y-94872887D01*
X158315794Y-94872888D01*
X158315796Y-94872889D01*
X158364211Y-94890947D01*
X158452795Y-94923988D01*
X158452803Y-94923990D01*
X158513350Y-94930499D01*
X158513355Y-94930499D01*
X158513362Y-94930500D01*
X158513368Y-94930500D01*
X160510632Y-94930500D01*
X160510638Y-94930500D01*
X160510645Y-94930499D01*
X160510649Y-94930499D01*
X160571196Y-94923990D01*
X160571199Y-94923989D01*
X160571201Y-94923989D01*
X160708204Y-94872889D01*
X160825261Y-94785261D01*
X160912889Y-94668204D01*
X160963989Y-94531201D01*
X160964925Y-94522500D01*
X160970499Y-94470649D01*
X160970500Y-94470632D01*
X160970500Y-92473367D01*
X160970499Y-92473350D01*
X160963990Y-92412803D01*
X160963988Y-92412795D01*
X160934924Y-92334875D01*
X160912889Y-92275796D01*
X160912888Y-92275794D01*
X160912887Y-92275792D01*
X160825261Y-92158738D01*
X160708207Y-92071112D01*
X160700299Y-92066795D01*
X160701482Y-92064628D01*
X160655232Y-92030002D01*
X160630425Y-91963481D01*
X160645519Y-91894108D01*
X160654168Y-91880437D01*
X160758990Y-91736161D01*
X160863182Y-91531674D01*
X160934097Y-91313421D01*
X160970000Y-91086743D01*
X160970000Y-90857256D01*
X160934097Y-90630578D01*
X160863182Y-90412325D01*
X160758992Y-90207842D01*
X160706969Y-90136239D01*
X160077807Y-90765401D01*
X160071111Y-90740409D01*
X159992119Y-90603592D01*
X159880408Y-90491881D01*
X159743591Y-90412889D01*
X159718597Y-90406192D01*
X160347759Y-89777029D01*
X160347759Y-89777028D01*
X160276161Y-89725009D01*
X160071674Y-89620817D01*
X159853421Y-89549902D01*
X159626744Y-89514000D01*
X159397256Y-89514000D01*
X159170578Y-89549902D01*
X158952325Y-89620817D01*
X158747843Y-89725006D01*
X158747842Y-89725007D01*
X158676239Y-89777029D01*
X158676239Y-89777030D01*
X159305401Y-90406192D01*
X159280409Y-90412889D01*
X159143592Y-90491881D01*
X159031881Y-90603592D01*
X158952889Y-90740409D01*
X158946191Y-90765402D01*
X158317029Y-90136239D01*
X158265007Y-90207842D01*
X158265006Y-90207843D01*
X158160817Y-90412325D01*
X158089902Y-90630578D01*
X158054000Y-90857256D01*
X158054000Y-91086743D01*
X158089902Y-91313421D01*
X158160817Y-91531674D01*
X158265009Y-91736161D01*
X158369831Y-91880437D01*
X158393690Y-91947305D01*
X158377609Y-92016457D01*
X158326695Y-92065937D01*
X158318762Y-92069491D01*
X158315792Y-92071112D01*
X158198738Y-92158738D01*
X158111112Y-92275792D01*
X158111110Y-92275797D01*
X158060011Y-92412795D01*
X158060009Y-92412803D01*
X158053220Y-92475967D01*
X158026052Y-92541560D01*
X157967734Y-92582051D01*
X157927942Y-92588500D01*
X156840977Y-92588500D01*
X156709768Y-92614599D01*
X156709768Y-92614600D01*
X156670292Y-92622452D01*
X156670291Y-92622452D01*
X156670288Y-92622453D01*
X156608510Y-92648043D01*
X156608505Y-92648045D01*
X156604822Y-92649571D01*
X156509506Y-92689052D01*
X156473691Y-92712983D01*
X156466730Y-92717633D01*
X156466728Y-92717635D01*
X156364805Y-92785738D01*
X156364798Y-92785743D01*
X150013745Y-99136795D01*
X150013740Y-99136801D01*
X149917052Y-99281505D01*
X149850454Y-99442286D01*
X149850452Y-99442291D01*
X149839988Y-99494899D01*
X149816500Y-99612977D01*
X149816500Y-99815500D01*
X149796498Y-99883621D01*
X149742842Y-99930114D01*
X149690500Y-99941500D01*
X149401350Y-99941500D01*
X149340803Y-99948009D01*
X149340795Y-99948011D01*
X149203797Y-99999110D01*
X149203792Y-99999112D01*
X149086738Y-100086738D01*
X148999112Y-100203792D01*
X148999110Y-100203797D01*
X148948011Y-100340795D01*
X148948009Y-100340803D01*
X148941500Y-100401350D01*
X148941500Y-101998649D01*
X148948009Y-102059196D01*
X148948011Y-102059204D01*
X148999110Y-102196202D01*
X148999112Y-102196207D01*
X149086738Y-102313261D01*
X149203792Y-102400887D01*
X149203794Y-102400888D01*
X149203796Y-102400889D01*
X149262875Y-102422924D01*
X149340795Y-102451988D01*
X149340803Y-102451990D01*
X149401350Y-102458499D01*
X149401355Y-102458499D01*
X149401362Y-102458500D01*
X149401368Y-102458500D01*
X149435808Y-102458500D01*
X149503929Y-102478502D01*
X149550422Y-102532158D01*
X149560526Y-102602432D01*
X149531032Y-102667012D01*
X149509869Y-102686436D01*
X149380465Y-102780453D01*
X149380462Y-102780455D01*
X149240455Y-102920462D01*
X149240453Y-102920465D01*
X149124064Y-103080660D01*
X149034165Y-103257097D01*
X148972975Y-103445420D01*
X148966547Y-103486000D01*
X150269297Y-103486000D01*
X150234075Y-103547007D01*
X150200000Y-103674174D01*
X150200000Y-103805826D01*
X150234075Y-103932993D01*
X150269297Y-103994000D01*
X148966548Y-103994000D01*
X148972975Y-104034579D01*
X149034165Y-104222902D01*
X149124064Y-104399339D01*
X149240453Y-104559534D01*
X149240455Y-104559537D01*
X149380462Y-104699544D01*
X149380465Y-104699546D01*
X149540663Y-104815937D01*
X149700645Y-104897451D01*
X149752261Y-104946199D01*
X149769327Y-105015113D01*
X149746427Y-105082315D01*
X149700646Y-105121985D01*
X149540399Y-105203635D01*
X149380139Y-105320071D01*
X149240071Y-105460139D01*
X149123636Y-105620398D01*
X149067070Y-105731414D01*
X149033702Y-105796903D01*
X148972488Y-105985300D01*
X148941500Y-106180954D01*
X148941500Y-106379046D01*
X148972488Y-106574700D01*
X149033702Y-106763097D01*
X149123634Y-106939598D01*
X149123636Y-106939601D01*
X149240071Y-107099860D01*
X149380139Y-107239928D01*
X149432424Y-107277915D01*
X149540402Y-107356366D01*
X149716903Y-107446298D01*
X149905300Y-107507512D01*
X150100954Y-107538500D01*
X150100957Y-107538500D01*
X151299043Y-107538500D01*
X151299046Y-107538500D01*
X151494700Y-107507512D01*
X151683097Y-107446298D01*
X151859598Y-107356366D01*
X152019858Y-107239930D01*
X152059382Y-107200406D01*
X152121693Y-107166380D01*
X152148478Y-107163500D01*
X156549122Y-107163500D01*
X156579363Y-107172379D01*
X156610117Y-107179248D01*
X156614013Y-107182553D01*
X156617243Y-107183502D01*
X156638708Y-107200898D01*
X156647147Y-107209431D01*
X156649656Y-107213498D01*
X156774002Y-107337844D01*
X156774381Y-107338077D01*
X156780086Y-107343846D01*
X156793408Y-107368566D01*
X156809651Y-107391472D01*
X156811404Y-107401960D01*
X156813767Y-107406345D01*
X156813252Y-107413019D01*
X156816500Y-107432448D01*
X156816500Y-108387020D01*
X156817899Y-108394051D01*
X156850452Y-108557708D01*
X156917052Y-108718495D01*
X156939017Y-108751367D01*
X157013740Y-108863198D01*
X157013745Y-108863204D01*
X160136796Y-111986254D01*
X160136798Y-111986256D01*
X160136801Y-111986258D01*
X160136802Y-111986259D01*
X160281505Y-112082948D01*
X160442292Y-112149548D01*
X160612983Y-112183500D01*
X161071838Y-112183500D01*
X161139959Y-112203502D01*
X161147347Y-112208632D01*
X161203792Y-112250887D01*
X161203794Y-112250888D01*
X161203796Y-112250889D01*
X161262875Y-112272924D01*
X161340795Y-112301988D01*
X161340803Y-112301990D01*
X161401350Y-112308499D01*
X161401355Y-112308499D01*
X161401362Y-112308500D01*
X161690500Y-112308500D01*
X161758621Y-112328502D01*
X161805114Y-112382158D01*
X161816500Y-112434500D01*
X161816500Y-112722022D01*
X161841087Y-112845627D01*
X161850452Y-112892710D01*
X161917052Y-113053497D01*
X161973044Y-113137294D01*
X162013740Y-113198200D01*
X162013745Y-113198206D01*
X163806105Y-114990565D01*
X165579799Y-116764259D01*
X165645156Y-116807929D01*
X165724504Y-116860948D01*
X165885291Y-116927548D01*
X166055981Y-116961500D01*
X172374052Y-116961500D01*
X172442173Y-116981502D01*
X172462411Y-116999863D01*
X172463466Y-116998809D01*
X172592995Y-117128338D01*
X172593001Y-117128343D01*
X172593002Y-117128344D01*
X172742671Y-117220661D01*
X172909596Y-117275974D01*
X173012625Y-117286500D01*
X173566905Y-117286499D01*
X173635026Y-117306501D01*
X173656000Y-117323404D01*
X174036429Y-117703833D01*
X174124667Y-117792071D01*
X174228425Y-117861400D01*
X174343715Y-117909155D01*
X174466106Y-117933500D01*
X174466107Y-117933500D01*
X182970393Y-117933500D01*
X182970394Y-117933500D01*
X183092785Y-117909155D01*
X183208075Y-117861400D01*
X183311833Y-117792071D01*
X183698379Y-117405523D01*
X183760689Y-117371500D01*
X183831505Y-117376564D01*
X183876566Y-117405523D01*
X184432312Y-117961269D01*
X184577016Y-118057958D01*
X184737802Y-118124558D01*
X184908493Y-118158510D01*
X184908494Y-118158510D01*
X186265410Y-118158510D01*
X186265411Y-118158510D01*
X186436102Y-118124558D01*
X186596889Y-118057958D01*
X186741593Y-117961269D01*
X187457457Y-117245403D01*
X187519770Y-117211379D01*
X187546553Y-117208499D01*
X187993874Y-117208499D01*
X188096904Y-117197974D01*
X188263829Y-117142661D01*
X188413498Y-117050344D01*
X188537844Y-116925998D01*
X188537850Y-116925987D01*
X188538975Y-116924566D01*
X188540010Y-116923832D01*
X188543034Y-116920809D01*
X188543550Y-116921325D01*
X188596912Y-116883531D01*
X188667836Y-116880333D01*
X188729231Y-116915987D01*
X188736653Y-116924551D01*
X188737552Y-116925688D01*
X188861807Y-117049943D01*
X188861813Y-117049948D01*
X189011387Y-117142206D01*
X189178191Y-117197480D01*
X189178203Y-117197482D01*
X189281144Y-117207999D01*
X189320999Y-117207999D01*
X189829000Y-117207999D01*
X189868847Y-117207999D01*
X189971802Y-117197482D01*
X190138612Y-117142206D01*
X190288186Y-117049948D01*
X190288192Y-117049943D01*
X190412443Y-116925692D01*
X190412448Y-116925686D01*
X190504706Y-116776112D01*
X190559980Y-116609308D01*
X190559982Y-116609296D01*
X190570499Y-116506355D01*
X190570500Y-116506355D01*
X190570500Y-116254000D01*
X189829000Y-116254000D01*
X189829000Y-117207999D01*
X189320999Y-117207999D01*
X189321000Y-117207998D01*
X189321000Y-116126000D01*
X189341002Y-116057879D01*
X189394658Y-116011386D01*
X189447000Y-116000000D01*
X189575000Y-116000000D01*
X189575000Y-115872000D01*
X189595002Y-115803879D01*
X189648658Y-115757386D01*
X189701000Y-115746000D01*
X190570499Y-115746000D01*
X190570499Y-115493652D01*
X190559982Y-115390697D01*
X190504706Y-115223887D01*
X190412448Y-115074313D01*
X190412443Y-115074307D01*
X190288192Y-114950056D01*
X190288186Y-114950051D01*
X190135865Y-114856098D01*
X190088387Y-114803312D01*
X190076984Y-114733237D01*
X190105277Y-114668121D01*
X190112889Y-114659791D01*
X191077167Y-113695514D01*
X191160175Y-113571283D01*
X191217352Y-113433246D01*
X191246501Y-113286704D01*
X191246501Y-113137294D01*
X191246501Y-96413295D01*
X191217352Y-96266755D01*
X191160175Y-96128717D01*
X191127376Y-96079630D01*
X191077167Y-96004486D01*
X191065905Y-95993224D01*
X191059777Y-95984601D01*
X191051509Y-95960639D01*
X191039362Y-95938394D01*
X191040129Y-95927659D01*
X191036620Y-95917487D01*
X191042618Y-95892861D01*
X191044427Y-95867579D01*
X191051432Y-95856677D01*
X191053423Y-95848508D01*
X191061817Y-95840518D01*
X191073388Y-95822515D01*
X191328335Y-95567569D01*
X192251501Y-94644404D01*
X192313813Y-94610379D01*
X192340596Y-94607500D01*
X193447893Y-94607500D01*
X193447894Y-94607500D01*
X193570285Y-94583155D01*
X193685575Y-94535400D01*
X193789333Y-94466071D01*
X195847492Y-92407910D01*
X195903974Y-92375301D01*
X195925899Y-92369427D01*
X196049743Y-92318129D01*
X196163757Y-92252303D01*
X196270106Y-92170698D01*
X196363198Y-92077606D01*
X196444803Y-91971257D01*
X196476128Y-91917000D01*
X196512502Y-91854000D01*
X196563885Y-91805007D01*
X196621621Y-91791000D01*
X198203000Y-91791000D01*
X198271121Y-91811002D01*
X198317614Y-91864658D01*
X198329000Y-91917000D01*
X198329000Y-92606374D01*
X198339516Y-92709308D01*
X198339526Y-92709404D01*
X198394839Y-92876329D01*
X198394840Y-92876331D01*
X198394841Y-92876333D01*
X198448659Y-92963586D01*
X198464996Y-93005149D01*
X198475450Y-93057702D01*
X198475453Y-93057711D01*
X198491399Y-93096207D01*
X198542052Y-93218495D01*
X198638741Y-93363199D01*
X198654596Y-93379054D01*
X198688622Y-93441364D01*
X198691502Y-93468150D01*
X198691502Y-94210500D01*
X198671500Y-94278621D01*
X198617844Y-94325114D01*
X198565502Y-94336500D01*
X197719188Y-94336500D01*
X197651067Y-94316498D01*
X197630097Y-94299599D01*
X197552430Y-94221932D01*
X197385803Y-94100871D01*
X197202290Y-94007366D01*
X197202287Y-94007365D01*
X197202285Y-94007364D01*
X197006412Y-93943721D01*
X197006410Y-93943720D01*
X197006408Y-93943720D01*
X196802981Y-93911500D01*
X196597019Y-93911500D01*
X196393592Y-93943720D01*
X196393590Y-93943720D01*
X196393587Y-93943721D01*
X196197714Y-94007364D01*
X196197708Y-94007367D01*
X196014193Y-94100873D01*
X195847567Y-94221934D01*
X195847564Y-94221936D01*
X195701936Y-94367564D01*
X195701934Y-94367567D01*
X195580873Y-94534193D01*
X195487367Y-94717708D01*
X195487364Y-94717714D01*
X195423721Y-94913587D01*
X195423720Y-94913590D01*
X195423720Y-94913592D01*
X195391500Y-95117019D01*
X195391500Y-95322981D01*
X195423702Y-95526295D01*
X195423721Y-95526412D01*
X195482924Y-95708621D01*
X195487366Y-95722290D01*
X195580871Y-95905803D01*
X195701932Y-96072430D01*
X195701934Y-96072432D01*
X195701936Y-96072435D01*
X195847564Y-96218063D01*
X195847567Y-96218065D01*
X195847570Y-96218068D01*
X196014197Y-96339129D01*
X196090511Y-96378013D01*
X196142126Y-96426760D01*
X196159192Y-96495675D01*
X196136292Y-96562876D01*
X196090513Y-96602545D01*
X196014455Y-96641299D01*
X195847892Y-96762315D01*
X195847889Y-96762317D01*
X195702317Y-96907889D01*
X195702315Y-96907892D01*
X195581300Y-97074454D01*
X195487829Y-97257900D01*
X195487826Y-97257906D01*
X195424208Y-97453704D01*
X195415926Y-97506000D01*
X196388314Y-97506000D01*
X196379920Y-97514394D01*
X196327259Y-97605606D01*
X196300000Y-97707339D01*
X196300000Y-97812661D01*
X196327259Y-97914394D01*
X196379920Y-98005606D01*
X196388314Y-98014000D01*
X195415926Y-98014000D01*
X195424208Y-98066295D01*
X195487826Y-98262093D01*
X195487829Y-98262099D01*
X195581300Y-98445545D01*
X195702315Y-98612107D01*
X195702317Y-98612110D01*
X195847889Y-98757682D01*
X195847892Y-98757684D01*
X196014455Y-98878700D01*
X196090511Y-98917453D01*
X196142126Y-98966202D01*
X196159192Y-99035117D01*
X196136291Y-99102318D01*
X196090511Y-99141987D01*
X196014193Y-99180872D01*
X195847567Y-99301934D01*
X195847564Y-99301936D01*
X195701936Y-99447564D01*
X195701934Y-99447567D01*
X195580873Y-99614193D01*
X195487367Y-99797708D01*
X195487364Y-99797714D01*
X195423721Y-99993587D01*
X195423720Y-99993590D01*
X195423720Y-99993592D01*
X195401542Y-100133621D01*
X195401290Y-100135211D01*
X195370877Y-100199364D01*
X195310609Y-100236891D01*
X195276841Y-100241500D01*
X194398530Y-100241500D01*
X194354497Y-100233555D01*
X194259204Y-100198011D01*
X194259196Y-100198009D01*
X194198649Y-100191500D01*
X194198638Y-100191500D01*
X192601362Y-100191500D01*
X192601350Y-100191500D01*
X192540803Y-100198009D01*
X192540795Y-100198011D01*
X192403797Y-100249110D01*
X192403792Y-100249112D01*
X192286738Y-100336738D01*
X192199112Y-100453792D01*
X192199110Y-100453797D01*
X192148011Y-100590795D01*
X192148009Y-100590803D01*
X192141500Y-100651350D01*
X192141500Y-101348649D01*
X192148009Y-101409196D01*
X192148011Y-101409204D01*
X192199110Y-101546202D01*
X192199112Y-101546207D01*
X192209057Y-101559491D01*
X192233868Y-101626011D01*
X192218777Y-101695385D01*
X192209057Y-101710509D01*
X192199112Y-101723792D01*
X192199110Y-101723797D01*
X192148011Y-101860795D01*
X192148009Y-101860803D01*
X192141500Y-101921350D01*
X192141500Y-102618649D01*
X192148009Y-102679196D01*
X192148011Y-102679204D01*
X192199110Y-102816202D01*
X192199112Y-102816207D01*
X192209057Y-102829491D01*
X192233868Y-102896011D01*
X192218777Y-102965385D01*
X192209057Y-102980509D01*
X192199112Y-102993792D01*
X192199110Y-102993797D01*
X192148011Y-103130795D01*
X192148009Y-103130803D01*
X192141500Y-103191350D01*
X192141500Y-103888649D01*
X192148009Y-103949196D01*
X192148011Y-103949204D01*
X192199110Y-104086202D01*
X192199112Y-104086207D01*
X192209057Y-104099491D01*
X192233868Y-104166011D01*
X192218777Y-104235385D01*
X192209057Y-104250509D01*
X192199112Y-104263792D01*
X192199110Y-104263797D01*
X192148011Y-104400795D01*
X192148009Y-104400803D01*
X192141500Y-104461350D01*
X192141500Y-105158649D01*
X192148009Y-105219196D01*
X192148011Y-105219204D01*
X192199110Y-105356202D01*
X192199112Y-105356207D01*
X192209057Y-105369491D01*
X192233868Y-105436011D01*
X192218777Y-105505385D01*
X192209057Y-105520509D01*
X192199112Y-105533792D01*
X192199110Y-105533797D01*
X192148011Y-105670795D01*
X192148009Y-105670803D01*
X192141500Y-105731350D01*
X192141500Y-106428649D01*
X192148009Y-106489196D01*
X192148011Y-106489204D01*
X192199110Y-106626202D01*
X192199112Y-106626207D01*
X192209057Y-106639491D01*
X192233868Y-106706011D01*
X192218777Y-106775385D01*
X192209057Y-106790509D01*
X192199112Y-106803792D01*
X192199110Y-106803797D01*
X192148011Y-106940795D01*
X192148009Y-106940803D01*
X192141500Y-107001350D01*
X192141500Y-107698649D01*
X192148009Y-107759196D01*
X192148011Y-107759204D01*
X192199110Y-107896202D01*
X192199112Y-107896207D01*
X192209057Y-107909491D01*
X192233868Y-107976011D01*
X192218777Y-108045385D01*
X192209057Y-108060509D01*
X192199112Y-108073792D01*
X192199110Y-108073797D01*
X192148011Y-108210795D01*
X192148009Y-108210803D01*
X192141500Y-108271350D01*
X192141500Y-108968649D01*
X192148009Y-109029196D01*
X192148011Y-109029204D01*
X192199110Y-109166202D01*
X192199112Y-109166207D01*
X192209057Y-109179491D01*
X192233868Y-109246011D01*
X192218777Y-109315385D01*
X192209057Y-109330509D01*
X192199112Y-109343792D01*
X192199110Y-109343797D01*
X192148011Y-109480795D01*
X192148009Y-109480803D01*
X192141500Y-109541350D01*
X192141500Y-110238649D01*
X192148009Y-110299196D01*
X192148011Y-110299204D01*
X192199110Y-110436202D01*
X192199112Y-110436207D01*
X192286738Y-110553261D01*
X192403792Y-110640887D01*
X192403794Y-110640888D01*
X192403796Y-110640889D01*
X192424202Y-110648500D01*
X192540795Y-110691988D01*
X192540803Y-110691990D01*
X192601350Y-110698499D01*
X192601355Y-110698499D01*
X192601362Y-110698500D01*
X192601368Y-110698500D01*
X194198632Y-110698500D01*
X194198638Y-110698500D01*
X194198645Y-110698499D01*
X194198649Y-110698499D01*
X194259196Y-110691990D01*
X194259199Y-110691989D01*
X194259201Y-110691989D01*
X194262392Y-110690799D01*
X194354497Y-110656445D01*
X194398530Y-110648500D01*
X195297431Y-110648500D01*
X195365552Y-110668502D01*
X195412045Y-110722158D01*
X195421879Y-110754788D01*
X195423719Y-110766407D01*
X195487364Y-110962285D01*
X195487366Y-110962290D01*
X195580871Y-111145803D01*
X195701932Y-111312430D01*
X195701934Y-111312432D01*
X195701936Y-111312435D01*
X195847564Y-111458063D01*
X195847567Y-111458065D01*
X195847570Y-111458068D01*
X195863927Y-111469952D01*
X195863930Y-111469954D01*
X195907284Y-111526176D01*
X195913359Y-111596912D01*
X195880228Y-111659704D01*
X195818408Y-111694615D01*
X195803343Y-111697167D01*
X195790909Y-111698504D01*
X195790908Y-111698504D01*
X195654035Y-111749555D01*
X195654034Y-111749555D01*
X195537095Y-111837095D01*
X195449555Y-111954034D01*
X195449555Y-111954035D01*
X195398505Y-112090906D01*
X195392000Y-112151402D01*
X195392000Y-112746000D01*
X196388314Y-112746000D01*
X196379920Y-112754394D01*
X196327259Y-112845606D01*
X196300000Y-112947339D01*
X196300000Y-113052661D01*
X196327259Y-113154394D01*
X196379920Y-113245606D01*
X196388314Y-113254000D01*
X195392000Y-113254000D01*
X195392000Y-113848597D01*
X195398505Y-113909093D01*
X195449555Y-114045964D01*
X195449555Y-114045965D01*
X195537095Y-114162904D01*
X195654034Y-114250444D01*
X195790906Y-114301494D01*
X195851402Y-114307999D01*
X195851415Y-114308000D01*
X196446000Y-114308000D01*
X196446000Y-113311686D01*
X196454394Y-113320080D01*
X196545606Y-113372741D01*
X196647339Y-113400000D01*
X196752661Y-113400000D01*
X196854394Y-113372741D01*
X196945606Y-113320080D01*
X196954000Y-113311686D01*
X196954000Y-114308000D01*
X197548585Y-114308000D01*
X197548597Y-114307999D01*
X197609093Y-114301494D01*
X197745964Y-114250444D01*
X197745965Y-114250444D01*
X197862904Y-114162904D01*
X197950444Y-114045965D01*
X197950444Y-114045964D01*
X198001494Y-113909093D01*
X198007999Y-113848597D01*
X198008000Y-113848585D01*
X198008000Y-113254000D01*
X197011686Y-113254000D01*
X197020080Y-113245606D01*
X197072741Y-113154394D01*
X197100000Y-113052661D01*
X197100000Y-112947339D01*
X197072741Y-112845606D01*
X197020080Y-112754394D01*
X197011686Y-112746000D01*
X198008000Y-112746000D01*
X198008000Y-112151414D01*
X198007999Y-112151402D01*
X198001494Y-112090906D01*
X197950444Y-111954035D01*
X197950444Y-111954034D01*
X197862904Y-111837095D01*
X197745965Y-111749555D01*
X197609094Y-111698505D01*
X197596657Y-111697168D01*
X197531065Y-111669996D01*
X197490576Y-111611676D01*
X197488045Y-111540725D01*
X197524275Y-111479668D01*
X197536070Y-111469954D01*
X197552430Y-111458068D01*
X197698068Y-111312430D01*
X197819129Y-111145803D01*
X197912634Y-110962290D01*
X197976280Y-110766408D01*
X198008500Y-110562981D01*
X198008500Y-110357019D01*
X197976280Y-110153592D01*
X197974969Y-110149556D01*
X197969731Y-110133435D01*
X197969054Y-110109752D01*
X197963809Y-110086643D01*
X197968059Y-110074924D01*
X197967704Y-110062467D01*
X197979938Y-110042178D01*
X197988019Y-110019902D01*
X197997929Y-110012342D01*
X198004366Y-110001669D01*
X198025629Y-109991214D01*
X198044469Y-109976845D01*
X198061127Y-109973762D01*
X198068079Y-109970344D01*
X198079443Y-109968906D01*
X198084493Y-109968499D01*
X198202625Y-109968499D01*
X198202626Y-109968499D01*
X198275896Y-109953924D01*
X198349167Y-109939350D01*
X198487204Y-109882173D01*
X198611435Y-109799165D01*
X198885602Y-109524997D01*
X198947911Y-109490975D01*
X199018726Y-109496039D01*
X199063789Y-109525000D01*
X199114990Y-109576201D01*
X199114993Y-109576203D01*
X199114996Y-109576206D01*
X199287991Y-109701894D01*
X199478517Y-109798972D01*
X199681878Y-109865047D01*
X199681879Y-109865047D01*
X199681884Y-109865049D01*
X199893084Y-109898500D01*
X199893087Y-109898500D01*
X200106913Y-109898500D01*
X200106916Y-109898500D01*
X200318116Y-109865049D01*
X200521483Y-109798972D01*
X200712009Y-109701894D01*
X200885004Y-109576206D01*
X201036206Y-109425004D01*
X201161894Y-109252009D01*
X201258972Y-109061483D01*
X201325049Y-108858116D01*
X201358500Y-108646916D01*
X201358500Y-108483147D01*
X201378502Y-108415026D01*
X201395400Y-108394056D01*
X202111260Y-107678197D01*
X202207949Y-107533494D01*
X202274549Y-107372707D01*
X202308501Y-107202016D01*
X202308501Y-107027982D01*
X202308501Y-96982982D01*
X202307610Y-96978501D01*
X202274549Y-96812291D01*
X202207949Y-96651504D01*
X202111260Y-96506801D01*
X202111259Y-96506800D01*
X202111257Y-96506797D01*
X200495407Y-94890947D01*
X200461381Y-94828635D01*
X200458502Y-94801852D01*
X200458502Y-93357037D01*
X200478504Y-93288916D01*
X200532160Y-93242423D01*
X200602434Y-93232319D01*
X200629278Y-93240318D01*
X200629418Y-93239897D01*
X200803191Y-93297480D01*
X200803203Y-93297482D01*
X200906144Y-93307999D01*
X200945999Y-93307999D01*
X201454000Y-93307999D01*
X201493847Y-93307999D01*
X201596802Y-93297482D01*
X201763612Y-93242206D01*
X201913186Y-93149948D01*
X201913192Y-93149943D01*
X202037443Y-93025692D01*
X202037448Y-93025686D01*
X202129706Y-92876112D01*
X202184980Y-92709308D01*
X202184982Y-92709296D01*
X202195499Y-92606355D01*
X202195500Y-92606355D01*
X202195500Y-92354000D01*
X201454000Y-92354000D01*
X201454000Y-93307999D01*
X200945999Y-93307999D01*
X200946000Y-93307998D01*
X200946000Y-91846000D01*
X201454000Y-91846000D01*
X202195499Y-91846000D01*
X202195499Y-91593652D01*
X202184982Y-91490697D01*
X202129706Y-91323887D01*
X202037448Y-91174313D01*
X202037443Y-91174307D01*
X201913192Y-91050056D01*
X201913186Y-91050051D01*
X201763612Y-90957793D01*
X201596808Y-90902519D01*
X201596796Y-90902517D01*
X201493855Y-90892000D01*
X201454000Y-90892000D01*
X201454000Y-91846000D01*
X200946000Y-91846000D01*
X200946000Y-90892000D01*
X200906153Y-90892000D01*
X200803197Y-90902517D01*
X200636387Y-90957793D01*
X200486813Y-91050051D01*
X200486807Y-91050056D01*
X200362551Y-91174312D01*
X200361648Y-91175455D01*
X200360829Y-91176034D01*
X200357361Y-91179503D01*
X200356767Y-91178909D01*
X200303702Y-91216477D01*
X200232777Y-91219660D01*
X200171390Y-91183992D01*
X200163981Y-91175440D01*
X200162840Y-91173997D01*
X200038504Y-91049661D01*
X200038498Y-91049656D01*
X200024213Y-91040845D01*
X199888829Y-90957339D01*
X199883717Y-90955645D01*
X199825346Y-90915231D01*
X199798091Y-90849674D01*
X199810605Y-90779789D01*
X199834256Y-90746945D01*
X200123444Y-90457757D01*
X201492072Y-89089131D01*
X201561401Y-88985373D01*
X201605016Y-88880075D01*
X201609155Y-88870083D01*
X201633500Y-88747692D01*
X201633500Y-88501994D01*
X201653502Y-88433873D01*
X201670400Y-88412903D01*
X201763198Y-88320106D01*
X201844803Y-88213757D01*
X201910629Y-88099743D01*
X201961927Y-87975899D01*
X201996002Y-87848732D01*
X202013500Y-87715826D01*
X202013500Y-87084174D01*
X201996002Y-86951268D01*
X201961927Y-86824101D01*
X201910629Y-86700257D01*
X201886092Y-86657757D01*
X201844805Y-86586246D01*
X201844800Y-86586239D01*
X201763205Y-86479902D01*
X201763186Y-86479881D01*
X201670118Y-86386813D01*
X201670097Y-86386794D01*
X201560485Y-86302686D01*
X201561384Y-86301513D01*
X201519829Y-86251793D01*
X201510979Y-86181350D01*
X201541617Y-86117305D01*
X201602017Y-86079991D01*
X201635357Y-86075500D01*
X203798500Y-86075500D01*
X203866621Y-86095502D01*
X203913114Y-86149158D01*
X203924500Y-86201500D01*
X203924500Y-118798500D01*
X203904498Y-118866621D01*
X203850842Y-118913114D01*
X203798500Y-118924500D01*
X148201500Y-118924500D01*
X148133379Y-118904498D01*
X148086886Y-118850842D01*
X148075500Y-118798500D01*
X148075500Y-93368532D01*
X151281500Y-93368532D01*
X151281500Y-93575467D01*
X151303425Y-93685690D01*
X151321870Y-93778420D01*
X151401059Y-93969598D01*
X151516023Y-94141655D01*
X151516024Y-94141656D01*
X151516029Y-94141662D01*
X151662337Y-94287970D01*
X151662343Y-94287975D01*
X151662345Y-94287977D01*
X151834402Y-94402941D01*
X152025580Y-94482130D01*
X152228535Y-94522500D01*
X152228536Y-94522500D01*
X152435464Y-94522500D01*
X152435465Y-94522500D01*
X152638420Y-94482130D01*
X152829598Y-94402941D01*
X153001655Y-94287977D01*
X153147977Y-94141655D01*
X153262941Y-93969598D01*
X153342130Y-93778420D01*
X153382500Y-93575465D01*
X153382500Y-93368535D01*
X153342130Y-93165580D01*
X153262941Y-92974402D01*
X153147977Y-92802345D01*
X153147975Y-92802343D01*
X153147970Y-92802337D01*
X153001662Y-92656029D01*
X153001656Y-92656024D01*
X153001655Y-92656023D01*
X152829598Y-92541059D01*
X152638420Y-92461870D01*
X152611896Y-92456594D01*
X152435467Y-92421500D01*
X152435465Y-92421500D01*
X152228535Y-92421500D01*
X152228532Y-92421500D01*
X152025579Y-92461870D01*
X152025574Y-92461872D01*
X151834402Y-92541059D01*
X151662343Y-92656024D01*
X151662337Y-92656029D01*
X151516029Y-92802337D01*
X151516024Y-92802343D01*
X151401059Y-92974402D01*
X151321872Y-93165574D01*
X151321870Y-93165579D01*
X151281500Y-93368532D01*
X148075500Y-93368532D01*
X148075500Y-90868532D01*
X151281500Y-90868532D01*
X151281500Y-91075467D01*
X151306986Y-91203591D01*
X151321870Y-91278420D01*
X151401059Y-91469598D01*
X151483949Y-91593652D01*
X151516024Y-91641656D01*
X151516029Y-91641662D01*
X151662337Y-91787970D01*
X151662343Y-91787975D01*
X151662345Y-91787977D01*
X151834402Y-91902941D01*
X152025580Y-91982130D01*
X152228535Y-92022500D01*
X152228536Y-92022500D01*
X152435464Y-92022500D01*
X152435465Y-92022500D01*
X152638420Y-91982130D01*
X152829598Y-91902941D01*
X153001655Y-91787977D01*
X153147977Y-91641655D01*
X153262941Y-91469598D01*
X153342130Y-91278420D01*
X153382500Y-91075465D01*
X153382500Y-90868535D01*
X153342130Y-90665580D01*
X153262941Y-90474402D01*
X153147977Y-90302345D01*
X153147975Y-90302343D01*
X153147970Y-90302337D01*
X153001662Y-90156029D01*
X153001656Y-90156024D01*
X153001655Y-90156023D01*
X152829598Y-90041059D01*
X152638420Y-89961870D01*
X152511297Y-89936583D01*
X152435467Y-89921500D01*
X152435465Y-89921500D01*
X152228535Y-89921500D01*
X152228532Y-89921500D01*
X152025579Y-89961870D01*
X152025574Y-89961872D01*
X151834402Y-90041059D01*
X151662343Y-90156024D01*
X151662337Y-90156029D01*
X151516029Y-90302337D01*
X151516024Y-90302343D01*
X151401059Y-90474402D01*
X151321872Y-90665574D01*
X151321870Y-90665579D01*
X151281500Y-90868532D01*
X148075500Y-90868532D01*
X148075500Y-86201500D01*
X148095502Y-86133379D01*
X148149158Y-86086886D01*
X148201500Y-86075500D01*
X161672000Y-86075500D01*
X161740121Y-86095502D01*
G37*
G04 #@! TD.AperFunction*
G04 #@! TA.AperFunction,Conductor*
G36*
X178096121Y-111320002D02*
G01*
X178142614Y-111373658D01*
X178154000Y-111426000D01*
X178154000Y-112308000D01*
X179198585Y-112308000D01*
X179198595Y-112307999D01*
X179257002Y-112301719D01*
X179326871Y-112314324D01*
X179378834Y-112362701D01*
X179396473Y-112426997D01*
X179396473Y-114750684D01*
X179376471Y-114818805D01*
X179322815Y-114865298D01*
X179252541Y-114875402D01*
X179211019Y-114860351D01*
X179210766Y-114860896D01*
X179204641Y-114858039D01*
X179204327Y-114857926D01*
X179204111Y-114857793D01*
X179037308Y-114802519D01*
X179037296Y-114802517D01*
X178934355Y-114792000D01*
X178894500Y-114792000D01*
X178894500Y-115874000D01*
X178874498Y-115942121D01*
X178820842Y-115988614D01*
X178768500Y-116000000D01*
X178640500Y-116000000D01*
X178640500Y-116128000D01*
X178620498Y-116196121D01*
X178566842Y-116242614D01*
X178514500Y-116254000D01*
X177645001Y-116254000D01*
X177645001Y-116506346D01*
X177647182Y-116527695D01*
X177634206Y-116597495D01*
X177585554Y-116649201D01*
X177521834Y-116666500D01*
X176303500Y-116666500D01*
X176294675Y-116663908D01*
X176285574Y-116665218D01*
X176261148Y-116654064D01*
X176235379Y-116646498D01*
X176229356Y-116639547D01*
X176220992Y-116635728D01*
X176206472Y-116613137D01*
X176188886Y-116592842D01*
X176186562Y-116582160D01*
X176182605Y-116576004D01*
X176177500Y-116540506D01*
X176177499Y-116530045D01*
X176177499Y-116517598D01*
X176197498Y-116449478D01*
X176214399Y-116428503D01*
X176817071Y-115825834D01*
X176886400Y-115722076D01*
X176934154Y-115606785D01*
X176934155Y-115606778D01*
X176934157Y-115606773D01*
X176935103Y-115602021D01*
X176956659Y-115493644D01*
X177645000Y-115493644D01*
X177645000Y-115746000D01*
X178386500Y-115746000D01*
X178386500Y-114792000D01*
X178346653Y-114792000D01*
X178243697Y-114802517D01*
X178076887Y-114857793D01*
X177927313Y-114950051D01*
X177927307Y-114950056D01*
X177803056Y-115074307D01*
X177803051Y-115074313D01*
X177710793Y-115223887D01*
X177655519Y-115390691D01*
X177655517Y-115390703D01*
X177645000Y-115493644D01*
X176956659Y-115493644D01*
X176958498Y-115484400D01*
X176958499Y-115484393D01*
X176958499Y-112434000D01*
X176978501Y-112365879D01*
X177032157Y-112319386D01*
X177084499Y-112308000D01*
X177646000Y-112308000D01*
X177646000Y-111426000D01*
X177666002Y-111357879D01*
X177719658Y-111311386D01*
X177772000Y-111300000D01*
X178028000Y-111300000D01*
X178096121Y-111320002D01*
G37*
G04 #@! TD.AperFunction*
G04 #@! TA.AperFunction,Conductor*
G36*
X189400981Y-103102560D02*
G01*
X189402432Y-103102352D01*
X189432715Y-103110661D01*
X189502169Y-103139430D01*
X189628083Y-103164475D01*
X189690992Y-103197382D01*
X189726124Y-103259077D01*
X189729501Y-103288054D01*
X189729501Y-112845627D01*
X189709499Y-112913748D01*
X189692596Y-112934722D01*
X187872722Y-114754595D01*
X187810410Y-114788621D01*
X187783627Y-114791500D01*
X187406125Y-114791500D01*
X187303100Y-114802025D01*
X187303097Y-114802025D01*
X187303096Y-114802026D01*
X187252460Y-114818805D01*
X187136170Y-114857339D01*
X186986501Y-114949656D01*
X186986495Y-114949661D01*
X186856966Y-115079191D01*
X186854720Y-115076945D01*
X186808370Y-115109752D01*
X186737445Y-115112928D01*
X186676061Y-115077254D01*
X186643709Y-115014057D01*
X186641500Y-114990565D01*
X186641500Y-112405607D01*
X186641499Y-112405603D01*
X186639752Y-112396820D01*
X186617155Y-112283215D01*
X186569400Y-112167925D01*
X186500071Y-112064167D01*
X186411833Y-111975929D01*
X185311563Y-110875659D01*
X185277537Y-110813347D01*
X185276209Y-110766853D01*
X185276278Y-110766411D01*
X185276280Y-110766408D01*
X185308500Y-110562981D01*
X185308500Y-110357019D01*
X185289744Y-110238597D01*
X186742000Y-110238597D01*
X186748505Y-110299093D01*
X186799555Y-110435964D01*
X186799555Y-110435965D01*
X186887095Y-110552904D01*
X187004034Y-110640444D01*
X187140906Y-110691494D01*
X187201402Y-110697999D01*
X187201415Y-110698000D01*
X187746000Y-110698000D01*
X188254000Y-110698000D01*
X188798585Y-110698000D01*
X188798597Y-110697999D01*
X188859093Y-110691494D01*
X188995964Y-110640444D01*
X188995965Y-110640444D01*
X189112904Y-110552904D01*
X189200444Y-110435965D01*
X189200444Y-110435964D01*
X189251494Y-110299093D01*
X189257999Y-110238597D01*
X189258000Y-110238585D01*
X189258000Y-110144000D01*
X188254000Y-110144000D01*
X188254000Y-110698000D01*
X187746000Y-110698000D01*
X187746000Y-110144000D01*
X186742000Y-110144000D01*
X186742000Y-110238597D01*
X185289744Y-110238597D01*
X185276280Y-110153592D01*
X185212634Y-109957710D01*
X185119129Y-109774197D01*
X184998068Y-109607570D01*
X184998065Y-109607567D01*
X184998063Y-109607564D01*
X184852435Y-109461936D01*
X184852432Y-109461934D01*
X184852430Y-109461932D01*
X184690157Y-109344034D01*
X184685806Y-109340873D01*
X184685805Y-109340872D01*
X184685803Y-109340871D01*
X184610034Y-109302265D01*
X184558422Y-109253519D01*
X184541356Y-109184604D01*
X184564257Y-109117402D01*
X184610034Y-109077735D01*
X184685803Y-109039129D01*
X184782882Y-108968597D01*
X186742000Y-108968597D01*
X186748505Y-109029093D01*
X186799555Y-109165964D01*
X186799555Y-109165965D01*
X186809681Y-109179491D01*
X186834492Y-109246011D01*
X186819401Y-109315385D01*
X186809681Y-109330509D01*
X186799555Y-109344034D01*
X186799555Y-109344035D01*
X186748505Y-109480906D01*
X186742000Y-109541402D01*
X186742000Y-109636000D01*
X187746000Y-109636000D01*
X188254000Y-109636000D01*
X189258000Y-109636000D01*
X189258000Y-109541414D01*
X189257999Y-109541402D01*
X189251494Y-109480906D01*
X189200445Y-109344037D01*
X189190318Y-109330509D01*
X189165507Y-109263989D01*
X189180598Y-109194615D01*
X189190318Y-109179491D01*
X189200445Y-109165962D01*
X189251494Y-109029093D01*
X189257999Y-108968597D01*
X189258000Y-108968585D01*
X189258000Y-108874000D01*
X188254000Y-108874000D01*
X188254000Y-109636000D01*
X187746000Y-109636000D01*
X187746000Y-108874000D01*
X186742000Y-108874000D01*
X186742000Y-108968597D01*
X184782882Y-108968597D01*
X184852430Y-108918068D01*
X184998068Y-108772430D01*
X185119129Y-108605803D01*
X185212634Y-108422290D01*
X185276280Y-108226408D01*
X185308500Y-108022981D01*
X185308500Y-107817019D01*
X185289744Y-107698597D01*
X186742000Y-107698597D01*
X186748505Y-107759093D01*
X186799555Y-107895964D01*
X186799555Y-107895965D01*
X186809681Y-107909491D01*
X186834492Y-107976011D01*
X186819401Y-108045385D01*
X186809681Y-108060509D01*
X186799555Y-108074034D01*
X186799555Y-108074035D01*
X186748506Y-108210905D01*
X186742000Y-108271402D01*
X186742000Y-108366000D01*
X187746000Y-108366000D01*
X188254000Y-108366000D01*
X189258000Y-108366000D01*
X189258000Y-108271414D01*
X189257999Y-108271402D01*
X189251494Y-108210905D01*
X189200445Y-108074037D01*
X189190318Y-108060509D01*
X189165507Y-107993989D01*
X189180598Y-107924615D01*
X189190318Y-107909491D01*
X189200445Y-107895962D01*
X189251494Y-107759093D01*
X189257999Y-107698597D01*
X189258000Y-107698585D01*
X189258000Y-107604000D01*
X188254000Y-107604000D01*
X188254000Y-108366000D01*
X187746000Y-108366000D01*
X187746000Y-107604000D01*
X186742000Y-107604000D01*
X186742000Y-107698597D01*
X185289744Y-107698597D01*
X185276280Y-107613592D01*
X185212634Y-107417710D01*
X185119129Y-107234197D01*
X184998068Y-107067570D01*
X184998065Y-107067567D01*
X184998063Y-107067564D01*
X184852435Y-106921936D01*
X184852432Y-106921934D01*
X184852430Y-106921932D01*
X184768390Y-106860874D01*
X184685439Y-106800606D01*
X184682043Y-106796202D01*
X184676988Y-106793894D01*
X184660601Y-106768396D01*
X184642085Y-106744384D01*
X184640811Y-106737602D01*
X184638604Y-106734168D01*
X184633500Y-106698670D01*
X184633500Y-106601328D01*
X184653502Y-106533207D01*
X184685440Y-106499391D01*
X184685795Y-106499133D01*
X184685803Y-106499129D01*
X184782882Y-106428597D01*
X186742000Y-106428597D01*
X186748505Y-106489093D01*
X186799555Y-106625964D01*
X186799555Y-106625965D01*
X186809681Y-106639491D01*
X186834492Y-106706011D01*
X186819401Y-106775385D01*
X186809681Y-106790509D01*
X186799555Y-106804034D01*
X186799555Y-106804035D01*
X186748505Y-106940906D01*
X186742000Y-107001402D01*
X186742000Y-107096000D01*
X187746000Y-107096000D01*
X188254000Y-107096000D01*
X189258000Y-107096000D01*
X189258000Y-107001414D01*
X189257999Y-107001402D01*
X189251494Y-106940906D01*
X189200445Y-106804037D01*
X189190318Y-106790509D01*
X189165507Y-106723989D01*
X189180598Y-106654615D01*
X189190318Y-106639491D01*
X189200445Y-106625962D01*
X189251494Y-106489093D01*
X189257999Y-106428597D01*
X189258000Y-106428585D01*
X189258000Y-106334000D01*
X188254000Y-106334000D01*
X188254000Y-107096000D01*
X187746000Y-107096000D01*
X187746000Y-106334000D01*
X186742000Y-106334000D01*
X186742000Y-106428597D01*
X184782882Y-106428597D01*
X184852430Y-106378068D01*
X184998068Y-106232430D01*
X185119129Y-106065803D01*
X185212634Y-105882290D01*
X185276280Y-105686408D01*
X185297918Y-105549787D01*
X185328331Y-105485636D01*
X185388599Y-105448109D01*
X185422367Y-105443500D01*
X186651849Y-105443500D01*
X186719970Y-105463502D01*
X186766463Y-105517158D01*
X186776567Y-105587432D01*
X186769905Y-105613533D01*
X186748505Y-105670907D01*
X186742000Y-105731402D01*
X186742000Y-105826000D01*
X189258000Y-105826000D01*
X189258000Y-105731414D01*
X189257999Y-105731402D01*
X189251494Y-105670906D01*
X189200444Y-105534035D01*
X189200443Y-105534033D01*
X189190631Y-105520926D01*
X189165819Y-105454406D01*
X189180910Y-105385032D01*
X189190622Y-105369918D01*
X189200889Y-105356204D01*
X189251989Y-105219201D01*
X189253586Y-105204354D01*
X189258499Y-105158649D01*
X189258500Y-105158632D01*
X189258500Y-104461367D01*
X189258499Y-104461350D01*
X189251990Y-104400803D01*
X189251989Y-104400799D01*
X189200889Y-104263796D01*
X189190943Y-104250510D01*
X189166131Y-104183992D01*
X189181221Y-104114618D01*
X189190942Y-104099491D01*
X189200889Y-104086204D01*
X189251989Y-103949201D01*
X189253732Y-103932993D01*
X189258499Y-103888649D01*
X189258500Y-103888632D01*
X189258500Y-103227070D01*
X189267893Y-103195078D01*
X189276139Y-103162775D01*
X189277844Y-103161186D01*
X189278502Y-103158949D01*
X189303701Y-103137113D01*
X189328101Y-103114397D01*
X189330395Y-103113983D01*
X189332158Y-103112456D01*
X189365166Y-103107709D01*
X189397970Y-103101792D01*
X189400981Y-103102560D01*
G37*
G04 #@! TD.AperFunction*
G04 #@! TA.AperFunction,Conductor*
G36*
X176083621Y-97127502D02*
G01*
X176130114Y-97181158D01*
X176141500Y-97233500D01*
X176141500Y-97848649D01*
X176148009Y-97909196D01*
X176148011Y-97909204D01*
X176199110Y-98046202D01*
X176199112Y-98046207D01*
X176286737Y-98163259D01*
X176286738Y-98163259D01*
X176286739Y-98163261D01*
X176334657Y-98199132D01*
X176377203Y-98255968D01*
X176382267Y-98326784D01*
X176348242Y-98389096D01*
X176334657Y-98400868D01*
X176286737Y-98436740D01*
X176199112Y-98553792D01*
X176199110Y-98553797D01*
X176148011Y-98690795D01*
X176148009Y-98690803D01*
X176141500Y-98751350D01*
X176141500Y-99848649D01*
X176148009Y-99909196D01*
X176148011Y-99909204D01*
X176199110Y-100046202D01*
X176199112Y-100046207D01*
X176286737Y-100163259D01*
X176286738Y-100163259D01*
X176286739Y-100163261D01*
X176334657Y-100199132D01*
X176377203Y-100255968D01*
X176382267Y-100326784D01*
X176348242Y-100389096D01*
X176334657Y-100400868D01*
X176286737Y-100436740D01*
X176199112Y-100553792D01*
X176199110Y-100553797D01*
X176148011Y-100690795D01*
X176148009Y-100690803D01*
X176141500Y-100751350D01*
X176141500Y-101848649D01*
X176148009Y-101909196D01*
X176148011Y-101909204D01*
X176199110Y-102046202D01*
X176199112Y-102046207D01*
X176286737Y-102163259D01*
X176286738Y-102163259D01*
X176286739Y-102163261D01*
X176310978Y-102181406D01*
X176334657Y-102199132D01*
X176377203Y-102255968D01*
X176382267Y-102326784D01*
X176348242Y-102389096D01*
X176334657Y-102400868D01*
X176286737Y-102436740D01*
X176199112Y-102553792D01*
X176199110Y-102553797D01*
X176148011Y-102690795D01*
X176148009Y-102690803D01*
X176141500Y-102751350D01*
X176141500Y-103848649D01*
X176148009Y-103909196D01*
X176148011Y-103909204D01*
X176199110Y-104046202D01*
X176199112Y-104046207D01*
X176286737Y-104163259D01*
X176286738Y-104163259D01*
X176286739Y-104163261D01*
X176334657Y-104199132D01*
X176377203Y-104255968D01*
X176382267Y-104326784D01*
X176348242Y-104389096D01*
X176334657Y-104400868D01*
X176286737Y-104436740D01*
X176199112Y-104553792D01*
X176199110Y-104553797D01*
X176148011Y-104690795D01*
X176148009Y-104690803D01*
X176141500Y-104751350D01*
X176141500Y-105848649D01*
X176148009Y-105909196D01*
X176148011Y-105909204D01*
X176199110Y-106046202D01*
X176199112Y-106046207D01*
X176286737Y-106163259D01*
X176286738Y-106163259D01*
X176286739Y-106163261D01*
X176333074Y-106197947D01*
X176334657Y-106199132D01*
X176377203Y-106255968D01*
X176382267Y-106326784D01*
X176348242Y-106389096D01*
X176334657Y-106400868D01*
X176286737Y-106436740D01*
X176199112Y-106553792D01*
X176199111Y-106553795D01*
X176154363Y-106673767D01*
X176111816Y-106730602D01*
X176104946Y-106734975D01*
X176105071Y-106735161D01*
X175996171Y-106807925D01*
X175996164Y-106807931D01*
X175832930Y-106971165D01*
X175832925Y-106971172D01*
X175763600Y-107074924D01*
X175722486Y-107174182D01*
X175715844Y-107190216D01*
X175707096Y-107234197D01*
X175691499Y-107312604D01*
X175691499Y-111265500D01*
X175671497Y-111333621D01*
X175617841Y-111380114D01*
X175565499Y-111391500D01*
X174751350Y-111391500D01*
X174690803Y-111398009D01*
X174690795Y-111398011D01*
X174553797Y-111449110D01*
X174553792Y-111449112D01*
X174436740Y-111536737D01*
X174400868Y-111584657D01*
X174344032Y-111627203D01*
X174273216Y-111632267D01*
X174210904Y-111598242D01*
X174199132Y-111584657D01*
X174194994Y-111579129D01*
X174163261Y-111536739D01*
X174163259Y-111536738D01*
X174163259Y-111536737D01*
X174046207Y-111449112D01*
X174046202Y-111449110D01*
X173909204Y-111398011D01*
X173909196Y-111398009D01*
X173848649Y-111391500D01*
X173848638Y-111391500D01*
X172751362Y-111391500D01*
X172751350Y-111391500D01*
X172690803Y-111398009D01*
X172690795Y-111398011D01*
X172553797Y-111449110D01*
X172553792Y-111449112D01*
X172436740Y-111536737D01*
X172400868Y-111584657D01*
X172344032Y-111627203D01*
X172273216Y-111632267D01*
X172210904Y-111598242D01*
X172199132Y-111584657D01*
X172194994Y-111579129D01*
X172163261Y-111536739D01*
X172163259Y-111536738D01*
X172163259Y-111536737D01*
X172046207Y-111449112D01*
X172046202Y-111449110D01*
X171909204Y-111398011D01*
X171909196Y-111398009D01*
X171848649Y-111391500D01*
X171848638Y-111391500D01*
X170751362Y-111391500D01*
X170751350Y-111391500D01*
X170690803Y-111398009D01*
X170690795Y-111398011D01*
X170553797Y-111449110D01*
X170553792Y-111449112D01*
X170436740Y-111536737D01*
X170400868Y-111584657D01*
X170344032Y-111627203D01*
X170273216Y-111632267D01*
X170210904Y-111598242D01*
X170199132Y-111584657D01*
X170194994Y-111579129D01*
X170163261Y-111536739D01*
X170163259Y-111536738D01*
X170163259Y-111536737D01*
X170046207Y-111449112D01*
X170046202Y-111449110D01*
X169909204Y-111398011D01*
X169909196Y-111398009D01*
X169848649Y-111391500D01*
X169848638Y-111391500D01*
X168751362Y-111391500D01*
X168751350Y-111391500D01*
X168690803Y-111398009D01*
X168690795Y-111398011D01*
X168553797Y-111449110D01*
X168553792Y-111449112D01*
X168436740Y-111536737D01*
X168400868Y-111584657D01*
X168344032Y-111627203D01*
X168273216Y-111632267D01*
X168210904Y-111598242D01*
X168199132Y-111584657D01*
X168194994Y-111579129D01*
X168163261Y-111536739D01*
X168163259Y-111536738D01*
X168163259Y-111536737D01*
X168046207Y-111449112D01*
X168046202Y-111449110D01*
X167909204Y-111398011D01*
X167909196Y-111398009D01*
X167848649Y-111391500D01*
X167848638Y-111391500D01*
X166751362Y-111391500D01*
X166751350Y-111391500D01*
X166690803Y-111398009D01*
X166690795Y-111398011D01*
X166553797Y-111449110D01*
X166553792Y-111449112D01*
X166436740Y-111536737D01*
X166400868Y-111584657D01*
X166344032Y-111627203D01*
X166273216Y-111632267D01*
X166210904Y-111598242D01*
X166199132Y-111584657D01*
X166194994Y-111579129D01*
X166163261Y-111536739D01*
X166163259Y-111536738D01*
X166163259Y-111536737D01*
X166046207Y-111449112D01*
X166046202Y-111449110D01*
X165909204Y-111398011D01*
X165909196Y-111398009D01*
X165848649Y-111391500D01*
X165848638Y-111391500D01*
X164751362Y-111391500D01*
X164751350Y-111391500D01*
X164690803Y-111398009D01*
X164690799Y-111398010D01*
X164628532Y-111421235D01*
X164557716Y-111426299D01*
X164495404Y-111392274D01*
X164461379Y-111329961D01*
X164458500Y-111303179D01*
X164458500Y-110751367D01*
X164458499Y-110751350D01*
X164451990Y-110690803D01*
X164451988Y-110690795D01*
X164400889Y-110553797D01*
X164400887Y-110553792D01*
X164313261Y-110436738D01*
X164265343Y-110400868D01*
X164222796Y-110344033D01*
X164217731Y-110273217D01*
X164251756Y-110210905D01*
X164265343Y-110199132D01*
X164313261Y-110163261D01*
X164400887Y-110046207D01*
X164400887Y-110046206D01*
X164400889Y-110046204D01*
X164451989Y-109909201D01*
X164453140Y-109898500D01*
X164458499Y-109848649D01*
X164458500Y-109848632D01*
X164458500Y-108751367D01*
X164458499Y-108751350D01*
X164451990Y-108690803D01*
X164451988Y-108690795D01*
X164402348Y-108557708D01*
X164400889Y-108553796D01*
X164400888Y-108553794D01*
X164400887Y-108553792D01*
X164313261Y-108436738D01*
X164265343Y-108400868D01*
X164222796Y-108344033D01*
X164217731Y-108273217D01*
X164251756Y-108210905D01*
X164265343Y-108199132D01*
X164313261Y-108163261D01*
X164400887Y-108046207D01*
X164400887Y-108046206D01*
X164400889Y-108046204D01*
X164451989Y-107909201D01*
X164453387Y-107896204D01*
X164458499Y-107848649D01*
X164458500Y-107848632D01*
X164458500Y-106751367D01*
X164458499Y-106751350D01*
X164451990Y-106690803D01*
X164451988Y-106690795D01*
X164415375Y-106592634D01*
X164400889Y-106553796D01*
X164400888Y-106553794D01*
X164400887Y-106553792D01*
X164313261Y-106436738D01*
X164265343Y-106400868D01*
X164222796Y-106344033D01*
X164217731Y-106273217D01*
X164251756Y-106210905D01*
X164265343Y-106199132D01*
X164276956Y-106190439D01*
X164313261Y-106163261D01*
X164353620Y-106109348D01*
X164400887Y-106046207D01*
X164400887Y-106046206D01*
X164400889Y-106046204D01*
X164451989Y-105909201D01*
X164454810Y-105882968D01*
X164458499Y-105848649D01*
X164458500Y-105848632D01*
X164458500Y-104751367D01*
X164458499Y-104751350D01*
X164451990Y-104690803D01*
X164451988Y-104690795D01*
X164400889Y-104553797D01*
X164400887Y-104553792D01*
X164313261Y-104436738D01*
X164265343Y-104400868D01*
X164222796Y-104344033D01*
X164217731Y-104273217D01*
X164251756Y-104210905D01*
X164265343Y-104199132D01*
X164313261Y-104163261D01*
X164400887Y-104046207D01*
X164400887Y-104046206D01*
X164400889Y-104046204D01*
X164451989Y-103909201D01*
X164454201Y-103888632D01*
X164458499Y-103848649D01*
X164458500Y-103848632D01*
X164458500Y-102751367D01*
X164458499Y-102751350D01*
X164451990Y-102690803D01*
X164451988Y-102690795D01*
X164419029Y-102602432D01*
X164400889Y-102553796D01*
X164400888Y-102553794D01*
X164400887Y-102553792D01*
X164313261Y-102436738D01*
X164265343Y-102400868D01*
X164222796Y-102344033D01*
X164217731Y-102273217D01*
X164251756Y-102210905D01*
X164265343Y-102199132D01*
X164313261Y-102163261D01*
X164400887Y-102046207D01*
X164400887Y-102046206D01*
X164400889Y-102046204D01*
X164412354Y-102015466D01*
X164454901Y-101958631D01*
X164521422Y-101933821D01*
X164530409Y-101933500D01*
X165562393Y-101933500D01*
X165562394Y-101933500D01*
X165684785Y-101909155D01*
X165800075Y-101861400D01*
X165903833Y-101792071D01*
X170551500Y-97144405D01*
X170613812Y-97110379D01*
X170640595Y-97107500D01*
X176015500Y-97107500D01*
X176083621Y-97127502D01*
G37*
G04 #@! TD.AperFunction*
G04 #@! TA.AperFunction,Conductor*
G36*
X156792295Y-101828502D02*
G01*
X156838788Y-101882158D01*
X156848892Y-101952432D01*
X156819398Y-102017012D01*
X156813269Y-102023595D01*
X156750056Y-102086807D01*
X156750051Y-102086813D01*
X156657793Y-102236387D01*
X156602519Y-102403191D01*
X156602517Y-102403203D01*
X156592000Y-102506144D01*
X156592000Y-102546000D01*
X157674000Y-102546000D01*
X157742121Y-102566002D01*
X157788614Y-102619658D01*
X157800000Y-102672000D01*
X157800000Y-102800000D01*
X157928000Y-102800000D01*
X157996121Y-102820002D01*
X158042614Y-102873658D01*
X158054000Y-102926000D01*
X158054000Y-103801500D01*
X158033998Y-103869621D01*
X157980342Y-103916114D01*
X157961226Y-103920272D01*
X157954000Y-103927499D01*
X157954000Y-104499000D01*
X157933998Y-104567121D01*
X157880342Y-104613614D01*
X157828000Y-104625000D01*
X157700000Y-104625000D01*
X157700000Y-104753000D01*
X157679998Y-104821121D01*
X157626342Y-104867614D01*
X157574000Y-104879000D01*
X156492001Y-104879000D01*
X156492001Y-104918847D01*
X156502517Y-105021802D01*
X156557794Y-105188613D01*
X156557795Y-105188616D01*
X156567502Y-105204354D01*
X156586239Y-105272834D01*
X156564979Y-105340572D01*
X156510472Y-105386063D01*
X156460261Y-105396500D01*
X152148478Y-105396500D01*
X152080357Y-105376498D01*
X152059382Y-105359594D01*
X152019863Y-105320074D01*
X152019860Y-105320071D01*
X151859600Y-105203635D01*
X151771310Y-105158649D01*
X151699352Y-105121984D01*
X151647738Y-105073236D01*
X151630672Y-105004321D01*
X151653573Y-104937120D01*
X151699354Y-104897451D01*
X151859337Y-104815937D01*
X152019534Y-104699546D01*
X152019537Y-104699544D01*
X152159544Y-104559537D01*
X152159546Y-104559534D01*
X152275935Y-104399339D01*
X152310682Y-104331144D01*
X156492000Y-104331144D01*
X156492000Y-104371000D01*
X157446000Y-104371000D01*
X157446000Y-103623500D01*
X157466002Y-103555379D01*
X157519658Y-103508886D01*
X157538773Y-103504727D01*
X157546000Y-103497501D01*
X157546000Y-103054000D01*
X156592001Y-103054000D01*
X156592001Y-103093847D01*
X156602517Y-103196802D01*
X156657793Y-103363612D01*
X156750051Y-103513186D01*
X156750056Y-103513192D01*
X156816322Y-103579458D01*
X156850348Y-103641770D01*
X156845283Y-103712585D01*
X156802736Y-103769421D01*
X156793377Y-103775792D01*
X156774315Y-103787549D01*
X156774307Y-103787556D01*
X156650056Y-103911807D01*
X156650051Y-103911813D01*
X156557793Y-104061387D01*
X156502519Y-104228191D01*
X156502517Y-104228203D01*
X156492000Y-104331144D01*
X152310682Y-104331144D01*
X152341459Y-104270742D01*
X152341460Y-104270740D01*
X152365833Y-104222905D01*
X152427024Y-104034579D01*
X152433452Y-103994000D01*
X151130703Y-103994000D01*
X151165925Y-103932993D01*
X151200000Y-103805826D01*
X151200000Y-103674174D01*
X151165925Y-103547007D01*
X151130703Y-103486000D01*
X152433452Y-103486000D01*
X152427024Y-103445420D01*
X152365834Y-103257097D01*
X152275935Y-103080660D01*
X152159546Y-102920465D01*
X152159544Y-102920462D01*
X152019537Y-102780455D01*
X152019534Y-102780453D01*
X151890131Y-102686436D01*
X151846777Y-102630214D01*
X151840702Y-102559478D01*
X151873833Y-102496686D01*
X151935653Y-102461775D01*
X151964192Y-102458500D01*
X151998632Y-102458500D01*
X151998638Y-102458500D01*
X151998645Y-102458499D01*
X151998649Y-102458499D01*
X152059196Y-102451990D01*
X152059199Y-102451989D01*
X152059201Y-102451989D01*
X152196204Y-102400889D01*
X152313261Y-102313261D01*
X152400889Y-102196204D01*
X152451989Y-102059201D01*
X152453387Y-102046204D01*
X152458499Y-101998649D01*
X152458500Y-101998632D01*
X152458500Y-101934500D01*
X152478502Y-101866379D01*
X152532158Y-101819886D01*
X152584500Y-101808500D01*
X156724174Y-101808500D01*
X156792295Y-101828502D01*
G37*
G04 #@! TD.AperFunction*
G04 #@! TA.AperFunction,Conductor*
G36*
X189414037Y-96573532D02*
G01*
X189459100Y-96602493D01*
X189484603Y-96627996D01*
X189484609Y-96628001D01*
X189484611Y-96628003D01*
X189578587Y-96690795D01*
X189617032Y-96716483D01*
X189617034Y-96716484D01*
X189639576Y-96725821D01*
X189646619Y-96730527D01*
X189651744Y-96731642D01*
X189680454Y-96753135D01*
X189692596Y-96765277D01*
X189726622Y-96827589D01*
X189729501Y-96854372D01*
X189729501Y-101435945D01*
X189709499Y-101504066D01*
X189655843Y-101550559D01*
X189628083Y-101559524D01*
X189544084Y-101576232D01*
X189502169Y-101584570D01*
X189502167Y-101584570D01*
X189502166Y-101584571D01*
X189396345Y-101628404D01*
X189325755Y-101635993D01*
X189262268Y-101604214D01*
X189226041Y-101543155D01*
X189228575Y-101472204D01*
X189230072Y-101467961D01*
X189244984Y-101427983D01*
X189251989Y-101409201D01*
X189256055Y-101371386D01*
X189258499Y-101348649D01*
X189258500Y-101348632D01*
X189258500Y-100651367D01*
X189258499Y-100651350D01*
X189251990Y-100590803D01*
X189251988Y-100590795D01*
X189200889Y-100453797D01*
X189200887Y-100453792D01*
X189113261Y-100336738D01*
X188996207Y-100249112D01*
X188996202Y-100249110D01*
X188859204Y-100198011D01*
X188859196Y-100198009D01*
X188798649Y-100191500D01*
X188798638Y-100191500D01*
X188759500Y-100191500D01*
X188691379Y-100171498D01*
X188644886Y-100117842D01*
X188633500Y-100065500D01*
X188633500Y-99382605D01*
X188633499Y-99382601D01*
X188628961Y-99359786D01*
X188609155Y-99260213D01*
X188595168Y-99226445D01*
X188561401Y-99144923D01*
X188492072Y-99041165D01*
X187139834Y-97688928D01*
X187095454Y-97659274D01*
X187049928Y-97604799D01*
X187041079Y-97534355D01*
X187071720Y-97470311D01*
X187132122Y-97433000D01*
X187165457Y-97428510D01*
X188254883Y-97428510D01*
X188254884Y-97428510D01*
X188377275Y-97404165D01*
X188492565Y-97356410D01*
X188596323Y-97287081D01*
X189280913Y-96602490D01*
X189343222Y-96568468D01*
X189414037Y-96573532D01*
G37*
G04 #@! TD.AperFunction*
G04 #@! TA.AperFunction,Conductor*
G36*
X199224974Y-96123502D02*
G01*
X199245948Y-96140404D01*
X199659341Y-96553797D01*
X199911949Y-96806404D01*
X199945974Y-96868717D01*
X199940910Y-96939532D01*
X199898363Y-96996368D01*
X199831843Y-97021179D01*
X199822854Y-97021500D01*
X199101350Y-97021500D01*
X199040803Y-97028009D01*
X199040795Y-97028011D01*
X198903797Y-97079110D01*
X198903792Y-97079112D01*
X198786738Y-97166738D01*
X198699112Y-97283792D01*
X198699110Y-97283797D01*
X198648011Y-97420795D01*
X198648009Y-97420803D01*
X198641500Y-97481350D01*
X198641500Y-98613627D01*
X198621498Y-98681748D01*
X198604595Y-98702722D01*
X197868003Y-99439314D01*
X197805691Y-99473340D01*
X197734876Y-99468275D01*
X197689813Y-99439314D01*
X197552435Y-99301936D01*
X197552432Y-99301934D01*
X197552430Y-99301932D01*
X197385803Y-99180871D01*
X197309486Y-99141985D01*
X197257873Y-99093239D01*
X197240807Y-99024324D01*
X197263708Y-98957122D01*
X197309488Y-98917453D01*
X197385545Y-98878699D01*
X197552107Y-98757684D01*
X197552110Y-98757682D01*
X197697682Y-98612110D01*
X197697684Y-98612107D01*
X197818699Y-98445545D01*
X197912170Y-98262099D01*
X197912173Y-98262093D01*
X197975791Y-98066295D01*
X197984074Y-98014000D01*
X197011686Y-98014000D01*
X197020080Y-98005606D01*
X197072741Y-97914394D01*
X197100000Y-97812661D01*
X197100000Y-97707339D01*
X197072741Y-97605606D01*
X197020080Y-97514394D01*
X197011686Y-97506000D01*
X197984074Y-97506000D01*
X197975791Y-97453704D01*
X197912173Y-97257906D01*
X197912170Y-97257900D01*
X197818699Y-97074454D01*
X197697684Y-96907892D01*
X197697682Y-96907889D01*
X197552110Y-96762317D01*
X197552107Y-96762315D01*
X197385542Y-96641298D01*
X197309487Y-96602545D01*
X197257872Y-96553797D01*
X197240807Y-96484882D01*
X197263708Y-96417680D01*
X197309485Y-96378014D01*
X197385803Y-96339129D01*
X197552430Y-96218068D01*
X197630094Y-96140403D01*
X197692404Y-96106380D01*
X197719188Y-96103500D01*
X197744353Y-96103500D01*
X199156853Y-96103500D01*
X199224974Y-96123502D01*
G37*
G04 #@! TD.AperFunction*
G04 #@! TA.AperFunction,Conductor*
G36*
X188257012Y-91411370D02*
G01*
X188263595Y-91417499D01*
X188629595Y-91783499D01*
X188663621Y-91845811D01*
X188666500Y-91872594D01*
X188666500Y-92854615D01*
X188646498Y-92922736D01*
X188645266Y-92924615D01*
X188583518Y-93017029D01*
X188583517Y-93017031D01*
X188566668Y-93057708D01*
X188522570Y-93164169D01*
X188514802Y-93203219D01*
X188491500Y-93320367D01*
X188491500Y-93320370D01*
X188491500Y-93479630D01*
X188522570Y-93635831D01*
X188583517Y-93782968D01*
X188671997Y-93915389D01*
X188671998Y-93915390D01*
X188672003Y-93915396D01*
X188784606Y-94027999D01*
X188789397Y-94031931D01*
X188788041Y-94033582D01*
X188827354Y-94080597D01*
X188836221Y-94151037D01*
X188805597Y-94215090D01*
X188800934Y-94220011D01*
X187346348Y-95674597D01*
X187284038Y-95708621D01*
X187257255Y-95711501D01*
X185389039Y-95711501D01*
X185320918Y-95691499D01*
X185274425Y-95637843D01*
X185264321Y-95567569D01*
X185269206Y-95546565D01*
X185275791Y-95526295D01*
X185284074Y-95474000D01*
X184311686Y-95474000D01*
X184320080Y-95465606D01*
X184372741Y-95374394D01*
X184400000Y-95272661D01*
X184400000Y-95167339D01*
X184372741Y-95065606D01*
X184320080Y-94974394D01*
X184311686Y-94966000D01*
X185284074Y-94966000D01*
X185275791Y-94913704D01*
X185233562Y-94783734D01*
X185231535Y-94712766D01*
X185268197Y-94651969D01*
X185331909Y-94620643D01*
X185353395Y-94618798D01*
X186870393Y-94618798D01*
X186870394Y-94618798D01*
X186992785Y-94594453D01*
X187108075Y-94546698D01*
X187211833Y-94477369D01*
X187662071Y-94027131D01*
X187731400Y-93923373D01*
X187779155Y-93808083D01*
X187803500Y-93685692D01*
X187803500Y-93560905D01*
X187803500Y-93351012D01*
X187823502Y-93282891D01*
X187853987Y-93250146D01*
X187903261Y-93213261D01*
X187990889Y-93096204D01*
X188036319Y-92974402D01*
X188041988Y-92959204D01*
X188041990Y-92959196D01*
X188048499Y-92898649D01*
X188048500Y-92898632D01*
X188048500Y-91506594D01*
X188068502Y-91438473D01*
X188122158Y-91391980D01*
X188192432Y-91381876D01*
X188257012Y-91411370D01*
G37*
G04 #@! TD.AperFunction*
G04 #@! TA.AperFunction,Conductor*
G36*
X183796416Y-86095502D02*
G01*
X183842909Y-86149158D01*
X183853013Y-86219432D01*
X183829163Y-86277009D01*
X183809112Y-86303792D01*
X183809110Y-86303797D01*
X183758011Y-86440795D01*
X183758009Y-86440803D01*
X183751500Y-86501350D01*
X183751500Y-88998649D01*
X183758009Y-89059196D01*
X183758011Y-89059204D01*
X183809110Y-89196202D01*
X183809112Y-89196207D01*
X183896738Y-89313261D01*
X184013792Y-89400887D01*
X184013794Y-89400888D01*
X184013796Y-89400889D01*
X184072875Y-89422924D01*
X184150795Y-89451988D01*
X184150803Y-89451990D01*
X184211350Y-89458499D01*
X184211355Y-89458499D01*
X184211362Y-89458500D01*
X184560405Y-89458500D01*
X184628526Y-89478502D01*
X184649501Y-89495405D01*
X184880500Y-89726405D01*
X184914525Y-89788717D01*
X184909460Y-89859533D01*
X184866913Y-89916368D01*
X184800392Y-89941179D01*
X184791404Y-89941500D01*
X184211350Y-89941500D01*
X184150803Y-89948009D01*
X184150795Y-89948011D01*
X184013797Y-89999110D01*
X184013792Y-89999112D01*
X183896738Y-90086738D01*
X183809112Y-90203792D01*
X183809110Y-90203797D01*
X183758011Y-90340795D01*
X183758009Y-90340803D01*
X183751500Y-90401350D01*
X183751500Y-90890500D01*
X183731498Y-90958621D01*
X183677842Y-91005114D01*
X183625500Y-91016500D01*
X183599793Y-91016500D01*
X183526758Y-91031028D01*
X183477405Y-91040845D01*
X183477403Y-91040845D01*
X183477402Y-91040846D01*
X183425104Y-91062509D01*
X183366599Y-91086743D01*
X183362113Y-91088601D01*
X183258361Y-91157926D01*
X183258354Y-91157931D01*
X179285095Y-95131191D01*
X179222783Y-95165217D01*
X179151968Y-95160152D01*
X179095132Y-95117605D01*
X179070321Y-95051085D01*
X179070000Y-95042096D01*
X179070000Y-86201500D01*
X179090002Y-86133379D01*
X179143658Y-86086886D01*
X179196000Y-86075500D01*
X183728295Y-86075500D01*
X183796416Y-86095502D01*
G37*
G04 #@! TD.AperFunction*
G04 #@! TA.AperFunction,Conductor*
G36*
X193324471Y-86079356D02*
G01*
X193338122Y-86078380D01*
X193357868Y-86089162D01*
X193379460Y-86095502D01*
X193388423Y-86105846D01*
X193400435Y-86112405D01*
X193411218Y-86132153D01*
X193425953Y-86149158D01*
X193427900Y-86162704D01*
X193434460Y-86174717D01*
X193432854Y-86197160D01*
X193436057Y-86219432D01*
X193430261Y-86233424D01*
X193429395Y-86245533D01*
X193412207Y-86277009D01*
X193349112Y-86361292D01*
X193349110Y-86361297D01*
X193298011Y-86498295D01*
X193298009Y-86498303D01*
X193291500Y-86558850D01*
X193291500Y-88156149D01*
X193298009Y-88216696D01*
X193298010Y-88216697D01*
X193298010Y-88216699D01*
X193298011Y-88216701D01*
X193336579Y-88320106D01*
X193336781Y-88320645D01*
X193341846Y-88391461D01*
X193307821Y-88453773D01*
X193032001Y-88729595D01*
X192969689Y-88763620D01*
X192942905Y-88766500D01*
X192537603Y-88766500D01*
X192464568Y-88781028D01*
X192415215Y-88790845D01*
X192415213Y-88790845D01*
X192415212Y-88790846D01*
X192353322Y-88816482D01*
X192304020Y-88836904D01*
X192299923Y-88838601D01*
X192196171Y-88907926D01*
X192196164Y-88907931D01*
X190982921Y-90121174D01*
X190982916Y-90121181D01*
X190913591Y-90224933D01*
X190881526Y-90302345D01*
X190865835Y-90340225D01*
X190862128Y-90358862D01*
X190841490Y-90462613D01*
X190841490Y-92127264D01*
X190821488Y-92195385D01*
X190804585Y-92216359D01*
X190148595Y-92872349D01*
X190086283Y-92906375D01*
X190015468Y-92901310D01*
X189958632Y-92858763D01*
X189933821Y-92792243D01*
X189933500Y-92783254D01*
X189933500Y-91495607D01*
X189933499Y-91495603D01*
X189909155Y-91373215D01*
X189861400Y-91257925D01*
X189792071Y-91154167D01*
X189703833Y-91065929D01*
X188269833Y-89631929D01*
X188166075Y-89562600D01*
X188050785Y-89514845D01*
X187987152Y-89502187D01*
X187924243Y-89469280D01*
X187889112Y-89407585D01*
X187892912Y-89336690D01*
X187910864Y-89303104D01*
X187990889Y-89196204D01*
X188041989Y-89059201D01*
X188041990Y-89059196D01*
X188046093Y-89021032D01*
X188073262Y-88955439D01*
X188131580Y-88914948D01*
X188171371Y-88908500D01*
X188179629Y-88908500D01*
X188179630Y-88908500D01*
X188335831Y-88877430D01*
X188482968Y-88816483D01*
X188615389Y-88728003D01*
X188728003Y-88615389D01*
X188816483Y-88482968D01*
X188877430Y-88335831D01*
X188908500Y-88179630D01*
X188908500Y-88020370D01*
X188877430Y-87864169D01*
X188816483Y-87717032D01*
X188728003Y-87584611D01*
X188728001Y-87584609D01*
X188727996Y-87584603D01*
X188615396Y-87472003D01*
X188615390Y-87471998D01*
X188615389Y-87471997D01*
X188482968Y-87383517D01*
X188335831Y-87322570D01*
X188257730Y-87307035D01*
X188179632Y-87291500D01*
X188179630Y-87291500D01*
X188174500Y-87291500D01*
X188106379Y-87271498D01*
X188059886Y-87217842D01*
X188048500Y-87165500D01*
X188048500Y-86501367D01*
X188048499Y-86501350D01*
X188041990Y-86440803D01*
X188041988Y-86440795D01*
X188005994Y-86344294D01*
X187990889Y-86303796D01*
X187990888Y-86303794D01*
X187990887Y-86303792D01*
X187970837Y-86277009D01*
X187946026Y-86210489D01*
X187961117Y-86141115D01*
X188011319Y-86090913D01*
X188071705Y-86075500D01*
X193311339Y-86075500D01*
X193324471Y-86079356D01*
G37*
G04 #@! TD.AperFunction*
G04 #@! TA.AperFunction,Conductor*
G36*
X193283423Y-90053502D02*
G01*
X193329916Y-90107158D01*
X193340020Y-90177432D01*
X193333357Y-90203533D01*
X193298011Y-90298295D01*
X193298009Y-90298303D01*
X193291500Y-90358850D01*
X193291500Y-91940500D01*
X193271498Y-92008621D01*
X193217842Y-92055114D01*
X193165500Y-92066500D01*
X192234490Y-92066500D01*
X192166369Y-92046498D01*
X192119876Y-91992842D01*
X192108490Y-91940500D01*
X192108490Y-90839604D01*
X192128492Y-90771483D01*
X192145395Y-90750509D01*
X192825499Y-90070405D01*
X192887811Y-90036379D01*
X192914594Y-90033500D01*
X193215302Y-90033500D01*
X193283423Y-90053502D01*
G37*
G04 #@! TD.AperFunction*
G04 #@! TA.AperFunction,Conductor*
G36*
X198765374Y-86081838D02*
G01*
X198787819Y-86083444D01*
X198798775Y-86091645D01*
X198811908Y-86095502D01*
X198826643Y-86112507D01*
X198844655Y-86125991D01*
X198849437Y-86138813D01*
X198858401Y-86149158D01*
X198861603Y-86171430D01*
X198869466Y-86192511D01*
X198866557Y-86205883D01*
X198868505Y-86219432D01*
X198859157Y-86239898D01*
X198854375Y-86261885D01*
X198841517Y-86279059D01*
X198842139Y-86279525D01*
X198839372Y-86283220D01*
X198839011Y-86284012D01*
X198837832Y-86285277D01*
X198749112Y-86403792D01*
X198749110Y-86403797D01*
X198698011Y-86540795D01*
X198698009Y-86540803D01*
X198691500Y-86601350D01*
X198691500Y-88198649D01*
X198698009Y-88259196D01*
X198698011Y-88259204D01*
X198749110Y-88396202D01*
X198749112Y-88396207D01*
X198836738Y-88513261D01*
X198889743Y-88552939D01*
X198902641Y-88562595D01*
X198907611Y-88566315D01*
X198950158Y-88623150D01*
X198955223Y-88693966D01*
X198936868Y-88737183D01*
X198883518Y-88817028D01*
X198883517Y-88817031D01*
X198822571Y-88964167D01*
X198822570Y-88964170D01*
X198791500Y-89120367D01*
X198791500Y-89279632D01*
X198802850Y-89336690D01*
X198822570Y-89435831D01*
X198883517Y-89582968D01*
X198955359Y-89690488D01*
X198955406Y-89690558D01*
X198976621Y-89758311D01*
X198957838Y-89826778D01*
X198939737Y-89849655D01*
X198302299Y-90487095D01*
X198239986Y-90521120D01*
X198213203Y-90524000D01*
X196621621Y-90524000D01*
X196609917Y-90520563D01*
X196597776Y-90521723D01*
X196576484Y-90510746D01*
X196553500Y-90503998D01*
X196543935Y-90493967D01*
X196534671Y-90489191D01*
X196512502Y-90461000D01*
X196500381Y-90440006D01*
X196483500Y-90377006D01*
X196483500Y-88137992D01*
X196500380Y-88074994D01*
X196510629Y-88057243D01*
X196561927Y-87933399D01*
X196596002Y-87806232D01*
X196613500Y-87673326D01*
X196613500Y-87041674D01*
X196596002Y-86908768D01*
X196561927Y-86781601D01*
X196510629Y-86657757D01*
X196478069Y-86601362D01*
X196444805Y-86543746D01*
X196444800Y-86543739D01*
X196363205Y-86437402D01*
X196363186Y-86437381D01*
X196270118Y-86344313D01*
X196270097Y-86344294D01*
X196214277Y-86301462D01*
X196172410Y-86244124D01*
X196168188Y-86173253D01*
X196202952Y-86111350D01*
X196265665Y-86078069D01*
X196290981Y-86075500D01*
X198743787Y-86075500D01*
X198765374Y-86081838D01*
G37*
G04 #@! TD.AperFunction*
M02*
