M48
; DRILL file {KiCad 9.0.1} date 2025-04-16T16:06:59+0200
; FORMAT={-:-/ absolute / metric / decimal}
; #@! TF.CreationDate,2025-04-16T16:06:59+02:00
; #@! TF.GenerationSoftware,Kicad,Pcbnew,9.0.1
; #@! TF.FileFunction,Plated,1,2,PTH
FMAT,2
METRIC
; #@! TA.AperFunction,Plated,PTH,ViaDrill
T1C0.400
; #@! TA.AperFunction,Plated,PTH,ComponentDrill
T2C0.800
; #@! TA.AperFunction,Plated,PTH,ComponentDrill
T3C1.000
; #@! TA.AperFunction,Plated,PTH,ComponentDrill
T4C1.200
%
G90
G05
T1
X149.2Y-114.6
X149.3Y-97.4
X151.2Y-95.0
X152.5Y-94.9
X154.5Y-93.4
X155.3Y-117.4
X156.15Y-91.7
X156.55Y-102.25
X156.8Y-94.0
X156.9Y-89.5
X158.151Y-94.0
X171.1Y-100.9
X179.7Y-98.9
X179.8Y-103.5
X182.2Y-102.0
X186.9Y-106.1
X190.1Y-116.0
X190.3Y-117.6
X194.6Y-98.0
T2
X184.0Y-95.22
X184.0Y-97.76
X184.0Y-100.3
X184.0Y-102.84
X184.0Y-105.38
X184.0Y-107.92
X184.0Y-110.46
X184.0Y-113.0
X196.7Y-95.22
X196.7Y-97.76
X196.7Y-100.3
X196.7Y-102.84
X196.7Y-105.38
X196.7Y-107.92
X196.7Y-110.46
X196.7Y-113.0
T3
X172.52Y-88.7
X175.06Y-88.7
X177.6Y-88.7
X200.0Y-98.38
X200.0Y-100.92
X200.0Y-103.46
X200.0Y-106.0
X200.0Y-108.54
T4
X192.985Y-88.45
X192.985Y-90.95
M30
