G04 #@! TF.GenerationSoftware,KiCad,Pcbnew,9.0.1*
G04 #@! TF.CreationDate,2025-04-16T16:06:57+02:00*
G04 #@! TF.ProjectId,RulleGardin,52756c6c-6547-4617-9264-696e2e6b6963,rev?*
G04 #@! TF.SameCoordinates,Original*
G04 #@! TF.FileFunction,Legend,Top*
G04 #@! TF.FilePolarity,Positive*
%FSLAX46Y46*%
G04 Gerber Fmt 4.6, Leading zero omitted, Abs format (unit mm)*
G04 Created by KiCad (PCBNEW 9.0.1) date 2025-04-16 16:06:57*
%MOMM*%
%LPD*%
G01*
G04 APERTURE LIST*
%ADD10C,0.150000*%
%ADD11C,0.120000*%
G04 APERTURE END LIST*
D10*
X200133333Y-113659580D02*
X200085714Y-113707200D01*
X200085714Y-113707200D02*
X199942857Y-113754819D01*
X199942857Y-113754819D02*
X199847619Y-113754819D01*
X199847619Y-113754819D02*
X199704762Y-113707200D01*
X199704762Y-113707200D02*
X199609524Y-113611961D01*
X199609524Y-113611961D02*
X199561905Y-113516723D01*
X199561905Y-113516723D02*
X199514286Y-113326247D01*
X199514286Y-113326247D02*
X199514286Y-113183390D01*
X199514286Y-113183390D02*
X199561905Y-112992914D01*
X199561905Y-112992914D02*
X199609524Y-112897676D01*
X199609524Y-112897676D02*
X199704762Y-112802438D01*
X199704762Y-112802438D02*
X199847619Y-112754819D01*
X199847619Y-112754819D02*
X199942857Y-112754819D01*
X199942857Y-112754819D02*
X200085714Y-112802438D01*
X200085714Y-112802438D02*
X200133333Y-112850057D01*
X201085714Y-113754819D02*
X200514286Y-113754819D01*
X200800000Y-113754819D02*
X200800000Y-112754819D01*
X200800000Y-112754819D02*
X200704762Y-112897676D01*
X200704762Y-112897676D02*
X200609524Y-112992914D01*
X200609524Y-112992914D02*
X200514286Y-113040533D01*
X171508333Y-97089580D02*
X171460714Y-97137200D01*
X171460714Y-97137200D02*
X171317857Y-97184819D01*
X171317857Y-97184819D02*
X171222619Y-97184819D01*
X171222619Y-97184819D02*
X171079762Y-97137200D01*
X171079762Y-97137200D02*
X170984524Y-97041961D01*
X170984524Y-97041961D02*
X170936905Y-96946723D01*
X170936905Y-96946723D02*
X170889286Y-96756247D01*
X170889286Y-96756247D02*
X170889286Y-96613390D01*
X170889286Y-96613390D02*
X170936905Y-96422914D01*
X170936905Y-96422914D02*
X170984524Y-96327676D01*
X170984524Y-96327676D02*
X171079762Y-96232438D01*
X171079762Y-96232438D02*
X171222619Y-96184819D01*
X171222619Y-96184819D02*
X171317857Y-96184819D01*
X171317857Y-96184819D02*
X171460714Y-96232438D01*
X171460714Y-96232438D02*
X171508333Y-96280057D01*
X171889286Y-96280057D02*
X171936905Y-96232438D01*
X171936905Y-96232438D02*
X172032143Y-96184819D01*
X172032143Y-96184819D02*
X172270238Y-96184819D01*
X172270238Y-96184819D02*
X172365476Y-96232438D01*
X172365476Y-96232438D02*
X172413095Y-96280057D01*
X172413095Y-96280057D02*
X172460714Y-96375295D01*
X172460714Y-96375295D02*
X172460714Y-96470533D01*
X172460714Y-96470533D02*
X172413095Y-96613390D01*
X172413095Y-96613390D02*
X171841667Y-97184819D01*
X171841667Y-97184819D02*
X172460714Y-97184819D01*
X196389580Y-96541666D02*
X196437200Y-96589285D01*
X196437200Y-96589285D02*
X196484819Y-96732142D01*
X196484819Y-96732142D02*
X196484819Y-96827380D01*
X196484819Y-96827380D02*
X196437200Y-96970237D01*
X196437200Y-96970237D02*
X196341961Y-97065475D01*
X196341961Y-97065475D02*
X196246723Y-97113094D01*
X196246723Y-97113094D02*
X196056247Y-97160713D01*
X196056247Y-97160713D02*
X195913390Y-97160713D01*
X195913390Y-97160713D02*
X195722914Y-97113094D01*
X195722914Y-97113094D02*
X195627676Y-97065475D01*
X195627676Y-97065475D02*
X195532438Y-96970237D01*
X195532438Y-96970237D02*
X195484819Y-96827380D01*
X195484819Y-96827380D02*
X195484819Y-96732142D01*
X195484819Y-96732142D02*
X195532438Y-96589285D01*
X195532438Y-96589285D02*
X195580057Y-96541666D01*
X195484819Y-96208332D02*
X195484819Y-95589285D01*
X195484819Y-95589285D02*
X195865771Y-95922618D01*
X195865771Y-95922618D02*
X195865771Y-95779761D01*
X195865771Y-95779761D02*
X195913390Y-95684523D01*
X195913390Y-95684523D02*
X195961009Y-95636904D01*
X195961009Y-95636904D02*
X196056247Y-95589285D01*
X196056247Y-95589285D02*
X196294342Y-95589285D01*
X196294342Y-95589285D02*
X196389580Y-95636904D01*
X196389580Y-95636904D02*
X196437200Y-95684523D01*
X196437200Y-95684523D02*
X196484819Y-95779761D01*
X196484819Y-95779761D02*
X196484819Y-96065475D01*
X196484819Y-96065475D02*
X196437200Y-96160713D01*
X196437200Y-96160713D02*
X196389580Y-96208332D01*
X188470833Y-114929580D02*
X188423214Y-114977200D01*
X188423214Y-114977200D02*
X188280357Y-115024819D01*
X188280357Y-115024819D02*
X188185119Y-115024819D01*
X188185119Y-115024819D02*
X188042262Y-114977200D01*
X188042262Y-114977200D02*
X187947024Y-114881961D01*
X187947024Y-114881961D02*
X187899405Y-114786723D01*
X187899405Y-114786723D02*
X187851786Y-114596247D01*
X187851786Y-114596247D02*
X187851786Y-114453390D01*
X187851786Y-114453390D02*
X187899405Y-114262914D01*
X187899405Y-114262914D02*
X187947024Y-114167676D01*
X187947024Y-114167676D02*
X188042262Y-114072438D01*
X188042262Y-114072438D02*
X188185119Y-114024819D01*
X188185119Y-114024819D02*
X188280357Y-114024819D01*
X188280357Y-114024819D02*
X188423214Y-114072438D01*
X188423214Y-114072438D02*
X188470833Y-114120057D01*
X189327976Y-114358152D02*
X189327976Y-115024819D01*
X189089881Y-113977200D02*
X188851786Y-114691485D01*
X188851786Y-114691485D02*
X189470833Y-114691485D01*
X199666666Y-95504819D02*
X199666666Y-96219104D01*
X199666666Y-96219104D02*
X199619047Y-96361961D01*
X199619047Y-96361961D02*
X199523809Y-96457200D01*
X199523809Y-96457200D02*
X199380952Y-96504819D01*
X199380952Y-96504819D02*
X199285714Y-96504819D01*
X200047619Y-95504819D02*
X200666666Y-95504819D01*
X200666666Y-95504819D02*
X200333333Y-95885771D01*
X200333333Y-95885771D02*
X200476190Y-95885771D01*
X200476190Y-95885771D02*
X200571428Y-95933390D01*
X200571428Y-95933390D02*
X200619047Y-95981009D01*
X200619047Y-95981009D02*
X200666666Y-96076247D01*
X200666666Y-96076247D02*
X200666666Y-96314342D01*
X200666666Y-96314342D02*
X200619047Y-96409580D01*
X200619047Y-96409580D02*
X200571428Y-96457200D01*
X200571428Y-96457200D02*
X200476190Y-96504819D01*
X200476190Y-96504819D02*
X200190476Y-96504819D01*
X200190476Y-96504819D02*
X200095238Y-96457200D01*
X200095238Y-96457200D02*
X200047619Y-96409580D01*
X155158333Y-92784819D02*
X154825000Y-92308628D01*
X154586905Y-92784819D02*
X154586905Y-91784819D01*
X154586905Y-91784819D02*
X154967857Y-91784819D01*
X154967857Y-91784819D02*
X155063095Y-91832438D01*
X155063095Y-91832438D02*
X155110714Y-91880057D01*
X155110714Y-91880057D02*
X155158333Y-91975295D01*
X155158333Y-91975295D02*
X155158333Y-92118152D01*
X155158333Y-92118152D02*
X155110714Y-92213390D01*
X155110714Y-92213390D02*
X155063095Y-92261009D01*
X155063095Y-92261009D02*
X154967857Y-92308628D01*
X154967857Y-92308628D02*
X154586905Y-92308628D01*
X156110714Y-92784819D02*
X155539286Y-92784819D01*
X155825000Y-92784819D02*
X155825000Y-91784819D01*
X155825000Y-91784819D02*
X155729762Y-91927676D01*
X155729762Y-91927676D02*
X155634524Y-92022914D01*
X155634524Y-92022914D02*
X155539286Y-92070533D01*
X155158333Y-94284819D02*
X154825000Y-93808628D01*
X154586905Y-94284819D02*
X154586905Y-93284819D01*
X154586905Y-93284819D02*
X154967857Y-93284819D01*
X154967857Y-93284819D02*
X155063095Y-93332438D01*
X155063095Y-93332438D02*
X155110714Y-93380057D01*
X155110714Y-93380057D02*
X155158333Y-93475295D01*
X155158333Y-93475295D02*
X155158333Y-93618152D01*
X155158333Y-93618152D02*
X155110714Y-93713390D01*
X155110714Y-93713390D02*
X155063095Y-93761009D01*
X155063095Y-93761009D02*
X154967857Y-93808628D01*
X154967857Y-93808628D02*
X154586905Y-93808628D01*
X155539286Y-93380057D02*
X155586905Y-93332438D01*
X155586905Y-93332438D02*
X155682143Y-93284819D01*
X155682143Y-93284819D02*
X155920238Y-93284819D01*
X155920238Y-93284819D02*
X156015476Y-93332438D01*
X156015476Y-93332438D02*
X156063095Y-93380057D01*
X156063095Y-93380057D02*
X156110714Y-93475295D01*
X156110714Y-93475295D02*
X156110714Y-93570533D01*
X156110714Y-93570533D02*
X156063095Y-93713390D01*
X156063095Y-93713390D02*
X155491667Y-94284819D01*
X155491667Y-94284819D02*
X156110714Y-94284819D01*
X153699819Y-91683333D02*
X154414104Y-91683333D01*
X154414104Y-91683333D02*
X154556961Y-91730952D01*
X154556961Y-91730952D02*
X154652200Y-91826190D01*
X154652200Y-91826190D02*
X154699819Y-91969047D01*
X154699819Y-91969047D02*
X154699819Y-92064285D01*
X153795057Y-91254761D02*
X153747438Y-91207142D01*
X153747438Y-91207142D02*
X153699819Y-91111904D01*
X153699819Y-91111904D02*
X153699819Y-90873809D01*
X153699819Y-90873809D02*
X153747438Y-90778571D01*
X153747438Y-90778571D02*
X153795057Y-90730952D01*
X153795057Y-90730952D02*
X153890295Y-90683333D01*
X153890295Y-90683333D02*
X153985533Y-90683333D01*
X153985533Y-90683333D02*
X154128390Y-90730952D01*
X154128390Y-90730952D02*
X154699819Y-91302380D01*
X154699819Y-91302380D02*
X154699819Y-90683333D01*
X190239819Y-90033333D02*
X190954104Y-90033333D01*
X190954104Y-90033333D02*
X191096961Y-90080952D01*
X191096961Y-90080952D02*
X191192200Y-90176190D01*
X191192200Y-90176190D02*
X191239819Y-90319047D01*
X191239819Y-90319047D02*
X191239819Y-90414285D01*
X191239819Y-89033333D02*
X191239819Y-89604761D01*
X191239819Y-89319047D02*
X190239819Y-89319047D01*
X190239819Y-89319047D02*
X190382676Y-89414285D01*
X190382676Y-89414285D02*
X190477914Y-89509523D01*
X190477914Y-89509523D02*
X190525533Y-89604761D01*
X189635714Y-115709104D02*
X190111904Y-115709104D01*
X189540476Y-115994819D02*
X189873809Y-114994819D01*
X189873809Y-114994819D02*
X190207142Y-115994819D01*
X191064285Y-115994819D02*
X190492857Y-115994819D01*
X190778571Y-115994819D02*
X190778571Y-114994819D01*
X190778571Y-114994819D02*
X190683333Y-115137676D01*
X190683333Y-115137676D02*
X190588095Y-115232914D01*
X190588095Y-115232914D02*
X190492857Y-115280533D01*
X189938095Y-98899819D02*
X189938095Y-99709342D01*
X189938095Y-99709342D02*
X189985714Y-99804580D01*
X189985714Y-99804580D02*
X190033333Y-99852200D01*
X190033333Y-99852200D02*
X190128571Y-99899819D01*
X190128571Y-99899819D02*
X190319047Y-99899819D01*
X190319047Y-99899819D02*
X190414285Y-99852200D01*
X190414285Y-99852200D02*
X190461904Y-99804580D01*
X190461904Y-99804580D02*
X190509523Y-99709342D01*
X190509523Y-99709342D02*
X190509523Y-98899819D01*
X190890476Y-98899819D02*
X191509523Y-98899819D01*
X191509523Y-98899819D02*
X191176190Y-99280771D01*
X191176190Y-99280771D02*
X191319047Y-99280771D01*
X191319047Y-99280771D02*
X191414285Y-99328390D01*
X191414285Y-99328390D02*
X191461904Y-99376009D01*
X191461904Y-99376009D02*
X191509523Y-99471247D01*
X191509523Y-99471247D02*
X191509523Y-99709342D01*
X191509523Y-99709342D02*
X191461904Y-99804580D01*
X191461904Y-99804580D02*
X191414285Y-99852200D01*
X191414285Y-99852200D02*
X191319047Y-99899819D01*
X191319047Y-99899819D02*
X191033333Y-99899819D01*
X191033333Y-99899819D02*
X190938095Y-99852200D01*
X190938095Y-99852200D02*
X190890476Y-99804580D01*
X178338095Y-94864819D02*
X178338095Y-95674342D01*
X178338095Y-95674342D02*
X178385714Y-95769580D01*
X178385714Y-95769580D02*
X178433333Y-95817200D01*
X178433333Y-95817200D02*
X178528571Y-95864819D01*
X178528571Y-95864819D02*
X178719047Y-95864819D01*
X178719047Y-95864819D02*
X178814285Y-95817200D01*
X178814285Y-95817200D02*
X178861904Y-95769580D01*
X178861904Y-95769580D02*
X178909523Y-95674342D01*
X178909523Y-95674342D02*
X178909523Y-94864819D01*
X179338095Y-94960057D02*
X179385714Y-94912438D01*
X179385714Y-94912438D02*
X179480952Y-94864819D01*
X179480952Y-94864819D02*
X179719047Y-94864819D01*
X179719047Y-94864819D02*
X179814285Y-94912438D01*
X179814285Y-94912438D02*
X179861904Y-94960057D01*
X179861904Y-94960057D02*
X179909523Y-95055295D01*
X179909523Y-95055295D02*
X179909523Y-95150533D01*
X179909523Y-95150533D02*
X179861904Y-95293390D01*
X179861904Y-95293390D02*
X179290476Y-95864819D01*
X179290476Y-95864819D02*
X179909523Y-95864819D01*
X170643095Y-117039819D02*
X170643095Y-117849342D01*
X170643095Y-117849342D02*
X170690714Y-117944580D01*
X170690714Y-117944580D02*
X170738333Y-117992200D01*
X170738333Y-117992200D02*
X170833571Y-118039819D01*
X170833571Y-118039819D02*
X171024047Y-118039819D01*
X171024047Y-118039819D02*
X171119285Y-117992200D01*
X171119285Y-117992200D02*
X171166904Y-117944580D01*
X171166904Y-117944580D02*
X171214523Y-117849342D01*
X171214523Y-117849342D02*
X171214523Y-117039819D01*
X172214523Y-118039819D02*
X171643095Y-118039819D01*
X171928809Y-118039819D02*
X171928809Y-117039819D01*
X171928809Y-117039819D02*
X171833571Y-117182676D01*
X171833571Y-117182676D02*
X171738333Y-117277914D01*
X171738333Y-117277914D02*
X171643095Y-117325533D01*
X176312319Y-103033333D02*
X177026604Y-103033333D01*
X177026604Y-103033333D02*
X177169461Y-103080952D01*
X177169461Y-103080952D02*
X177264700Y-103176190D01*
X177264700Y-103176190D02*
X177312319Y-103319047D01*
X177312319Y-103319047D02*
X177312319Y-103414285D01*
X177312319Y-102557142D02*
X176312319Y-102557142D01*
X176312319Y-102557142D02*
X176312319Y-102176190D01*
X176312319Y-102176190D02*
X176359938Y-102080952D01*
X176359938Y-102080952D02*
X176407557Y-102033333D01*
X176407557Y-102033333D02*
X176502795Y-101985714D01*
X176502795Y-101985714D02*
X176645652Y-101985714D01*
X176645652Y-101985714D02*
X176740890Y-102033333D01*
X176740890Y-102033333D02*
X176788509Y-102080952D01*
X176788509Y-102080952D02*
X176836128Y-102176190D01*
X176836128Y-102176190D02*
X176836128Y-102557142D01*
X177312319Y-101033333D02*
X177312319Y-101604761D01*
X177312319Y-101319047D02*
X176312319Y-101319047D01*
X176312319Y-101319047D02*
X176455176Y-101414285D01*
X176455176Y-101414285D02*
X176550414Y-101509523D01*
X176550414Y-101509523D02*
X176598033Y-101604761D01*
X155208333Y-91189580D02*
X155160714Y-91237200D01*
X155160714Y-91237200D02*
X155017857Y-91284819D01*
X155017857Y-91284819D02*
X154922619Y-91284819D01*
X154922619Y-91284819D02*
X154779762Y-91237200D01*
X154779762Y-91237200D02*
X154684524Y-91141961D01*
X154684524Y-91141961D02*
X154636905Y-91046723D01*
X154636905Y-91046723D02*
X154589286Y-90856247D01*
X154589286Y-90856247D02*
X154589286Y-90713390D01*
X154589286Y-90713390D02*
X154636905Y-90522914D01*
X154636905Y-90522914D02*
X154684524Y-90427676D01*
X154684524Y-90427676D02*
X154779762Y-90332438D01*
X154779762Y-90332438D02*
X154922619Y-90284819D01*
X154922619Y-90284819D02*
X155017857Y-90284819D01*
X155017857Y-90284819D02*
X155160714Y-90332438D01*
X155160714Y-90332438D02*
X155208333Y-90380057D01*
X156113095Y-90284819D02*
X155636905Y-90284819D01*
X155636905Y-90284819D02*
X155589286Y-90761009D01*
X155589286Y-90761009D02*
X155636905Y-90713390D01*
X155636905Y-90713390D02*
X155732143Y-90665771D01*
X155732143Y-90665771D02*
X155970238Y-90665771D01*
X155970238Y-90665771D02*
X156065476Y-90713390D01*
X156065476Y-90713390D02*
X156113095Y-90761009D01*
X156113095Y-90761009D02*
X156160714Y-90856247D01*
X156160714Y-90856247D02*
X156160714Y-91094342D01*
X156160714Y-91094342D02*
X156113095Y-91189580D01*
X156113095Y-91189580D02*
X156065476Y-91237200D01*
X156065476Y-91237200D02*
X155970238Y-91284819D01*
X155970238Y-91284819D02*
X155732143Y-91284819D01*
X155732143Y-91284819D02*
X155636905Y-91237200D01*
X155636905Y-91237200D02*
X155589286Y-91189580D01*
X149758333Y-116529580D02*
X149710714Y-116577200D01*
X149710714Y-116577200D02*
X149567857Y-116624819D01*
X149567857Y-116624819D02*
X149472619Y-116624819D01*
X149472619Y-116624819D02*
X149329762Y-116577200D01*
X149329762Y-116577200D02*
X149234524Y-116481961D01*
X149234524Y-116481961D02*
X149186905Y-116386723D01*
X149186905Y-116386723D02*
X149139286Y-116196247D01*
X149139286Y-116196247D02*
X149139286Y-116053390D01*
X149139286Y-116053390D02*
X149186905Y-115862914D01*
X149186905Y-115862914D02*
X149234524Y-115767676D01*
X149234524Y-115767676D02*
X149329762Y-115672438D01*
X149329762Y-115672438D02*
X149472619Y-115624819D01*
X149472619Y-115624819D02*
X149567857Y-115624819D01*
X149567857Y-115624819D02*
X149710714Y-115672438D01*
X149710714Y-115672438D02*
X149758333Y-115720057D01*
X150091667Y-115624819D02*
X150758333Y-115624819D01*
X150758333Y-115624819D02*
X150329762Y-116624819D01*
X188508333Y-119389580D02*
X188460714Y-119437200D01*
X188460714Y-119437200D02*
X188317857Y-119484819D01*
X188317857Y-119484819D02*
X188222619Y-119484819D01*
X188222619Y-119484819D02*
X188079762Y-119437200D01*
X188079762Y-119437200D02*
X187984524Y-119341961D01*
X187984524Y-119341961D02*
X187936905Y-119246723D01*
X187936905Y-119246723D02*
X187889286Y-119056247D01*
X187889286Y-119056247D02*
X187889286Y-118913390D01*
X187889286Y-118913390D02*
X187936905Y-118722914D01*
X187936905Y-118722914D02*
X187984524Y-118627676D01*
X187984524Y-118627676D02*
X188079762Y-118532438D01*
X188079762Y-118532438D02*
X188222619Y-118484819D01*
X188222619Y-118484819D02*
X188317857Y-118484819D01*
X188317857Y-118484819D02*
X188460714Y-118532438D01*
X188460714Y-118532438D02*
X188508333Y-118580057D01*
X189365476Y-118484819D02*
X189175000Y-118484819D01*
X189175000Y-118484819D02*
X189079762Y-118532438D01*
X189079762Y-118532438D02*
X189032143Y-118580057D01*
X189032143Y-118580057D02*
X188936905Y-118722914D01*
X188936905Y-118722914D02*
X188889286Y-118913390D01*
X188889286Y-118913390D02*
X188889286Y-119294342D01*
X188889286Y-119294342D02*
X188936905Y-119389580D01*
X188936905Y-119389580D02*
X188984524Y-119437200D01*
X188984524Y-119437200D02*
X189079762Y-119484819D01*
X189079762Y-119484819D02*
X189270238Y-119484819D01*
X189270238Y-119484819D02*
X189365476Y-119437200D01*
X189365476Y-119437200D02*
X189413095Y-119389580D01*
X189413095Y-119389580D02*
X189460714Y-119294342D01*
X189460714Y-119294342D02*
X189460714Y-119056247D01*
X189460714Y-119056247D02*
X189413095Y-118961009D01*
X189413095Y-118961009D02*
X189365476Y-118913390D01*
X189365476Y-118913390D02*
X189270238Y-118865771D01*
X189270238Y-118865771D02*
X189079762Y-118865771D01*
X189079762Y-118865771D02*
X188984524Y-118913390D01*
X188984524Y-118913390D02*
X188936905Y-118961009D01*
X188936905Y-118961009D02*
X188889286Y-119056247D01*
X185933333Y-94609580D02*
X185885714Y-94657200D01*
X185885714Y-94657200D02*
X185742857Y-94704819D01*
X185742857Y-94704819D02*
X185647619Y-94704819D01*
X185647619Y-94704819D02*
X185504762Y-94657200D01*
X185504762Y-94657200D02*
X185409524Y-94561961D01*
X185409524Y-94561961D02*
X185361905Y-94466723D01*
X185361905Y-94466723D02*
X185314286Y-94276247D01*
X185314286Y-94276247D02*
X185314286Y-94133390D01*
X185314286Y-94133390D02*
X185361905Y-93942914D01*
X185361905Y-93942914D02*
X185409524Y-93847676D01*
X185409524Y-93847676D02*
X185504762Y-93752438D01*
X185504762Y-93752438D02*
X185647619Y-93704819D01*
X185647619Y-93704819D02*
X185742857Y-93704819D01*
X185742857Y-93704819D02*
X185885714Y-93752438D01*
X185885714Y-93752438D02*
X185933333Y-93800057D01*
X186504762Y-94133390D02*
X186409524Y-94085771D01*
X186409524Y-94085771D02*
X186361905Y-94038152D01*
X186361905Y-94038152D02*
X186314286Y-93942914D01*
X186314286Y-93942914D02*
X186314286Y-93895295D01*
X186314286Y-93895295D02*
X186361905Y-93800057D01*
X186361905Y-93800057D02*
X186409524Y-93752438D01*
X186409524Y-93752438D02*
X186504762Y-93704819D01*
X186504762Y-93704819D02*
X186695238Y-93704819D01*
X186695238Y-93704819D02*
X186790476Y-93752438D01*
X186790476Y-93752438D02*
X186838095Y-93800057D01*
X186838095Y-93800057D02*
X186885714Y-93895295D01*
X186885714Y-93895295D02*
X186885714Y-93942914D01*
X186885714Y-93942914D02*
X186838095Y-94038152D01*
X186838095Y-94038152D02*
X186790476Y-94085771D01*
X186790476Y-94085771D02*
X186695238Y-94133390D01*
X186695238Y-94133390D02*
X186504762Y-94133390D01*
X186504762Y-94133390D02*
X186409524Y-94181009D01*
X186409524Y-94181009D02*
X186361905Y-94228628D01*
X186361905Y-94228628D02*
X186314286Y-94323866D01*
X186314286Y-94323866D02*
X186314286Y-94514342D01*
X186314286Y-94514342D02*
X186361905Y-94609580D01*
X186361905Y-94609580D02*
X186409524Y-94657200D01*
X186409524Y-94657200D02*
X186504762Y-94704819D01*
X186504762Y-94704819D02*
X186695238Y-94704819D01*
X186695238Y-94704819D02*
X186790476Y-94657200D01*
X186790476Y-94657200D02*
X186838095Y-94609580D01*
X186838095Y-94609580D02*
X186885714Y-94514342D01*
X186885714Y-94514342D02*
X186885714Y-94323866D01*
X186885714Y-94323866D02*
X186838095Y-94228628D01*
X186838095Y-94228628D02*
X186790476Y-94181009D01*
X186790476Y-94181009D02*
X186695238Y-94133390D01*
X178812319Y-101533333D02*
X179526604Y-101533333D01*
X179526604Y-101533333D02*
X179669461Y-101580952D01*
X179669461Y-101580952D02*
X179764700Y-101676190D01*
X179764700Y-101676190D02*
X179812319Y-101819047D01*
X179812319Y-101819047D02*
X179812319Y-101914285D01*
X179812319Y-101057142D02*
X178812319Y-101057142D01*
X178812319Y-101057142D02*
X178812319Y-100676190D01*
X178812319Y-100676190D02*
X178859938Y-100580952D01*
X178859938Y-100580952D02*
X178907557Y-100533333D01*
X178907557Y-100533333D02*
X179002795Y-100485714D01*
X179002795Y-100485714D02*
X179145652Y-100485714D01*
X179145652Y-100485714D02*
X179240890Y-100533333D01*
X179240890Y-100533333D02*
X179288509Y-100580952D01*
X179288509Y-100580952D02*
X179336128Y-100676190D01*
X179336128Y-100676190D02*
X179336128Y-101057142D01*
X178907557Y-100104761D02*
X178859938Y-100057142D01*
X178859938Y-100057142D02*
X178812319Y-99961904D01*
X178812319Y-99961904D02*
X178812319Y-99723809D01*
X178812319Y-99723809D02*
X178859938Y-99628571D01*
X178859938Y-99628571D02*
X178907557Y-99580952D01*
X178907557Y-99580952D02*
X179002795Y-99533333D01*
X179002795Y-99533333D02*
X179098033Y-99533333D01*
X179098033Y-99533333D02*
X179240890Y-99580952D01*
X179240890Y-99580952D02*
X179812319Y-100152380D01*
X179812319Y-100152380D02*
X179812319Y-99533333D01*
X176254819Y-98433333D02*
X176969104Y-98433333D01*
X176969104Y-98433333D02*
X177111961Y-98480952D01*
X177111961Y-98480952D02*
X177207200Y-98576190D01*
X177207200Y-98576190D02*
X177254819Y-98719047D01*
X177254819Y-98719047D02*
X177254819Y-98814285D01*
X177254819Y-97957142D02*
X176254819Y-97957142D01*
X176254819Y-97957142D02*
X176254819Y-97576190D01*
X176254819Y-97576190D02*
X176302438Y-97480952D01*
X176302438Y-97480952D02*
X176350057Y-97433333D01*
X176350057Y-97433333D02*
X176445295Y-97385714D01*
X176445295Y-97385714D02*
X176588152Y-97385714D01*
X176588152Y-97385714D02*
X176683390Y-97433333D01*
X176683390Y-97433333D02*
X176731009Y-97480952D01*
X176731009Y-97480952D02*
X176778628Y-97576190D01*
X176778628Y-97576190D02*
X176778628Y-97957142D01*
X176254819Y-97052380D02*
X176254819Y-96433333D01*
X176254819Y-96433333D02*
X176635771Y-96766666D01*
X176635771Y-96766666D02*
X176635771Y-96623809D01*
X176635771Y-96623809D02*
X176683390Y-96528571D01*
X176683390Y-96528571D02*
X176731009Y-96480952D01*
X176731009Y-96480952D02*
X176826247Y-96433333D01*
X176826247Y-96433333D02*
X177064342Y-96433333D01*
X177064342Y-96433333D02*
X177159580Y-96480952D01*
X177159580Y-96480952D02*
X177207200Y-96528571D01*
X177207200Y-96528571D02*
X177254819Y-96623809D01*
X177254819Y-96623809D02*
X177254819Y-96909523D01*
X177254819Y-96909523D02*
X177207200Y-97004761D01*
X177207200Y-97004761D02*
X177159580Y-97052380D01*
D11*
X197300000Y-114940000D02*
X197800000Y-114940000D01*
X197550000Y-114690000D02*
X197550000Y-115190000D01*
X198040000Y-115304437D02*
X198040000Y-115440000D01*
X198040000Y-115304437D02*
X199104437Y-114240000D01*
X198040000Y-117695563D02*
X198040000Y-117560000D01*
X198040000Y-117695563D02*
X199104437Y-118760000D01*
X199104437Y-114240000D02*
X202560000Y-114240000D01*
X199104437Y-118760000D02*
X202560000Y-118760000D01*
X202560000Y-114240000D02*
X202560000Y-115440000D01*
X202560000Y-118760000D02*
X202560000Y-117560000D01*
X171815580Y-95810000D02*
X171534420Y-95810000D01*
X171815580Y-94790000D02*
X171534420Y-94790000D01*
X195110000Y-96234420D02*
X195110000Y-96515580D01*
X194090000Y-96234420D02*
X194090000Y-96515580D01*
X188496920Y-115490000D02*
X188778080Y-115490000D01*
X188496920Y-116510000D02*
X188778080Y-116510000D01*
X198670000Y-97050000D02*
X200000000Y-97050000D01*
X198670000Y-98380000D02*
X198670000Y-97050000D01*
X198670000Y-99650000D02*
X198670000Y-109870000D01*
X198670000Y-99650000D02*
X201330000Y-99650000D01*
X198670000Y-109870000D02*
X201330000Y-109870000D01*
X201330000Y-99650000D02*
X201330000Y-109870000D01*
X155562258Y-90377500D02*
X155087742Y-90377500D01*
X155562258Y-91422500D02*
X155087742Y-91422500D01*
X155562258Y-91877500D02*
X155087742Y-91877500D01*
X155562258Y-92922500D02*
X155087742Y-92922500D01*
X153245000Y-93165000D02*
X153180000Y-93165000D01*
X153245000Y-89535000D02*
X153245000Y-93165000D01*
X153245000Y-89535000D02*
X153180000Y-89535000D01*
X153180000Y-88260000D02*
X153180000Y-89535000D01*
X149280000Y-93165000D02*
X149215000Y-93165000D01*
X149280000Y-89535000D02*
X149215000Y-89535000D01*
X149215000Y-89535000D02*
X149215000Y-93165000D01*
X203515000Y-92820000D02*
X203515000Y-86580000D01*
X203515000Y-86580000D02*
X194755000Y-86580000D01*
X194755000Y-92820000D02*
X203515000Y-92820000D01*
X194755000Y-91100000D02*
X194755000Y-90800000D01*
X194755000Y-90800000D02*
X194285000Y-90800000D01*
X194755000Y-88600000D02*
X194755000Y-88300000D01*
X194755000Y-88300000D02*
X194285000Y-88300000D01*
X194755000Y-86580000D02*
X194755000Y-92820000D01*
X194285000Y-91100000D02*
X194755000Y-91100000D01*
X194285000Y-90800000D02*
X194285000Y-91100000D01*
X194285000Y-88600000D02*
X194755000Y-88600000D01*
X194285000Y-88300000D02*
X194285000Y-88600000D01*
X193285000Y-86450000D02*
X192985000Y-87050000D01*
X192985000Y-87050000D02*
X192685000Y-86450000D01*
X192685000Y-86450000D02*
X193285000Y-86450000D01*
X182600000Y-93820000D02*
X182600000Y-114400000D01*
X182600000Y-114400000D02*
X195430000Y-114400000D01*
X185270000Y-114400000D02*
X185270000Y-93820000D01*
X195430000Y-111730000D02*
X195430000Y-93820000D01*
X195430000Y-111730000D02*
X198100000Y-111730000D01*
X195430000Y-114400000D02*
X195430000Y-111730000D01*
X196700000Y-114400000D02*
X198100000Y-114400000D01*
X198100000Y-93820000D02*
X182600000Y-93820000D01*
X198100000Y-111730000D02*
X198100000Y-93820000D01*
X198100000Y-114400000D02*
X198100000Y-113000000D01*
D10*
X188625000Y-100370000D02*
X188625000Y-100395000D01*
X188625000Y-100370000D02*
X192775000Y-100370000D01*
X188625000Y-100395000D02*
X187250000Y-100395000D01*
X188625000Y-110520000D02*
X188625000Y-110415000D01*
X188625000Y-110520000D02*
X192775000Y-110520000D01*
X192775000Y-100370000D02*
X192775000Y-100475000D01*
X192775000Y-110520000D02*
X192775000Y-110415000D01*
D11*
X181350000Y-86250000D02*
X179020000Y-86250000D01*
X181020000Y-86580000D02*
X181020000Y-94430000D01*
X169080000Y-86580000D02*
X181020000Y-86580000D01*
X181350000Y-88700000D02*
X181350000Y-86250000D01*
X181020000Y-94430000D02*
X169080000Y-94430000D01*
X169080000Y-94430000D02*
X169080000Y-86580000D01*
X147845000Y-98045000D02*
X141425000Y-98045000D01*
X172675000Y-98055000D02*
X172675000Y-99715000D01*
X172415000Y-98055000D02*
X172675000Y-98055000D01*
X172675000Y-116295000D02*
X172675000Y-114635000D01*
X172315000Y-116295000D02*
X172675000Y-116295000D01*
X147675000Y-116300000D02*
X141425000Y-116300000D01*
X141425000Y-116300000D02*
X141425000Y-98045000D01*
X148400000Y-116800000D02*
X147900000Y-116300000D01*
X148400000Y-116300000D01*
X148400000Y-116800000D01*
G36*
X148400000Y-116800000D02*
G01*
X147900000Y-116300000D01*
X148400000Y-116300000D01*
X148400000Y-116800000D01*
G37*
X178957500Y-104250000D02*
X178357500Y-104250000D01*
X180157500Y-103700000D02*
X180157500Y-103100000D01*
X177657500Y-103600000D02*
X177657500Y-100800000D01*
X179857500Y-103400000D02*
X180157500Y-103700000D01*
X179857500Y-103400000D02*
X180157500Y-103100000D01*
X179657500Y-100800000D02*
X179657500Y-103600000D01*
X178357500Y-100150000D02*
X178957500Y-100150000D01*
X178357500Y-104250000D02*
G75*
G02*
X177657500Y-103550000I-1J699999D01*
G01*
X179657500Y-103550000D02*
G75*
G02*
X178957500Y-104250000I-699999J-1D01*
G01*
X177657500Y-100850000D02*
G75*
G02*
X178357500Y-100150000I700000J0D01*
G01*
X178957500Y-100150000D02*
G75*
G02*
X179657500Y-100850000I0J-700000D01*
G01*
X155515580Y-89910000D02*
X155234420Y-89910000D01*
X155515580Y-88890000D02*
X155234420Y-88890000D01*
X149784420Y-118110000D02*
X150065580Y-118110000D01*
X149784420Y-117090000D02*
X150065580Y-117090000D01*
X188815580Y-117090000D02*
X188534420Y-117090000D01*
X188815580Y-118110000D02*
X188534420Y-118110000D01*
X190537500Y-91747500D02*
X189750000Y-91747500D01*
X190143750Y-92141250D02*
X190143750Y-91353750D01*
X189510000Y-92245563D02*
X189510000Y-90960000D01*
X189510000Y-92245563D02*
X188445563Y-93310000D01*
X189510000Y-87554437D02*
X189510000Y-88840000D01*
X189510000Y-87554437D02*
X188445563Y-86490000D01*
X188445563Y-93310000D02*
X182690000Y-93310000D01*
X188445563Y-86490000D02*
X182690000Y-86490000D01*
X182690000Y-93310000D02*
X182690000Y-90960000D01*
X182690000Y-86490000D02*
X182690000Y-88840000D01*
X181457500Y-102750000D02*
X180857500Y-102750000D01*
X182657500Y-102200000D02*
X182657500Y-101600000D01*
X180157500Y-102100000D02*
X180157500Y-99300000D01*
X182357500Y-101900000D02*
X182657500Y-102200000D01*
X182357500Y-101900000D02*
X182657500Y-101600000D01*
X182157500Y-99300000D02*
X182157500Y-102100000D01*
X180857500Y-98650000D02*
X181457500Y-98650000D01*
X180857500Y-102750000D02*
G75*
G02*
X180157500Y-102050000I-1J699999D01*
G01*
X182157500Y-102050000D02*
G75*
G02*
X181457500Y-102750000I-699999J-1D01*
G01*
X180157500Y-99350000D02*
G75*
G02*
X180857500Y-98650000I700000J0D01*
G01*
X181457500Y-98650000D02*
G75*
G02*
X182157500Y-99350000I0J-700000D01*
G01*
X178900000Y-99650000D02*
X178300000Y-99650000D01*
X180100000Y-99100000D02*
X180100000Y-98500000D01*
X177600000Y-99000000D02*
X177600000Y-96200000D01*
X179800000Y-98800000D02*
X180100000Y-99100000D01*
X179800000Y-98800000D02*
X180100000Y-98500000D01*
X179600000Y-96200000D02*
X179600000Y-99000000D01*
X178300000Y-95550000D02*
X178900000Y-95550000D01*
X178300000Y-99650000D02*
G75*
G02*
X177600000Y-98950000I-1J699999D01*
G01*
X179600000Y-98950000D02*
G75*
G02*
X178900000Y-99650000I-699999J-1D01*
G01*
X177600000Y-96250000D02*
G75*
G02*
X178300000Y-95550000I700000J0D01*
G01*
X178900000Y-95550000D02*
G75*
G02*
X179600000Y-96250000I0J-700000D01*
G01*
M02*
