G04 #@! TF.GenerationSoftware,KiCad,Pcbnew,9.0.1*
G04 #@! TF.CreationDate,2025-04-16T16:06:57+02:00*
G04 #@! TF.ProjectId,RulleGardin,52756c6c-6547-4617-9264-696e2e6b6963,rev?*
G04 #@! TF.SameCoordinates,Original*
G04 #@! TF.FileFunction,Copper,L2,Bot*
G04 #@! TF.FilePolarity,Positive*
%FSLAX46Y46*%
G04 Gerber Fmt 4.6, Leading zero omitted, Abs format (unit mm)*
G04 Created by KiCad (PCBNEW 9.0.1) date 2025-04-16 16:06:57*
%MOMM*%
%LPD*%
G01*
G04 APERTURE LIST*
G04 Aperture macros list*
%AMRoundRect*
0 Rectangle with rounded corners*
0 $1 Rounding radius*
0 $2 $3 $4 $5 $6 $7 $8 $9 X,Y pos of 4 corners*
0 Add a 4 corners polygon primitive as box body*
4,1,4,$2,$3,$4,$5,$6,$7,$8,$9,$2,$3,0*
0 Add four circle primitives for the rounded corners*
1,1,$1+$1,$2,$3*
1,1,$1+$1,$4,$5*
1,1,$1+$1,$6,$7*
1,1,$1+$1,$8,$9*
0 Add four rect primitives between the rounded corners*
20,1,$1+$1,$2,$3,$4,$5,0*
20,1,$1+$1,$4,$5,$6,$7,0*
20,1,$1+$1,$6,$7,$8,$9,0*
20,1,$1+$1,$8,$9,$2,$3,0*%
G04 Aperture macros list end*
G04 #@! TA.AperFunction,ComponentPad*
%ADD10R,1.700000X1.700000*%
G04 #@! TD*
G04 #@! TA.AperFunction,ComponentPad*
%ADD11O,1.700000X1.700000*%
G04 #@! TD*
G04 #@! TA.AperFunction,ComponentPad*
%ADD12R,1.900000X1.900000*%
G04 #@! TD*
G04 #@! TA.AperFunction,ComponentPad*
%ADD13C,1.900000*%
G04 #@! TD*
G04 #@! TA.AperFunction,ComponentPad*
%ADD14R,1.600000X1.600000*%
G04 #@! TD*
G04 #@! TA.AperFunction,ComponentPad*
%ADD15O,1.600000X1.600000*%
G04 #@! TD*
G04 #@! TA.AperFunction,ComponentPad*
%ADD16R,1.500000X2.500000*%
G04 #@! TD*
G04 #@! TA.AperFunction,ComponentPad*
%ADD17O,1.500000X2.500000*%
G04 #@! TD*
G04 #@! TA.AperFunction,SMDPad,CuDef*
%ADD18RoundRect,0.375000X-0.375000X0.625000X-0.375000X-0.625000X0.375000X-0.625000X0.375000X0.625000X0*%
G04 #@! TD*
G04 #@! TA.AperFunction,SMDPad,CuDef*
%ADD19RoundRect,0.500000X-1.400000X0.500000X-1.400000X-0.500000X1.400000X-0.500000X1.400000X0.500000X0*%
G04 #@! TD*
G04 #@! TA.AperFunction,ViaPad*
%ADD20C,0.600000*%
G04 #@! TD*
G04 #@! TA.AperFunction,Conductor*
%ADD21C,0.250000*%
G04 #@! TD*
G04 #@! TA.AperFunction,Conductor*
%ADD22C,0.500000*%
G04 #@! TD*
G04 #@! TA.AperFunction,Conductor*
%ADD23C,1.000000*%
G04 #@! TD*
G04 APERTURE END LIST*
D10*
X200000000Y-98380000D03*
D11*
X200000000Y-100920000D03*
X200000000Y-103460000D03*
X200000000Y-106000000D03*
X200000000Y-108540000D03*
D12*
X192985000Y-88450000D03*
D13*
X192985000Y-90950000D03*
D14*
X196700000Y-113000000D03*
D15*
X196700000Y-110460000D03*
X196700000Y-107920000D03*
X196700000Y-105380000D03*
X196700000Y-102840000D03*
X196700000Y-100300000D03*
X196700000Y-97760000D03*
X196700000Y-95220000D03*
X184000000Y-95220000D03*
X184000000Y-97760000D03*
X184000000Y-100300000D03*
X184000000Y-102840000D03*
X184000000Y-105380000D03*
X184000000Y-107920000D03*
X184000000Y-110460000D03*
X184000000Y-113000000D03*
D16*
X177600000Y-88700000D03*
D17*
X175060000Y-88700000D03*
X172520000Y-88700000D03*
D18*
X172900000Y-92400000D03*
X175200000Y-92400000D03*
D19*
X175200000Y-98700000D03*
D18*
X177500000Y-92400000D03*
D20*
X152500000Y-94900000D03*
X156150000Y-91700000D03*
X156550000Y-102250000D03*
X154500000Y-93400000D03*
X194600000Y-98000000D03*
X190300000Y-117600000D03*
X190100000Y-116000000D03*
X155300000Y-117400000D03*
X186900000Y-106100000D03*
X179800000Y-103500000D03*
X182200000Y-102000000D03*
X179700000Y-98900000D03*
X171100000Y-100900000D03*
X149200000Y-114600000D03*
X158151000Y-94000000D03*
X156800000Y-94000000D03*
X149300000Y-97400000D03*
X151200000Y-95000000D03*
X156900000Y-89500000D03*
D21*
X152500000Y-94514702D02*
X152500000Y-94900000D01*
X155314702Y-91700000D02*
X152500000Y-94514702D01*
X156150000Y-91700000D02*
X155314702Y-91700000D01*
X156150000Y-91700000D02*
X159150000Y-88700000D01*
X159150000Y-88700000D02*
X172520000Y-88700000D01*
X156550000Y-102250000D02*
X154700000Y-100400000D01*
X154700000Y-93600000D02*
X154500000Y-93400000D01*
X154700000Y-100400000D02*
X154700000Y-93600000D01*
X161400000Y-107100000D02*
X156550000Y-102250000D01*
X165100000Y-107100000D02*
X161400000Y-107100000D01*
X180640000Y-107100000D02*
X165100000Y-107100000D01*
X184000000Y-110460000D02*
X180640000Y-107100000D01*
D22*
X175200000Y-98700000D02*
X175200000Y-92400000D01*
D23*
X177600000Y-92300000D02*
X177500000Y-92400000D01*
X177600000Y-88700000D02*
X177600000Y-92300000D01*
D22*
X175200000Y-91380000D02*
X172520000Y-88700000D01*
X175200000Y-92400000D02*
X175200000Y-91380000D01*
D21*
X182800000Y-117400000D02*
X155300000Y-117400000D01*
X183500000Y-116700000D02*
X182800000Y-117400000D01*
X185800000Y-114400000D02*
X183500000Y-116700000D01*
X185800000Y-109720000D02*
X185800000Y-114400000D01*
X184000000Y-107920000D02*
X185800000Y-109720000D01*
X156800000Y-94000000D02*
X158151000Y-94000000D01*
G04 #@! TA.AperFunction,Conductor*
G36*
X203866621Y-86095502D02*
G01*
X203913114Y-86149158D01*
X203924500Y-86201500D01*
X203924500Y-118736495D01*
X203904498Y-118804616D01*
X203850842Y-118851109D01*
X203798811Y-118862495D01*
X178703718Y-118924337D01*
X178637681Y-118924500D01*
X148201500Y-118924500D01*
X148133379Y-118904498D01*
X148086886Y-118850842D01*
X148075500Y-118798500D01*
X148075500Y-94820367D01*
X151691500Y-94820367D01*
X151691500Y-94820370D01*
X151691500Y-94979630D01*
X151722570Y-95135831D01*
X151783517Y-95282968D01*
X151871997Y-95415389D01*
X151871998Y-95415390D01*
X151872003Y-95415396D01*
X151984603Y-95527996D01*
X151984609Y-95528001D01*
X151984611Y-95528003D01*
X152117032Y-95616483D01*
X152264169Y-95677430D01*
X152420370Y-95708500D01*
X152420371Y-95708500D01*
X152579629Y-95708500D01*
X152579630Y-95708500D01*
X152735831Y-95677430D01*
X152882968Y-95616483D01*
X153015389Y-95528003D01*
X153128003Y-95415389D01*
X153216483Y-95282968D01*
X153277430Y-95135831D01*
X153308500Y-94979630D01*
X153308500Y-94820370D01*
X153285426Y-94704369D01*
X153291754Y-94633658D01*
X153319907Y-94590697D01*
X153850344Y-94060260D01*
X153878640Y-94044810D01*
X153906055Y-94027861D01*
X153909568Y-94027922D01*
X153912655Y-94026237D01*
X153944821Y-94028537D01*
X153977041Y-94029100D01*
X153981327Y-94031148D01*
X153983471Y-94031302D01*
X154009396Y-94044563D01*
X154010462Y-94045276D01*
X154056010Y-94099733D01*
X154066500Y-94150067D01*
X154066500Y-100337606D01*
X154066500Y-100462394D01*
X154090845Y-100584785D01*
X154138600Y-100700075D01*
X154207929Y-100803833D01*
X154207931Y-100803835D01*
X155716402Y-102312306D01*
X155750428Y-102374618D01*
X155750886Y-102376819D01*
X155772570Y-102485831D01*
X155833517Y-102632968D01*
X155921997Y-102765389D01*
X155921998Y-102765390D01*
X155922003Y-102765396D01*
X156034603Y-102877996D01*
X156034609Y-102878001D01*
X156034611Y-102878003D01*
X156167032Y-102966483D01*
X156167036Y-102966485D01*
X156314162Y-103027428D01*
X156314166Y-103027428D01*
X156314169Y-103027430D01*
X156423179Y-103049112D01*
X156486087Y-103082019D01*
X156487692Y-103083596D01*
X160996161Y-107592067D01*
X160996167Y-107592072D01*
X161099925Y-107661401D01*
X161215215Y-107709155D01*
X161337606Y-107733500D01*
X165037606Y-107733500D01*
X180325406Y-107733500D01*
X180393527Y-107753502D01*
X180414501Y-107770405D01*
X182688436Y-110044341D01*
X182722462Y-110106653D01*
X182723790Y-110153146D01*
X182702188Y-110289533D01*
X182691500Y-110357019D01*
X182691500Y-110562981D01*
X182723720Y-110766408D01*
X182787366Y-110962290D01*
X182880871Y-111145803D01*
X183001932Y-111312430D01*
X183001934Y-111312432D01*
X183001936Y-111312435D01*
X183147564Y-111458063D01*
X183147567Y-111458065D01*
X183147570Y-111458068D01*
X183314197Y-111579129D01*
X183389962Y-111617733D01*
X183441577Y-111666482D01*
X183458643Y-111735397D01*
X183435742Y-111802598D01*
X183389963Y-111842266D01*
X183321033Y-111877387D01*
X183314193Y-111880873D01*
X183147567Y-112001934D01*
X183147564Y-112001936D01*
X183001936Y-112147564D01*
X183001934Y-112147567D01*
X182880873Y-112314193D01*
X182787367Y-112497708D01*
X182787364Y-112497714D01*
X182723721Y-112693587D01*
X182723720Y-112693590D01*
X182723720Y-112693592D01*
X182691500Y-112897019D01*
X182691500Y-113102981D01*
X182723720Y-113306408D01*
X182787366Y-113502290D01*
X182880871Y-113685803D01*
X183001932Y-113852430D01*
X183001934Y-113852432D01*
X183001936Y-113852435D01*
X183147564Y-113998063D01*
X183147567Y-113998065D01*
X183147570Y-113998068D01*
X183314197Y-114119129D01*
X183497710Y-114212634D01*
X183693592Y-114276280D01*
X183897019Y-114308500D01*
X183897022Y-114308500D01*
X184102978Y-114308500D01*
X184102981Y-114308500D01*
X184306408Y-114276280D01*
X184502290Y-114212634D01*
X184685803Y-114119129D01*
X184852430Y-113998068D01*
X184897807Y-113952691D01*
X184951405Y-113899094D01*
X184971151Y-113888311D01*
X184988158Y-113873575D01*
X185001705Y-113871627D01*
X185013717Y-113865068D01*
X185036160Y-113866673D01*
X185058432Y-113863471D01*
X185070881Y-113869156D01*
X185084532Y-113870133D01*
X185102545Y-113883617D01*
X185123012Y-113892965D01*
X185130410Y-113904477D01*
X185141368Y-113912680D01*
X185149231Y-113933763D01*
X185161396Y-113952691D01*
X185164598Y-113974961D01*
X185166179Y-113979200D01*
X185166500Y-113988189D01*
X185166500Y-114085406D01*
X185146498Y-114153527D01*
X185129595Y-114174501D01*
X182574501Y-116729595D01*
X182512189Y-116763621D01*
X182485406Y-116766500D01*
X155845382Y-116766500D01*
X155777261Y-116746498D01*
X155775447Y-116745309D01*
X155682968Y-116683517D01*
X155535831Y-116622570D01*
X155457730Y-116607035D01*
X155379632Y-116591500D01*
X155379630Y-116591500D01*
X155220370Y-116591500D01*
X155220367Y-116591500D01*
X155103219Y-116614802D01*
X155064169Y-116622570D01*
X155064167Y-116622571D01*
X154917032Y-116683517D01*
X154784609Y-116771998D01*
X154784603Y-116772003D01*
X154672003Y-116884603D01*
X154671998Y-116884609D01*
X154583517Y-117017032D01*
X154522571Y-117164167D01*
X154522570Y-117164170D01*
X154491500Y-117320367D01*
X154491500Y-117320370D01*
X154491500Y-117479630D01*
X154522570Y-117635831D01*
X154583517Y-117782968D01*
X154656415Y-117892068D01*
X154671998Y-117915390D01*
X154672003Y-117915396D01*
X154784603Y-118027996D01*
X154784609Y-118028001D01*
X154784611Y-118028003D01*
X154917032Y-118116483D01*
X155064169Y-118177430D01*
X155220370Y-118208500D01*
X155220371Y-118208500D01*
X155379629Y-118208500D01*
X155379630Y-118208500D01*
X155535831Y-118177430D01*
X155682968Y-118116483D01*
X155775382Y-118054734D01*
X155843133Y-118033520D01*
X155845382Y-118033500D01*
X182862393Y-118033500D01*
X182862394Y-118033500D01*
X182984785Y-118009155D01*
X183100075Y-117961400D01*
X183203833Y-117892071D01*
X183992071Y-117103833D01*
X186292071Y-114803833D01*
X186361400Y-114700075D01*
X186409155Y-114584785D01*
X186433500Y-114462394D01*
X186433500Y-114337606D01*
X186433500Y-109657606D01*
X186409155Y-109535215D01*
X186361400Y-109419925D01*
X186292071Y-109316167D01*
X186203833Y-109227929D01*
X185311563Y-108335659D01*
X185277537Y-108273347D01*
X185276209Y-108226853D01*
X185276278Y-108226411D01*
X185276280Y-108226408D01*
X185308500Y-108022981D01*
X185308500Y-107817019D01*
X185276280Y-107613592D01*
X185212634Y-107417710D01*
X185119129Y-107234197D01*
X184998068Y-107067570D01*
X184998065Y-107067567D01*
X184998063Y-107067564D01*
X184852435Y-106921936D01*
X184852432Y-106921934D01*
X184852430Y-106921932D01*
X184685803Y-106800871D01*
X184610034Y-106762265D01*
X184558422Y-106713519D01*
X184541356Y-106644604D01*
X184564257Y-106577402D01*
X184610034Y-106537735D01*
X184685803Y-106499129D01*
X184852430Y-106378068D01*
X184998068Y-106232430D01*
X185119129Y-106065803D01*
X185212634Y-105882290D01*
X185276280Y-105686408D01*
X185308500Y-105482981D01*
X185308500Y-105277019D01*
X185276280Y-105073592D01*
X185212634Y-104877710D01*
X185119129Y-104694197D01*
X184998068Y-104527570D01*
X184998065Y-104527567D01*
X184998063Y-104527564D01*
X184852435Y-104381936D01*
X184852432Y-104381934D01*
X184852430Y-104381932D01*
X184685803Y-104260871D01*
X184610034Y-104222265D01*
X184558422Y-104173519D01*
X184541356Y-104104604D01*
X184564257Y-104037402D01*
X184610034Y-103997735D01*
X184685803Y-103959129D01*
X184852430Y-103838068D01*
X184998068Y-103692430D01*
X185119129Y-103525803D01*
X185212634Y-103342290D01*
X185276280Y-103146408D01*
X185308500Y-102942981D01*
X185308500Y-102737019D01*
X185276280Y-102533592D01*
X185212634Y-102337710D01*
X185119129Y-102154197D01*
X184998068Y-101987570D01*
X184998065Y-101987567D01*
X184998063Y-101987564D01*
X184852435Y-101841936D01*
X184852432Y-101841934D01*
X184852430Y-101841932D01*
X184685803Y-101720871D01*
X184610034Y-101682265D01*
X184558422Y-101633519D01*
X184541356Y-101564604D01*
X184564257Y-101497402D01*
X184610034Y-101457735D01*
X184685803Y-101419129D01*
X184852430Y-101298068D01*
X184998068Y-101152430D01*
X185119129Y-100985803D01*
X185212634Y-100802290D01*
X185276280Y-100606408D01*
X185308500Y-100402981D01*
X185308500Y-100197019D01*
X185276280Y-99993592D01*
X185212634Y-99797710D01*
X185119129Y-99614197D01*
X184998068Y-99447570D01*
X184998065Y-99447567D01*
X184998063Y-99447564D01*
X184852435Y-99301936D01*
X184852432Y-99301934D01*
X184852430Y-99301932D01*
X184685803Y-99180871D01*
X184610034Y-99142265D01*
X184558422Y-99093519D01*
X184541356Y-99024604D01*
X184564257Y-98957402D01*
X184610034Y-98917735D01*
X184685803Y-98879129D01*
X184852430Y-98758068D01*
X184998068Y-98612430D01*
X185119129Y-98445803D01*
X185212634Y-98262290D01*
X185276280Y-98066408D01*
X185308500Y-97862981D01*
X185308500Y-97657019D01*
X185276280Y-97453592D01*
X185212634Y-97257710D01*
X185119129Y-97074197D01*
X184998068Y-96907570D01*
X184998065Y-96907567D01*
X184998063Y-96907564D01*
X184852435Y-96761936D01*
X184852432Y-96761934D01*
X184852430Y-96761932D01*
X184685803Y-96640871D01*
X184609486Y-96601985D01*
X184557873Y-96553239D01*
X184540807Y-96484324D01*
X184563708Y-96417122D01*
X184609488Y-96377453D01*
X184685545Y-96338699D01*
X184852107Y-96217684D01*
X184852110Y-96217682D01*
X184997682Y-96072110D01*
X184997684Y-96072107D01*
X185118699Y-95905545D01*
X185212170Y-95722099D01*
X185212173Y-95722093D01*
X185275791Y-95526295D01*
X185284074Y-95474000D01*
X184311686Y-95474000D01*
X184320080Y-95465606D01*
X184372741Y-95374394D01*
X184400000Y-95272661D01*
X184400000Y-95167339D01*
X184386517Y-95117019D01*
X195391500Y-95117019D01*
X195391500Y-95322981D01*
X195423702Y-95526295D01*
X195423721Y-95526412D01*
X195472789Y-95677429D01*
X195487366Y-95722290D01*
X195580871Y-95905803D01*
X195701932Y-96072430D01*
X195701934Y-96072432D01*
X195701936Y-96072435D01*
X195847564Y-96218063D01*
X195847567Y-96218065D01*
X195847570Y-96218068D01*
X196014197Y-96339129D01*
X196090511Y-96378013D01*
X196142126Y-96426760D01*
X196159192Y-96495675D01*
X196136292Y-96562876D01*
X196090513Y-96602545D01*
X196014455Y-96641299D01*
X195847892Y-96762315D01*
X195847889Y-96762317D01*
X195702317Y-96907889D01*
X195702315Y-96907892D01*
X195581300Y-97074454D01*
X195487829Y-97257900D01*
X195487826Y-97257906D01*
X195424208Y-97453704D01*
X195415926Y-97506000D01*
X196388314Y-97506000D01*
X196379920Y-97514394D01*
X196327259Y-97605606D01*
X196300000Y-97707339D01*
X196300000Y-97812661D01*
X196327259Y-97914394D01*
X196379920Y-98005606D01*
X196388314Y-98014000D01*
X195415926Y-98014000D01*
X195424208Y-98066295D01*
X195487826Y-98262093D01*
X195487829Y-98262099D01*
X195581300Y-98445545D01*
X195702315Y-98612107D01*
X195702317Y-98612110D01*
X195847889Y-98757682D01*
X195847892Y-98757684D01*
X196014455Y-98878700D01*
X196090511Y-98917453D01*
X196142126Y-98966202D01*
X196159192Y-99035117D01*
X196136291Y-99102318D01*
X196090511Y-99141987D01*
X196014193Y-99180872D01*
X195847567Y-99301934D01*
X195847564Y-99301936D01*
X195701936Y-99447564D01*
X195701934Y-99447567D01*
X195580873Y-99614193D01*
X195487367Y-99797708D01*
X195487364Y-99797714D01*
X195423721Y-99993587D01*
X195423720Y-99993590D01*
X195423720Y-99993592D01*
X195391500Y-100197019D01*
X195391500Y-100402981D01*
X195423720Y-100606408D01*
X195423721Y-100606412D01*
X195454154Y-100700076D01*
X195487366Y-100802290D01*
X195580871Y-100985803D01*
X195701932Y-101152430D01*
X195701934Y-101152432D01*
X195701936Y-101152435D01*
X195847564Y-101298063D01*
X195847567Y-101298065D01*
X195847570Y-101298068D01*
X196014197Y-101419129D01*
X196089962Y-101457733D01*
X196141577Y-101506482D01*
X196158643Y-101575397D01*
X196135742Y-101642598D01*
X196089963Y-101682266D01*
X196021033Y-101717387D01*
X196014193Y-101720873D01*
X195847567Y-101841934D01*
X195847564Y-101841936D01*
X195701936Y-101987564D01*
X195701934Y-101987567D01*
X195580873Y-102154193D01*
X195487367Y-102337708D01*
X195487364Y-102337714D01*
X195423721Y-102533587D01*
X195423720Y-102533590D01*
X195423720Y-102533592D01*
X195391500Y-102737019D01*
X195391500Y-102942981D01*
X195423720Y-103146408D01*
X195487366Y-103342290D01*
X195580871Y-103525803D01*
X195701932Y-103692430D01*
X195701934Y-103692432D01*
X195701936Y-103692435D01*
X195847564Y-103838063D01*
X195847567Y-103838065D01*
X195847570Y-103838068D01*
X196014197Y-103959129D01*
X196089962Y-103997733D01*
X196141577Y-104046482D01*
X196158643Y-104115397D01*
X196135742Y-104182598D01*
X196089963Y-104222266D01*
X196021033Y-104257387D01*
X196014193Y-104260873D01*
X195847567Y-104381934D01*
X195847564Y-104381936D01*
X195701936Y-104527564D01*
X195701934Y-104527567D01*
X195580873Y-104694193D01*
X195487367Y-104877708D01*
X195487364Y-104877714D01*
X195423721Y-105073587D01*
X195423720Y-105073590D01*
X195423720Y-105073592D01*
X195391500Y-105277019D01*
X195391500Y-105482981D01*
X195423720Y-105686408D01*
X195487366Y-105882290D01*
X195580871Y-106065803D01*
X195701932Y-106232430D01*
X195701934Y-106232432D01*
X195701936Y-106232435D01*
X195847564Y-106378063D01*
X195847567Y-106378065D01*
X195847570Y-106378068D01*
X196014197Y-106499129D01*
X196089962Y-106537733D01*
X196141577Y-106586482D01*
X196158643Y-106655397D01*
X196135742Y-106722598D01*
X196089963Y-106762266D01*
X196021033Y-106797387D01*
X196014193Y-106800873D01*
X195847567Y-106921934D01*
X195847564Y-106921936D01*
X195701936Y-107067564D01*
X195701934Y-107067567D01*
X195580873Y-107234193D01*
X195487367Y-107417708D01*
X195487364Y-107417714D01*
X195423721Y-107613587D01*
X195423720Y-107613590D01*
X195423720Y-107613592D01*
X195391500Y-107817019D01*
X195391500Y-108022981D01*
X195423720Y-108226408D01*
X195423721Y-108226412D01*
X195453275Y-108317371D01*
X195487366Y-108422290D01*
X195580871Y-108605803D01*
X195701932Y-108772430D01*
X195701934Y-108772432D01*
X195701936Y-108772435D01*
X195847564Y-108918063D01*
X195847567Y-108918065D01*
X195847570Y-108918068D01*
X196014197Y-109039129D01*
X196089962Y-109077733D01*
X196141577Y-109126482D01*
X196158643Y-109195397D01*
X196135742Y-109262598D01*
X196089963Y-109302266D01*
X196021033Y-109337387D01*
X196014193Y-109340873D01*
X195847567Y-109461934D01*
X195847564Y-109461936D01*
X195701936Y-109607564D01*
X195701934Y-109607567D01*
X195580873Y-109774193D01*
X195487367Y-109957708D01*
X195487364Y-109957714D01*
X195423721Y-110153587D01*
X195423720Y-110153590D01*
X195423720Y-110153592D01*
X195391500Y-110357019D01*
X195391500Y-110562981D01*
X195423720Y-110766408D01*
X195487366Y-110962290D01*
X195580871Y-111145803D01*
X195701932Y-111312430D01*
X195701934Y-111312432D01*
X195701936Y-111312435D01*
X195847564Y-111458063D01*
X195847567Y-111458065D01*
X195847570Y-111458068D01*
X195863927Y-111469952D01*
X195863930Y-111469954D01*
X195907284Y-111526176D01*
X195913359Y-111596912D01*
X195880228Y-111659704D01*
X195818408Y-111694615D01*
X195803343Y-111697167D01*
X195790909Y-111698504D01*
X195790908Y-111698504D01*
X195654035Y-111749555D01*
X195654034Y-111749555D01*
X195537095Y-111837095D01*
X195449555Y-111954034D01*
X195449555Y-111954035D01*
X195398505Y-112090906D01*
X195392000Y-112151402D01*
X195392000Y-112746000D01*
X196388314Y-112746000D01*
X196379920Y-112754394D01*
X196327259Y-112845606D01*
X196300000Y-112947339D01*
X196300000Y-113052661D01*
X196327259Y-113154394D01*
X196379920Y-113245606D01*
X196388314Y-113254000D01*
X195392000Y-113254000D01*
X195392000Y-113848597D01*
X195398505Y-113909093D01*
X195449555Y-114045964D01*
X195449555Y-114045965D01*
X195537095Y-114162904D01*
X195654034Y-114250444D01*
X195790906Y-114301494D01*
X195851402Y-114307999D01*
X195851415Y-114308000D01*
X196446000Y-114308000D01*
X196446000Y-113311686D01*
X196454394Y-113320080D01*
X196545606Y-113372741D01*
X196647339Y-113400000D01*
X196752661Y-113400000D01*
X196854394Y-113372741D01*
X196945606Y-113320080D01*
X196954000Y-113311686D01*
X196954000Y-114308000D01*
X197548585Y-114308000D01*
X197548597Y-114307999D01*
X197609093Y-114301494D01*
X197745964Y-114250444D01*
X197745965Y-114250444D01*
X197862904Y-114162904D01*
X197950444Y-114045965D01*
X197950444Y-114045964D01*
X198001494Y-113909093D01*
X198007999Y-113848597D01*
X198008000Y-113848585D01*
X198008000Y-113254000D01*
X197011686Y-113254000D01*
X197020080Y-113245606D01*
X197072741Y-113154394D01*
X197100000Y-113052661D01*
X197100000Y-112947339D01*
X197072741Y-112845606D01*
X197020080Y-112754394D01*
X197011686Y-112746000D01*
X198008000Y-112746000D01*
X198008000Y-112151414D01*
X198007999Y-112151402D01*
X198001494Y-112090906D01*
X197950444Y-111954035D01*
X197950444Y-111954034D01*
X197862904Y-111837095D01*
X197745965Y-111749555D01*
X197609094Y-111698505D01*
X197596657Y-111697168D01*
X197531065Y-111669996D01*
X197490576Y-111611676D01*
X197488045Y-111540725D01*
X197524275Y-111479668D01*
X197536070Y-111469954D01*
X197552430Y-111458068D01*
X197698068Y-111312430D01*
X197819129Y-111145803D01*
X197912634Y-110962290D01*
X197976280Y-110766408D01*
X198008500Y-110562981D01*
X198008500Y-110357019D01*
X197976280Y-110153592D01*
X197912634Y-109957710D01*
X197819129Y-109774197D01*
X197698068Y-109607570D01*
X197698065Y-109607567D01*
X197698063Y-109607564D01*
X197552435Y-109461936D01*
X197552432Y-109461934D01*
X197552430Y-109461932D01*
X197385803Y-109340871D01*
X197310034Y-109302265D01*
X197258422Y-109253519D01*
X197241356Y-109184604D01*
X197264257Y-109117402D01*
X197310034Y-109077735D01*
X197385803Y-109039129D01*
X197552430Y-108918068D01*
X197698068Y-108772430D01*
X197819129Y-108605803D01*
X197912634Y-108422290D01*
X197976280Y-108226408D01*
X198008500Y-108022981D01*
X198008500Y-107817019D01*
X197976280Y-107613592D01*
X197912634Y-107417710D01*
X197819129Y-107234197D01*
X197698068Y-107067570D01*
X197698065Y-107067567D01*
X197698063Y-107067564D01*
X197552435Y-106921936D01*
X197552432Y-106921934D01*
X197552430Y-106921932D01*
X197385803Y-106800871D01*
X197310034Y-106762265D01*
X197258422Y-106713519D01*
X197241356Y-106644604D01*
X197264257Y-106577402D01*
X197310034Y-106537735D01*
X197385803Y-106499129D01*
X197552430Y-106378068D01*
X197698068Y-106232430D01*
X197819129Y-106065803D01*
X197912634Y-105882290D01*
X197976280Y-105686408D01*
X198008500Y-105482981D01*
X198008500Y-105277019D01*
X197976280Y-105073592D01*
X197912634Y-104877710D01*
X197819129Y-104694197D01*
X197698068Y-104527570D01*
X197698065Y-104527567D01*
X197698063Y-104527564D01*
X197552435Y-104381936D01*
X197552432Y-104381934D01*
X197552430Y-104381932D01*
X197385803Y-104260871D01*
X197310034Y-104222265D01*
X197258422Y-104173519D01*
X197241356Y-104104604D01*
X197264257Y-104037402D01*
X197310034Y-103997735D01*
X197385803Y-103959129D01*
X197552430Y-103838068D01*
X197698068Y-103692430D01*
X197819129Y-103525803D01*
X197912634Y-103342290D01*
X197976280Y-103146408D01*
X198008500Y-102942981D01*
X198008500Y-102737019D01*
X197976280Y-102533592D01*
X197912634Y-102337710D01*
X197819129Y-102154197D01*
X197698068Y-101987570D01*
X197698065Y-101987567D01*
X197698063Y-101987564D01*
X197552435Y-101841936D01*
X197552432Y-101841934D01*
X197552430Y-101841932D01*
X197385803Y-101720871D01*
X197310034Y-101682265D01*
X197258422Y-101633519D01*
X197241356Y-101564604D01*
X197264257Y-101497402D01*
X197310034Y-101457735D01*
X197385803Y-101419129D01*
X197552430Y-101298068D01*
X197698068Y-101152430D01*
X197819129Y-100985803D01*
X197912634Y-100802290D01*
X197976280Y-100606408D01*
X198008500Y-100402981D01*
X198008500Y-100197019D01*
X197976280Y-99993592D01*
X197912634Y-99797710D01*
X197819129Y-99614197D01*
X197698068Y-99447570D01*
X197698065Y-99447567D01*
X197698063Y-99447564D01*
X197552435Y-99301936D01*
X197552432Y-99301934D01*
X197552430Y-99301932D01*
X197385803Y-99180871D01*
X197309486Y-99141985D01*
X197257873Y-99093239D01*
X197240807Y-99024324D01*
X197263708Y-98957122D01*
X197309488Y-98917453D01*
X197385545Y-98878699D01*
X197552107Y-98757684D01*
X197552110Y-98757682D01*
X197697682Y-98612110D01*
X197697684Y-98612107D01*
X197818699Y-98445545D01*
X197912170Y-98262099D01*
X197912173Y-98262093D01*
X197975791Y-98066295D01*
X197984074Y-98014000D01*
X197011686Y-98014000D01*
X197020080Y-98005606D01*
X197072741Y-97914394D01*
X197100000Y-97812661D01*
X197100000Y-97707339D01*
X197072741Y-97605606D01*
X197020080Y-97514394D01*
X197011686Y-97506000D01*
X197984074Y-97506000D01*
X197982760Y-97497698D01*
X197980170Y-97481350D01*
X198641500Y-97481350D01*
X198641500Y-99278649D01*
X198648009Y-99339196D01*
X198648011Y-99339204D01*
X198699110Y-99476202D01*
X198699112Y-99476207D01*
X198786738Y-99593261D01*
X198903791Y-99680886D01*
X198903792Y-99680886D01*
X198903796Y-99680889D01*
X199021711Y-99724869D01*
X199078543Y-99767414D01*
X199103354Y-99833934D01*
X199088263Y-99903308D01*
X199066771Y-99932018D01*
X198963794Y-100034995D01*
X198838108Y-100207987D01*
X198741029Y-100398515D01*
X198741026Y-100398521D01*
X198674952Y-100601878D01*
X198674951Y-100601883D01*
X198674951Y-100601884D01*
X198641500Y-100813084D01*
X198641500Y-101026916D01*
X198674951Y-101238116D01*
X198674952Y-101238121D01*
X198741026Y-101441478D01*
X198741028Y-101441483D01*
X198838106Y-101632009D01*
X198963794Y-101805004D01*
X198963796Y-101805006D01*
X198963798Y-101805009D01*
X199114990Y-101956201D01*
X199114993Y-101956203D01*
X199114996Y-101956206D01*
X199287991Y-102081894D01*
X199287996Y-102081896D01*
X199289088Y-102082566D01*
X199289418Y-102082931D01*
X199291996Y-102084804D01*
X199291602Y-102085345D01*
X199336721Y-102135213D01*
X199348328Y-102205255D01*
X199320226Y-102270453D01*
X199291870Y-102295023D01*
X199291996Y-102295196D01*
X199289982Y-102296658D01*
X199289088Y-102297434D01*
X199287987Y-102298108D01*
X199114993Y-102423796D01*
X199114990Y-102423798D01*
X198963798Y-102574990D01*
X198963796Y-102574993D01*
X198838108Y-102747987D01*
X198741029Y-102938515D01*
X198741026Y-102938521D01*
X198674952Y-103141878D01*
X198674951Y-103141883D01*
X198674951Y-103141884D01*
X198641500Y-103353084D01*
X198641500Y-103566916D01*
X198674951Y-103778116D01*
X198674952Y-103778121D01*
X198741026Y-103981478D01*
X198741028Y-103981483D01*
X198838106Y-104172009D01*
X198963794Y-104345004D01*
X198963796Y-104345006D01*
X198963798Y-104345009D01*
X199114990Y-104496201D01*
X199114993Y-104496203D01*
X199114996Y-104496206D01*
X199287991Y-104621894D01*
X199287996Y-104621896D01*
X199289088Y-104622566D01*
X199289418Y-104622931D01*
X199291996Y-104624804D01*
X199291602Y-104625345D01*
X199336721Y-104675213D01*
X199348328Y-104745255D01*
X199320226Y-104810453D01*
X199291870Y-104835023D01*
X199291996Y-104835196D01*
X199289982Y-104836658D01*
X199289088Y-104837434D01*
X199287987Y-104838108D01*
X199114993Y-104963796D01*
X199114990Y-104963798D01*
X198963798Y-105114990D01*
X198963796Y-105114993D01*
X198838108Y-105287987D01*
X198741029Y-105478515D01*
X198741026Y-105478521D01*
X198674952Y-105681878D01*
X198674951Y-105681883D01*
X198674951Y-105681884D01*
X198641500Y-105893084D01*
X198641500Y-106106916D01*
X198674951Y-106318116D01*
X198674952Y-106318121D01*
X198741026Y-106521478D01*
X198741028Y-106521483D01*
X198838106Y-106712009D01*
X198963794Y-106885004D01*
X198963796Y-106885006D01*
X198963798Y-106885009D01*
X199114990Y-107036201D01*
X199114993Y-107036203D01*
X199114996Y-107036206D01*
X199287991Y-107161894D01*
X199287996Y-107161896D01*
X199289088Y-107162566D01*
X199289418Y-107162931D01*
X199291996Y-107164804D01*
X199291602Y-107165345D01*
X199336721Y-107215213D01*
X199348328Y-107285255D01*
X199320226Y-107350453D01*
X199291870Y-107375023D01*
X199291996Y-107375196D01*
X199289982Y-107376658D01*
X199289088Y-107377434D01*
X199287987Y-107378108D01*
X199114993Y-107503796D01*
X199114990Y-107503798D01*
X198963798Y-107654990D01*
X198963796Y-107654993D01*
X198838108Y-107827987D01*
X198741029Y-108018515D01*
X198741026Y-108018521D01*
X198674952Y-108221878D01*
X198674951Y-108221883D01*
X198674951Y-108221884D01*
X198641500Y-108433084D01*
X198641500Y-108646916D01*
X198674951Y-108858116D01*
X198674952Y-108858121D01*
X198741026Y-109061478D01*
X198741028Y-109061483D01*
X198838106Y-109252009D01*
X198963794Y-109425004D01*
X198963796Y-109425006D01*
X198963798Y-109425009D01*
X199114990Y-109576201D01*
X199114993Y-109576203D01*
X199114996Y-109576206D01*
X199287991Y-109701894D01*
X199478517Y-109798972D01*
X199681878Y-109865047D01*
X199681879Y-109865047D01*
X199681884Y-109865049D01*
X199893084Y-109898500D01*
X199893087Y-109898500D01*
X200106913Y-109898500D01*
X200106916Y-109898500D01*
X200318116Y-109865049D01*
X200521483Y-109798972D01*
X200712009Y-109701894D01*
X200885004Y-109576206D01*
X201036206Y-109425004D01*
X201161894Y-109252009D01*
X201258972Y-109061483D01*
X201325049Y-108858116D01*
X201358500Y-108646916D01*
X201358500Y-108433084D01*
X201325049Y-108221884D01*
X201258972Y-108018517D01*
X201161894Y-107827991D01*
X201036206Y-107654996D01*
X201036203Y-107654993D01*
X201036201Y-107654990D01*
X200885009Y-107503798D01*
X200885006Y-107503796D01*
X200885004Y-107503794D01*
X200712009Y-107378106D01*
X200712007Y-107378105D01*
X200710920Y-107377439D01*
X200710591Y-107377075D01*
X200708004Y-107375196D01*
X200708398Y-107374652D01*
X200663283Y-107324796D01*
X200651670Y-107254756D01*
X200679766Y-107189555D01*
X200708130Y-107164978D01*
X200708004Y-107164804D01*
X200710030Y-107163331D01*
X200710920Y-107162561D01*
X200711997Y-107161899D01*
X200712009Y-107161894D01*
X200885004Y-107036206D01*
X201036206Y-106885004D01*
X201161894Y-106712009D01*
X201258972Y-106521483D01*
X201325049Y-106318116D01*
X201358500Y-106106916D01*
X201358500Y-105893084D01*
X201325049Y-105681884D01*
X201258972Y-105478517D01*
X201161894Y-105287991D01*
X201036206Y-105114996D01*
X201036203Y-105114993D01*
X201036201Y-105114990D01*
X200885009Y-104963798D01*
X200885006Y-104963796D01*
X200885004Y-104963794D01*
X200712009Y-104838106D01*
X200712007Y-104838105D01*
X200710920Y-104837439D01*
X200710591Y-104837075D01*
X200708004Y-104835196D01*
X200708398Y-104834652D01*
X200663283Y-104784796D01*
X200651670Y-104714756D01*
X200679766Y-104649555D01*
X200708130Y-104624978D01*
X200708004Y-104624804D01*
X200710030Y-104623331D01*
X200710920Y-104622561D01*
X200711997Y-104621899D01*
X200712009Y-104621894D01*
X200885004Y-104496206D01*
X201036206Y-104345004D01*
X201161894Y-104172009D01*
X201258972Y-103981483D01*
X201325049Y-103778116D01*
X201358500Y-103566916D01*
X201358500Y-103353084D01*
X201325049Y-103141884D01*
X201258972Y-102938517D01*
X201161894Y-102747991D01*
X201036206Y-102574996D01*
X201036203Y-102574993D01*
X201036201Y-102574990D01*
X200885009Y-102423798D01*
X200885006Y-102423796D01*
X200885004Y-102423794D01*
X200712009Y-102298106D01*
X200712007Y-102298105D01*
X200710920Y-102297439D01*
X200710591Y-102297075D01*
X200708004Y-102295196D01*
X200708398Y-102294652D01*
X200663283Y-102244796D01*
X200651670Y-102174756D01*
X200679766Y-102109555D01*
X200708130Y-102084978D01*
X200708004Y-102084804D01*
X200710030Y-102083331D01*
X200710920Y-102082561D01*
X200711997Y-102081899D01*
X200712009Y-102081894D01*
X200885004Y-101956206D01*
X201036206Y-101805004D01*
X201161894Y-101632009D01*
X201258972Y-101441483D01*
X201325049Y-101238116D01*
X201358500Y-101026916D01*
X201358500Y-100813084D01*
X201325049Y-100601884D01*
X201258972Y-100398517D01*
X201161894Y-100207991D01*
X201036206Y-100034996D01*
X201036203Y-100034993D01*
X201036201Y-100034990D01*
X200933229Y-99932018D01*
X200899203Y-99869706D01*
X200904268Y-99798891D01*
X200946815Y-99742055D01*
X200978284Y-99724871D01*
X201096204Y-99680889D01*
X201213261Y-99593261D01*
X201300889Y-99476204D01*
X201351989Y-99339201D01*
X201355996Y-99301936D01*
X201358499Y-99278649D01*
X201358500Y-99278632D01*
X201358500Y-97481367D01*
X201358499Y-97481350D01*
X201351990Y-97420803D01*
X201351988Y-97420795D01*
X201300889Y-97283797D01*
X201300887Y-97283792D01*
X201213261Y-97166738D01*
X201096207Y-97079112D01*
X201096202Y-97079110D01*
X200959204Y-97028011D01*
X200959196Y-97028009D01*
X200898649Y-97021500D01*
X200898638Y-97021500D01*
X199101362Y-97021500D01*
X199101350Y-97021500D01*
X199040803Y-97028009D01*
X199040795Y-97028011D01*
X198903797Y-97079110D01*
X198903792Y-97079112D01*
X198786738Y-97166738D01*
X198699112Y-97283792D01*
X198699110Y-97283797D01*
X198648011Y-97420795D01*
X198648009Y-97420803D01*
X198641500Y-97481350D01*
X197980170Y-97481350D01*
X197975791Y-97453702D01*
X197912173Y-97257906D01*
X197912170Y-97257900D01*
X197818699Y-97074454D01*
X197697684Y-96907892D01*
X197697682Y-96907889D01*
X197552110Y-96762317D01*
X197552107Y-96762315D01*
X197385542Y-96641298D01*
X197309487Y-96602545D01*
X197257872Y-96553797D01*
X197240807Y-96484882D01*
X197263708Y-96417680D01*
X197309485Y-96378014D01*
X197385803Y-96339129D01*
X197552430Y-96218068D01*
X197698068Y-96072430D01*
X197819129Y-95905803D01*
X197912634Y-95722290D01*
X197976280Y-95526408D01*
X198008500Y-95322981D01*
X198008500Y-95117019D01*
X197976280Y-94913592D01*
X197912634Y-94717710D01*
X197819129Y-94534197D01*
X197698068Y-94367570D01*
X197698065Y-94367567D01*
X197698063Y-94367564D01*
X197552435Y-94221936D01*
X197552432Y-94221934D01*
X197552430Y-94221932D01*
X197399560Y-94110866D01*
X197385806Y-94100873D01*
X197385805Y-94100872D01*
X197385803Y-94100871D01*
X197202290Y-94007366D01*
X197202287Y-94007365D01*
X197202285Y-94007364D01*
X197006412Y-93943721D01*
X197006410Y-93943720D01*
X197006408Y-93943720D01*
X196802981Y-93911500D01*
X196597019Y-93911500D01*
X196393592Y-93943720D01*
X196393590Y-93943720D01*
X196393587Y-93943721D01*
X196197714Y-94007364D01*
X196197708Y-94007367D01*
X196014193Y-94100873D01*
X195847567Y-94221934D01*
X195847564Y-94221936D01*
X195701936Y-94367564D01*
X195701934Y-94367567D01*
X195580873Y-94534193D01*
X195487367Y-94717708D01*
X195487364Y-94717714D01*
X195423721Y-94913587D01*
X195423720Y-94913590D01*
X195423720Y-94913592D01*
X195391500Y-95117019D01*
X184386517Y-95117019D01*
X184372741Y-95065606D01*
X184320080Y-94974394D01*
X184311686Y-94966000D01*
X185284074Y-94966000D01*
X185275791Y-94913704D01*
X185212173Y-94717906D01*
X185212170Y-94717900D01*
X185118699Y-94534454D01*
X184997684Y-94367892D01*
X184997682Y-94367889D01*
X184852110Y-94222317D01*
X184852107Y-94222315D01*
X184685545Y-94101300D01*
X184502099Y-94007829D01*
X184502093Y-94007826D01*
X184306294Y-93944208D01*
X184306296Y-93944208D01*
X184254000Y-93935925D01*
X184254000Y-94908314D01*
X184245606Y-94899920D01*
X184154394Y-94847259D01*
X184052661Y-94820000D01*
X183947339Y-94820000D01*
X183845606Y-94847259D01*
X183754394Y-94899920D01*
X183746000Y-94908314D01*
X183746000Y-93935925D01*
X183693704Y-93944208D01*
X183497906Y-94007826D01*
X183497900Y-94007829D01*
X183314454Y-94101300D01*
X183147892Y-94222315D01*
X183147889Y-94222317D01*
X183002317Y-94367889D01*
X183002315Y-94367892D01*
X182881300Y-94534454D01*
X182787829Y-94717900D01*
X182787826Y-94717906D01*
X182724208Y-94913704D01*
X182715926Y-94966000D01*
X183688314Y-94966000D01*
X183679920Y-94974394D01*
X183627259Y-95065606D01*
X183600000Y-95167339D01*
X183600000Y-95272661D01*
X183627259Y-95374394D01*
X183679920Y-95465606D01*
X183688314Y-95474000D01*
X182715926Y-95474000D01*
X182724208Y-95526295D01*
X182787826Y-95722093D01*
X182787829Y-95722099D01*
X182881300Y-95905545D01*
X183002315Y-96072107D01*
X183002317Y-96072110D01*
X183147889Y-96217682D01*
X183147892Y-96217684D01*
X183314455Y-96338700D01*
X183390511Y-96377453D01*
X183442126Y-96426202D01*
X183459192Y-96495117D01*
X183436291Y-96562318D01*
X183390511Y-96601987D01*
X183314193Y-96640872D01*
X183147567Y-96761934D01*
X183147564Y-96761936D01*
X183001936Y-96907564D01*
X183001934Y-96907567D01*
X182880873Y-97074193D01*
X182787367Y-97257708D01*
X182787364Y-97257714D01*
X182723721Y-97453587D01*
X182723720Y-97453590D01*
X182723720Y-97453592D01*
X182691500Y-97657019D01*
X182691500Y-97862981D01*
X182723702Y-98066295D01*
X182723721Y-98066412D01*
X182751031Y-98150465D01*
X182787366Y-98262290D01*
X182880871Y-98445803D01*
X183001932Y-98612430D01*
X183001934Y-98612432D01*
X183001936Y-98612435D01*
X183147564Y-98758063D01*
X183147567Y-98758065D01*
X183147570Y-98758068D01*
X183314197Y-98879129D01*
X183389962Y-98917733D01*
X183441577Y-98966482D01*
X183458643Y-99035397D01*
X183435742Y-99102598D01*
X183389963Y-99142266D01*
X183321033Y-99177387D01*
X183314193Y-99180873D01*
X183147567Y-99301934D01*
X183147564Y-99301936D01*
X183001936Y-99447564D01*
X183001934Y-99447567D01*
X182880873Y-99614193D01*
X182787367Y-99797708D01*
X182787364Y-99797714D01*
X182723721Y-99993587D01*
X182723720Y-99993590D01*
X182723720Y-99993592D01*
X182691500Y-100197019D01*
X182691500Y-100402981D01*
X182723720Y-100606408D01*
X182723721Y-100606412D01*
X182754154Y-100700076D01*
X182787366Y-100802290D01*
X182880871Y-100985803D01*
X183001932Y-101152430D01*
X183001934Y-101152432D01*
X183001936Y-101152435D01*
X183147564Y-101298063D01*
X183147567Y-101298065D01*
X183147570Y-101298068D01*
X183314197Y-101419129D01*
X183389962Y-101457733D01*
X183441577Y-101506482D01*
X183458643Y-101575397D01*
X183435742Y-101642598D01*
X183389963Y-101682266D01*
X183321033Y-101717387D01*
X183314193Y-101720873D01*
X183147567Y-101841934D01*
X183147564Y-101841936D01*
X183001936Y-101987564D01*
X183001934Y-101987567D01*
X182880873Y-102154193D01*
X182787367Y-102337708D01*
X182787364Y-102337714D01*
X182723721Y-102533587D01*
X182723720Y-102533590D01*
X182723720Y-102533592D01*
X182691500Y-102737019D01*
X182691500Y-102942981D01*
X182723720Y-103146408D01*
X182787366Y-103342290D01*
X182880871Y-103525803D01*
X183001932Y-103692430D01*
X183001934Y-103692432D01*
X183001936Y-103692435D01*
X183147564Y-103838063D01*
X183147567Y-103838065D01*
X183147570Y-103838068D01*
X183314197Y-103959129D01*
X183389962Y-103997733D01*
X183441577Y-104046482D01*
X183458643Y-104115397D01*
X183435742Y-104182598D01*
X183389963Y-104222266D01*
X183321033Y-104257387D01*
X183314193Y-104260873D01*
X183147567Y-104381934D01*
X183147564Y-104381936D01*
X183001936Y-104527564D01*
X183001934Y-104527567D01*
X182880873Y-104694193D01*
X182787367Y-104877708D01*
X182787364Y-104877714D01*
X182723721Y-105073587D01*
X182723720Y-105073590D01*
X182723720Y-105073592D01*
X182691500Y-105277019D01*
X182691500Y-105482981D01*
X182723720Y-105686408D01*
X182787366Y-105882290D01*
X182880871Y-106065803D01*
X183001932Y-106232430D01*
X183001934Y-106232432D01*
X183001936Y-106232435D01*
X183147564Y-106378063D01*
X183147567Y-106378065D01*
X183147570Y-106378068D01*
X183314197Y-106499129D01*
X183389962Y-106537733D01*
X183441577Y-106586482D01*
X183458643Y-106655397D01*
X183435742Y-106722598D01*
X183389963Y-106762266D01*
X183321033Y-106797387D01*
X183314193Y-106800873D01*
X183147567Y-106921934D01*
X183147564Y-106921936D01*
X183001936Y-107067564D01*
X183001934Y-107067567D01*
X182880873Y-107234193D01*
X182787367Y-107417708D01*
X182787364Y-107417714D01*
X182723721Y-107613587D01*
X182723720Y-107613590D01*
X182723720Y-107613592D01*
X182701561Y-107753502D01*
X182691500Y-107817022D01*
X182691500Y-107951406D01*
X182671498Y-108019527D01*
X182617842Y-108066020D01*
X182547568Y-108076124D01*
X182482988Y-108046630D01*
X182476405Y-108040501D01*
X181043835Y-106607931D01*
X181043833Y-106607929D01*
X180940075Y-106538600D01*
X180824785Y-106490845D01*
X180751086Y-106476185D01*
X180702396Y-106466500D01*
X180702394Y-106466500D01*
X165162394Y-106466500D01*
X161714595Y-106466500D01*
X161646474Y-106446498D01*
X161625500Y-106429595D01*
X157383596Y-102187692D01*
X157349570Y-102125380D01*
X157349125Y-102123243D01*
X157327430Y-102014169D01*
X157327428Y-102014166D01*
X157327428Y-102014162D01*
X157266485Y-101867036D01*
X157266483Y-101867032D01*
X157178003Y-101734611D01*
X157178001Y-101734609D01*
X157177996Y-101734603D01*
X157065396Y-101622003D01*
X157065390Y-101621998D01*
X156995646Y-101575397D01*
X156932968Y-101533517D01*
X156785831Y-101472570D01*
X156733244Y-101462109D01*
X156676819Y-101450886D01*
X156613910Y-101417978D01*
X156612306Y-101416402D01*
X155370405Y-100174501D01*
X155336379Y-100112189D01*
X155333500Y-100085406D01*
X155333500Y-93920367D01*
X155991500Y-93920367D01*
X155991500Y-94079632D01*
X156005511Y-94150067D01*
X156022570Y-94235831D01*
X156083517Y-94382968D01*
X156084615Y-94384611D01*
X156171998Y-94515390D01*
X156172003Y-94515396D01*
X156284603Y-94627996D01*
X156284609Y-94628001D01*
X156284611Y-94628003D01*
X156417032Y-94716483D01*
X156564169Y-94777430D01*
X156720370Y-94808500D01*
X156720371Y-94808500D01*
X156879629Y-94808500D01*
X156879630Y-94808500D01*
X157035831Y-94777430D01*
X157182968Y-94716483D01*
X157275382Y-94654734D01*
X157343133Y-94633520D01*
X157345382Y-94633500D01*
X157605618Y-94633500D01*
X157673739Y-94653502D01*
X157675552Y-94654690D01*
X157768032Y-94716483D01*
X157915169Y-94777430D01*
X158071370Y-94808500D01*
X158071371Y-94808500D01*
X158230629Y-94808500D01*
X158230630Y-94808500D01*
X158386831Y-94777430D01*
X158533968Y-94716483D01*
X158666389Y-94628003D01*
X158779003Y-94515389D01*
X158867483Y-94382968D01*
X158928430Y-94235831D01*
X158959500Y-94079630D01*
X158959500Y-93920370D01*
X158928430Y-93764169D01*
X158867483Y-93617032D01*
X158779003Y-93484611D01*
X158779001Y-93484609D01*
X158778996Y-93484603D01*
X158666396Y-93372003D01*
X158666390Y-93371998D01*
X158658132Y-93366480D01*
X158533968Y-93283517D01*
X158386831Y-93222570D01*
X158308730Y-93207035D01*
X158230632Y-93191500D01*
X158230630Y-93191500D01*
X158071370Y-93191500D01*
X158071367Y-93191500D01*
X157954219Y-93214802D01*
X157915169Y-93222570D01*
X157768032Y-93283517D01*
X157675617Y-93345265D01*
X157607867Y-93366480D01*
X157605618Y-93366500D01*
X157345382Y-93366500D01*
X157277261Y-93346498D01*
X157275447Y-93345309D01*
X157182968Y-93283517D01*
X157035831Y-93222570D01*
X156957730Y-93207035D01*
X156879632Y-93191500D01*
X156879630Y-93191500D01*
X156720370Y-93191500D01*
X156720367Y-93191500D01*
X156603219Y-93214802D01*
X156564169Y-93222570D01*
X156564167Y-93222571D01*
X156417032Y-93283517D01*
X156284609Y-93371998D01*
X156284603Y-93372003D01*
X156172003Y-93484603D01*
X156171998Y-93484609D01*
X156083517Y-93617032D01*
X156022571Y-93764167D01*
X156022570Y-93764170D01*
X155991500Y-93920367D01*
X155333500Y-93920367D01*
X155333500Y-93537607D01*
X155333499Y-93537603D01*
X155327777Y-93508837D01*
X155310920Y-93424092D01*
X155308500Y-93399512D01*
X155308500Y-93320371D01*
X155308499Y-93320367D01*
X155277430Y-93164169D01*
X155245382Y-93086800D01*
X171642000Y-93086800D01*
X171648068Y-93163901D01*
X171696107Y-93343181D01*
X171780374Y-93508562D01*
X171780376Y-93508565D01*
X171897185Y-93652814D01*
X172041434Y-93769623D01*
X172041437Y-93769625D01*
X172206818Y-93853892D01*
X172386098Y-93901931D01*
X172463199Y-93908000D01*
X172646000Y-93908000D01*
X172646000Y-92654000D01*
X171642000Y-92654000D01*
X171642000Y-93086800D01*
X155245382Y-93086800D01*
X155216483Y-93017032D01*
X155144591Y-92909437D01*
X155123378Y-92841686D01*
X155142161Y-92773220D01*
X155160258Y-92750347D01*
X155530318Y-92380287D01*
X155592629Y-92346264D01*
X155663445Y-92351329D01*
X155689408Y-92364617D01*
X155767032Y-92416483D01*
X155914169Y-92477430D01*
X156070370Y-92508500D01*
X156070371Y-92508500D01*
X156229629Y-92508500D01*
X156229630Y-92508500D01*
X156385831Y-92477430D01*
X156532968Y-92416483D01*
X156665389Y-92328003D01*
X156778003Y-92215389D01*
X156866483Y-92082968D01*
X156900643Y-92000500D01*
X156927428Y-91935837D01*
X156927428Y-91935834D01*
X156927430Y-91935831D01*
X156949113Y-91826819D01*
X156958017Y-91809794D01*
X156962103Y-91791016D01*
X156981148Y-91765575D01*
X156982019Y-91763911D01*
X156983538Y-91762364D01*
X157032703Y-91713199D01*
X171642000Y-91713199D01*
X171642000Y-92146000D01*
X172646000Y-92146000D01*
X172646000Y-90892000D01*
X172463199Y-90892000D01*
X172386098Y-90898068D01*
X172206818Y-90946107D01*
X172041437Y-91030374D01*
X172041434Y-91030376D01*
X171897185Y-91147185D01*
X171780376Y-91291434D01*
X171780374Y-91291437D01*
X171696107Y-91456818D01*
X171648068Y-91636098D01*
X171642000Y-91713199D01*
X157032703Y-91713199D01*
X159375502Y-89370402D01*
X159437812Y-89336379D01*
X159464595Y-89333500D01*
X171159343Y-89333500D01*
X171227464Y-89353502D01*
X171273957Y-89407158D01*
X171283790Y-89439785D01*
X171287013Y-89460129D01*
X171292488Y-89494702D01*
X171333297Y-89620298D01*
X171353702Y-89683097D01*
X171442501Y-89857374D01*
X171443636Y-89859601D01*
X171560071Y-90019860D01*
X171700139Y-90159928D01*
X171750066Y-90196202D01*
X171860402Y-90276366D01*
X172036903Y-90366298D01*
X172225300Y-90427512D01*
X172420954Y-90458500D01*
X172420957Y-90458500D01*
X172619043Y-90458500D01*
X172619046Y-90458500D01*
X172814700Y-90427512D01*
X173003097Y-90366298D01*
X173003112Y-90366289D01*
X173003457Y-90366148D01*
X173003609Y-90366131D01*
X173007806Y-90364768D01*
X173008092Y-90365649D01*
X173074047Y-90358555D01*
X173137536Y-90390330D01*
X173140778Y-90393459D01*
X173424224Y-90676905D01*
X173458250Y-90739217D01*
X173453185Y-90810032D01*
X173410638Y-90866868D01*
X173344118Y-90891679D01*
X173335129Y-90892000D01*
X173154000Y-90892000D01*
X173154000Y-93908000D01*
X173336801Y-93908000D01*
X173413901Y-93901931D01*
X173593181Y-93853892D01*
X173758562Y-93769625D01*
X173758565Y-93769623D01*
X173902817Y-93652813D01*
X173951757Y-93592376D01*
X174010171Y-93552023D01*
X174081128Y-93549657D01*
X174142100Y-93586029D01*
X174147598Y-93592374D01*
X174196831Y-93653172D01*
X174341153Y-93770041D01*
X174341155Y-93770042D01*
X174341161Y-93770047D01*
X174372703Y-93786118D01*
X174424318Y-93834866D01*
X174441500Y-93898385D01*
X174441500Y-97065500D01*
X174421498Y-97133621D01*
X174367842Y-97180114D01*
X174315500Y-97191500D01*
X173750465Y-97191500D01*
X173750445Y-97191501D01*
X173602305Y-97206090D01*
X173412195Y-97263759D01*
X173236995Y-97357405D01*
X173083432Y-97483432D01*
X172957405Y-97636995D01*
X172863759Y-97812195D01*
X172806090Y-98002305D01*
X172791500Y-98150446D01*
X172791500Y-99249534D01*
X172791501Y-99249554D01*
X172806090Y-99397694D01*
X172806091Y-99397700D01*
X172806092Y-99397701D01*
X172863759Y-99587804D01*
X172957405Y-99763004D01*
X173083432Y-99916568D01*
X173236996Y-100042595D01*
X173412196Y-100136241D01*
X173602299Y-100193908D01*
X173602303Y-100193908D01*
X173602305Y-100193909D01*
X173642502Y-100197867D01*
X173750453Y-100208500D01*
X176649546Y-100208499D01*
X176709668Y-100202577D01*
X176797694Y-100193909D01*
X176797695Y-100193908D01*
X176797701Y-100193908D01*
X176987804Y-100136241D01*
X177163004Y-100042595D01*
X177316568Y-99916568D01*
X177442595Y-99763004D01*
X177536241Y-99587804D01*
X177593908Y-99397701D01*
X177599670Y-99339204D01*
X177603340Y-99301932D01*
X177608500Y-99249547D01*
X177608499Y-98150454D01*
X177600211Y-98066295D01*
X177593909Y-98002305D01*
X177593908Y-98002303D01*
X177593908Y-98002299D01*
X177536241Y-97812196D01*
X177442595Y-97636996D01*
X177316568Y-97483432D01*
X177163004Y-97357405D01*
X176987804Y-97263759D01*
X176797701Y-97206092D01*
X176797700Y-97206091D01*
X176797694Y-97206090D01*
X176649553Y-97191500D01*
X176649547Y-97191500D01*
X176084500Y-97191500D01*
X176016379Y-97171498D01*
X175969886Y-97117842D01*
X175958500Y-97065500D01*
X175958500Y-93898385D01*
X175978502Y-93830264D01*
X176027296Y-93786118D01*
X176058839Y-93770047D01*
X176203170Y-93653170D01*
X176232434Y-93617032D01*
X176252080Y-93592772D01*
X176310494Y-93552420D01*
X176381451Y-93550054D01*
X176442423Y-93586427D01*
X176447920Y-93592772D01*
X176496829Y-93653170D01*
X176641153Y-93770042D01*
X176641158Y-93770045D01*
X176641161Y-93770047D01*
X176806638Y-93854362D01*
X176986029Y-93902430D01*
X177063157Y-93908500D01*
X177936842Y-93908499D01*
X178013971Y-93902430D01*
X178193362Y-93854362D01*
X178358839Y-93770047D01*
X178358843Y-93770043D01*
X178358846Y-93770042D01*
X178503170Y-93653170D01*
X178620042Y-93508846D01*
X178620043Y-93508843D01*
X178620047Y-93508839D01*
X178704362Y-93343362D01*
X178752430Y-93163971D01*
X178758500Y-93086843D01*
X178758499Y-91713158D01*
X178752430Y-91636029D01*
X178704362Y-91456638D01*
X178622232Y-91295450D01*
X178608500Y-91238249D01*
X178608500Y-90454755D01*
X178628502Y-90386634D01*
X178658991Y-90353887D01*
X178713261Y-90313261D01*
X178800887Y-90196207D01*
X178800887Y-90196206D01*
X178800889Y-90196204D01*
X178851989Y-90059201D01*
X178853886Y-90041562D01*
X178858499Y-89998649D01*
X178858500Y-89998632D01*
X178858500Y-87451350D01*
X191526500Y-87451350D01*
X191526500Y-89448649D01*
X191533009Y-89509196D01*
X191533011Y-89509204D01*
X191584110Y-89646202D01*
X191584112Y-89646207D01*
X191671738Y-89763261D01*
X191788792Y-89850887D01*
X191796701Y-89855205D01*
X191795516Y-89857374D01*
X191841758Y-89891985D01*
X191866573Y-89958503D01*
X191851487Y-90027878D01*
X191842832Y-90041561D01*
X191738008Y-90185839D01*
X191633817Y-90390325D01*
X191562902Y-90608578D01*
X191527000Y-90835256D01*
X191527000Y-91064743D01*
X191562902Y-91291421D01*
X191633817Y-91509674D01*
X191738008Y-91714160D01*
X191790029Y-91785759D01*
X192419191Y-91156596D01*
X192425889Y-91181591D01*
X192504881Y-91318408D01*
X192616592Y-91430119D01*
X192753409Y-91509111D01*
X192778401Y-91515807D01*
X192149239Y-92144969D01*
X192220842Y-92196992D01*
X192425325Y-92301182D01*
X192643578Y-92372097D01*
X192870256Y-92408000D01*
X193099744Y-92408000D01*
X193326421Y-92372097D01*
X193544674Y-92301182D01*
X193749159Y-92196991D01*
X193820760Y-92144970D01*
X193820760Y-92144969D01*
X193191598Y-91515807D01*
X193216591Y-91509111D01*
X193353408Y-91430119D01*
X193465119Y-91318408D01*
X193544111Y-91181591D01*
X193550808Y-91156597D01*
X194179970Y-91785760D01*
X194231991Y-91714159D01*
X194336182Y-91509674D01*
X194407097Y-91291421D01*
X194443000Y-91064743D01*
X194443000Y-90846532D01*
X199114500Y-90846532D01*
X199114500Y-91053467D01*
X199119418Y-91078189D01*
X199154870Y-91256420D01*
X199234059Y-91447598D01*
X199349023Y-91619655D01*
X199349024Y-91619656D01*
X199349029Y-91619662D01*
X199495337Y-91765970D01*
X199495343Y-91765975D01*
X199495345Y-91765977D01*
X199667402Y-91880941D01*
X199858580Y-91960130D01*
X200061535Y-92000500D01*
X200061536Y-92000500D01*
X200268464Y-92000500D01*
X200268465Y-92000500D01*
X200471420Y-91960130D01*
X200662598Y-91880941D01*
X200834655Y-91765977D01*
X200980977Y-91619655D01*
X201095941Y-91447598D01*
X201175130Y-91256420D01*
X201215500Y-91053465D01*
X201215500Y-90846535D01*
X201175130Y-90643580D01*
X201095941Y-90452402D01*
X200980977Y-90280345D01*
X200980975Y-90280343D01*
X200980970Y-90280337D01*
X200834662Y-90134029D01*
X200834656Y-90134024D01*
X200834655Y-90134023D01*
X200662598Y-90019059D01*
X200471420Y-89939870D01*
X200450220Y-89935653D01*
X200268467Y-89899500D01*
X200268465Y-89899500D01*
X200061535Y-89899500D01*
X200061532Y-89899500D01*
X199858579Y-89939870D01*
X199858574Y-89939872D01*
X199667402Y-90019059D01*
X199495343Y-90134024D01*
X199495337Y-90134029D01*
X199349029Y-90280337D01*
X199349024Y-90280343D01*
X199234059Y-90452402D01*
X199154872Y-90643574D01*
X199154870Y-90643579D01*
X199114500Y-90846532D01*
X194443000Y-90846532D01*
X194443000Y-90835256D01*
X194407097Y-90608578D01*
X194336182Y-90390325D01*
X194231990Y-90185838D01*
X194127168Y-90041562D01*
X194103309Y-89974694D01*
X194119390Y-89905542D01*
X194170304Y-89856062D01*
X194178242Y-89852505D01*
X194181201Y-89850889D01*
X194181204Y-89850889D01*
X194298261Y-89763261D01*
X194385887Y-89646207D01*
X194385887Y-89646206D01*
X194385889Y-89646204D01*
X194436989Y-89509201D01*
X194437925Y-89500500D01*
X194443499Y-89448649D01*
X194443500Y-89448632D01*
X194443500Y-88346532D01*
X199114500Y-88346532D01*
X199114500Y-88553467D01*
X199139669Y-88679998D01*
X199154870Y-88756420D01*
X199234059Y-88947598D01*
X199349023Y-89119655D01*
X199349024Y-89119656D01*
X199349029Y-89119662D01*
X199495337Y-89265970D01*
X199495343Y-89265975D01*
X199495345Y-89265977D01*
X199667402Y-89380941D01*
X199858580Y-89460130D01*
X200061535Y-89500500D01*
X200061536Y-89500500D01*
X200268464Y-89500500D01*
X200268465Y-89500500D01*
X200471420Y-89460130D01*
X200662598Y-89380941D01*
X200834655Y-89265977D01*
X200980977Y-89119655D01*
X201095941Y-88947598D01*
X201175130Y-88756420D01*
X201215500Y-88553465D01*
X201215500Y-88346535D01*
X201175130Y-88143580D01*
X201095941Y-87952402D01*
X200980977Y-87780345D01*
X200980975Y-87780343D01*
X200980970Y-87780337D01*
X200834662Y-87634029D01*
X200834656Y-87634024D01*
X200834655Y-87634023D01*
X200662598Y-87519059D01*
X200471420Y-87439870D01*
X200450994Y-87435807D01*
X200268467Y-87399500D01*
X200268465Y-87399500D01*
X200061535Y-87399500D01*
X200061532Y-87399500D01*
X199858579Y-87439870D01*
X199858574Y-87439872D01*
X199667402Y-87519059D01*
X199495343Y-87634024D01*
X199495337Y-87634029D01*
X199349029Y-87780337D01*
X199349024Y-87780343D01*
X199234059Y-87952402D01*
X199154872Y-88143574D01*
X199154870Y-88143579D01*
X199114500Y-88346532D01*
X194443500Y-88346532D01*
X194443500Y-87451367D01*
X194443499Y-87451350D01*
X194436990Y-87390803D01*
X194436988Y-87390795D01*
X194385889Y-87253797D01*
X194385887Y-87253792D01*
X194298261Y-87136738D01*
X194181207Y-87049112D01*
X194181202Y-87049110D01*
X194044204Y-86998011D01*
X194044196Y-86998009D01*
X193983649Y-86991500D01*
X193983638Y-86991500D01*
X191986362Y-86991500D01*
X191986350Y-86991500D01*
X191925803Y-86998009D01*
X191925795Y-86998011D01*
X191788797Y-87049110D01*
X191788792Y-87049112D01*
X191671738Y-87136738D01*
X191584112Y-87253792D01*
X191584110Y-87253797D01*
X191533011Y-87390795D01*
X191533009Y-87390803D01*
X191526500Y-87451350D01*
X178858500Y-87451350D01*
X178858500Y-87401367D01*
X178858499Y-87401350D01*
X178851990Y-87340803D01*
X178851988Y-87340795D01*
X178814419Y-87240071D01*
X178800889Y-87203796D01*
X178800888Y-87203794D01*
X178800887Y-87203792D01*
X178713261Y-87086738D01*
X178596207Y-86999112D01*
X178596202Y-86999110D01*
X178459204Y-86948011D01*
X178459196Y-86948009D01*
X178398649Y-86941500D01*
X178398638Y-86941500D01*
X176801362Y-86941500D01*
X176801350Y-86941500D01*
X176740803Y-86948009D01*
X176740795Y-86948011D01*
X176603797Y-86999110D01*
X176603792Y-86999112D01*
X176486738Y-87086738D01*
X176399112Y-87203792D01*
X176399110Y-87203797D01*
X176348011Y-87340795D01*
X176348009Y-87340803D01*
X176341500Y-87401350D01*
X176341500Y-87435807D01*
X176321498Y-87503928D01*
X176267842Y-87550421D01*
X176197568Y-87560525D01*
X176132988Y-87531031D01*
X176113564Y-87509868D01*
X176019547Y-87380465D01*
X175879537Y-87240455D01*
X175879534Y-87240453D01*
X175719339Y-87124064D01*
X175542902Y-87034165D01*
X175354579Y-86972975D01*
X175314000Y-86966547D01*
X175314000Y-88269297D01*
X175252993Y-88234075D01*
X175125826Y-88200000D01*
X174994174Y-88200000D01*
X174867007Y-88234075D01*
X174806000Y-88269297D01*
X174806000Y-86966547D01*
X174765420Y-86972975D01*
X174577097Y-87034165D01*
X174400660Y-87124064D01*
X174240465Y-87240453D01*
X174240462Y-87240455D01*
X174100455Y-87380462D01*
X174100453Y-87380465D01*
X173984064Y-87540660D01*
X173902548Y-87700646D01*
X173853800Y-87752261D01*
X173784885Y-87769327D01*
X173717683Y-87746426D01*
X173678015Y-87700647D01*
X173596366Y-87540402D01*
X173531678Y-87451367D01*
X173479928Y-87380139D01*
X173339860Y-87240071D01*
X173179601Y-87123636D01*
X173179600Y-87123635D01*
X173179598Y-87123634D01*
X173003097Y-87033702D01*
X172814700Y-86972488D01*
X172619046Y-86941500D01*
X172420954Y-86941500D01*
X172225300Y-86972488D01*
X172225297Y-86972488D01*
X172225296Y-86972489D01*
X172036903Y-87033702D01*
X172036901Y-87033703D01*
X171860398Y-87123636D01*
X171700139Y-87240071D01*
X171560071Y-87380139D01*
X171443636Y-87540398D01*
X171353703Y-87716901D01*
X171353702Y-87716903D01*
X171292488Y-87905297D01*
X171292488Y-87905300D01*
X171283790Y-87960212D01*
X171253380Y-88024363D01*
X171193112Y-88061890D01*
X171159343Y-88066500D01*
X159087603Y-88066500D01*
X159014568Y-88081028D01*
X158965215Y-88090845D01*
X158965213Y-88090845D01*
X158965212Y-88090846D01*
X158940810Y-88100954D01*
X158940809Y-88100954D01*
X158849923Y-88138600D01*
X158746171Y-88207925D01*
X158746164Y-88207930D01*
X156087692Y-90866402D01*
X156025380Y-90900428D01*
X156023179Y-90900886D01*
X155915280Y-90922349D01*
X155914169Y-90922570D01*
X155767032Y-90983517D01*
X155674617Y-91045265D01*
X155606867Y-91066480D01*
X155604618Y-91066500D01*
X155252302Y-91066500D01*
X155129919Y-91090844D01*
X155129911Y-91090846D01*
X155096149Y-91104830D01*
X155096149Y-91104831D01*
X155014627Y-91138599D01*
X154910869Y-91207927D01*
X154910863Y-91207932D01*
X152096167Y-94022631D01*
X152007931Y-94110866D01*
X152007926Y-94110873D01*
X151938600Y-94214626D01*
X151890845Y-94329917D01*
X151890844Y-94329918D01*
X151888231Y-94343056D01*
X151869419Y-94388469D01*
X151783516Y-94517033D01*
X151776300Y-94534454D01*
X151726989Y-94653502D01*
X151722571Y-94664167D01*
X151722570Y-94664170D01*
X151691500Y-94820367D01*
X148075500Y-94820367D01*
X148075500Y-86201500D01*
X148095502Y-86133379D01*
X148149158Y-86086886D01*
X148201500Y-86075500D01*
X203798500Y-86075500D01*
X203866621Y-86095502D01*
G37*
G04 #@! TD.AperFunction*
M02*
