G04 #@! TF.GenerationSoftware,KiCad,Pcbnew,9.0.1*
G04 #@! TF.CreationDate,2025-04-16T16:06:57+02:00*
G04 #@! TF.ProjectId,RulleGardin,52756c6c-6547-4617-9264-696e2e6b6963,rev?*
G04 #@! TF.SameCoordinates,Original*
G04 #@! TF.FileFunction,Copper,L1,Top*
G04 #@! TF.FilePolarity,Positive*
%FSLAX46Y46*%
G04 Gerber Fmt 4.6, Leading zero omitted, Abs format (unit mm)*
G04 Created by KiCad (PCBNEW 9.0.1) date 2025-04-16 16:06:57*
%MOMM*%
%LPD*%
G01*
G04 APERTURE LIST*
G04 Aperture macros list*
%AMRoundRect*
0 Rectangle with rounded corners*
0 $1 Rounding radius*
0 $2 $3 $4 $5 $6 $7 $8 $9 X,Y pos of 4 corners*
0 Add a 4 corners polygon primitive as box body*
4,1,4,$2,$3,$4,$5,$6,$7,$8,$9,$2,$3,0*
0 Add four circle primitives for the rounded corners*
1,1,$1+$1,$2,$3*
1,1,$1+$1,$4,$5*
1,1,$1+$1,$6,$7*
1,1,$1+$1,$8,$9*
0 Add four rect primitives between the rounded corners*
20,1,$1+$1,$2,$3,$4,$5,0*
20,1,$1+$1,$4,$5,$6,$7,0*
20,1,$1+$1,$6,$7,$8,$9,0*
20,1,$1+$1,$8,$9,$2,$3,0*%
%AMFreePoly0*
4,1,23,0.550000,-0.750000,0.000000,-0.750000,0.000000,-0.745722,-0.065263,-0.745722,-0.191342,-0.711940,-0.304381,-0.646677,-0.396677,-0.554381,-0.461940,-0.441342,-0.495722,-0.315263,-0.495722,-0.250000,-0.500000,-0.250000,-0.500000,0.250000,-0.495722,0.250000,-0.495722,0.315263,-0.461940,0.441342,-0.396677,0.554381,-0.304381,0.646677,-0.191342,0.711940,-0.065263,0.745722,0.000000,0.745722,
0.000000,0.750000,0.550000,0.750000,0.550000,-0.750000,0.550000,-0.750000,$1*%
%AMFreePoly1*
4,1,23,0.000000,0.745722,0.065263,0.745722,0.191342,0.711940,0.304381,0.646677,0.396677,0.554381,0.461940,0.441342,0.495722,0.315263,0.495722,0.250000,0.500000,0.250000,0.500000,-0.250000,0.495722,-0.250000,0.495722,-0.315263,0.461940,-0.441342,0.396677,-0.554381,0.304381,-0.646677,0.191342,-0.711940,0.065263,-0.745722,0.000000,-0.745722,0.000000,-0.750000,-0.550000,-0.750000,
-0.550000,0.750000,0.000000,0.750000,0.000000,0.745722,0.000000,0.745722,$1*%
G04 Aperture macros list end*
G04 #@! TA.AperFunction,SMDPad,CuDef*
%ADD10RoundRect,0.250000X-1.050000X-0.550000X1.050000X-0.550000X1.050000X0.550000X-1.050000X0.550000X0*%
G04 #@! TD*
G04 #@! TA.AperFunction,SMDPad,CuDef*
%ADD11RoundRect,0.225000X0.225000X0.250000X-0.225000X0.250000X-0.225000X-0.250000X0.225000X-0.250000X0*%
G04 #@! TD*
G04 #@! TA.AperFunction,SMDPad,CuDef*
%ADD12RoundRect,0.225000X-0.250000X0.225000X-0.250000X-0.225000X0.250000X-0.225000X0.250000X0.225000X0*%
G04 #@! TD*
G04 #@! TA.AperFunction,SMDPad,CuDef*
%ADD13RoundRect,0.225000X-0.225000X-0.250000X0.225000X-0.250000X0.225000X0.250000X-0.225000X0.250000X0*%
G04 #@! TD*
G04 #@! TA.AperFunction,ComponentPad*
%ADD14R,1.700000X1.700000*%
G04 #@! TD*
G04 #@! TA.AperFunction,ComponentPad*
%ADD15O,1.700000X1.700000*%
G04 #@! TD*
G04 #@! TA.AperFunction,SMDPad,CuDef*
%ADD16RoundRect,0.200000X0.200000X0.275000X-0.200000X0.275000X-0.200000X-0.275000X0.200000X-0.275000X0*%
G04 #@! TD*
G04 #@! TA.AperFunction,SMDPad,CuDef*
%ADD17R,0.740000X2.400000*%
G04 #@! TD*
G04 #@! TA.AperFunction,ComponentPad*
%ADD18R,1.900000X1.900000*%
G04 #@! TD*
G04 #@! TA.AperFunction,ComponentPad*
%ADD19C,1.900000*%
G04 #@! TD*
G04 #@! TA.AperFunction,ComponentPad*
%ADD20R,1.600000X1.600000*%
G04 #@! TD*
G04 #@! TA.AperFunction,ComponentPad*
%ADD21O,1.600000X1.600000*%
G04 #@! TD*
G04 #@! TA.AperFunction,SMDPad,CuDef*
%ADD22R,1.500000X0.600000*%
G04 #@! TD*
G04 #@! TA.AperFunction,ComponentPad*
%ADD23R,1.500000X2.500000*%
G04 #@! TD*
G04 #@! TA.AperFunction,ComponentPad*
%ADD24O,1.500000X2.500000*%
G04 #@! TD*
G04 #@! TA.AperFunction,SMDPad,CuDef*
%ADD25R,0.900000X1.500000*%
G04 #@! TD*
G04 #@! TA.AperFunction,SMDPad,CuDef*
%ADD26R,1.500000X0.900000*%
G04 #@! TD*
G04 #@! TA.AperFunction,HeatsinkPad*
%ADD27R,4.100000X4.100000*%
G04 #@! TD*
G04 #@! TA.AperFunction,SMDPad,CuDef*
%ADD28FreePoly0,90.000000*%
G04 #@! TD*
G04 #@! TA.AperFunction,SMDPad,CuDef*
%ADD29R,1.500000X1.000000*%
G04 #@! TD*
G04 #@! TA.AperFunction,SMDPad,CuDef*
%ADD30FreePoly1,90.000000*%
G04 #@! TD*
G04 #@! TA.AperFunction,SMDPad,CuDef*
%ADD31RoundRect,0.250000X1.500000X0.550000X-1.500000X0.550000X-1.500000X-0.550000X1.500000X-0.550000X0*%
G04 #@! TD*
G04 #@! TA.AperFunction,ViaPad*
%ADD32C,0.600000*%
G04 #@! TD*
G04 #@! TA.AperFunction,Conductor*
%ADD33C,0.250000*%
G04 #@! TD*
G04 #@! TA.AperFunction,Conductor*
%ADD34C,1.000000*%
G04 #@! TD*
G04 #@! TA.AperFunction,Conductor*
%ADD35C,0.500000*%
G04 #@! TD*
G04 APERTURE END LIST*
D10*
X198500000Y-116500000D03*
X202100000Y-116500000D03*
D11*
X172450000Y-95300000D03*
X170900000Y-95300000D03*
D12*
X194600000Y-95600000D03*
X194600000Y-97150000D03*
D13*
X187862500Y-116000000D03*
X189412500Y-116000000D03*
D14*
X200000000Y-98380000D03*
D15*
X200000000Y-100920000D03*
X200000000Y-103460000D03*
X200000000Y-106000000D03*
X200000000Y-108540000D03*
D16*
X156150000Y-90900000D03*
X154500000Y-90900000D03*
X156150000Y-92400000D03*
X154500000Y-92400000D03*
D17*
X152500000Y-89400000D03*
X152500000Y-93300000D03*
X151230000Y-89400000D03*
X151230000Y-93300000D03*
X149960000Y-89400000D03*
X149960000Y-93300000D03*
D18*
X192985000Y-88450000D03*
D19*
X192985000Y-90950000D03*
D20*
X196700000Y-113000000D03*
D21*
X196700000Y-110460000D03*
X196700000Y-107920000D03*
X196700000Y-105380000D03*
X196700000Y-102840000D03*
X196700000Y-100300000D03*
X196700000Y-97760000D03*
X196700000Y-95220000D03*
X184000000Y-95220000D03*
X184000000Y-97760000D03*
X184000000Y-100300000D03*
X184000000Y-102840000D03*
X184000000Y-105380000D03*
X184000000Y-107920000D03*
X184000000Y-110460000D03*
X184000000Y-113000000D03*
D22*
X188000000Y-101000000D03*
X188000000Y-102270000D03*
X188000000Y-103540000D03*
X188000000Y-104810000D03*
X188000000Y-106080000D03*
X188000000Y-107350000D03*
X188000000Y-108620000D03*
X188000000Y-109890000D03*
X193400000Y-109890000D03*
X193400000Y-108620000D03*
X193400000Y-107350000D03*
X193400000Y-106080000D03*
X193400000Y-104810000D03*
X193400000Y-103540000D03*
X193400000Y-102270000D03*
X193400000Y-101000000D03*
D23*
X177600000Y-88700000D03*
D24*
X175060000Y-88700000D03*
X172520000Y-88700000D03*
D25*
X149100000Y-115800000D03*
X150600000Y-115800000D03*
X152100000Y-115800000D03*
X153600000Y-115800000D03*
X155100000Y-115800000D03*
X156600000Y-115800000D03*
X158100000Y-115800000D03*
X159600000Y-115800000D03*
X161100000Y-115800000D03*
X162600000Y-115800000D03*
X164100000Y-115800000D03*
X165600000Y-115800000D03*
X167100000Y-115800000D03*
X168600000Y-115800000D03*
X170100000Y-115800000D03*
X171600000Y-115800000D03*
D26*
X172350000Y-113925000D03*
X172350000Y-112425000D03*
X172350000Y-110925000D03*
X172350000Y-109425000D03*
X172350000Y-107925000D03*
X172350000Y-106425000D03*
X172350000Y-104925000D03*
X172350000Y-103425000D03*
X172350000Y-101925000D03*
X172350000Y-100425000D03*
D25*
X171700000Y-98550000D03*
X170200000Y-98550000D03*
X168700000Y-98550000D03*
X167200000Y-98550000D03*
X165700000Y-98550000D03*
X164200000Y-98550000D03*
X162700000Y-98550000D03*
X161200000Y-98550000D03*
X159700000Y-98550000D03*
X158200000Y-98550000D03*
X156700000Y-98550000D03*
X155200000Y-98550000D03*
X153700000Y-98550000D03*
X152100000Y-98550000D03*
X150600000Y-98550000D03*
X149200000Y-98550000D03*
D27*
X157140000Y-108365000D03*
D28*
X178657500Y-103500000D03*
D29*
X178657500Y-102200000D03*
D30*
X178657500Y-100900000D03*
D11*
X156150000Y-89400000D03*
X154600000Y-89400000D03*
D13*
X149150000Y-117600000D03*
X150700000Y-117600000D03*
D11*
X189450000Y-117600000D03*
X187900000Y-117600000D03*
D31*
X188800000Y-89900000D03*
X183400000Y-89900000D03*
D28*
X181157500Y-102000000D03*
D29*
X181157500Y-100700000D03*
D30*
X181157500Y-99400000D03*
D28*
X178600000Y-98900000D03*
D29*
X178600000Y-97600000D03*
D30*
X178600000Y-96300000D03*
D32*
X152500000Y-94900000D03*
X156150000Y-91700000D03*
X156550000Y-102250000D03*
X154500000Y-93400000D03*
X194600000Y-98000000D03*
X190300000Y-117600000D03*
X190100000Y-116000000D03*
X155300000Y-117400000D03*
X186900000Y-106100000D03*
X179800000Y-103500000D03*
X182200000Y-102000000D03*
X179700000Y-98900000D03*
X171100000Y-100900000D03*
X149200000Y-114600000D03*
X158151000Y-94000000D03*
X156800000Y-94000000D03*
X149300000Y-97400000D03*
X151200000Y-95000000D03*
X156900000Y-89500000D03*
D33*
X152500000Y-94900000D02*
X152500000Y-93300000D01*
X156150000Y-90900000D02*
X156150000Y-91700000D01*
D34*
X187099000Y-118401000D02*
X151501000Y-118401000D01*
X187900000Y-117600000D02*
X187099000Y-118401000D01*
X151501000Y-118401000D02*
X150700000Y-117600000D01*
D33*
X152100000Y-115800000D02*
X152100000Y-106700000D01*
X152100000Y-106700000D02*
X156550000Y-102250000D01*
X154500000Y-93400000D02*
X154500000Y-92400000D01*
D35*
X194600000Y-97150000D02*
X194600000Y-98000000D01*
X199331000Y-109209000D02*
X200000000Y-108540000D01*
X196181818Y-109209000D02*
X199331000Y-109209000D01*
X195500818Y-109890000D02*
X196181818Y-109209000D01*
X193400000Y-109890000D02*
X195500818Y-109890000D01*
X196700000Y-107600000D02*
X196700000Y-107920000D01*
X193910000Y-104810000D02*
X196700000Y-107600000D01*
X193400000Y-104810000D02*
X193910000Y-104810000D01*
X193400000Y-103540000D02*
X194860000Y-103540000D01*
X194860000Y-103540000D02*
X196700000Y-105380000D01*
X196130000Y-102270000D02*
X196700000Y-102840000D01*
X193400000Y-102270000D02*
X196130000Y-102270000D01*
X193400000Y-101000000D02*
X196000000Y-101000000D01*
X196000000Y-101000000D02*
X196700000Y-100300000D01*
D34*
X173900000Y-92200000D02*
X172520000Y-90820000D01*
X191100000Y-100197265D02*
X183102735Y-92200000D01*
X172520000Y-90820000D02*
X172520000Y-88700000D01*
X191100000Y-114824000D02*
X191100000Y-100197265D01*
X183102735Y-92200000D02*
X173900000Y-92200000D01*
X191100000Y-114824000D02*
X188563500Y-114824000D01*
X187900000Y-116037500D02*
X187862500Y-116000000D01*
X187900000Y-117600000D02*
X187900000Y-116037500D01*
X187862500Y-115525000D02*
X187862500Y-116000000D01*
X188563500Y-114824000D02*
X187862500Y-115525000D01*
X196824000Y-114824000D02*
X191100000Y-114824000D01*
X198500000Y-116500000D02*
X196824000Y-114824000D01*
D33*
X189450000Y-117600000D02*
X190300000Y-117600000D01*
X189412500Y-116000000D02*
X190100000Y-116000000D01*
X155300000Y-116000000D02*
X155100000Y-115800000D01*
X155300000Y-117400000D02*
X155300000Y-116000000D01*
X158899000Y-114701000D02*
X158100000Y-115500000D01*
X182299000Y-114701000D02*
X158899000Y-114701000D01*
X184000000Y-113000000D02*
X182299000Y-114701000D01*
X158100000Y-115500000D02*
X158100000Y-115800000D01*
X159600000Y-116800000D02*
X159600000Y-115800000D01*
X189527000Y-110702810D02*
X182929810Y-117300000D01*
X182929810Y-117300000D02*
X160100000Y-117300000D01*
X189527000Y-102077000D02*
X189527000Y-110702810D01*
X188450000Y-101000000D02*
X189527000Y-102077000D01*
X188000000Y-101000000D02*
X188450000Y-101000000D01*
X160100000Y-117300000D02*
X159600000Y-116800000D01*
X186920000Y-106080000D02*
X186900000Y-106100000D01*
X188000000Y-106080000D02*
X186920000Y-106080000D01*
X188000000Y-106080000D02*
X188000000Y-109890000D01*
X188450000Y-103540000D02*
X188000000Y-103540000D01*
X189076000Y-110516000D02*
X189076000Y-104166000D01*
X186592000Y-113000000D02*
X189076000Y-110516000D01*
X189076000Y-104166000D02*
X188450000Y-103540000D01*
X184000000Y-113000000D02*
X186592000Y-113000000D01*
X184000000Y-107920000D02*
X184000000Y-105380000D01*
X182874000Y-104913595D02*
X183821595Y-103966000D01*
X182874000Y-109334000D02*
X182874000Y-104913595D01*
X183821595Y-103966000D02*
X185034000Y-103966000D01*
X186730000Y-102270000D02*
X188000000Y-102270000D01*
X184000000Y-110460000D02*
X182874000Y-109334000D01*
X185034000Y-103966000D02*
X186730000Y-102270000D01*
X184570000Y-104810000D02*
X184000000Y-105380000D01*
X188000000Y-104810000D02*
X184570000Y-104810000D01*
X178657500Y-103500000D02*
X179800000Y-103500000D01*
X181157500Y-102000000D02*
X182200000Y-102000000D01*
X178600000Y-98900000D02*
X179700000Y-98900000D01*
X180757500Y-99800000D02*
X176900000Y-99800000D01*
X181157500Y-99400000D02*
X180757500Y-99800000D01*
X176900000Y-99800000D02*
X176900000Y-100600000D01*
X177200000Y-100900000D02*
X178657500Y-100900000D01*
X176900000Y-100600000D02*
X177200000Y-100900000D01*
X176900000Y-96300000D02*
X176900000Y-99800000D01*
X176900000Y-96300000D02*
X178600000Y-96300000D01*
X179932288Y-102200000D02*
X180572288Y-102840000D01*
X180572288Y-102840000D02*
X184000000Y-102840000D01*
X178657500Y-102200000D02*
X179932288Y-102200000D01*
X183600000Y-100700000D02*
X184000000Y-100300000D01*
X181157500Y-100700000D02*
X183600000Y-100700000D01*
X183840000Y-97600000D02*
X184000000Y-97760000D01*
X178600000Y-97600000D02*
X183840000Y-97600000D01*
X173700000Y-96300000D02*
X176900000Y-96300000D01*
X172700000Y-95300000D02*
X173700000Y-96300000D01*
X172450000Y-95300000D02*
X172700000Y-95300000D01*
X172450000Y-88770000D02*
X172520000Y-88700000D01*
X172450000Y-95300000D02*
X172450000Y-88770000D01*
X171575000Y-100425000D02*
X171100000Y-100900000D01*
X172350000Y-100425000D02*
X171575000Y-100425000D01*
X149100000Y-114700000D02*
X149200000Y-114600000D01*
X149100000Y-115800000D02*
X149100000Y-114700000D01*
X149150000Y-115850000D02*
X149100000Y-115800000D01*
X149150000Y-117600000D02*
X149150000Y-115850000D01*
X150700000Y-115900000D02*
X150600000Y-115800000D01*
X150700000Y-117600000D02*
X150700000Y-115900000D01*
X151107000Y-87423000D02*
X149960000Y-88570000D01*
X156346108Y-87423000D02*
X151107000Y-87423000D01*
X158151000Y-89227892D02*
X156346108Y-87423000D01*
X158151000Y-94000000D02*
X158151000Y-89227892D01*
X149960000Y-88570000D02*
X149960000Y-89400000D01*
X155200000Y-95600000D02*
X156800000Y-94000000D01*
X155200000Y-98550000D02*
X155200000Y-95600000D01*
X156700000Y-96800000D02*
X156700000Y-98550000D01*
X156159298Y-87874000D02*
X157526000Y-89240702D01*
X157526000Y-89240702D02*
X157526000Y-95974000D01*
X151926000Y-87874000D02*
X156159298Y-87874000D01*
X151230000Y-88570000D02*
X151926000Y-87874000D01*
X157526000Y-95974000D02*
X156700000Y-96800000D01*
X151230000Y-89400000D02*
X151230000Y-88570000D01*
X152500000Y-90352000D02*
X152500000Y-89400000D01*
X149264000Y-91774000D02*
X150112000Y-90926000D01*
X149264000Y-94826000D02*
X149264000Y-91774000D01*
X150600000Y-96162000D02*
X149264000Y-94826000D01*
X150112000Y-90926000D02*
X151926000Y-90926000D01*
X150600000Y-98550000D02*
X150600000Y-96162000D01*
X151926000Y-90926000D02*
X152500000Y-90352000D01*
X149200000Y-97500000D02*
X149300000Y-97400000D01*
X149200000Y-98550000D02*
X149200000Y-97500000D01*
X151230000Y-94970000D02*
X151200000Y-95000000D01*
X151230000Y-93300000D02*
X151230000Y-94970000D01*
X156800000Y-89400000D02*
X156900000Y-89500000D01*
X156150000Y-89400000D02*
X156800000Y-89400000D01*
X156150000Y-92400000D02*
X156150000Y-91700000D01*
X154600000Y-89400000D02*
X152500000Y-89400000D01*
X154500000Y-89500000D02*
X154600000Y-89400000D01*
X154500000Y-90900000D02*
X154500000Y-89500000D01*
X149960000Y-92470000D02*
X149960000Y-93300000D01*
X153874000Y-91774000D02*
X150656000Y-91774000D01*
X154500000Y-92400000D02*
X153874000Y-91774000D01*
X150656000Y-91774000D02*
X149960000Y-92470000D01*
D34*
X196700000Y-107920000D02*
X198080000Y-107920000D01*
X198080000Y-107920000D02*
X200000000Y-106000000D01*
X198080000Y-105380000D02*
X200000000Y-103460000D01*
X196700000Y-105380000D02*
X198080000Y-105380000D01*
X199971370Y-100700000D02*
X200220000Y-100700000D01*
X200220000Y-100700000D02*
X200000000Y-100920000D01*
X197831370Y-102840000D02*
X199971370Y-100700000D01*
X196700000Y-102840000D02*
X197831370Y-102840000D01*
X198080000Y-100300000D02*
X200000000Y-98380000D01*
X196700000Y-100300000D02*
X198080000Y-100300000D01*
X202100000Y-97600000D02*
X199720000Y-95220000D01*
X202100000Y-106440000D02*
X202100000Y-97600000D01*
X200000000Y-108540000D02*
X202100000Y-106440000D01*
X199720000Y-95220000D02*
X196700000Y-95220000D01*
X188800000Y-92700000D02*
X188800000Y-89900000D01*
X191700000Y-95600000D02*
X188800000Y-92700000D01*
X194600000Y-95600000D02*
X191700000Y-95600000D01*
X196700000Y-95220000D02*
X194980000Y-95220000D01*
X194980000Y-95220000D02*
X194600000Y-95600000D01*
X187299000Y-88399000D02*
X188800000Y-89900000D01*
X177901000Y-88399000D02*
X187299000Y-88399000D01*
X177600000Y-88700000D02*
X177901000Y-88399000D01*
X192985000Y-88450000D02*
X190250000Y-88450000D01*
X190250000Y-88450000D02*
X188800000Y-89900000D01*
G04 #@! TA.AperFunction,Conductor*
G36*
X153530100Y-92805949D02*
G01*
X153538530Y-92805847D01*
X153561920Y-92820481D01*
X153587012Y-92831941D01*
X153591709Y-92839119D01*
X153598717Y-92843504D01*
X153618471Y-92873437D01*
X153622195Y-92881336D01*
X153649173Y-92967913D01*
X153712013Y-93071864D01*
X153714788Y-93077749D01*
X153719302Y-93106657D01*
X153726769Y-93134937D01*
X153724711Y-93141292D01*
X153725743Y-93147895D01*
X153723551Y-93158054D01*
X153723778Y-93158099D01*
X153722571Y-93164166D01*
X153722570Y-93164169D01*
X153708904Y-93232873D01*
X153691500Y-93320367D01*
X153691500Y-93479632D01*
X153694127Y-93492837D01*
X153722570Y-93635831D01*
X153783517Y-93782968D01*
X153871997Y-93915389D01*
X153871998Y-93915390D01*
X153872003Y-93915396D01*
X153984603Y-94027996D01*
X153984609Y-94028001D01*
X153984611Y-94028003D01*
X154117032Y-94116483D01*
X154264169Y-94177430D01*
X154420370Y-94208500D01*
X154420371Y-94208500D01*
X154579629Y-94208500D01*
X154579630Y-94208500D01*
X154735831Y-94177430D01*
X154882968Y-94116483D01*
X155015389Y-94028003D01*
X155128003Y-93915389D01*
X155216483Y-93782968D01*
X155277430Y-93635831D01*
X155308500Y-93479630D01*
X155308500Y-93337850D01*
X155328502Y-93269729D01*
X155382158Y-93223236D01*
X155452432Y-93213132D01*
X155502361Y-93234463D01*
X155503323Y-93232873D01*
X155509844Y-93236815D01*
X155509845Y-93236816D01*
X155657087Y-93325827D01*
X155821351Y-93377013D01*
X155892735Y-93383500D01*
X156003829Y-93383499D01*
X156071948Y-93403500D01*
X156118441Y-93457156D01*
X156128546Y-93527430D01*
X156108595Y-93579498D01*
X156083517Y-93617030D01*
X156083517Y-93617031D01*
X156022570Y-93764168D01*
X156000886Y-93873178D01*
X155967978Y-93936087D01*
X155966403Y-93937690D01*
X154796167Y-95107929D01*
X154707927Y-95196169D01*
X154707926Y-95196171D01*
X154685433Y-95229835D01*
X154638600Y-95299925D01*
X154618821Y-95347675D01*
X154601548Y-95389377D01*
X154590845Y-95415215D01*
X154590809Y-95415396D01*
X154566500Y-95537603D01*
X154566500Y-97231153D01*
X154546498Y-97299274D01*
X154492842Y-97345767D01*
X154422568Y-97355871D01*
X154396468Y-97349209D01*
X154259199Y-97298010D01*
X154259196Y-97298009D01*
X154198649Y-97291500D01*
X154198638Y-97291500D01*
X153201362Y-97291500D01*
X153201350Y-97291500D01*
X153140803Y-97298009D01*
X153140795Y-97298011D01*
X153003796Y-97349110D01*
X153003793Y-97349112D01*
X152975506Y-97370287D01*
X152908985Y-97395096D01*
X152839612Y-97380003D01*
X152824494Y-97370287D01*
X152796206Y-97349112D01*
X152796203Y-97349110D01*
X152659204Y-97298011D01*
X152659196Y-97298009D01*
X152598649Y-97291500D01*
X152598638Y-97291500D01*
X151601362Y-97291500D01*
X151601350Y-97291500D01*
X151540803Y-97298009D01*
X151540800Y-97298010D01*
X151403532Y-97349209D01*
X151332717Y-97354273D01*
X151270405Y-97320248D01*
X151236379Y-97257936D01*
X151233500Y-97231153D01*
X151233500Y-96099607D01*
X151233499Y-96099603D01*
X151233002Y-96097104D01*
X151209155Y-95977215D01*
X151161400Y-95861925D01*
X151092071Y-95758167D01*
X151003833Y-95669929D01*
X150502592Y-95168688D01*
X150486264Y-95138786D01*
X150468572Y-95106403D01*
X150468573Y-95106388D01*
X150468566Y-95106376D01*
X150471216Y-95069312D01*
X150473622Y-95035586D01*
X150473629Y-95035575D01*
X150473631Y-95035561D01*
X150494557Y-95007606D01*
X150516156Y-94978741D01*
X150516172Y-94978731D01*
X150516178Y-94978725D01*
X150547629Y-94961547D01*
X150551659Y-94960043D01*
X150622470Y-94954964D01*
X150639746Y-94960034D01*
X150750906Y-95001494D01*
X150811402Y-95007999D01*
X150811415Y-95008000D01*
X150976000Y-95008000D01*
X150976000Y-93426000D01*
X150996002Y-93357879D01*
X151049658Y-93311386D01*
X151102000Y-93300000D01*
X151358000Y-93300000D01*
X151426121Y-93320002D01*
X151472614Y-93373658D01*
X151484000Y-93426000D01*
X151484000Y-95008000D01*
X151593737Y-95008000D01*
X151661858Y-95028002D01*
X151708351Y-95081658D01*
X151717315Y-95109416D01*
X151722570Y-95135831D01*
X151783517Y-95282968D01*
X151854613Y-95389371D01*
X151871998Y-95415390D01*
X151872003Y-95415396D01*
X151984603Y-95527996D01*
X151984609Y-95528001D01*
X151984611Y-95528003D01*
X152117032Y-95616483D01*
X152264169Y-95677430D01*
X152420370Y-95708500D01*
X152420371Y-95708500D01*
X152579629Y-95708500D01*
X152579630Y-95708500D01*
X152735831Y-95677430D01*
X152882968Y-95616483D01*
X153015389Y-95528003D01*
X153128003Y-95415389D01*
X153216483Y-95282968D01*
X153277430Y-95135831D01*
X153308500Y-94979630D01*
X153308500Y-94820370D01*
X153308498Y-94820362D01*
X153308011Y-94815417D01*
X153319414Y-94755272D01*
X153317739Y-94754648D01*
X153320887Y-94746205D01*
X153320889Y-94746204D01*
X153371989Y-94609201D01*
X153373844Y-94591953D01*
X153378499Y-94548649D01*
X153378500Y-94548632D01*
X153378500Y-92927165D01*
X153380874Y-92919076D01*
X153379574Y-92910747D01*
X153390729Y-92885514D01*
X153398502Y-92859044D01*
X153404873Y-92853523D01*
X153408282Y-92845813D01*
X153431308Y-92830616D01*
X153452158Y-92812551D01*
X153460501Y-92811351D01*
X153467538Y-92806708D01*
X153495123Y-92806373D01*
X153522432Y-92802447D01*
X153530100Y-92805949D01*
G37*
G04 #@! TD.AperFunction*
G04 #@! TA.AperFunction,Conductor*
G36*
X203866621Y-86095502D02*
G01*
X203913114Y-86149158D01*
X203924500Y-86201500D01*
X203924500Y-115348335D01*
X203904498Y-115416456D01*
X203850842Y-115462949D01*
X203780568Y-115473053D01*
X203715988Y-115443559D01*
X203709405Y-115437430D01*
X203623345Y-115351370D01*
X203623339Y-115351365D01*
X203472525Y-115258342D01*
X203304321Y-115202606D01*
X203304318Y-115202605D01*
X203200516Y-115192000D01*
X202354000Y-115192000D01*
X202354000Y-117808000D01*
X203200517Y-117808000D01*
X203200516Y-117807999D01*
X203304318Y-117797394D01*
X203304321Y-117797393D01*
X203472525Y-117741657D01*
X203623339Y-117648634D01*
X203623345Y-117648629D01*
X203709405Y-117562570D01*
X203771717Y-117528544D01*
X203842532Y-117533609D01*
X203899368Y-117576156D01*
X203924179Y-117642676D01*
X203924500Y-117651665D01*
X203924500Y-118798500D01*
X203904498Y-118866621D01*
X203850842Y-118913114D01*
X203798500Y-118924500D01*
X188305924Y-118924500D01*
X188237803Y-118904498D01*
X188191310Y-118850842D01*
X188181206Y-118780568D01*
X188210700Y-118715988D01*
X188216828Y-118709405D01*
X188370866Y-118555366D01*
X188395107Y-118536436D01*
X188407076Y-118529250D01*
X188437101Y-118519302D01*
X188583040Y-118429285D01*
X188597218Y-118415106D01*
X188610501Y-118407133D01*
X188630455Y-118401930D01*
X188648554Y-118392045D01*
X188664110Y-118393155D01*
X188679201Y-118389221D01*
X188698801Y-118395632D01*
X188719370Y-118397101D01*
X188736042Y-118407814D01*
X188746679Y-118411294D01*
X188752411Y-118418333D01*
X188764447Y-118426067D01*
X188767265Y-118428885D01*
X188767271Y-118428890D01*
X188913115Y-118518847D01*
X189075758Y-118572742D01*
X189075770Y-118572744D01*
X189176147Y-118582999D01*
X189176147Y-118583000D01*
X189196000Y-118583000D01*
X189704000Y-118583000D01*
X189723853Y-118583000D01*
X189723852Y-118582999D01*
X189824229Y-118572744D01*
X189824241Y-118572742D01*
X189986884Y-118518847D01*
X190132728Y-118428890D01*
X190132734Y-118428885D01*
X190253885Y-118307734D01*
X190253890Y-118307728D01*
X190343847Y-118161884D01*
X190397742Y-117999241D01*
X190397744Y-117999229D01*
X190407999Y-117898852D01*
X190408000Y-117898852D01*
X190408000Y-117854000D01*
X189704000Y-117854000D01*
X189704000Y-118583000D01*
X189196000Y-118583000D01*
X189196000Y-117114999D01*
X189195405Y-117114404D01*
X189161379Y-117052092D01*
X189158500Y-117025309D01*
X189158500Y-116485001D01*
X189666500Y-116485001D01*
X189667095Y-116485596D01*
X189701121Y-116547908D01*
X189704000Y-116574691D01*
X189704000Y-117346000D01*
X190408000Y-117346000D01*
X190408000Y-117301147D01*
X190397744Y-117200770D01*
X190397742Y-117200758D01*
X190343847Y-117038115D01*
X190253890Y-116892271D01*
X190230742Y-116869124D01*
X190196716Y-116806812D01*
X190201780Y-116735997D01*
X190212595Y-116713880D01*
X190306347Y-116561884D01*
X190360242Y-116399241D01*
X190360244Y-116399229D01*
X190370499Y-116298852D01*
X190370500Y-116298852D01*
X190370500Y-116254000D01*
X189666500Y-116254000D01*
X189666500Y-116485001D01*
X189158500Y-116485001D01*
X189158500Y-116126000D01*
X189178502Y-116057879D01*
X189232158Y-116011386D01*
X189284500Y-116000000D01*
X189412500Y-116000000D01*
X189412500Y-115958500D01*
X189432502Y-115890379D01*
X189486158Y-115843886D01*
X189538500Y-115832500D01*
X191000671Y-115832500D01*
X196354076Y-115832500D01*
X196422197Y-115852502D01*
X196443171Y-115869405D01*
X196654595Y-116080829D01*
X196688621Y-116143141D01*
X196691500Y-116169924D01*
X196691500Y-117100544D01*
X196702112Y-117204425D01*
X196757885Y-117372738D01*
X196850970Y-117523652D01*
X196850975Y-117523658D01*
X196976341Y-117649024D01*
X196976347Y-117649029D01*
X196976348Y-117649030D01*
X197127262Y-117742115D01*
X197295574Y-117797887D01*
X197399455Y-117808500D01*
X199600544Y-117808499D01*
X199704426Y-117797887D01*
X199872738Y-117742115D01*
X200023652Y-117649030D01*
X200149030Y-117523652D01*
X200193054Y-117452278D01*
X200245838Y-117404800D01*
X200315913Y-117393397D01*
X200381029Y-117421689D01*
X200407535Y-117452279D01*
X200451363Y-117523336D01*
X200451370Y-117523345D01*
X200576654Y-117648629D01*
X200576660Y-117648634D01*
X200727474Y-117741657D01*
X200895678Y-117797393D01*
X200895681Y-117797394D01*
X200999483Y-117807999D01*
X200999483Y-117808000D01*
X201846000Y-117808000D01*
X201846000Y-115192000D01*
X200999483Y-115192000D01*
X200895681Y-115202605D01*
X200895678Y-115202606D01*
X200727474Y-115258342D01*
X200576660Y-115351365D01*
X200576654Y-115351370D01*
X200451370Y-115476654D01*
X200451365Y-115476660D01*
X200407535Y-115547721D01*
X200354749Y-115595199D01*
X200284674Y-115606602D01*
X200219558Y-115578309D01*
X200193053Y-115547721D01*
X200149218Y-115476654D01*
X200149030Y-115476348D01*
X200149029Y-115476347D01*
X200149024Y-115476341D01*
X200023658Y-115350975D01*
X200023652Y-115350970D01*
X199996948Y-115334499D01*
X199872738Y-115257885D01*
X199788582Y-115229999D01*
X199704427Y-115202113D01*
X199704420Y-115202112D01*
X199600553Y-115191500D01*
X199600545Y-115191500D01*
X198669924Y-115191500D01*
X198601803Y-115171498D01*
X198580829Y-115154595D01*
X197809161Y-114382927D01*
X197775135Y-114320615D01*
X197780200Y-114249800D01*
X197822747Y-114192964D01*
X197822749Y-114192962D01*
X197862905Y-114162902D01*
X197950444Y-114045965D01*
X197950444Y-114045964D01*
X198001494Y-113909093D01*
X198007999Y-113848597D01*
X198008000Y-113848585D01*
X198008000Y-113254000D01*
X197011686Y-113254000D01*
X197020080Y-113245606D01*
X197072741Y-113154394D01*
X197100000Y-113052661D01*
X197100000Y-112947339D01*
X197072741Y-112845606D01*
X197020080Y-112754394D01*
X197011686Y-112746000D01*
X198008000Y-112746000D01*
X198008000Y-112151414D01*
X198007999Y-112151402D01*
X198001494Y-112090906D01*
X197950444Y-111954035D01*
X197950444Y-111954034D01*
X197862904Y-111837095D01*
X197745965Y-111749555D01*
X197609094Y-111698505D01*
X197596657Y-111697168D01*
X197531065Y-111669996D01*
X197490576Y-111611676D01*
X197488045Y-111540725D01*
X197524275Y-111479668D01*
X197536070Y-111469954D01*
X197552430Y-111458068D01*
X197698068Y-111312430D01*
X197819129Y-111145803D01*
X197912634Y-110962290D01*
X197976280Y-110766408D01*
X198008500Y-110562981D01*
X198008500Y-110357019D01*
X197976280Y-110153592D01*
X197969405Y-110132435D01*
X197967378Y-110061470D01*
X198004040Y-110000671D01*
X198067752Y-109969346D01*
X198089239Y-109967500D01*
X199405701Y-109967500D01*
X199405705Y-109967500D01*
X199405706Y-109967500D01*
X199478976Y-109952925D01*
X199552247Y-109938351D01*
X199687423Y-109882359D01*
X199691645Y-109880951D01*
X199717610Y-109880007D01*
X199751217Y-109876030D01*
X199893084Y-109898500D01*
X199893087Y-109898500D01*
X200106913Y-109898500D01*
X200106916Y-109898500D01*
X200318116Y-109865049D01*
X200521483Y-109798972D01*
X200712009Y-109701894D01*
X200885004Y-109576206D01*
X201036206Y-109425004D01*
X201161894Y-109252009D01*
X201258972Y-109061483D01*
X201325049Y-108858116D01*
X201358500Y-108646916D01*
X201358500Y-108646912D01*
X201359274Y-108642026D01*
X201361400Y-108642362D01*
X201383448Y-108584433D01*
X201394709Y-108571524D01*
X202883353Y-107082881D01*
X202993721Y-106917704D01*
X203069744Y-106734169D01*
X203087902Y-106642881D01*
X203108500Y-106539329D01*
X203108500Y-97500671D01*
X203069744Y-97305831D01*
X202993721Y-97122296D01*
X202883353Y-96957119D01*
X202742881Y-96816647D01*
X200362881Y-94436647D01*
X200197704Y-94326279D01*
X200014169Y-94250256D01*
X199819331Y-94211500D01*
X199819329Y-94211500D01*
X197579012Y-94211500D01*
X197510891Y-94191498D01*
X197504952Y-94187436D01*
X197385809Y-94100874D01*
X197344111Y-94079628D01*
X197202290Y-94007366D01*
X197202287Y-94007365D01*
X197202285Y-94007364D01*
X197006412Y-93943721D01*
X197006410Y-93943720D01*
X197006408Y-93943720D01*
X196802981Y-93911500D01*
X196597019Y-93911500D01*
X196393592Y-93943720D01*
X196393590Y-93943720D01*
X196393587Y-93943721D01*
X196197714Y-94007364D01*
X196197708Y-94007367D01*
X196014190Y-94100874D01*
X195895048Y-94187436D01*
X195828181Y-94211295D01*
X195820988Y-94211500D01*
X194880668Y-94211500D01*
X194685830Y-94250256D01*
X194685825Y-94250258D01*
X194502296Y-94326279D01*
X194337123Y-94436644D01*
X194337116Y-94436649D01*
X194219171Y-94554595D01*
X194156859Y-94588621D01*
X194130076Y-94591500D01*
X192169924Y-94591500D01*
X192101803Y-94571498D01*
X192080829Y-94554595D01*
X189845405Y-92319171D01*
X189830460Y-92291802D01*
X189813604Y-92265574D01*
X189812698Y-92259275D01*
X189811379Y-92256859D01*
X189808500Y-92230076D01*
X189808500Y-91334499D01*
X189828502Y-91266378D01*
X189882158Y-91219885D01*
X189934500Y-91208499D01*
X190350544Y-91208499D01*
X190454426Y-91197887D01*
X190622738Y-91142115D01*
X190773652Y-91049030D01*
X190899030Y-90923652D01*
X190992115Y-90772738D01*
X191047887Y-90604426D01*
X191058500Y-90500545D01*
X191058499Y-89584499D01*
X191061090Y-89575674D01*
X191059781Y-89566568D01*
X191070936Y-89542142D01*
X191078501Y-89516379D01*
X191085454Y-89510354D01*
X191089275Y-89501988D01*
X191111860Y-89487473D01*
X191132157Y-89469886D01*
X191142843Y-89467561D01*
X191149001Y-89463604D01*
X191184499Y-89458500D01*
X191426617Y-89458500D01*
X191494738Y-89478502D01*
X191541231Y-89532158D01*
X191544672Y-89540467D01*
X191584110Y-89646202D01*
X191584112Y-89646207D01*
X191671738Y-89763261D01*
X191788792Y-89850887D01*
X191796701Y-89855205D01*
X191795516Y-89857374D01*
X191841758Y-89891985D01*
X191866573Y-89958503D01*
X191851487Y-90027878D01*
X191842832Y-90041561D01*
X191738008Y-90185839D01*
X191633817Y-90390325D01*
X191562902Y-90608578D01*
X191527000Y-90835256D01*
X191527000Y-91064743D01*
X191562902Y-91291421D01*
X191633817Y-91509674D01*
X191738008Y-91714160D01*
X191790029Y-91785759D01*
X192419191Y-91156596D01*
X192425889Y-91181591D01*
X192504881Y-91318408D01*
X192616592Y-91430119D01*
X192753409Y-91509111D01*
X192778401Y-91515807D01*
X192149239Y-92144969D01*
X192220842Y-92196992D01*
X192425325Y-92301182D01*
X192643578Y-92372097D01*
X192870256Y-92408000D01*
X193099744Y-92408000D01*
X193326421Y-92372097D01*
X193544674Y-92301182D01*
X193749159Y-92196991D01*
X193820760Y-92144970D01*
X193820760Y-92144969D01*
X193191598Y-91515807D01*
X193216591Y-91509111D01*
X193353408Y-91430119D01*
X193465119Y-91318408D01*
X193544111Y-91181591D01*
X193550808Y-91156597D01*
X194179970Y-91785760D01*
X194231991Y-91714159D01*
X194336182Y-91509674D01*
X194407097Y-91291421D01*
X194443000Y-91064743D01*
X194443000Y-90846532D01*
X199114500Y-90846532D01*
X199114500Y-91053467D01*
X199147603Y-91219885D01*
X199154870Y-91256420D01*
X199234059Y-91447598D01*
X199349023Y-91619655D01*
X199349024Y-91619656D01*
X199349029Y-91619662D01*
X199495337Y-91765970D01*
X199495343Y-91765975D01*
X199495345Y-91765977D01*
X199667402Y-91880941D01*
X199858580Y-91960130D01*
X200061535Y-92000500D01*
X200061536Y-92000500D01*
X200268464Y-92000500D01*
X200268465Y-92000500D01*
X200471420Y-91960130D01*
X200662598Y-91880941D01*
X200834655Y-91765977D01*
X200980977Y-91619655D01*
X201095941Y-91447598D01*
X201175130Y-91256420D01*
X201215500Y-91053465D01*
X201215500Y-90846535D01*
X201175130Y-90643580D01*
X201095941Y-90452402D01*
X200980977Y-90280345D01*
X200980975Y-90280343D01*
X200980970Y-90280337D01*
X200834662Y-90134029D01*
X200834656Y-90134024D01*
X200795768Y-90108040D01*
X200662598Y-90019059D01*
X200471420Y-89939870D01*
X200400816Y-89925826D01*
X200268467Y-89899500D01*
X200268465Y-89899500D01*
X200061535Y-89899500D01*
X200061532Y-89899500D01*
X199858579Y-89939870D01*
X199858574Y-89939872D01*
X199667402Y-90019059D01*
X199495343Y-90134024D01*
X199495337Y-90134029D01*
X199349029Y-90280337D01*
X199349024Y-90280343D01*
X199234059Y-90452402D01*
X199154872Y-90643574D01*
X199154870Y-90643579D01*
X199114500Y-90846532D01*
X194443000Y-90846532D01*
X194443000Y-90835256D01*
X194407097Y-90608578D01*
X194336182Y-90390325D01*
X194231990Y-90185838D01*
X194127168Y-90041562D01*
X194103309Y-89974694D01*
X194119390Y-89905542D01*
X194170304Y-89856062D01*
X194178242Y-89852505D01*
X194181201Y-89850889D01*
X194181204Y-89850889D01*
X194298261Y-89763261D01*
X194346462Y-89698872D01*
X194385887Y-89646207D01*
X194385887Y-89646206D01*
X194385889Y-89646204D01*
X194436989Y-89509201D01*
X194437645Y-89503106D01*
X194443499Y-89448649D01*
X194443500Y-89448632D01*
X194443500Y-88346532D01*
X199114500Y-88346532D01*
X199114500Y-88346535D01*
X199114500Y-88553465D01*
X199154870Y-88756420D01*
X199234059Y-88947598D01*
X199336644Y-89101128D01*
X199349024Y-89119656D01*
X199349029Y-89119662D01*
X199495337Y-89265970D01*
X199495343Y-89265975D01*
X199495345Y-89265977D01*
X199667402Y-89380941D01*
X199858580Y-89460130D01*
X200061535Y-89500500D01*
X200061536Y-89500500D01*
X200268464Y-89500500D01*
X200268465Y-89500500D01*
X200471420Y-89460130D01*
X200662598Y-89380941D01*
X200834655Y-89265977D01*
X200980977Y-89119655D01*
X201095941Y-88947598D01*
X201175130Y-88756420D01*
X201215500Y-88553465D01*
X201215500Y-88346535D01*
X201175130Y-88143580D01*
X201095941Y-87952402D01*
X200980977Y-87780345D01*
X200980975Y-87780343D01*
X200980970Y-87780337D01*
X200834662Y-87634029D01*
X200834656Y-87634024D01*
X200807150Y-87615645D01*
X200662598Y-87519059D01*
X200471420Y-87439870D01*
X200418070Y-87429258D01*
X200268467Y-87399500D01*
X200268465Y-87399500D01*
X200061535Y-87399500D01*
X200061532Y-87399500D01*
X199858579Y-87439870D01*
X199858574Y-87439872D01*
X199667402Y-87519059D01*
X199495343Y-87634024D01*
X199495337Y-87634029D01*
X199349029Y-87780337D01*
X199349024Y-87780343D01*
X199234059Y-87952402D01*
X199154872Y-88143574D01*
X199154870Y-88143579D01*
X199114500Y-88346532D01*
X194443500Y-88346532D01*
X194443500Y-87451367D01*
X194443499Y-87451350D01*
X194436990Y-87390803D01*
X194436988Y-87390795D01*
X194385889Y-87253797D01*
X194385887Y-87253792D01*
X194298261Y-87136738D01*
X194181207Y-87049112D01*
X194181202Y-87049110D01*
X194044204Y-86998011D01*
X194044196Y-86998009D01*
X193983649Y-86991500D01*
X193983638Y-86991500D01*
X191986362Y-86991500D01*
X191986350Y-86991500D01*
X191925803Y-86998009D01*
X191925795Y-86998011D01*
X191788797Y-87049110D01*
X191788792Y-87049112D01*
X191671738Y-87136738D01*
X191584112Y-87253792D01*
X191584110Y-87253797D01*
X191544672Y-87359533D01*
X191502125Y-87416369D01*
X191435605Y-87441179D01*
X191426617Y-87441500D01*
X190150668Y-87441500D01*
X189955830Y-87480256D01*
X189955825Y-87480258D01*
X189879809Y-87511745D01*
X189772296Y-87556278D01*
X189607123Y-87666643D01*
X189607121Y-87666644D01*
X188889095Y-88384670D01*
X188826783Y-88418695D01*
X188755967Y-88413630D01*
X188710905Y-88384670D01*
X188526235Y-88200000D01*
X187941881Y-87615647D01*
X187776704Y-87505279D01*
X187768609Y-87501926D01*
X187632920Y-87445721D01*
X187593174Y-87429258D01*
X187593169Y-87429256D01*
X187398331Y-87390500D01*
X187398329Y-87390500D01*
X178958009Y-87390500D01*
X178889888Y-87370498D01*
X178843395Y-87316842D01*
X178839965Y-87308564D01*
X178800889Y-87203796D01*
X178800886Y-87203792D01*
X178800886Y-87203791D01*
X178713261Y-87086738D01*
X178596207Y-86999112D01*
X178596202Y-86999110D01*
X178459204Y-86948011D01*
X178459196Y-86948009D01*
X178398649Y-86941500D01*
X178398638Y-86941500D01*
X176801362Y-86941500D01*
X176801350Y-86941500D01*
X176740803Y-86948009D01*
X176740795Y-86948011D01*
X176603797Y-86999110D01*
X176603792Y-86999112D01*
X176486738Y-87086738D01*
X176399112Y-87203792D01*
X176399110Y-87203797D01*
X176348011Y-87340795D01*
X176348009Y-87340803D01*
X176341500Y-87401350D01*
X176341500Y-87435807D01*
X176321498Y-87503928D01*
X176267842Y-87550421D01*
X176197568Y-87560525D01*
X176132988Y-87531031D01*
X176113564Y-87509868D01*
X176019547Y-87380465D01*
X175879537Y-87240455D01*
X175879534Y-87240453D01*
X175719339Y-87124064D01*
X175542902Y-87034165D01*
X175354579Y-86972975D01*
X175314000Y-86966547D01*
X175314000Y-88269297D01*
X175252993Y-88234075D01*
X175125826Y-88200000D01*
X174994174Y-88200000D01*
X174867007Y-88234075D01*
X174806000Y-88269297D01*
X174806000Y-86966547D01*
X174765420Y-86972975D01*
X174577097Y-87034165D01*
X174400660Y-87124064D01*
X174240465Y-87240453D01*
X174240462Y-87240455D01*
X174100455Y-87380462D01*
X174100453Y-87380465D01*
X173984064Y-87540660D01*
X173902548Y-87700646D01*
X173853800Y-87752261D01*
X173784885Y-87769327D01*
X173717683Y-87746426D01*
X173678015Y-87700647D01*
X173596366Y-87540402D01*
X173531678Y-87451367D01*
X173479928Y-87380139D01*
X173339860Y-87240071D01*
X173179601Y-87123636D01*
X173179600Y-87123635D01*
X173179598Y-87123634D01*
X173003097Y-87033702D01*
X172814700Y-86972488D01*
X172619046Y-86941500D01*
X172420954Y-86941500D01*
X172225300Y-86972488D01*
X172225297Y-86972488D01*
X172225296Y-86972489D01*
X172036903Y-87033702D01*
X172036901Y-87033703D01*
X171860398Y-87123636D01*
X171700139Y-87240071D01*
X171560071Y-87380139D01*
X171443636Y-87540398D01*
X171363329Y-87698009D01*
X171353702Y-87716903D01*
X171292488Y-87905300D01*
X171261500Y-88100954D01*
X171261500Y-89299046D01*
X171292488Y-89494700D01*
X171353702Y-89683097D01*
X171443634Y-89859598D01*
X171479164Y-89908500D01*
X171487436Y-89919886D01*
X171511294Y-89986753D01*
X171511500Y-89993947D01*
X171511500Y-90919331D01*
X171547833Y-91101989D01*
X171550256Y-91114169D01*
X171591027Y-91212599D01*
X171626279Y-91297704D01*
X171736647Y-91462881D01*
X171736649Y-91462883D01*
X171779595Y-91505829D01*
X171813621Y-91568141D01*
X171816500Y-91594924D01*
X171816500Y-94370542D01*
X171806832Y-94403465D01*
X171797824Y-94436554D01*
X171796768Y-94437741D01*
X171796498Y-94438663D01*
X171774879Y-94464117D01*
X171768864Y-94469539D01*
X171766960Y-94470715D01*
X171761437Y-94476237D01*
X171759026Y-94478412D01*
X171729840Y-94492443D01*
X171701430Y-94507958D01*
X171698072Y-94507717D01*
X171695040Y-94509176D01*
X171662910Y-94505202D01*
X171630615Y-94502893D01*
X171627370Y-94500808D01*
X171624580Y-94500463D01*
X171616947Y-94494109D01*
X171585552Y-94473932D01*
X171582734Y-94471114D01*
X171582728Y-94471109D01*
X171436884Y-94381152D01*
X171274241Y-94327257D01*
X171274229Y-94327255D01*
X171173852Y-94317000D01*
X171154000Y-94317000D01*
X171154000Y-96283000D01*
X171173853Y-96283000D01*
X171173852Y-96282999D01*
X171274229Y-96272744D01*
X171274241Y-96272742D01*
X171436884Y-96218847D01*
X171582727Y-96128890D01*
X171585546Y-96126072D01*
X171587960Y-96124753D01*
X171588486Y-96124338D01*
X171588556Y-96124427D01*
X171647856Y-96092043D01*
X171718672Y-96097104D01*
X171763745Y-96126070D01*
X171766960Y-96129285D01*
X171912899Y-96219302D01*
X172075664Y-96273236D01*
X172095756Y-96275288D01*
X172176120Y-96283500D01*
X172176128Y-96283500D01*
X172723881Y-96283500D01*
X172727084Y-96283337D01*
X172727149Y-96284622D01*
X172791889Y-96296635D01*
X172824026Y-96319931D01*
X173296167Y-96792072D01*
X173399925Y-96861401D01*
X173460311Y-96886413D01*
X173515215Y-96909155D01*
X173637606Y-96933500D01*
X173637607Y-96933500D01*
X173762394Y-96933500D01*
X176140500Y-96933500D01*
X176208621Y-96953502D01*
X176255114Y-97007158D01*
X176266500Y-97059500D01*
X176266500Y-100662396D01*
X176269803Y-100679000D01*
X176290845Y-100784785D01*
X176338600Y-100900075D01*
X176407929Y-101003833D01*
X176796167Y-101392071D01*
X176899925Y-101461400D01*
X177015215Y-101509155D01*
X177137606Y-101533500D01*
X177262394Y-101533500D01*
X177273000Y-101533500D01*
X177341121Y-101553502D01*
X177387614Y-101607158D01*
X177399000Y-101659500D01*
X177399000Y-102748649D01*
X177405509Y-102809196D01*
X177405511Y-102809204D01*
X177456610Y-102946202D01*
X177456612Y-102946207D01*
X177544238Y-103063261D01*
X177661292Y-103150887D01*
X177661294Y-103150888D01*
X177661296Y-103150889D01*
X177720375Y-103172924D01*
X177798295Y-103201988D01*
X177798303Y-103201990D01*
X177858850Y-103208499D01*
X177858855Y-103208499D01*
X177858862Y-103208500D01*
X177858868Y-103208500D01*
X179456132Y-103208500D01*
X179456138Y-103208500D01*
X179456145Y-103208499D01*
X179456149Y-103208499D01*
X179516696Y-103201990D01*
X179516699Y-103201989D01*
X179516701Y-103201989D01*
X179653704Y-103150889D01*
X179757065Y-103073513D01*
X179823584Y-103048702D01*
X179892958Y-103063793D01*
X179921669Y-103085286D01*
X180168455Y-103332072D01*
X180272213Y-103401401D01*
X180353735Y-103435168D01*
X180387503Y-103449155D01*
X180509894Y-103473500D01*
X180509895Y-103473500D01*
X180634682Y-103473500D01*
X182778670Y-103473500D01*
X182783059Y-103474789D01*
X182787529Y-103473812D01*
X182816811Y-103484699D01*
X182846791Y-103493502D01*
X182850989Y-103497406D01*
X182854075Y-103498554D01*
X182874767Y-103519522D01*
X182879460Y-103523887D01*
X182880815Y-103525693D01*
X182880871Y-103525803D01*
X183001932Y-103692430D01*
X183017825Y-103708323D01*
X183023195Y-103715481D01*
X183032627Y-103740689D01*
X183045526Y-103764311D01*
X183044874Y-103773421D01*
X183048075Y-103781975D01*
X183042381Y-103808279D01*
X183040461Y-103835126D01*
X183034593Y-103844255D01*
X183033055Y-103851365D01*
X183024543Y-103859893D01*
X183011501Y-103880189D01*
X182470167Y-104421524D01*
X182381927Y-104509764D01*
X182381926Y-104509766D01*
X182326207Y-104593156D01*
X182312600Y-104613520D01*
X182264845Y-104728810D01*
X182262415Y-104741028D01*
X182240500Y-104851198D01*
X182240500Y-104851201D01*
X182240500Y-109271606D01*
X182240500Y-109396394D01*
X182264845Y-109518785D01*
X182312600Y-109634075D01*
X182381929Y-109737833D01*
X182381931Y-109737835D01*
X182688437Y-110044341D01*
X182722463Y-110106653D01*
X182723791Y-110153147D01*
X182723721Y-110153588D01*
X182723720Y-110153592D01*
X182691500Y-110357019D01*
X182691500Y-110562981D01*
X182721880Y-110754788D01*
X182723721Y-110766412D01*
X182771381Y-110913095D01*
X182787366Y-110962290D01*
X182880871Y-111145803D01*
X183001932Y-111312430D01*
X183001934Y-111312432D01*
X183001936Y-111312435D01*
X183147564Y-111458063D01*
X183147567Y-111458065D01*
X183147570Y-111458068D01*
X183314197Y-111579129D01*
X183389962Y-111617733D01*
X183441577Y-111666482D01*
X183458643Y-111735397D01*
X183435742Y-111802598D01*
X183389963Y-111842266D01*
X183321033Y-111877387D01*
X183314193Y-111880873D01*
X183147567Y-112001934D01*
X183147564Y-112001936D01*
X183001936Y-112147564D01*
X183001934Y-112147567D01*
X182880873Y-112314193D01*
X182787367Y-112497708D01*
X182787364Y-112497714D01*
X182723721Y-112693587D01*
X182723720Y-112693590D01*
X182723720Y-112693592D01*
X182691500Y-112897019D01*
X182691500Y-113102981D01*
X182710090Y-113220352D01*
X182723790Y-113306851D01*
X182714690Y-113377263D01*
X182688437Y-113415657D01*
X182073501Y-114030595D01*
X182011188Y-114064620D01*
X181984405Y-114067500D01*
X173734500Y-114067500D01*
X173666379Y-114047498D01*
X173619886Y-113993842D01*
X173608500Y-113941500D01*
X173608500Y-113426367D01*
X173608499Y-113426350D01*
X173601990Y-113365803D01*
X173601989Y-113365799D01*
X173550889Y-113228796D01*
X173550887Y-113228794D01*
X173547739Y-113220352D01*
X173550963Y-113219149D01*
X173539391Y-113166068D01*
X173549853Y-113130436D01*
X173547739Y-113129648D01*
X173550887Y-113121205D01*
X173550889Y-113121204D01*
X173601989Y-112984201D01*
X173608500Y-112923638D01*
X173608500Y-111926362D01*
X173603610Y-111880873D01*
X173601990Y-111865803D01*
X173601989Y-111865799D01*
X173550889Y-111728796D01*
X173550887Y-111728794D01*
X173547739Y-111720352D01*
X173550963Y-111719149D01*
X173539391Y-111666068D01*
X173549853Y-111630436D01*
X173547739Y-111629648D01*
X173550887Y-111621205D01*
X173550889Y-111621204D01*
X173601989Y-111484201D01*
X173602477Y-111479668D01*
X173608499Y-111423649D01*
X173608500Y-111423632D01*
X173608500Y-110426367D01*
X173608499Y-110426350D01*
X173601990Y-110365803D01*
X173601989Y-110365799D01*
X173550889Y-110228796D01*
X173550887Y-110228794D01*
X173547739Y-110220352D01*
X173550963Y-110219149D01*
X173539391Y-110166068D01*
X173549853Y-110130436D01*
X173547739Y-110129648D01*
X173550887Y-110121205D01*
X173550889Y-110121204D01*
X173601989Y-109984201D01*
X173603785Y-109967500D01*
X173608499Y-109923649D01*
X173608500Y-109923632D01*
X173608500Y-108926367D01*
X173608499Y-108926350D01*
X173601990Y-108865803D01*
X173601989Y-108865799D01*
X173550889Y-108728796D01*
X173550887Y-108728794D01*
X173547739Y-108720352D01*
X173550963Y-108719149D01*
X173539391Y-108666068D01*
X173549853Y-108630436D01*
X173547739Y-108629648D01*
X173550887Y-108621205D01*
X173550889Y-108621204D01*
X173601989Y-108484201D01*
X173608500Y-108423638D01*
X173608500Y-107426362D01*
X173607570Y-107417708D01*
X173601990Y-107365803D01*
X173601989Y-107365799D01*
X173550889Y-107228796D01*
X173550887Y-107228794D01*
X173547739Y-107220352D01*
X173550963Y-107219149D01*
X173539391Y-107166068D01*
X173549853Y-107130436D01*
X173547739Y-107129648D01*
X173550887Y-107121205D01*
X173550889Y-107121204D01*
X173601989Y-106984201D01*
X173604333Y-106962404D01*
X173608499Y-106923649D01*
X173608500Y-106923632D01*
X173608500Y-105926367D01*
X173608499Y-105926350D01*
X173601990Y-105865803D01*
X173601989Y-105865799D01*
X173550889Y-105728796D01*
X173550887Y-105728794D01*
X173547739Y-105720352D01*
X173550963Y-105719149D01*
X173539391Y-105666068D01*
X173549853Y-105630436D01*
X173547739Y-105629648D01*
X173550887Y-105621205D01*
X173550889Y-105621204D01*
X173601989Y-105484201D01*
X173602121Y-105482981D01*
X173608499Y-105423649D01*
X173608500Y-105423632D01*
X173608500Y-104426367D01*
X173608499Y-104426350D01*
X173601990Y-104365803D01*
X173601989Y-104365799D01*
X173550889Y-104228796D01*
X173550887Y-104228794D01*
X173547739Y-104220352D01*
X173550963Y-104219149D01*
X173539391Y-104166068D01*
X173549853Y-104130436D01*
X173547739Y-104129648D01*
X173550887Y-104121205D01*
X173550889Y-104121204D01*
X173601989Y-103984201D01*
X173604685Y-103959129D01*
X173608499Y-103923649D01*
X173608500Y-103923632D01*
X173608500Y-102926367D01*
X173608499Y-102926350D01*
X173601990Y-102865803D01*
X173601989Y-102865799D01*
X173550889Y-102728796D01*
X173550887Y-102728794D01*
X173547739Y-102720352D01*
X173550963Y-102719149D01*
X173539391Y-102666068D01*
X173549853Y-102630436D01*
X173547739Y-102629648D01*
X173550887Y-102621205D01*
X173550889Y-102621204D01*
X173601989Y-102484201D01*
X173605716Y-102449539D01*
X173608499Y-102423649D01*
X173608500Y-102423632D01*
X173608500Y-101426367D01*
X173608499Y-101426350D01*
X173601990Y-101365803D01*
X173601989Y-101365799D01*
X173550889Y-101228796D01*
X173550887Y-101228794D01*
X173547739Y-101220352D01*
X173550798Y-101219210D01*
X173539105Y-101165507D01*
X173549482Y-101130221D01*
X173547296Y-101129406D01*
X173601494Y-100984093D01*
X173607999Y-100923597D01*
X173608000Y-100923585D01*
X173608000Y-100679000D01*
X171092000Y-100679000D01*
X171092000Y-100923597D01*
X171098505Y-100984093D01*
X171152704Y-101129406D01*
X171149402Y-101130637D01*
X171160891Y-101183476D01*
X171150281Y-101219615D01*
X171152260Y-101220353D01*
X171098011Y-101365795D01*
X171098009Y-101365803D01*
X171091500Y-101426350D01*
X171091500Y-102423649D01*
X171098009Y-102484196D01*
X171098011Y-102484204D01*
X171152260Y-102629647D01*
X171149051Y-102630843D01*
X171160600Y-102684046D01*
X171150168Y-102719572D01*
X171152260Y-102720353D01*
X171098011Y-102865795D01*
X171098009Y-102865803D01*
X171091500Y-102926350D01*
X171091500Y-103923649D01*
X171098009Y-103984196D01*
X171098011Y-103984204D01*
X171152260Y-104129647D01*
X171149051Y-104130843D01*
X171160600Y-104184046D01*
X171150168Y-104219572D01*
X171152260Y-104220353D01*
X171098011Y-104365795D01*
X171098009Y-104365803D01*
X171091500Y-104426350D01*
X171091500Y-105423649D01*
X171098009Y-105484196D01*
X171098011Y-105484204D01*
X171152260Y-105629647D01*
X171149051Y-105630843D01*
X171160600Y-105684046D01*
X171150168Y-105719572D01*
X171152260Y-105720353D01*
X171098011Y-105865795D01*
X171098009Y-105865803D01*
X171091500Y-105926350D01*
X171091500Y-106923649D01*
X171098009Y-106984196D01*
X171098011Y-106984204D01*
X171152260Y-107129647D01*
X171149051Y-107130843D01*
X171160600Y-107184046D01*
X171150168Y-107219572D01*
X171152260Y-107220353D01*
X171098011Y-107365795D01*
X171098009Y-107365803D01*
X171091500Y-107426350D01*
X171091500Y-108423649D01*
X171098009Y-108484196D01*
X171098011Y-108484204D01*
X171152260Y-108629647D01*
X171149051Y-108630843D01*
X171160600Y-108684046D01*
X171150168Y-108719572D01*
X171152260Y-108720353D01*
X171098011Y-108865795D01*
X171098009Y-108865803D01*
X171091500Y-108926350D01*
X171091500Y-109923649D01*
X171098009Y-109984196D01*
X171098011Y-109984204D01*
X171152260Y-110129647D01*
X171149051Y-110130843D01*
X171160600Y-110184046D01*
X171150168Y-110219572D01*
X171152260Y-110220353D01*
X171098011Y-110365795D01*
X171098009Y-110365803D01*
X171091500Y-110426350D01*
X171091500Y-111423649D01*
X171098009Y-111484196D01*
X171098011Y-111484204D01*
X171152260Y-111629647D01*
X171149051Y-111630843D01*
X171160600Y-111684046D01*
X171150168Y-111719572D01*
X171152260Y-111720353D01*
X171098011Y-111865795D01*
X171098009Y-111865803D01*
X171091500Y-111926350D01*
X171091500Y-112923649D01*
X171098009Y-112984196D01*
X171098011Y-112984204D01*
X171152260Y-113129647D01*
X171149051Y-113130843D01*
X171160600Y-113184046D01*
X171150168Y-113219572D01*
X171152260Y-113220353D01*
X171098011Y-113365795D01*
X171098009Y-113365803D01*
X171091500Y-113426350D01*
X171091500Y-113941500D01*
X171071498Y-114009621D01*
X171017842Y-114056114D01*
X170965500Y-114067500D01*
X158836600Y-114067500D01*
X158714217Y-114091844D01*
X158714209Y-114091846D01*
X158680447Y-114105830D01*
X158680447Y-114105831D01*
X158598925Y-114139599D01*
X158495171Y-114208925D01*
X158495164Y-114208930D01*
X158199500Y-114504595D01*
X158137188Y-114538621D01*
X158110405Y-114541500D01*
X157601350Y-114541500D01*
X157540803Y-114548009D01*
X157540795Y-114548011D01*
X157395353Y-114602260D01*
X157394156Y-114599051D01*
X157340954Y-114610600D01*
X157305427Y-114600168D01*
X157304647Y-114602260D01*
X157159204Y-114548011D01*
X157159196Y-114548009D01*
X157098649Y-114541500D01*
X157098638Y-114541500D01*
X156101362Y-114541500D01*
X156101350Y-114541500D01*
X156040803Y-114548009D01*
X156040795Y-114548011D01*
X155895353Y-114602260D01*
X155894156Y-114599051D01*
X155840954Y-114610600D01*
X155805427Y-114600168D01*
X155804647Y-114602260D01*
X155659204Y-114548011D01*
X155659196Y-114548009D01*
X155598649Y-114541500D01*
X155598638Y-114541500D01*
X154601362Y-114541500D01*
X154601350Y-114541500D01*
X154540803Y-114548009D01*
X154540795Y-114548011D01*
X154395353Y-114602260D01*
X154394156Y-114599051D01*
X154340954Y-114610600D01*
X154305427Y-114600168D01*
X154304647Y-114602260D01*
X154159204Y-114548011D01*
X154159196Y-114548009D01*
X154098649Y-114541500D01*
X154098638Y-114541500D01*
X153101362Y-114541500D01*
X153101350Y-114541500D01*
X153040803Y-114548009D01*
X153040800Y-114548010D01*
X152903532Y-114599209D01*
X152832717Y-114604273D01*
X152770405Y-114570248D01*
X152736379Y-114507936D01*
X152733500Y-114481153D01*
X152733500Y-107014593D01*
X152753502Y-106946472D01*
X152770400Y-106925503D01*
X156612308Y-103083594D01*
X156674618Y-103049570D01*
X156676749Y-103049126D01*
X156785831Y-103027430D01*
X156785834Y-103027428D01*
X156785837Y-103027428D01*
X156932963Y-102966485D01*
X156932962Y-102966485D01*
X156932968Y-102966483D01*
X157065389Y-102878003D01*
X157178003Y-102765389D01*
X157266483Y-102632968D01*
X157327430Y-102485831D01*
X157358500Y-102329630D01*
X157358500Y-102170370D01*
X157327430Y-102014169D01*
X157266483Y-101867032D01*
X157178003Y-101734611D01*
X157178001Y-101734609D01*
X157177996Y-101734603D01*
X157065396Y-101622003D01*
X157065390Y-101621998D01*
X157053299Y-101613919D01*
X156932968Y-101533517D01*
X156785831Y-101472570D01*
X156707730Y-101457035D01*
X156629632Y-101441500D01*
X156629630Y-101441500D01*
X156470370Y-101441500D01*
X156470367Y-101441500D01*
X156353219Y-101464802D01*
X156314169Y-101472570D01*
X156225851Y-101509153D01*
X156167032Y-101533517D01*
X156034609Y-101621998D01*
X156034603Y-101622003D01*
X155922003Y-101734603D01*
X155921998Y-101734609D01*
X155833517Y-101867032D01*
X155772570Y-102014169D01*
X155750886Y-102123179D01*
X155717978Y-102186089D01*
X155716402Y-102187692D01*
X151696167Y-106207929D01*
X151607931Y-106296164D01*
X151607926Y-106296171D01*
X151538601Y-106399923D01*
X151497400Y-106499391D01*
X151490845Y-106515215D01*
X151486048Y-106539332D01*
X151466500Y-106637603D01*
X151466500Y-114481153D01*
X151446498Y-114549274D01*
X151392842Y-114595767D01*
X151322568Y-114605871D01*
X151296468Y-114599209D01*
X151159199Y-114548010D01*
X151159196Y-114548009D01*
X151098649Y-114541500D01*
X151098638Y-114541500D01*
X150101362Y-114541500D01*
X150101350Y-114541500D01*
X150040803Y-114548009D01*
X150040795Y-114548011D01*
X149895353Y-114602260D01*
X149894214Y-114599208D01*
X149840456Y-114610890D01*
X149805213Y-114600539D01*
X149804406Y-114602704D01*
X149659093Y-114548505D01*
X149598597Y-114542000D01*
X149354000Y-114542000D01*
X149354000Y-116485001D01*
X149367095Y-116498096D01*
X149401121Y-116560408D01*
X149404000Y-116587191D01*
X149404000Y-118583000D01*
X149423853Y-118583000D01*
X149423852Y-118582999D01*
X149524229Y-118572744D01*
X149524241Y-118572742D01*
X149686884Y-118518847D01*
X149832727Y-118428890D01*
X149835546Y-118426072D01*
X149837960Y-118424753D01*
X149838486Y-118424338D01*
X149838556Y-118424427D01*
X149897856Y-118392043D01*
X149968672Y-118397104D01*
X149989498Y-118407133D01*
X150002783Y-118415108D01*
X150016960Y-118429285D01*
X150162899Y-118519302D01*
X150192922Y-118529250D01*
X150204892Y-118536436D01*
X150213388Y-118545656D01*
X150229136Y-118555370D01*
X150383171Y-118709405D01*
X150417197Y-118771717D01*
X150412132Y-118842532D01*
X150369585Y-118899368D01*
X150303065Y-118924179D01*
X150294076Y-118924500D01*
X148201500Y-118924500D01*
X148133379Y-118904498D01*
X148086886Y-118850842D01*
X148075500Y-118798500D01*
X148075500Y-118313291D01*
X148095502Y-118245170D01*
X148149158Y-118198677D01*
X148219432Y-118188573D01*
X148284012Y-118218067D01*
X148308741Y-118247144D01*
X148346109Y-118307728D01*
X148346114Y-118307734D01*
X148467265Y-118428885D01*
X148467271Y-118428890D01*
X148613115Y-118518847D01*
X148775758Y-118572742D01*
X148775770Y-118572744D01*
X148876147Y-118582999D01*
X148876147Y-118583000D01*
X148896000Y-118583000D01*
X148896000Y-117189999D01*
X148882905Y-117176904D01*
X148848879Y-117114592D01*
X148846000Y-117087809D01*
X148846000Y-114542000D01*
X148601402Y-114542000D01*
X148540906Y-114548505D01*
X148404035Y-114599555D01*
X148404034Y-114599555D01*
X148279882Y-114692496D01*
X148278261Y-114690330D01*
X148228283Y-114717622D01*
X148157468Y-114712557D01*
X148100632Y-114670010D01*
X148075821Y-114603490D01*
X148075500Y-114594501D01*
X148075500Y-99625230D01*
X148095502Y-99557109D01*
X148149158Y-99510616D01*
X148219432Y-99500512D01*
X148284012Y-99530006D01*
X148302368Y-99549721D01*
X148387095Y-99662904D01*
X148504034Y-99750444D01*
X148640906Y-99801494D01*
X148701402Y-99807999D01*
X148701415Y-99808000D01*
X148946000Y-99808000D01*
X148946000Y-97292000D01*
X148701402Y-97292000D01*
X148640906Y-97298505D01*
X148504035Y-97349555D01*
X148504034Y-97349555D01*
X148387095Y-97437095D01*
X148302368Y-97550278D01*
X148245532Y-97592825D01*
X148174716Y-97597889D01*
X148112404Y-97563864D01*
X148078379Y-97501552D01*
X148075500Y-97474769D01*
X148075500Y-91711603D01*
X148630500Y-91711603D01*
X148630500Y-94888396D01*
X148635534Y-94913704D01*
X148654845Y-95010785D01*
X148702600Y-95126075D01*
X148771929Y-95229833D01*
X148771931Y-95229835D01*
X149929595Y-96387499D01*
X149963621Y-96449811D01*
X149966500Y-96476594D01*
X149966500Y-97194388D01*
X149946498Y-97262509D01*
X149892842Y-97309002D01*
X149822568Y-97319106D01*
X149796470Y-97312445D01*
X149759093Y-97298505D01*
X149698597Y-97292000D01*
X149454000Y-97292000D01*
X149454000Y-99808000D01*
X149698585Y-99808000D01*
X149698597Y-99807999D01*
X149759092Y-99801494D01*
X149855252Y-99765629D01*
X149926068Y-99760564D01*
X149943318Y-99765630D01*
X150040795Y-99801988D01*
X150040803Y-99801990D01*
X150101350Y-99808499D01*
X150101355Y-99808499D01*
X150101362Y-99808500D01*
X150101368Y-99808500D01*
X151098632Y-99808500D01*
X151098638Y-99808500D01*
X151098645Y-99808499D01*
X151098649Y-99808499D01*
X151159196Y-99801990D01*
X151159197Y-99801989D01*
X151159201Y-99801989D01*
X151296204Y-99750889D01*
X151296205Y-99750887D01*
X151304648Y-99747739D01*
X151305850Y-99750963D01*
X151358932Y-99739391D01*
X151394563Y-99749853D01*
X151395352Y-99747739D01*
X151403794Y-99750887D01*
X151403796Y-99750889D01*
X151540799Y-99801989D01*
X151540800Y-99801989D01*
X151540803Y-99801990D01*
X151601350Y-99808499D01*
X151601355Y-99808499D01*
X151601362Y-99808500D01*
X151601368Y-99808500D01*
X152598632Y-99808500D01*
X152598638Y-99808500D01*
X152598645Y-99808499D01*
X152598649Y-99808499D01*
X152659196Y-99801990D01*
X152659199Y-99801989D01*
X152659201Y-99801989D01*
X152670891Y-99797629D01*
X152678045Y-99794960D01*
X152796204Y-99750889D01*
X152824489Y-99729714D01*
X152891008Y-99704902D01*
X152960383Y-99719992D01*
X152975511Y-99729715D01*
X153003791Y-99750886D01*
X153003793Y-99750887D01*
X153003796Y-99750889D01*
X153043315Y-99765629D01*
X153140795Y-99801988D01*
X153140803Y-99801990D01*
X153201350Y-99808499D01*
X153201355Y-99808499D01*
X153201362Y-99808500D01*
X153201368Y-99808500D01*
X154198632Y-99808500D01*
X154198638Y-99808500D01*
X154198645Y-99808499D01*
X154198649Y-99808499D01*
X154259196Y-99801990D01*
X154259197Y-99801989D01*
X154259201Y-99801989D01*
X154396204Y-99750889D01*
X154396205Y-99750887D01*
X154404648Y-99747739D01*
X154405850Y-99750963D01*
X154458932Y-99739391D01*
X154494563Y-99749853D01*
X154495352Y-99747739D01*
X154503794Y-99750887D01*
X154503796Y-99750889D01*
X154640799Y-99801989D01*
X154640800Y-99801989D01*
X154640803Y-99801990D01*
X154701350Y-99808499D01*
X154701355Y-99808499D01*
X154701362Y-99808500D01*
X154701368Y-99808500D01*
X155698632Y-99808500D01*
X155698638Y-99808500D01*
X155698645Y-99808499D01*
X155698649Y-99808499D01*
X155759196Y-99801990D01*
X155759197Y-99801989D01*
X155759201Y-99801989D01*
X155896204Y-99750889D01*
X155896205Y-99750887D01*
X155904648Y-99747739D01*
X155905850Y-99750963D01*
X155958932Y-99739391D01*
X155994563Y-99749853D01*
X155995352Y-99747739D01*
X156003794Y-99750887D01*
X156003796Y-99750889D01*
X156140799Y-99801989D01*
X156140800Y-99801989D01*
X156140803Y-99801990D01*
X156201350Y-99808499D01*
X156201355Y-99808499D01*
X156201362Y-99808500D01*
X156201368Y-99808500D01*
X157198632Y-99808500D01*
X157198638Y-99808500D01*
X157198645Y-99808499D01*
X157198649Y-99808499D01*
X157259196Y-99801990D01*
X157259197Y-99801989D01*
X157259201Y-99801989D01*
X157396204Y-99750889D01*
X157396205Y-99750887D01*
X157404648Y-99747739D01*
X157405850Y-99750963D01*
X157458932Y-99739391D01*
X157494563Y-99749853D01*
X157495352Y-99747739D01*
X157503794Y-99750887D01*
X157503796Y-99750889D01*
X157640799Y-99801989D01*
X157640800Y-99801989D01*
X157640803Y-99801990D01*
X157701350Y-99808499D01*
X157701355Y-99808499D01*
X157701362Y-99808500D01*
X157701368Y-99808500D01*
X158698632Y-99808500D01*
X158698638Y-99808500D01*
X158698645Y-99808499D01*
X158698649Y-99808499D01*
X158759196Y-99801990D01*
X158759197Y-99801989D01*
X158759201Y-99801989D01*
X158896204Y-99750889D01*
X158896205Y-99750887D01*
X158904648Y-99747739D01*
X158905850Y-99750963D01*
X158958932Y-99739391D01*
X158994563Y-99749853D01*
X158995352Y-99747739D01*
X159003794Y-99750887D01*
X159003796Y-99750889D01*
X159140799Y-99801989D01*
X159140800Y-99801989D01*
X159140803Y-99801990D01*
X159201350Y-99808499D01*
X159201355Y-99808499D01*
X159201362Y-99808500D01*
X159201368Y-99808500D01*
X160198632Y-99808500D01*
X160198638Y-99808500D01*
X160198645Y-99808499D01*
X160198649Y-99808499D01*
X160259196Y-99801990D01*
X160259197Y-99801989D01*
X160259201Y-99801989D01*
X160396204Y-99750889D01*
X160396205Y-99750887D01*
X160404648Y-99747739D01*
X160405850Y-99750963D01*
X160458932Y-99739391D01*
X160494563Y-99749853D01*
X160495352Y-99747739D01*
X160503794Y-99750887D01*
X160503796Y-99750889D01*
X160640799Y-99801989D01*
X160640800Y-99801989D01*
X160640803Y-99801990D01*
X160701350Y-99808499D01*
X160701355Y-99808499D01*
X160701362Y-99808500D01*
X160701368Y-99808500D01*
X161698632Y-99808500D01*
X161698638Y-99808500D01*
X161698645Y-99808499D01*
X161698649Y-99808499D01*
X161759196Y-99801990D01*
X161759197Y-99801989D01*
X161759201Y-99801989D01*
X161896204Y-99750889D01*
X161896205Y-99750887D01*
X161904648Y-99747739D01*
X161905850Y-99750963D01*
X161958932Y-99739391D01*
X161994563Y-99749853D01*
X161995352Y-99747739D01*
X162003794Y-99750887D01*
X162003796Y-99750889D01*
X162140799Y-99801989D01*
X162140800Y-99801989D01*
X162140803Y-99801990D01*
X162201350Y-99808499D01*
X162201355Y-99808499D01*
X162201362Y-99808500D01*
X162201368Y-99808500D01*
X163198632Y-99808500D01*
X163198638Y-99808500D01*
X163198645Y-99808499D01*
X163198649Y-99808499D01*
X163259196Y-99801990D01*
X163259197Y-99801989D01*
X163259201Y-99801989D01*
X163396204Y-99750889D01*
X163396205Y-99750887D01*
X163404648Y-99747739D01*
X163405850Y-99750963D01*
X163458932Y-99739391D01*
X163494563Y-99749853D01*
X163495352Y-99747739D01*
X163503794Y-99750887D01*
X163503796Y-99750889D01*
X163640799Y-99801989D01*
X163640800Y-99801989D01*
X163640803Y-99801990D01*
X163701350Y-99808499D01*
X163701355Y-99808499D01*
X163701362Y-99808500D01*
X163701368Y-99808500D01*
X164698632Y-99808500D01*
X164698638Y-99808500D01*
X164698645Y-99808499D01*
X164698649Y-99808499D01*
X164759196Y-99801990D01*
X164759197Y-99801989D01*
X164759201Y-99801989D01*
X164896204Y-99750889D01*
X164896205Y-99750887D01*
X164904648Y-99747739D01*
X164905850Y-99750963D01*
X164958932Y-99739391D01*
X164994563Y-99749853D01*
X164995352Y-99747739D01*
X165003794Y-99750887D01*
X165003796Y-99750889D01*
X165140799Y-99801989D01*
X165140800Y-99801989D01*
X165140803Y-99801990D01*
X165201350Y-99808499D01*
X165201355Y-99808499D01*
X165201362Y-99808500D01*
X165201368Y-99808500D01*
X166198632Y-99808500D01*
X166198638Y-99808500D01*
X166198645Y-99808499D01*
X166198649Y-99808499D01*
X166259196Y-99801990D01*
X166259197Y-99801989D01*
X166259201Y-99801989D01*
X166396204Y-99750889D01*
X166396205Y-99750887D01*
X166404648Y-99747739D01*
X166405850Y-99750963D01*
X166458932Y-99739391D01*
X166494563Y-99749853D01*
X166495352Y-99747739D01*
X166503794Y-99750887D01*
X166503796Y-99750889D01*
X166640799Y-99801989D01*
X166640800Y-99801989D01*
X166640803Y-99801990D01*
X166701350Y-99808499D01*
X166701355Y-99808499D01*
X166701362Y-99808500D01*
X166701368Y-99808500D01*
X167698632Y-99808500D01*
X167698638Y-99808500D01*
X167698645Y-99808499D01*
X167698649Y-99808499D01*
X167759196Y-99801990D01*
X167759197Y-99801989D01*
X167759201Y-99801989D01*
X167896204Y-99750889D01*
X167896205Y-99750887D01*
X167904648Y-99747739D01*
X167905850Y-99750963D01*
X167958932Y-99739391D01*
X167994563Y-99749853D01*
X167995352Y-99747739D01*
X168003794Y-99750887D01*
X168003796Y-99750889D01*
X168140799Y-99801989D01*
X168140800Y-99801989D01*
X168140803Y-99801990D01*
X168201350Y-99808499D01*
X168201355Y-99808499D01*
X168201362Y-99808500D01*
X168201368Y-99808500D01*
X169198632Y-99808500D01*
X169198638Y-99808500D01*
X169198645Y-99808499D01*
X169198649Y-99808499D01*
X169259196Y-99801990D01*
X169259197Y-99801989D01*
X169259201Y-99801989D01*
X169396204Y-99750889D01*
X169396205Y-99750887D01*
X169404648Y-99747739D01*
X169405850Y-99750963D01*
X169458932Y-99739391D01*
X169494563Y-99749853D01*
X169495352Y-99747739D01*
X169503794Y-99750887D01*
X169503796Y-99750889D01*
X169640799Y-99801989D01*
X169640800Y-99801989D01*
X169640803Y-99801990D01*
X169701350Y-99808499D01*
X169701355Y-99808499D01*
X169701362Y-99808500D01*
X169701368Y-99808500D01*
X170698632Y-99808500D01*
X170698638Y-99808500D01*
X170698645Y-99808499D01*
X170698649Y-99808499D01*
X170759196Y-99801990D01*
X170759197Y-99801989D01*
X170759201Y-99801989D01*
X170896204Y-99750889D01*
X170896205Y-99750887D01*
X170904648Y-99747739D01*
X170905781Y-99750778D01*
X170924905Y-99746809D01*
X170958932Y-99739391D01*
X170959758Y-99739574D01*
X170960187Y-99739486D01*
X170962589Y-99740204D01*
X170995157Y-99747444D01*
X171003443Y-99750625D01*
X171003796Y-99750889D01*
X171015592Y-99755288D01*
X171016158Y-99755506D01*
X171043936Y-99776717D01*
X171071870Y-99797629D01*
X171072088Y-99798213D01*
X171072585Y-99798593D01*
X171084482Y-99831444D01*
X171096680Y-99864149D01*
X171096663Y-99865080D01*
X171096760Y-99865347D01*
X171096649Y-99865830D01*
X171096279Y-99886604D01*
X171092000Y-99926397D01*
X171092000Y-100171000D01*
X173608000Y-100171000D01*
X173608000Y-99926414D01*
X173607999Y-99926402D01*
X173601494Y-99865906D01*
X173550444Y-99729035D01*
X173550444Y-99729034D01*
X173462904Y-99612095D01*
X173345965Y-99524555D01*
X173209093Y-99473505D01*
X173148597Y-99467000D01*
X172784500Y-99467000D01*
X172716379Y-99446998D01*
X172669886Y-99393342D01*
X172658500Y-99341000D01*
X172658500Y-97751367D01*
X172658499Y-97751350D01*
X172651990Y-97690803D01*
X172651988Y-97690795D01*
X172615446Y-97592825D01*
X172600889Y-97553796D01*
X172600888Y-97553794D01*
X172600887Y-97553792D01*
X172513261Y-97436738D01*
X172396207Y-97349112D01*
X172396202Y-97349110D01*
X172259204Y-97298011D01*
X172259196Y-97298009D01*
X172198649Y-97291500D01*
X172198638Y-97291500D01*
X171201362Y-97291500D01*
X171201350Y-97291500D01*
X171140803Y-97298009D01*
X171140795Y-97298011D01*
X170995353Y-97352260D01*
X170994156Y-97349051D01*
X170940954Y-97360600D01*
X170905427Y-97350168D01*
X170904647Y-97352260D01*
X170759204Y-97298011D01*
X170759196Y-97298009D01*
X170698649Y-97291500D01*
X170698638Y-97291500D01*
X169701362Y-97291500D01*
X169701350Y-97291500D01*
X169640803Y-97298009D01*
X169640795Y-97298011D01*
X169495353Y-97352260D01*
X169494156Y-97349051D01*
X169440954Y-97360600D01*
X169405427Y-97350168D01*
X169404647Y-97352260D01*
X169259204Y-97298011D01*
X169259196Y-97298009D01*
X169198649Y-97291500D01*
X169198638Y-97291500D01*
X168201362Y-97291500D01*
X168201350Y-97291500D01*
X168140803Y-97298009D01*
X168140795Y-97298011D01*
X167995353Y-97352260D01*
X167994156Y-97349051D01*
X167940954Y-97360600D01*
X167905427Y-97350168D01*
X167904647Y-97352260D01*
X167759204Y-97298011D01*
X167759196Y-97298009D01*
X167698649Y-97291500D01*
X167698638Y-97291500D01*
X166701362Y-97291500D01*
X166701350Y-97291500D01*
X166640803Y-97298009D01*
X166640795Y-97298011D01*
X166495353Y-97352260D01*
X166494156Y-97349051D01*
X166440954Y-97360600D01*
X166405427Y-97350168D01*
X166404647Y-97352260D01*
X166259204Y-97298011D01*
X166259196Y-97298009D01*
X166198649Y-97291500D01*
X166198638Y-97291500D01*
X165201362Y-97291500D01*
X165201350Y-97291500D01*
X165140803Y-97298009D01*
X165140795Y-97298011D01*
X164995353Y-97352260D01*
X164994156Y-97349051D01*
X164940954Y-97360600D01*
X164905427Y-97350168D01*
X164904647Y-97352260D01*
X164759204Y-97298011D01*
X164759196Y-97298009D01*
X164698649Y-97291500D01*
X164698638Y-97291500D01*
X163701362Y-97291500D01*
X163701350Y-97291500D01*
X163640803Y-97298009D01*
X163640795Y-97298011D01*
X163495353Y-97352260D01*
X163494156Y-97349051D01*
X163440954Y-97360600D01*
X163405427Y-97350168D01*
X163404647Y-97352260D01*
X163259204Y-97298011D01*
X163259196Y-97298009D01*
X163198649Y-97291500D01*
X163198638Y-97291500D01*
X162201362Y-97291500D01*
X162201350Y-97291500D01*
X162140803Y-97298009D01*
X162140795Y-97298011D01*
X161995353Y-97352260D01*
X161994156Y-97349051D01*
X161940954Y-97360600D01*
X161905427Y-97350168D01*
X161904647Y-97352260D01*
X161759204Y-97298011D01*
X161759196Y-97298009D01*
X161698649Y-97291500D01*
X161698638Y-97291500D01*
X160701362Y-97291500D01*
X160701350Y-97291500D01*
X160640803Y-97298009D01*
X160640795Y-97298011D01*
X160495353Y-97352260D01*
X160494156Y-97349051D01*
X160440954Y-97360600D01*
X160405427Y-97350168D01*
X160404647Y-97352260D01*
X160259204Y-97298011D01*
X160259196Y-97298009D01*
X160198649Y-97291500D01*
X160198638Y-97291500D01*
X159201362Y-97291500D01*
X159201350Y-97291500D01*
X159140803Y-97298009D01*
X159140795Y-97298011D01*
X158995353Y-97352260D01*
X158994156Y-97349051D01*
X158940954Y-97360600D01*
X158905427Y-97350168D01*
X158904647Y-97352260D01*
X158759204Y-97298011D01*
X158759196Y-97298009D01*
X158698649Y-97291500D01*
X158698638Y-97291500D01*
X157701362Y-97291500D01*
X157701350Y-97291500D01*
X157640803Y-97298009D01*
X157640800Y-97298010D01*
X157503532Y-97349209D01*
X157472437Y-97351432D01*
X157441568Y-97355871D01*
X157437344Y-97353942D01*
X157432717Y-97354273D01*
X157405356Y-97339333D01*
X157376988Y-97326377D01*
X157374478Y-97322472D01*
X157370405Y-97320248D01*
X157355460Y-97292879D01*
X157338604Y-97266651D01*
X157337698Y-97260352D01*
X157336379Y-97257936D01*
X157333500Y-97231153D01*
X157333500Y-97114594D01*
X157353502Y-97046473D01*
X157370405Y-97025499D01*
X157688930Y-96706974D01*
X158018071Y-96377833D01*
X158087400Y-96274075D01*
X158135155Y-96158785D01*
X158159500Y-96036394D01*
X158159500Y-95911607D01*
X158159500Y-95598852D01*
X169942000Y-95598852D01*
X169952255Y-95699229D01*
X169952257Y-95699241D01*
X170006152Y-95861884D01*
X170096109Y-96007728D01*
X170096114Y-96007734D01*
X170217265Y-96128885D01*
X170217271Y-96128890D01*
X170363115Y-96218847D01*
X170525758Y-96272742D01*
X170525770Y-96272744D01*
X170626147Y-96282999D01*
X170626147Y-96283000D01*
X170646000Y-96283000D01*
X170646000Y-95554000D01*
X169942000Y-95554000D01*
X169942000Y-95598852D01*
X158159500Y-95598852D01*
X158159500Y-95001147D01*
X169942000Y-95001147D01*
X169942000Y-95046000D01*
X170646000Y-95046000D01*
X170646000Y-94317000D01*
X170626147Y-94317000D01*
X170525770Y-94327255D01*
X170525758Y-94327257D01*
X170363115Y-94381152D01*
X170217271Y-94471109D01*
X170217265Y-94471114D01*
X170096114Y-94592265D01*
X170096109Y-94592271D01*
X170006152Y-94738115D01*
X169952257Y-94900758D01*
X169952255Y-94900770D01*
X169942000Y-95001147D01*
X158159500Y-95001147D01*
X158159500Y-94926054D01*
X158179502Y-94857933D01*
X158233158Y-94811440D01*
X158260917Y-94802475D01*
X158386831Y-94777430D01*
X158533968Y-94716483D01*
X158666389Y-94628003D01*
X158779003Y-94515389D01*
X158867483Y-94382968D01*
X158928430Y-94235831D01*
X158959500Y-94079630D01*
X158959500Y-93920370D01*
X158928430Y-93764169D01*
X158867483Y-93617032D01*
X158842404Y-93579498D01*
X158805734Y-93524615D01*
X158784520Y-93456862D01*
X158784500Y-93454615D01*
X158784500Y-89165499D01*
X158784499Y-89165495D01*
X158760155Y-89043107D01*
X158744900Y-89006279D01*
X158712401Y-88927817D01*
X158643072Y-88824059D01*
X156749941Y-86930929D01*
X156646183Y-86861600D01*
X156530893Y-86813845D01*
X156457194Y-86799185D01*
X156408504Y-86789500D01*
X156408502Y-86789500D01*
X151169394Y-86789500D01*
X151044606Y-86789500D01*
X151044603Y-86789500D01*
X150971568Y-86804028D01*
X150922215Y-86813845D01*
X150922213Y-86813845D01*
X150922212Y-86813846D01*
X150806923Y-86861601D01*
X150703171Y-86930926D01*
X150703164Y-86930931D01*
X149979501Y-87654595D01*
X149917189Y-87688621D01*
X149890406Y-87691500D01*
X149541350Y-87691500D01*
X149480803Y-87698009D01*
X149480795Y-87698011D01*
X149343797Y-87749110D01*
X149343792Y-87749112D01*
X149226738Y-87836738D01*
X149139112Y-87953792D01*
X149139110Y-87953797D01*
X149088011Y-88090795D01*
X149088009Y-88090803D01*
X149081500Y-88151350D01*
X149081500Y-90648649D01*
X149088009Y-90709196D01*
X149088011Y-90709204D01*
X149139110Y-90846202D01*
X149139111Y-90846204D01*
X149140804Y-90848466D01*
X149141790Y-90851111D01*
X149143432Y-90854118D01*
X149142999Y-90854354D01*
X149165611Y-90914988D01*
X149150517Y-90984361D01*
X149129028Y-91013066D01*
X148860168Y-91281928D01*
X148860167Y-91281929D01*
X148771931Y-91370164D01*
X148771926Y-91370171D01*
X148709983Y-91462876D01*
X148702600Y-91473925D01*
X148654845Y-91589215D01*
X148649685Y-91615155D01*
X148630500Y-91711603D01*
X148075500Y-91711603D01*
X148075500Y-86201500D01*
X148095502Y-86133379D01*
X148149158Y-86086886D01*
X148201500Y-86075500D01*
X203798500Y-86075500D01*
X203866621Y-86095502D01*
G37*
G04 #@! TD.AperFunction*
G04 #@! TA.AperFunction,Conductor*
G36*
X192310009Y-110570681D02*
G01*
X192403792Y-110640887D01*
X192403794Y-110640888D01*
X192403796Y-110640889D01*
X192424202Y-110648500D01*
X192540795Y-110691988D01*
X192540803Y-110691990D01*
X192601350Y-110698499D01*
X192601355Y-110698499D01*
X192601362Y-110698500D01*
X192601368Y-110698500D01*
X194198632Y-110698500D01*
X194198638Y-110698500D01*
X194198645Y-110698499D01*
X194198649Y-110698499D01*
X194259196Y-110691990D01*
X194259199Y-110691989D01*
X194259201Y-110691989D01*
X194354497Y-110656445D01*
X194398530Y-110648500D01*
X195297431Y-110648500D01*
X195365552Y-110668502D01*
X195412045Y-110722158D01*
X195421879Y-110754788D01*
X195423719Y-110766407D01*
X195487364Y-110962285D01*
X195487366Y-110962290D01*
X195580871Y-111145803D01*
X195701932Y-111312430D01*
X195701934Y-111312432D01*
X195701936Y-111312435D01*
X195847564Y-111458063D01*
X195847567Y-111458065D01*
X195847570Y-111458068D01*
X195863927Y-111469952D01*
X195863930Y-111469954D01*
X195907284Y-111526176D01*
X195913359Y-111596912D01*
X195880228Y-111659704D01*
X195818408Y-111694615D01*
X195803343Y-111697167D01*
X195790909Y-111698504D01*
X195790908Y-111698504D01*
X195654035Y-111749555D01*
X195654034Y-111749555D01*
X195537095Y-111837095D01*
X195449555Y-111954034D01*
X195449555Y-111954035D01*
X195398505Y-112090906D01*
X195392000Y-112151402D01*
X195392000Y-112746000D01*
X196388314Y-112746000D01*
X196379920Y-112754394D01*
X196327259Y-112845606D01*
X196300000Y-112947339D01*
X196300000Y-113052661D01*
X196327259Y-113154394D01*
X196379920Y-113245606D01*
X196388314Y-113254000D01*
X195392000Y-113254000D01*
X195392000Y-113689500D01*
X195371998Y-113757621D01*
X195318342Y-113804114D01*
X195266000Y-113815500D01*
X192234500Y-113815500D01*
X192166379Y-113795498D01*
X192119886Y-113741842D01*
X192108500Y-113689500D01*
X192108500Y-110671549D01*
X192128502Y-110603428D01*
X192182158Y-110556935D01*
X192252432Y-110546831D01*
X192310009Y-110570681D01*
G37*
G04 #@! TD.AperFunction*
G04 #@! TA.AperFunction,Conductor*
G36*
X186719970Y-105463502D02*
G01*
X186766463Y-105517158D01*
X186776567Y-105587432D01*
X186769905Y-105613533D01*
X186748505Y-105670907D01*
X186742000Y-105731402D01*
X186742000Y-105826000D01*
X187874000Y-105826000D01*
X187942121Y-105846002D01*
X187988614Y-105899658D01*
X188000000Y-105952000D01*
X188000000Y-106080000D01*
X188128000Y-106080000D01*
X188196121Y-106100002D01*
X188242614Y-106153658D01*
X188254000Y-106206000D01*
X188254000Y-109764000D01*
X188233998Y-109832121D01*
X188180342Y-109878614D01*
X188128000Y-109890000D01*
X188000000Y-109890000D01*
X188000000Y-110018000D01*
X187979998Y-110086121D01*
X187926342Y-110132614D01*
X187874000Y-110144000D01*
X186742000Y-110144000D01*
X186742000Y-110238597D01*
X186748505Y-110299093D01*
X186799555Y-110435964D01*
X186799555Y-110435965D01*
X186887095Y-110552904D01*
X187004034Y-110640444D01*
X187140906Y-110691494D01*
X187201402Y-110697999D01*
X187201415Y-110698000D01*
X187693906Y-110698000D01*
X187762027Y-110718002D01*
X187808520Y-110771658D01*
X187818624Y-110841932D01*
X187789130Y-110906512D01*
X187783001Y-110913095D01*
X186366501Y-112329595D01*
X186304189Y-112363621D01*
X186277406Y-112366500D01*
X185221330Y-112366500D01*
X185153209Y-112346498D01*
X185119394Y-112314561D01*
X185071241Y-112248285D01*
X184998068Y-112147570D01*
X184998065Y-112147567D01*
X184998063Y-112147564D01*
X184852435Y-112001936D01*
X184852432Y-112001934D01*
X184852430Y-112001932D01*
X184685803Y-111880871D01*
X184610034Y-111842265D01*
X184558422Y-111793519D01*
X184541356Y-111724604D01*
X184564257Y-111657402D01*
X184610034Y-111617735D01*
X184685803Y-111579129D01*
X184852430Y-111458068D01*
X184998068Y-111312430D01*
X185119129Y-111145803D01*
X185212634Y-110962290D01*
X185276280Y-110766408D01*
X185308500Y-110562981D01*
X185308500Y-110357019D01*
X185276280Y-110153592D01*
X185212634Y-109957710D01*
X185119129Y-109774197D01*
X184998068Y-109607570D01*
X184998065Y-109607567D01*
X184998063Y-109607564D01*
X184852435Y-109461936D01*
X184852432Y-109461934D01*
X184852430Y-109461932D01*
X184685803Y-109340871D01*
X184610034Y-109302265D01*
X184558422Y-109253519D01*
X184541356Y-109184604D01*
X184564257Y-109117402D01*
X184610034Y-109077735D01*
X184685803Y-109039129D01*
X184782882Y-108968597D01*
X186742000Y-108968597D01*
X186748505Y-109029093D01*
X186799555Y-109165964D01*
X186799555Y-109165965D01*
X186809681Y-109179491D01*
X186834492Y-109246011D01*
X186819401Y-109315385D01*
X186809681Y-109330509D01*
X186799555Y-109344034D01*
X186799555Y-109344035D01*
X186748505Y-109480906D01*
X186742000Y-109541402D01*
X186742000Y-109636000D01*
X187746000Y-109636000D01*
X187746000Y-108874000D01*
X186742000Y-108874000D01*
X186742000Y-108968597D01*
X184782882Y-108968597D01*
X184852430Y-108918068D01*
X184998068Y-108772430D01*
X185119129Y-108605803D01*
X185212634Y-108422290D01*
X185276280Y-108226408D01*
X185308500Y-108022981D01*
X185308500Y-107817019D01*
X185289744Y-107698597D01*
X186742000Y-107698597D01*
X186748505Y-107759093D01*
X186799555Y-107895964D01*
X186799555Y-107895965D01*
X186809681Y-107909491D01*
X186834492Y-107976011D01*
X186819401Y-108045385D01*
X186809681Y-108060509D01*
X186799555Y-108074034D01*
X186799555Y-108074035D01*
X186748505Y-108210906D01*
X186742000Y-108271402D01*
X186742000Y-108366000D01*
X187746000Y-108366000D01*
X187746000Y-107604000D01*
X186742000Y-107604000D01*
X186742000Y-107698597D01*
X185289744Y-107698597D01*
X185276280Y-107613592D01*
X185212634Y-107417710D01*
X185119129Y-107234197D01*
X184998068Y-107067570D01*
X184998065Y-107067567D01*
X184998063Y-107067564D01*
X184852435Y-106921936D01*
X184852432Y-106921934D01*
X184852430Y-106921932D01*
X184711959Y-106819874D01*
X184685439Y-106800606D01*
X184682043Y-106796202D01*
X184676988Y-106793894D01*
X184660601Y-106768396D01*
X184642085Y-106744384D01*
X184640811Y-106737602D01*
X184638604Y-106734168D01*
X184633500Y-106698670D01*
X184633500Y-106601328D01*
X184653502Y-106533207D01*
X184685440Y-106499391D01*
X184685795Y-106499133D01*
X184685803Y-106499129D01*
X184782882Y-106428597D01*
X186742000Y-106428597D01*
X186748505Y-106489093D01*
X186799555Y-106625964D01*
X186799555Y-106625965D01*
X186809681Y-106639491D01*
X186834492Y-106706011D01*
X186819401Y-106775385D01*
X186809681Y-106790509D01*
X186799555Y-106804034D01*
X186799555Y-106804035D01*
X186748505Y-106940906D01*
X186742000Y-107001402D01*
X186742000Y-107096000D01*
X187746000Y-107096000D01*
X187746000Y-106334000D01*
X186742000Y-106334000D01*
X186742000Y-106428597D01*
X184782882Y-106428597D01*
X184852430Y-106378068D01*
X184998068Y-106232430D01*
X185119129Y-106065803D01*
X185212634Y-105882290D01*
X185276280Y-105686408D01*
X185297918Y-105549787D01*
X185328331Y-105485636D01*
X185388599Y-105448109D01*
X185422367Y-105443500D01*
X186651849Y-105443500D01*
X186719970Y-105463502D01*
G37*
G04 #@! TD.AperFunction*
G04 #@! TA.AperFunction,Conductor*
G36*
X183171949Y-101338359D02*
G01*
X183189198Y-101338118D01*
X183222026Y-101352557D01*
X183225829Y-101354926D01*
X183314197Y-101419129D01*
X183394793Y-101460195D01*
X183399387Y-101463057D01*
X183419550Y-101485678D01*
X183441577Y-101506482D01*
X183442917Y-101511893D01*
X183446627Y-101516056D01*
X183451360Y-101545988D01*
X183458643Y-101575397D01*
X183456845Y-101580673D01*
X183457716Y-101586181D01*
X183445515Y-101613919D01*
X183435742Y-101642598D01*
X183431375Y-101646065D01*
X183429131Y-101651169D01*
X183389963Y-101682265D01*
X183321033Y-101717387D01*
X183314193Y-101720873D01*
X183147567Y-101841934D01*
X183147564Y-101841936D01*
X183001936Y-101987564D01*
X183001934Y-101987567D01*
X182880606Y-102154561D01*
X182824384Y-102197915D01*
X182778670Y-102206500D01*
X180886884Y-102206500D01*
X180818763Y-102186498D01*
X180797789Y-102169596D01*
X180681349Y-102053156D01*
X180551787Y-101923595D01*
X180517763Y-101861283D01*
X180522827Y-101790468D01*
X180565374Y-101733632D01*
X180631894Y-101708821D01*
X180640883Y-101708500D01*
X181956132Y-101708500D01*
X181956138Y-101708500D01*
X181956145Y-101708499D01*
X181956149Y-101708499D01*
X182016696Y-101701990D01*
X182016699Y-101701989D01*
X182016701Y-101701989D01*
X182153704Y-101650889D01*
X182164780Y-101642598D01*
X182270761Y-101563261D01*
X182358387Y-101446207D01*
X182358387Y-101446206D01*
X182358389Y-101446204D01*
X182369854Y-101415466D01*
X182412401Y-101358631D01*
X182478922Y-101333821D01*
X182487909Y-101333500D01*
X183155398Y-101333500D01*
X183171949Y-101338359D01*
G37*
G04 #@! TD.AperFunction*
G04 #@! TA.AperFunction,Conductor*
G36*
X175314000Y-90433450D02*
G01*
X175354575Y-90427025D01*
X175354582Y-90427023D01*
X175542902Y-90365834D01*
X175719339Y-90275935D01*
X175879534Y-90159546D01*
X175879537Y-90159544D01*
X176019544Y-90019537D01*
X176019546Y-90019534D01*
X176113564Y-89890131D01*
X176169786Y-89846777D01*
X176240522Y-89840702D01*
X176303314Y-89873833D01*
X176338225Y-89935653D01*
X176341500Y-89964192D01*
X176341500Y-89998649D01*
X176348009Y-90059196D01*
X176348011Y-90059204D01*
X176399110Y-90196202D01*
X176399112Y-90196207D01*
X176486738Y-90313261D01*
X176603792Y-90400887D01*
X176603794Y-90400888D01*
X176603796Y-90400889D01*
X176662875Y-90422924D01*
X176740795Y-90451988D01*
X176740803Y-90451990D01*
X176801350Y-90458499D01*
X176801355Y-90458499D01*
X176801362Y-90458500D01*
X176801368Y-90458500D01*
X178398632Y-90458500D01*
X178398638Y-90458500D01*
X178398645Y-90458499D01*
X178398649Y-90458499D01*
X178459196Y-90451990D01*
X178459199Y-90451989D01*
X178459201Y-90451989D01*
X178596204Y-90400889D01*
X178609563Y-90390889D01*
X178713261Y-90313261D01*
X178800887Y-90196207D01*
X178800887Y-90196206D01*
X178800889Y-90196204D01*
X178851989Y-90059201D01*
X178853886Y-90041562D01*
X178858499Y-89998649D01*
X178858500Y-89998632D01*
X178858500Y-89533500D01*
X178878502Y-89465379D01*
X178932158Y-89418886D01*
X178984500Y-89407500D01*
X181016000Y-89407500D01*
X181084121Y-89427502D01*
X181130614Y-89481158D01*
X181142000Y-89533500D01*
X181142000Y-89646000D01*
X185658000Y-89646000D01*
X185658000Y-89533500D01*
X185678002Y-89465379D01*
X185731658Y-89418886D01*
X185784000Y-89407500D01*
X186415500Y-89407500D01*
X186483621Y-89427502D01*
X186530114Y-89481158D01*
X186541500Y-89533500D01*
X186541500Y-90500544D01*
X186552112Y-90604425D01*
X186607885Y-90772738D01*
X186700970Y-90923652D01*
X186700975Y-90923658D01*
X186826341Y-91049024D01*
X186826347Y-91049029D01*
X186826348Y-91049030D01*
X186977262Y-91142115D01*
X187145574Y-91197887D01*
X187249455Y-91208500D01*
X187665500Y-91208499D01*
X187733620Y-91228501D01*
X187780114Y-91282156D01*
X187791500Y-91334499D01*
X187791500Y-92799331D01*
X187800287Y-92843504D01*
X187829120Y-92988460D01*
X187830256Y-92994168D01*
X187875543Y-93103501D01*
X187889938Y-93138254D01*
X187906279Y-93177704D01*
X188016647Y-93342881D01*
X190916647Y-96242881D01*
X191057119Y-96383353D01*
X191222296Y-96493721D01*
X191405831Y-96569744D01*
X191600671Y-96608500D01*
X191600672Y-96608500D01*
X193508193Y-96608500D01*
X193576314Y-96628502D01*
X193622807Y-96682158D01*
X193632911Y-96752432D01*
X193627796Y-96774138D01*
X193627256Y-96775766D01*
X193627255Y-96775770D01*
X193617000Y-96876147D01*
X193617000Y-96896000D01*
X194474000Y-96896000D01*
X194542121Y-96916002D01*
X194588614Y-96969658D01*
X194600000Y-97022000D01*
X194600000Y-97150000D01*
X194728000Y-97150000D01*
X194796121Y-97170002D01*
X194842614Y-97223658D01*
X194854000Y-97276000D01*
X194854000Y-98108000D01*
X194898853Y-98108000D01*
X194898852Y-98107999D01*
X194999229Y-98097744D01*
X194999241Y-98097742D01*
X195161884Y-98043847D01*
X195237894Y-97996964D01*
X195306373Y-97978227D01*
X195374112Y-97999486D01*
X195419604Y-98053993D01*
X195423874Y-98065269D01*
X195487826Y-98262093D01*
X195487829Y-98262099D01*
X195581300Y-98445545D01*
X195702315Y-98612107D01*
X195702317Y-98612110D01*
X195847889Y-98757682D01*
X195847892Y-98757684D01*
X196014455Y-98878700D01*
X196090511Y-98917453D01*
X196142126Y-98966202D01*
X196159192Y-99035117D01*
X196136291Y-99102318D01*
X196090511Y-99141987D01*
X196014193Y-99180872D01*
X195847567Y-99301934D01*
X195847564Y-99301936D01*
X195701936Y-99447564D01*
X195701934Y-99447567D01*
X195580873Y-99614193D01*
X195487367Y-99797708D01*
X195487364Y-99797714D01*
X195423721Y-99993587D01*
X195423720Y-99993590D01*
X195423720Y-99993592D01*
X195405109Y-100111101D01*
X195401290Y-100135211D01*
X195370877Y-100199364D01*
X195310609Y-100236891D01*
X195276841Y-100241500D01*
X194398530Y-100241500D01*
X194354497Y-100233555D01*
X194259204Y-100198011D01*
X194259196Y-100198009D01*
X194198649Y-100191500D01*
X194198638Y-100191500D01*
X192601362Y-100191500D01*
X192601350Y-100191500D01*
X192540803Y-100198009D01*
X192540795Y-100198011D01*
X192403797Y-100249110D01*
X192403792Y-100249113D01*
X192310009Y-100319318D01*
X192243488Y-100344129D01*
X192174114Y-100329037D01*
X192123912Y-100278835D01*
X192108500Y-100218450D01*
X192108500Y-100097937D01*
X192108499Y-100097933D01*
X192102247Y-100066500D01*
X192069744Y-99903096D01*
X192005961Y-99749111D01*
X191993722Y-99719562D01*
X191883354Y-99554384D01*
X189752821Y-97423852D01*
X193617000Y-97423852D01*
X193627255Y-97524229D01*
X193627257Y-97524241D01*
X193681152Y-97686884D01*
X193771109Y-97832728D01*
X193771114Y-97832734D01*
X193892265Y-97953885D01*
X193892271Y-97953890D01*
X194038115Y-98043847D01*
X194200758Y-98097742D01*
X194200770Y-98097744D01*
X194301147Y-98107999D01*
X194301147Y-98108000D01*
X194346000Y-98108000D01*
X194346000Y-97404000D01*
X193617000Y-97404000D01*
X193617000Y-97423852D01*
X189752821Y-97423852D01*
X187802969Y-95474000D01*
X183752064Y-91423095D01*
X183718038Y-91360783D01*
X183723103Y-91289968D01*
X183765650Y-91233132D01*
X183832170Y-91208321D01*
X183841159Y-91208000D01*
X184950517Y-91208000D01*
X184950516Y-91207999D01*
X185054318Y-91197394D01*
X185054321Y-91197393D01*
X185222525Y-91141657D01*
X185373339Y-91048634D01*
X185373345Y-91048629D01*
X185498629Y-90923345D01*
X185498634Y-90923339D01*
X185591657Y-90772525D01*
X185647393Y-90604321D01*
X185647394Y-90604318D01*
X185657999Y-90500516D01*
X185658000Y-90500516D01*
X185658000Y-90154000D01*
X181142000Y-90154000D01*
X181142000Y-90500516D01*
X181152605Y-90604318D01*
X181152606Y-90604321D01*
X181208342Y-90772525D01*
X181301365Y-90923339D01*
X181301370Y-90923345D01*
X181354430Y-90976405D01*
X181388456Y-91038717D01*
X181383391Y-91109532D01*
X181340844Y-91166368D01*
X181274324Y-91191179D01*
X181265335Y-91191500D01*
X174369925Y-91191500D01*
X174301804Y-91171498D01*
X174280830Y-91154595D01*
X173565405Y-90439170D01*
X173531379Y-90376858D01*
X173528500Y-90350075D01*
X173528500Y-89993947D01*
X173548502Y-89925826D01*
X173552564Y-89919886D01*
X173560836Y-89908500D01*
X173596366Y-89859598D01*
X173678016Y-89699350D01*
X173726762Y-89647738D01*
X173795677Y-89630672D01*
X173862879Y-89653573D01*
X173902548Y-89699354D01*
X173984062Y-89859336D01*
X174100453Y-90019534D01*
X174100455Y-90019537D01*
X174240462Y-90159544D01*
X174240465Y-90159546D01*
X174400660Y-90275935D01*
X174577097Y-90365834D01*
X174765417Y-90427023D01*
X174765424Y-90427025D01*
X174806000Y-90433451D01*
X174806000Y-89130702D01*
X174867007Y-89165925D01*
X174994174Y-89200000D01*
X175125826Y-89200000D01*
X175252993Y-89165925D01*
X175314000Y-89130702D01*
X175314000Y-90433450D01*
G37*
G04 #@! TD.AperFunction*
G04 #@! TA.AperFunction,Conductor*
G36*
X199318197Y-96248502D02*
G01*
X199339171Y-96265405D01*
X199880171Y-96806405D01*
X199914197Y-96868717D01*
X199909132Y-96939532D01*
X199866585Y-96996368D01*
X199800065Y-97021179D01*
X199791076Y-97021500D01*
X199101350Y-97021500D01*
X199040803Y-97028009D01*
X199040795Y-97028011D01*
X198903797Y-97079110D01*
X198903792Y-97079112D01*
X198786738Y-97166738D01*
X198699112Y-97283792D01*
X198699110Y-97283797D01*
X198648011Y-97420795D01*
X198648009Y-97420803D01*
X198641500Y-97481350D01*
X198641500Y-98260076D01*
X198621498Y-98328197D01*
X198604595Y-98349171D01*
X197699171Y-99254595D01*
X197671802Y-99269539D01*
X197645574Y-99286396D01*
X197639275Y-99287301D01*
X197636859Y-99288621D01*
X197610076Y-99291500D01*
X197579012Y-99291500D01*
X197510891Y-99271498D01*
X197504952Y-99267436D01*
X197385809Y-99180874D01*
X197357598Y-99166500D01*
X197309486Y-99141985D01*
X197257873Y-99093239D01*
X197240807Y-99024324D01*
X197263708Y-98957122D01*
X197309488Y-98917453D01*
X197385545Y-98878699D01*
X197552107Y-98757684D01*
X197552110Y-98757682D01*
X197697682Y-98612110D01*
X197697684Y-98612107D01*
X197818699Y-98445545D01*
X197912170Y-98262099D01*
X197912173Y-98262093D01*
X197975791Y-98066295D01*
X197984074Y-98014000D01*
X197011686Y-98014000D01*
X197020080Y-98005606D01*
X197072741Y-97914394D01*
X197100000Y-97812661D01*
X197100000Y-97707339D01*
X197072741Y-97605606D01*
X197020080Y-97514394D01*
X197011686Y-97506000D01*
X197984074Y-97506000D01*
X197975791Y-97453704D01*
X197912173Y-97257906D01*
X197912170Y-97257900D01*
X197818699Y-97074454D01*
X197697684Y-96907892D01*
X197697682Y-96907889D01*
X197552110Y-96762317D01*
X197552107Y-96762315D01*
X197385542Y-96641298D01*
X197309487Y-96602545D01*
X197304677Y-96598002D01*
X197298333Y-96596124D01*
X197279186Y-96573927D01*
X197257872Y-96553797D01*
X197256281Y-96547373D01*
X197251960Y-96542364D01*
X197247852Y-96513336D01*
X197240807Y-96484882D01*
X197242941Y-96478619D01*
X197242014Y-96472068D01*
X197254251Y-96445430D01*
X197263708Y-96417680D01*
X197269576Y-96412070D01*
X197271652Y-96407553D01*
X197286119Y-96396257D01*
X197298808Y-96384129D01*
X197303990Y-96380814D01*
X197385803Y-96339129D01*
X197507970Y-96250369D01*
X197511129Y-96248350D01*
X197541765Y-96239428D01*
X197571819Y-96228705D01*
X197579012Y-96228500D01*
X199250076Y-96228500D01*
X199318197Y-96248502D01*
G37*
G04 #@! TD.AperFunction*
G04 #@! TA.AperFunction,Conductor*
G36*
X180510161Y-98253502D02*
G01*
X180556654Y-98307158D01*
X180566758Y-98377432D01*
X180537264Y-98442012D01*
X180490259Y-98475908D01*
X180479843Y-98480222D01*
X180457755Y-98489371D01*
X180457745Y-98489377D01*
X180343746Y-98555194D01*
X180343739Y-98555199D01*
X180237402Y-98636794D01*
X180237381Y-98636813D01*
X180144313Y-98729881D01*
X180144294Y-98729902D01*
X180062699Y-98836239D01*
X180062694Y-98836246D01*
X179996877Y-98950245D01*
X179996871Y-98950255D01*
X179945570Y-99074107D01*
X179944246Y-99078009D01*
X179943096Y-99077618D01*
X179908872Y-99133747D01*
X179845007Y-99164759D01*
X179824131Y-99166500D01*
X177659500Y-99166500D01*
X177591379Y-99146498D01*
X177544886Y-99092842D01*
X177533500Y-99040500D01*
X177533500Y-98706144D01*
X177553502Y-98638023D01*
X177607158Y-98591530D01*
X177677432Y-98581426D01*
X177703525Y-98588086D01*
X177740799Y-98601989D01*
X177740802Y-98601989D01*
X177740803Y-98601990D01*
X177801350Y-98608499D01*
X177801355Y-98608499D01*
X177801362Y-98608500D01*
X177801368Y-98608500D01*
X179398632Y-98608500D01*
X179398638Y-98608500D01*
X179398645Y-98608499D01*
X179398649Y-98608499D01*
X179459196Y-98601990D01*
X179459199Y-98601989D01*
X179459201Y-98601989D01*
X179596204Y-98550889D01*
X179713261Y-98463261D01*
X179777512Y-98377432D01*
X179800887Y-98346207D01*
X179800887Y-98346206D01*
X179800889Y-98346204D01*
X179812354Y-98315466D01*
X179854901Y-98258631D01*
X179921422Y-98233821D01*
X179930409Y-98233500D01*
X180442040Y-98233500D01*
X180510161Y-98253502D01*
G37*
G04 #@! TD.AperFunction*
G04 #@! TA.AperFunction,Conductor*
G36*
X173279499Y-92998307D02*
G01*
X173422297Y-93093722D01*
X173529809Y-93138254D01*
X173605831Y-93169744D01*
X173800671Y-93208500D01*
X182632811Y-93208500D01*
X182700932Y-93228502D01*
X182721906Y-93245405D01*
X183366281Y-93889780D01*
X183400307Y-93952092D01*
X183395242Y-94022907D01*
X183352695Y-94079743D01*
X183334393Y-94091140D01*
X183314455Y-94101299D01*
X183147892Y-94222315D01*
X183147889Y-94222317D01*
X183002317Y-94367889D01*
X183002315Y-94367892D01*
X182881300Y-94534454D01*
X182787829Y-94717900D01*
X182787826Y-94717906D01*
X182724208Y-94913704D01*
X182715926Y-94966000D01*
X183688314Y-94966000D01*
X183679920Y-94974394D01*
X183627259Y-95065606D01*
X183600000Y-95167339D01*
X183600000Y-95272661D01*
X183627259Y-95374394D01*
X183679920Y-95465606D01*
X183688314Y-95474000D01*
X182715926Y-95474000D01*
X182724208Y-95526295D01*
X182787826Y-95722093D01*
X182787829Y-95722099D01*
X182881300Y-95905545D01*
X183002315Y-96072107D01*
X183002317Y-96072110D01*
X183147889Y-96217682D01*
X183147892Y-96217684D01*
X183314455Y-96338700D01*
X183390511Y-96377453D01*
X183442126Y-96426202D01*
X183459192Y-96495117D01*
X183436291Y-96562318D01*
X183390511Y-96601987D01*
X183314193Y-96640872D01*
X183147567Y-96761934D01*
X183147564Y-96761936D01*
X183001936Y-96907564D01*
X183001934Y-96907567D01*
X182996853Y-96914561D01*
X182940631Y-96957915D01*
X182894917Y-96966500D01*
X179989500Y-96966500D01*
X179921379Y-96946498D01*
X179874886Y-96892842D01*
X179863500Y-96840500D01*
X179863500Y-96234181D01*
X179863500Y-96234174D01*
X179846002Y-96101268D01*
X179811927Y-95974101D01*
X179760629Y-95850257D01*
X179694803Y-95736243D01*
X179666483Y-95699336D01*
X179613205Y-95629902D01*
X179613186Y-95629881D01*
X179520118Y-95536813D01*
X179520097Y-95536794D01*
X179413760Y-95455199D01*
X179413753Y-95455194D01*
X179299754Y-95389377D01*
X179299744Y-95389371D01*
X179175894Y-95338071D01*
X179048738Y-95303999D01*
X179048725Y-95303996D01*
X178915828Y-95286500D01*
X178915826Y-95286500D01*
X178284174Y-95286500D01*
X178284171Y-95286500D01*
X178151274Y-95303996D01*
X178151261Y-95303999D01*
X178024105Y-95338071D01*
X177900255Y-95389371D01*
X177900245Y-95389377D01*
X177786246Y-95455194D01*
X177786239Y-95455199D01*
X177679902Y-95536794D01*
X177679881Y-95536813D01*
X177587100Y-95629595D01*
X177524788Y-95663621D01*
X177498005Y-95666500D01*
X174014595Y-95666500D01*
X173946474Y-95646498D01*
X173925500Y-95629595D01*
X173445405Y-95149500D01*
X173411379Y-95087188D01*
X173408500Y-95060405D01*
X173408500Y-95001119D01*
X173398247Y-94900770D01*
X173398236Y-94900664D01*
X173344302Y-94737899D01*
X173254285Y-94591960D01*
X173254284Y-94591959D01*
X173254279Y-94591953D01*
X173133038Y-94470712D01*
X173131347Y-94469375D01*
X173130488Y-94468162D01*
X173127851Y-94465525D01*
X173128301Y-94465074D01*
X173090320Y-94411433D01*
X173083500Y-94370542D01*
X173083500Y-93103074D01*
X173103502Y-93034953D01*
X173157158Y-92988460D01*
X173227432Y-92978356D01*
X173279499Y-92998307D01*
G37*
G04 #@! TD.AperFunction*
M02*
